G04 #@! TF.GenerationSoftware,KiCad,Pcbnew,(5.0.0)*
G04 #@! TF.CreationDate,2019-01-30T21:46:38-08:00*
G04 #@! TF.ProjectId,Targaryen_coaster,54617267617279656E5F636F61737465,rev?*
G04 #@! TF.SameCoordinates,Original*
G04 #@! TF.FileFunction,Other,Fab,Top*
%FSLAX46Y46*%
G04 Gerber Fmt 4.6, Leading zero omitted, Abs format (unit mm)*
G04 Created by KiCad (PCBNEW (5.0.0)) date 01/30/19 21:46:38*
%MOMM*%
%LPD*%
G01*
G04 APERTURE LIST*
%ADD10C,0.150000*%
G04 APERTURE END LIST*
G04 #@! TO.C,REF\002A\002A*
D10*
X129771428Y-107854761D02*
X129676190Y-107902380D01*
X129485714Y-107902380D01*
X129390476Y-107854761D01*
X129342857Y-107807142D01*
X129295238Y-107711904D01*
X129295238Y-107426190D01*
X129342857Y-107330952D01*
X129390476Y-107283333D01*
X129485714Y-107235714D01*
X129676190Y-107235714D01*
X129771428Y-107283333D01*
X130200000Y-107902380D02*
X130200000Y-107235714D01*
X130200000Y-106902380D02*
X130152380Y-106950000D01*
X130200000Y-106997619D01*
X130247619Y-106950000D01*
X130200000Y-106902380D01*
X130200000Y-106997619D01*
X130676190Y-107902380D02*
X130676190Y-107235714D01*
X130676190Y-107426190D02*
X130723809Y-107330952D01*
X130771428Y-107283333D01*
X130866666Y-107235714D01*
X130961904Y-107235714D01*
X131723809Y-107854761D02*
X131628571Y-107902380D01*
X131438095Y-107902380D01*
X131342857Y-107854761D01*
X131295238Y-107807142D01*
X131247619Y-107711904D01*
X131247619Y-107426190D01*
X131295238Y-107330952D01*
X131342857Y-107283333D01*
X131438095Y-107235714D01*
X131628571Y-107235714D01*
X131723809Y-107283333D01*
X132295238Y-107902380D02*
X132200000Y-107854761D01*
X132152380Y-107759523D01*
X132152380Y-106902380D01*
X133057142Y-107854761D02*
X132961904Y-107902380D01*
X132771428Y-107902380D01*
X132676190Y-107854761D01*
X132628571Y-107759523D01*
X132628571Y-107378571D01*
X132676190Y-107283333D01*
X132771428Y-107235714D01*
X132961904Y-107235714D01*
X133057142Y-107283333D01*
X133104761Y-107378571D01*
X133104761Y-107473809D01*
X132628571Y-107569047D01*
X133295238Y-107997619D02*
X134057142Y-107997619D01*
X134723809Y-107854761D02*
X134628571Y-107902380D01*
X134438095Y-107902380D01*
X134342857Y-107854761D01*
X134295238Y-107807142D01*
X134247619Y-107711904D01*
X134247619Y-107426190D01*
X134295238Y-107330952D01*
X134342857Y-107283333D01*
X134438095Y-107235714D01*
X134628571Y-107235714D01*
X134723809Y-107283333D01*
X135295238Y-107902380D02*
X135200000Y-107854761D01*
X135152380Y-107807142D01*
X135104761Y-107711904D01*
X135104761Y-107426190D01*
X135152380Y-107330952D01*
X135200000Y-107283333D01*
X135295238Y-107235714D01*
X135438095Y-107235714D01*
X135533333Y-107283333D01*
X135580952Y-107330952D01*
X135628571Y-107426190D01*
X135628571Y-107711904D01*
X135580952Y-107807142D01*
X135533333Y-107854761D01*
X135438095Y-107902380D01*
X135295238Y-107902380D01*
X136057142Y-107235714D02*
X136057142Y-107902380D01*
X136057142Y-107330952D02*
X136104761Y-107283333D01*
X136200000Y-107235714D01*
X136342857Y-107235714D01*
X136438095Y-107283333D01*
X136485714Y-107378571D01*
X136485714Y-107902380D01*
X137390476Y-107854761D02*
X137295238Y-107902380D01*
X137104761Y-107902380D01*
X137009523Y-107854761D01*
X136961904Y-107807142D01*
X136914285Y-107711904D01*
X136914285Y-107426190D01*
X136961904Y-107330952D01*
X137009523Y-107283333D01*
X137104761Y-107235714D01*
X137295238Y-107235714D01*
X137390476Y-107283333D01*
X138200000Y-107854761D02*
X138104761Y-107902380D01*
X137914285Y-107902380D01*
X137819047Y-107854761D01*
X137771428Y-107759523D01*
X137771428Y-107378571D01*
X137819047Y-107283333D01*
X137914285Y-107235714D01*
X138104761Y-107235714D01*
X138200000Y-107283333D01*
X138247619Y-107378571D01*
X138247619Y-107473809D01*
X137771428Y-107569047D01*
X138676190Y-107235714D02*
X138676190Y-107902380D01*
X138676190Y-107330952D02*
X138723809Y-107283333D01*
X138819047Y-107235714D01*
X138961904Y-107235714D01*
X139057142Y-107283333D01*
X139104761Y-107378571D01*
X139104761Y-107902380D01*
X139438095Y-107235714D02*
X139819047Y-107235714D01*
X139580952Y-106902380D02*
X139580952Y-107759523D01*
X139628571Y-107854761D01*
X139723809Y-107902380D01*
X139819047Y-107902380D01*
X140152380Y-107902380D02*
X140152380Y-107235714D01*
X140152380Y-107426190D02*
X140200000Y-107330952D01*
X140247619Y-107283333D01*
X140342857Y-107235714D01*
X140438095Y-107235714D01*
X140771428Y-107902380D02*
X140771428Y-107235714D01*
X140771428Y-106902380D02*
X140723809Y-106950000D01*
X140771428Y-106997619D01*
X140819047Y-106950000D01*
X140771428Y-106902380D01*
X140771428Y-106997619D01*
X141676190Y-107854761D02*
X141580952Y-107902380D01*
X141390476Y-107902380D01*
X141295238Y-107854761D01*
X141247619Y-107807142D01*
X141200000Y-107711904D01*
X141200000Y-107426190D01*
X141247619Y-107330952D01*
X141295238Y-107283333D01*
X141390476Y-107235714D01*
X141580952Y-107235714D01*
X141676190Y-107283333D01*
X141866666Y-107997619D02*
X142628571Y-107997619D01*
X142866666Y-107902380D02*
X142866666Y-107235714D01*
X142866666Y-107426190D02*
X142914285Y-107330952D01*
X142961904Y-107283333D01*
X143057142Y-107235714D01*
X143152380Y-107235714D01*
X144009523Y-107902380D02*
X143438095Y-107902380D01*
X143723809Y-107902380D02*
X143723809Y-106902380D01*
X143628571Y-107045238D01*
X143533333Y-107140476D01*
X143438095Y-107188095D01*
X144914285Y-106902380D02*
X144438095Y-106902380D01*
X144390476Y-107378571D01*
X144438095Y-107330952D01*
X144533333Y-107283333D01*
X144771428Y-107283333D01*
X144866666Y-107330952D01*
X144914285Y-107378571D01*
X144961904Y-107473809D01*
X144961904Y-107711904D01*
X144914285Y-107807142D01*
X144866666Y-107854761D01*
X144771428Y-107902380D01*
X144533333Y-107902380D01*
X144438095Y-107854761D01*
X144390476Y-107807142D01*
X145580952Y-106902380D02*
X145676190Y-106902380D01*
X145771428Y-106950000D01*
X145819047Y-106997619D01*
X145866666Y-107092857D01*
X145914285Y-107283333D01*
X145914285Y-107521428D01*
X145866666Y-107711904D01*
X145819047Y-107807142D01*
X145771428Y-107854761D01*
X145676190Y-107902380D01*
X145580952Y-107902380D01*
X145485714Y-107854761D01*
X145438095Y-107807142D01*
X145390476Y-107711904D01*
X145342857Y-107521428D01*
X145342857Y-107283333D01*
X145390476Y-107092857D01*
X145438095Y-106997619D01*
X145485714Y-106950000D01*
X145580952Y-106902380D01*
X146533333Y-106902380D02*
X146628571Y-106902380D01*
X146723809Y-106950000D01*
X146771428Y-106997619D01*
X146819047Y-107092857D01*
X146866666Y-107283333D01*
X146866666Y-107521428D01*
X146819047Y-107711904D01*
X146771428Y-107807142D01*
X146723809Y-107854761D01*
X146628571Y-107902380D01*
X146533333Y-107902380D01*
X146438095Y-107854761D01*
X146390476Y-107807142D01*
X146342857Y-107711904D01*
X146295238Y-107521428D01*
X146295238Y-107283333D01*
X146342857Y-107092857D01*
X146390476Y-106997619D01*
X146438095Y-106950000D01*
X146533333Y-106902380D01*
X147057142Y-107997619D02*
X147819047Y-107997619D01*
X147914285Y-107235714D02*
X148295238Y-107235714D01*
X148057142Y-106902380D02*
X148057142Y-107759523D01*
X148104761Y-107854761D01*
X148200000Y-107902380D01*
X148295238Y-107902380D01*
X149104761Y-106902380D02*
X148628571Y-106902380D01*
X148580952Y-107378571D01*
X148628571Y-107330952D01*
X148723809Y-107283333D01*
X148961904Y-107283333D01*
X149057142Y-107330952D01*
X149104761Y-107378571D01*
X149152380Y-107473809D01*
X149152380Y-107711904D01*
X149104761Y-107807142D01*
X149057142Y-107854761D01*
X148961904Y-107902380D01*
X148723809Y-107902380D01*
X148628571Y-107854761D01*
X148580952Y-107807142D01*
X149771428Y-106902380D02*
X149866666Y-106902380D01*
X149961904Y-106950000D01*
X150009523Y-106997619D01*
X150057142Y-107092857D01*
X150104761Y-107283333D01*
X150104761Y-107521428D01*
X150057142Y-107711904D01*
X150009523Y-107807142D01*
X149961904Y-107854761D01*
X149866666Y-107902380D01*
X149771428Y-107902380D01*
X149676190Y-107854761D01*
X149628571Y-107807142D01*
X149580952Y-107711904D01*
X149533333Y-107521428D01*
X149533333Y-107283333D01*
X149580952Y-107092857D01*
X149628571Y-106997619D01*
X149676190Y-106950000D01*
X149771428Y-106902380D01*
G04 #@! TD*
M02*
