G04 #@! TF.GenerationSoftware,KiCad,Pcbnew,(5.0.0)*
G04 #@! TF.CreationDate,2019-01-30T21:46:38-08:00*
G04 #@! TF.ProjectId,Targaryen_coaster,54617267617279656E5F636F61737465,rev?*
G04 #@! TF.SameCoordinates,Original*
G04 #@! TF.FileFunction,Legend,Top*
G04 #@! TF.FilePolarity,Positive*
%FSLAX46Y46*%
G04 Gerber Fmt 4.6, Leading zero omitted, Abs format (unit mm)*
G04 Created by KiCad (PCBNEW (5.0.0)) date 01/30/19 21:46:38*
%MOMM*%
%LPD*%
G01*
G04 APERTURE LIST*
%ADD10C,0.010000*%
%ADD11C,0.150000*%
G04 APERTURE END LIST*
D10*
G04 #@! TO.C,G\002A\002A\002A*
G36*
X131565550Y-79222767D02*
X131751248Y-79771705D01*
X131997354Y-80111767D01*
X132223052Y-80305268D01*
X132463267Y-80406935D01*
X132808001Y-80443152D01*
X133130950Y-80444093D01*
X133642632Y-80407366D01*
X134134695Y-80294653D01*
X134707187Y-80080240D01*
X134937500Y-79979797D01*
X135723512Y-79644576D01*
X136340226Y-79422465D01*
X136838179Y-79299336D01*
X137267906Y-79261060D01*
X137477500Y-79269696D01*
X137814114Y-79322794D01*
X137961190Y-79432330D01*
X137985500Y-79565500D01*
X137918497Y-79758103D01*
X137731500Y-79772886D01*
X137466598Y-79736866D01*
X137055434Y-79693808D01*
X136744638Y-79666224D01*
X136411432Y-79648562D01*
X136122946Y-79668711D01*
X135817410Y-79743915D01*
X135433058Y-79891416D01*
X134908121Y-80128458D01*
X134644144Y-80252588D01*
X133822040Y-80611209D01*
X133160632Y-80824755D01*
X132616816Y-80899750D01*
X132147492Y-80842719D01*
X131762500Y-80688828D01*
X131263751Y-80363219D01*
X130841555Y-79970315D01*
X130546528Y-79566858D01*
X130429287Y-79209589D01*
X130429000Y-79193967D01*
X130429000Y-78810483D01*
X130645421Y-79124491D01*
X130923599Y-79462497D01*
X131177630Y-79657298D01*
X131348349Y-79673743D01*
X131415568Y-79519322D01*
X131457492Y-79215081D01*
X131460896Y-79145254D01*
X131476792Y-78676500D01*
X131565550Y-79222767D01*
X131565550Y-79222767D01*
G37*
X131565550Y-79222767D02*
X131751248Y-79771705D01*
X131997354Y-80111767D01*
X132223052Y-80305268D01*
X132463267Y-80406935D01*
X132808001Y-80443152D01*
X133130950Y-80444093D01*
X133642632Y-80407366D01*
X134134695Y-80294653D01*
X134707187Y-80080240D01*
X134937500Y-79979797D01*
X135723512Y-79644576D01*
X136340226Y-79422465D01*
X136838179Y-79299336D01*
X137267906Y-79261060D01*
X137477500Y-79269696D01*
X137814114Y-79322794D01*
X137961190Y-79432330D01*
X137985500Y-79565500D01*
X137918497Y-79758103D01*
X137731500Y-79772886D01*
X137466598Y-79736866D01*
X137055434Y-79693808D01*
X136744638Y-79666224D01*
X136411432Y-79648562D01*
X136122946Y-79668711D01*
X135817410Y-79743915D01*
X135433058Y-79891416D01*
X134908121Y-80128458D01*
X134644144Y-80252588D01*
X133822040Y-80611209D01*
X133160632Y-80824755D01*
X132616816Y-80899750D01*
X132147492Y-80842719D01*
X131762500Y-80688828D01*
X131263751Y-80363219D01*
X130841555Y-79970315D01*
X130546528Y-79566858D01*
X130429287Y-79209589D01*
X130429000Y-79193967D01*
X130429000Y-78810483D01*
X130645421Y-79124491D01*
X130923599Y-79462497D01*
X131177630Y-79657298D01*
X131348349Y-79673743D01*
X131415568Y-79519322D01*
X131457492Y-79215081D01*
X131460896Y-79145254D01*
X131476792Y-78676500D01*
X131565550Y-79222767D01*
G36*
X118745000Y-90741500D02*
X118681500Y-90805000D01*
X118618000Y-90741500D01*
X118681500Y-90678000D01*
X118745000Y-90741500D01*
X118745000Y-90741500D01*
G37*
X118745000Y-90741500D02*
X118681500Y-90805000D01*
X118618000Y-90741500D01*
X118681500Y-90678000D01*
X118745000Y-90741500D01*
G36*
X149203534Y-78737022D02*
X149608145Y-78846018D01*
X150164427Y-79041210D01*
X150809953Y-79295695D01*
X151482295Y-79582566D01*
X152119025Y-79874922D01*
X152657716Y-80145858D01*
X153035941Y-80368470D01*
X153103887Y-80417927D01*
X153367954Y-80690417D01*
X153396238Y-80892867D01*
X153192678Y-81007194D01*
X152971500Y-81026000D01*
X152677671Y-81055982D01*
X152530829Y-81129705D01*
X152527000Y-81145347D01*
X152633810Y-81264905D01*
X152912145Y-81449671D01*
X153298855Y-81667666D01*
X153730794Y-81886910D01*
X154144815Y-82075422D01*
X154477770Y-82201223D01*
X154666512Y-82232333D01*
X154670661Y-82230972D01*
X154782391Y-82093529D01*
X154791544Y-81777076D01*
X154777163Y-81652475D01*
X154746655Y-81432582D01*
X154742603Y-81294307D01*
X154793155Y-81251369D01*
X154926457Y-81317487D01*
X155170657Y-81506381D01*
X155553902Y-81831770D01*
X156083000Y-82288953D01*
X156624037Y-82756294D01*
X157004519Y-83080970D01*
X157257583Y-83284627D01*
X157416366Y-83388916D01*
X157514006Y-83415483D01*
X157583639Y-83385978D01*
X157658403Y-83322047D01*
X157661027Y-83319861D01*
X157796434Y-83095455D01*
X157881129Y-82751391D01*
X157885659Y-82707108D01*
X157924500Y-82248550D01*
X158437453Y-82939025D01*
X158759394Y-83390868D01*
X159138294Y-83949726D01*
X159499607Y-84505308D01*
X159547964Y-84582000D01*
X159986076Y-85259088D01*
X160321649Y-85727239D01*
X160568170Y-86003466D01*
X160739123Y-86104785D01*
X160755794Y-86106000D01*
X160885233Y-85990315D01*
X160984187Y-85688102D01*
X161032478Y-85266626D01*
X161034265Y-85177754D01*
X161061350Y-84933791D01*
X161141967Y-84909823D01*
X161280292Y-85111912D01*
X161480504Y-85546118D01*
X161740934Y-86203093D01*
X162103478Y-87140388D01*
X162395996Y-87850547D01*
X162627640Y-88347781D01*
X162807560Y-88646299D01*
X162944906Y-88760310D01*
X163048831Y-88704024D01*
X163128483Y-88491650D01*
X163150550Y-88392000D01*
X163213377Y-88138593D01*
X163285250Y-88019786D01*
X163379917Y-88054407D01*
X163511122Y-88261286D01*
X163692613Y-88659251D01*
X163938134Y-89267133D01*
X164107284Y-89702538D01*
X164401878Y-90421009D01*
X164670367Y-90988128D01*
X164897863Y-91376108D01*
X165069480Y-91557164D01*
X165106233Y-91567000D01*
X165251769Y-91470311D01*
X165330114Y-91360191D01*
X165405877Y-91255915D01*
X165475354Y-91254228D01*
X165547766Y-91382379D01*
X165632333Y-91667620D01*
X165738275Y-92137201D01*
X165874810Y-92818372D01*
X165943071Y-93171903D01*
X166071527Y-93814367D01*
X166191989Y-94368037D01*
X166293200Y-94784551D01*
X166363899Y-95015544D01*
X166378653Y-95042860D01*
X166486762Y-95006480D01*
X166656513Y-94792786D01*
X166770257Y-94598360D01*
X167064094Y-94043500D01*
X167173989Y-95123000D01*
X167240702Y-95692370D01*
X167318392Y-96227775D01*
X167392404Y-96630441D01*
X167406639Y-96691014D01*
X167493543Y-96995901D01*
X167576394Y-97091860D01*
X167706771Y-97017796D01*
X167767999Y-96963595D01*
X167969737Y-96683294D01*
X168100697Y-96348081D01*
X168194791Y-95948500D01*
X168291076Y-96456500D01*
X168335307Y-96814185D01*
X168371091Y-97335024D01*
X168392847Y-97928189D01*
X168396415Y-98171000D01*
X168414213Y-98931707D01*
X168456982Y-99463370D01*
X168528666Y-99790072D01*
X168633208Y-99935897D01*
X168687566Y-99949000D01*
X168844016Y-99863454D01*
X169095245Y-99646235D01*
X169236370Y-99503816D01*
X169656231Y-99058633D01*
X169723017Y-99599066D01*
X169771993Y-100089915D01*
X169821607Y-100757621D01*
X169870631Y-101566185D01*
X169917838Y-102479608D01*
X169962001Y-103461890D01*
X170001892Y-104477032D01*
X170036283Y-105489033D01*
X170063948Y-106461896D01*
X170083658Y-107359618D01*
X170094187Y-108146202D01*
X170094306Y-108785648D01*
X170082789Y-109241956D01*
X170059718Y-109474000D01*
X169988714Y-109700738D01*
X169945002Y-109708584D01*
X169938999Y-109656668D01*
X169892552Y-109351946D01*
X169783289Y-108866451D01*
X169627413Y-108260808D01*
X169441128Y-107595639D01*
X169240637Y-106931568D01*
X169075509Y-106426000D01*
X168367704Y-104552436D01*
X167473363Y-102536335D01*
X167191894Y-101950847D01*
X166899587Y-101341328D01*
X166717416Y-100917599D01*
X166639022Y-100639739D01*
X166658044Y-100467828D01*
X166768123Y-100361945D01*
X166927961Y-100294243D01*
X166964552Y-100161148D01*
X166825574Y-99854455D01*
X166514597Y-99380638D01*
X166166523Y-98914174D01*
X165879303Y-98523093D01*
X165746914Y-98282532D01*
X165752393Y-98155919D01*
X165800227Y-98124410D01*
X165967483Y-97987484D01*
X165989000Y-97916698D01*
X165906358Y-97776423D01*
X165681389Y-97494733D01*
X165348527Y-97112616D01*
X164945413Y-96674462D01*
X164508626Y-96205119D01*
X164230658Y-95886266D01*
X164091596Y-95687917D01*
X164071530Y-95580088D01*
X164150547Y-95532791D01*
X164183413Y-95526917D01*
X164404708Y-95437558D01*
X164465055Y-95336417D01*
X164377150Y-95194231D01*
X164138609Y-94922563D01*
X163787263Y-94562214D01*
X163417305Y-94206482D01*
X162972387Y-93786290D01*
X162696809Y-93510544D01*
X162571828Y-93352986D01*
X162578700Y-93287354D01*
X162698683Y-93287389D01*
X162769659Y-93299089D01*
X163119187Y-93315057D01*
X163382609Y-93252629D01*
X163497518Y-93156976D01*
X163476978Y-93023917D01*
X163303579Y-92787429D01*
X163239735Y-92710860D01*
X162989877Y-92471080D01*
X162583439Y-92143094D01*
X162079652Y-91772639D01*
X161610784Y-91453041D01*
X161080075Y-91101733D01*
X160739451Y-90863392D01*
X160564876Y-90714356D01*
X160532313Y-90630963D01*
X160617724Y-90589551D01*
X160718500Y-90574681D01*
X161024135Y-90513046D01*
X161202412Y-90431964D01*
X161195581Y-90289037D01*
X161001280Y-90080468D01*
X160665938Y-89839649D01*
X160235982Y-89599973D01*
X159763112Y-89396752D01*
X159286259Y-89189002D01*
X159050341Y-89004372D01*
X159058391Y-88848519D01*
X159313441Y-88727099D01*
X159393581Y-88707615D01*
X159732839Y-88566215D01*
X159859627Y-88360944D01*
X159756145Y-88130564D01*
X159686678Y-88069286D01*
X159459570Y-87947815D01*
X159061742Y-87783854D01*
X158566138Y-87606642D01*
X158384915Y-87547483D01*
X157321331Y-87209190D01*
X157678893Y-87021845D01*
X158036454Y-86834499D01*
X157502261Y-86374999D01*
X157180479Y-86069294D01*
X157020257Y-85814718D01*
X156970999Y-85522739D01*
X156970033Y-85443718D01*
X156889783Y-85039659D01*
X156672004Y-84800962D01*
X156357079Y-84765102D01*
X156267925Y-84792212D01*
X156126093Y-84822675D01*
X156145611Y-84707594D01*
X156200702Y-84599372D01*
X156273639Y-84441691D01*
X156263009Y-84333759D01*
X156128868Y-84254808D01*
X155831273Y-84184066D01*
X155330279Y-84100763D01*
X155203885Y-84081036D01*
X154761937Y-83996158D01*
X154417473Y-83900601D01*
X154257735Y-83823535D01*
X154060793Y-83745866D01*
X153712107Y-83699127D01*
X153523575Y-83693000D01*
X153086685Y-83662666D01*
X152706411Y-83586471D01*
X152605465Y-83549710D01*
X152346325Y-83477165D01*
X152109762Y-83559329D01*
X151949562Y-83674980D01*
X151638012Y-83857232D01*
X151444457Y-83830191D01*
X151384000Y-83622004D01*
X151323216Y-83455520D01*
X151156638Y-83499842D01*
X150907921Y-83747242D01*
X150875210Y-83788250D01*
X150609001Y-84049483D01*
X150338914Y-84203331D01*
X150327515Y-84206425D01*
X150100022Y-84363007D01*
X149980036Y-84714425D01*
X149884774Y-85104361D01*
X149757564Y-85428957D01*
X149756514Y-85430900D01*
X149626368Y-85851432D01*
X149626449Y-86319224D01*
X149739707Y-86754593D01*
X149949091Y-87077859D01*
X150133273Y-87191617D01*
X150329070Y-87356378D01*
X150368000Y-87494072D01*
X150421986Y-87638114D01*
X150619768Y-87731268D01*
X151015081Y-87798040D01*
X151041453Y-87801180D01*
X151513903Y-87862959D01*
X151948284Y-87929878D01*
X152107426Y-87958835D01*
X152373678Y-87982526D01*
X152567573Y-87887791D01*
X152779515Y-87625455D01*
X152814709Y-87574121D01*
X153010930Y-87297739D01*
X153115732Y-87213168D01*
X153176473Y-87299479D01*
X153205453Y-87401449D01*
X153280467Y-87601009D01*
X153391723Y-87576012D01*
X153483839Y-87489589D01*
X153610164Y-87262046D01*
X153736079Y-86872732D01*
X153821615Y-86474341D01*
X153888116Y-85978449D01*
X153881620Y-85600880D01*
X153791726Y-85213789D01*
X153696104Y-84931250D01*
X153557931Y-84514801D01*
X153535456Y-84284776D01*
X153661178Y-84215019D01*
X153967596Y-84279374D01*
X154350124Y-84404885D01*
X154773779Y-84592089D01*
X155047259Y-84846884D01*
X155200828Y-85103385D01*
X155437089Y-85453839D01*
X155667413Y-85596221D01*
X155861482Y-85514417D01*
X155892500Y-85471000D01*
X156067852Y-85348621D01*
X156107011Y-85344000D01*
X156191718Y-85450807D01*
X156200602Y-85722274D01*
X156146310Y-86084965D01*
X156041493Y-86465445D01*
X155898799Y-86790281D01*
X155843110Y-86876076D01*
X155627755Y-87214921D01*
X155597956Y-87417681D01*
X155750556Y-87518281D01*
X155782676Y-87525437D01*
X155805363Y-87614491D01*
X155625149Y-87835539D01*
X155238637Y-88192368D01*
X155010162Y-88386823D01*
X154554106Y-88778956D01*
X154267755Y-89058725D01*
X154118132Y-89266849D01*
X154072257Y-89444048D01*
X154078421Y-89537256D01*
X154126870Y-89867364D01*
X152813690Y-89689607D01*
X152127512Y-89605056D01*
X151653703Y-89572683D01*
X151355033Y-89597594D01*
X151194271Y-89684897D01*
X151134185Y-89839699D01*
X151130000Y-89920572D01*
X151086605Y-90109406D01*
X150909444Y-90117475D01*
X150844250Y-90098969D01*
X150362504Y-89906683D01*
X149930841Y-89622465D01*
X149477395Y-89194108D01*
X149242980Y-88935737D01*
X148907434Y-88565885D01*
X148683925Y-88363045D01*
X148525192Y-88296394D01*
X148383972Y-88335107D01*
X148351339Y-88354220D01*
X148182803Y-88425623D01*
X148062867Y-88347252D01*
X147932177Y-88075302D01*
X147914707Y-88031966D01*
X147706614Y-87312743D01*
X147563832Y-86364728D01*
X147526267Y-85932860D01*
X147442386Y-85542248D01*
X147277660Y-85322829D01*
X147163334Y-85212184D01*
X147163040Y-85042890D01*
X147292161Y-84779861D01*
X147566083Y-84388008D01*
X147846383Y-84025660D01*
X148194717Y-83501740D01*
X148323730Y-83080739D01*
X148237336Y-82744406D01*
X148145500Y-82631642D01*
X147991766Y-82454854D01*
X147955000Y-82385076D01*
X148071333Y-82311763D01*
X148383001Y-82215051D01*
X148834006Y-82108254D01*
X149368349Y-82004681D01*
X149910182Y-81920311D01*
X150502450Y-81817837D01*
X150848661Y-81704618D01*
X150946429Y-81582195D01*
X150793364Y-81452109D01*
X150697912Y-81411719D01*
X150351401Y-81312726D01*
X150099668Y-81279999D01*
X149842500Y-81191239D01*
X149566800Y-80976554D01*
X149556504Y-80965609D01*
X149323322Y-80758945D01*
X149092691Y-80717023D01*
X148833157Y-80775109D01*
X148471491Y-80860520D01*
X148183000Y-80898844D01*
X148170887Y-80899000D01*
X148019142Y-80878502D01*
X148036110Y-80771444D01*
X148138298Y-80616741D01*
X148304537Y-80334160D01*
X148275137Y-80189467D01*
X148026574Y-80139841D01*
X147874745Y-80136999D01*
X147523646Y-80088383D01*
X147218447Y-79907553D01*
X146985745Y-79683457D01*
X146712223Y-79345703D01*
X146568587Y-79067895D01*
X146573761Y-78896643D01*
X146653250Y-78864484D01*
X146818482Y-78846211D01*
X147161862Y-78800611D01*
X147610254Y-78737409D01*
X147627047Y-78734984D01*
X148637101Y-78675092D01*
X149203534Y-78737022D01*
X149203534Y-78737022D01*
G37*
X149203534Y-78737022D02*
X149608145Y-78846018D01*
X150164427Y-79041210D01*
X150809953Y-79295695D01*
X151482295Y-79582566D01*
X152119025Y-79874922D01*
X152657716Y-80145858D01*
X153035941Y-80368470D01*
X153103887Y-80417927D01*
X153367954Y-80690417D01*
X153396238Y-80892867D01*
X153192678Y-81007194D01*
X152971500Y-81026000D01*
X152677671Y-81055982D01*
X152530829Y-81129705D01*
X152527000Y-81145347D01*
X152633810Y-81264905D01*
X152912145Y-81449671D01*
X153298855Y-81667666D01*
X153730794Y-81886910D01*
X154144815Y-82075422D01*
X154477770Y-82201223D01*
X154666512Y-82232333D01*
X154670661Y-82230972D01*
X154782391Y-82093529D01*
X154791544Y-81777076D01*
X154777163Y-81652475D01*
X154746655Y-81432582D01*
X154742603Y-81294307D01*
X154793155Y-81251369D01*
X154926457Y-81317487D01*
X155170657Y-81506381D01*
X155553902Y-81831770D01*
X156083000Y-82288953D01*
X156624037Y-82756294D01*
X157004519Y-83080970D01*
X157257583Y-83284627D01*
X157416366Y-83388916D01*
X157514006Y-83415483D01*
X157583639Y-83385978D01*
X157658403Y-83322047D01*
X157661027Y-83319861D01*
X157796434Y-83095455D01*
X157881129Y-82751391D01*
X157885659Y-82707108D01*
X157924500Y-82248550D01*
X158437453Y-82939025D01*
X158759394Y-83390868D01*
X159138294Y-83949726D01*
X159499607Y-84505308D01*
X159547964Y-84582000D01*
X159986076Y-85259088D01*
X160321649Y-85727239D01*
X160568170Y-86003466D01*
X160739123Y-86104785D01*
X160755794Y-86106000D01*
X160885233Y-85990315D01*
X160984187Y-85688102D01*
X161032478Y-85266626D01*
X161034265Y-85177754D01*
X161061350Y-84933791D01*
X161141967Y-84909823D01*
X161280292Y-85111912D01*
X161480504Y-85546118D01*
X161740934Y-86203093D01*
X162103478Y-87140388D01*
X162395996Y-87850547D01*
X162627640Y-88347781D01*
X162807560Y-88646299D01*
X162944906Y-88760310D01*
X163048831Y-88704024D01*
X163128483Y-88491650D01*
X163150550Y-88392000D01*
X163213377Y-88138593D01*
X163285250Y-88019786D01*
X163379917Y-88054407D01*
X163511122Y-88261286D01*
X163692613Y-88659251D01*
X163938134Y-89267133D01*
X164107284Y-89702538D01*
X164401878Y-90421009D01*
X164670367Y-90988128D01*
X164897863Y-91376108D01*
X165069480Y-91557164D01*
X165106233Y-91567000D01*
X165251769Y-91470311D01*
X165330114Y-91360191D01*
X165405877Y-91255915D01*
X165475354Y-91254228D01*
X165547766Y-91382379D01*
X165632333Y-91667620D01*
X165738275Y-92137201D01*
X165874810Y-92818372D01*
X165943071Y-93171903D01*
X166071527Y-93814367D01*
X166191989Y-94368037D01*
X166293200Y-94784551D01*
X166363899Y-95015544D01*
X166378653Y-95042860D01*
X166486762Y-95006480D01*
X166656513Y-94792786D01*
X166770257Y-94598360D01*
X167064094Y-94043500D01*
X167173989Y-95123000D01*
X167240702Y-95692370D01*
X167318392Y-96227775D01*
X167392404Y-96630441D01*
X167406639Y-96691014D01*
X167493543Y-96995901D01*
X167576394Y-97091860D01*
X167706771Y-97017796D01*
X167767999Y-96963595D01*
X167969737Y-96683294D01*
X168100697Y-96348081D01*
X168194791Y-95948500D01*
X168291076Y-96456500D01*
X168335307Y-96814185D01*
X168371091Y-97335024D01*
X168392847Y-97928189D01*
X168396415Y-98171000D01*
X168414213Y-98931707D01*
X168456982Y-99463370D01*
X168528666Y-99790072D01*
X168633208Y-99935897D01*
X168687566Y-99949000D01*
X168844016Y-99863454D01*
X169095245Y-99646235D01*
X169236370Y-99503816D01*
X169656231Y-99058633D01*
X169723017Y-99599066D01*
X169771993Y-100089915D01*
X169821607Y-100757621D01*
X169870631Y-101566185D01*
X169917838Y-102479608D01*
X169962001Y-103461890D01*
X170001892Y-104477032D01*
X170036283Y-105489033D01*
X170063948Y-106461896D01*
X170083658Y-107359618D01*
X170094187Y-108146202D01*
X170094306Y-108785648D01*
X170082789Y-109241956D01*
X170059718Y-109474000D01*
X169988714Y-109700738D01*
X169945002Y-109708584D01*
X169938999Y-109656668D01*
X169892552Y-109351946D01*
X169783289Y-108866451D01*
X169627413Y-108260808D01*
X169441128Y-107595639D01*
X169240637Y-106931568D01*
X169075509Y-106426000D01*
X168367704Y-104552436D01*
X167473363Y-102536335D01*
X167191894Y-101950847D01*
X166899587Y-101341328D01*
X166717416Y-100917599D01*
X166639022Y-100639739D01*
X166658044Y-100467828D01*
X166768123Y-100361945D01*
X166927961Y-100294243D01*
X166964552Y-100161148D01*
X166825574Y-99854455D01*
X166514597Y-99380638D01*
X166166523Y-98914174D01*
X165879303Y-98523093D01*
X165746914Y-98282532D01*
X165752393Y-98155919D01*
X165800227Y-98124410D01*
X165967483Y-97987484D01*
X165989000Y-97916698D01*
X165906358Y-97776423D01*
X165681389Y-97494733D01*
X165348527Y-97112616D01*
X164945413Y-96674462D01*
X164508626Y-96205119D01*
X164230658Y-95886266D01*
X164091596Y-95687917D01*
X164071530Y-95580088D01*
X164150547Y-95532791D01*
X164183413Y-95526917D01*
X164404708Y-95437558D01*
X164465055Y-95336417D01*
X164377150Y-95194231D01*
X164138609Y-94922563D01*
X163787263Y-94562214D01*
X163417305Y-94206482D01*
X162972387Y-93786290D01*
X162696809Y-93510544D01*
X162571828Y-93352986D01*
X162578700Y-93287354D01*
X162698683Y-93287389D01*
X162769659Y-93299089D01*
X163119187Y-93315057D01*
X163382609Y-93252629D01*
X163497518Y-93156976D01*
X163476978Y-93023917D01*
X163303579Y-92787429D01*
X163239735Y-92710860D01*
X162989877Y-92471080D01*
X162583439Y-92143094D01*
X162079652Y-91772639D01*
X161610784Y-91453041D01*
X161080075Y-91101733D01*
X160739451Y-90863392D01*
X160564876Y-90714356D01*
X160532313Y-90630963D01*
X160617724Y-90589551D01*
X160718500Y-90574681D01*
X161024135Y-90513046D01*
X161202412Y-90431964D01*
X161195581Y-90289037D01*
X161001280Y-90080468D01*
X160665938Y-89839649D01*
X160235982Y-89599973D01*
X159763112Y-89396752D01*
X159286259Y-89189002D01*
X159050341Y-89004372D01*
X159058391Y-88848519D01*
X159313441Y-88727099D01*
X159393581Y-88707615D01*
X159732839Y-88566215D01*
X159859627Y-88360944D01*
X159756145Y-88130564D01*
X159686678Y-88069286D01*
X159459570Y-87947815D01*
X159061742Y-87783854D01*
X158566138Y-87606642D01*
X158384915Y-87547483D01*
X157321331Y-87209190D01*
X157678893Y-87021845D01*
X158036454Y-86834499D01*
X157502261Y-86374999D01*
X157180479Y-86069294D01*
X157020257Y-85814718D01*
X156970999Y-85522739D01*
X156970033Y-85443718D01*
X156889783Y-85039659D01*
X156672004Y-84800962D01*
X156357079Y-84765102D01*
X156267925Y-84792212D01*
X156126093Y-84822675D01*
X156145611Y-84707594D01*
X156200702Y-84599372D01*
X156273639Y-84441691D01*
X156263009Y-84333759D01*
X156128868Y-84254808D01*
X155831273Y-84184066D01*
X155330279Y-84100763D01*
X155203885Y-84081036D01*
X154761937Y-83996158D01*
X154417473Y-83900601D01*
X154257735Y-83823535D01*
X154060793Y-83745866D01*
X153712107Y-83699127D01*
X153523575Y-83693000D01*
X153086685Y-83662666D01*
X152706411Y-83586471D01*
X152605465Y-83549710D01*
X152346325Y-83477165D01*
X152109762Y-83559329D01*
X151949562Y-83674980D01*
X151638012Y-83857232D01*
X151444457Y-83830191D01*
X151384000Y-83622004D01*
X151323216Y-83455520D01*
X151156638Y-83499842D01*
X150907921Y-83747242D01*
X150875210Y-83788250D01*
X150609001Y-84049483D01*
X150338914Y-84203331D01*
X150327515Y-84206425D01*
X150100022Y-84363007D01*
X149980036Y-84714425D01*
X149884774Y-85104361D01*
X149757564Y-85428957D01*
X149756514Y-85430900D01*
X149626368Y-85851432D01*
X149626449Y-86319224D01*
X149739707Y-86754593D01*
X149949091Y-87077859D01*
X150133273Y-87191617D01*
X150329070Y-87356378D01*
X150368000Y-87494072D01*
X150421986Y-87638114D01*
X150619768Y-87731268D01*
X151015081Y-87798040D01*
X151041453Y-87801180D01*
X151513903Y-87862959D01*
X151948284Y-87929878D01*
X152107426Y-87958835D01*
X152373678Y-87982526D01*
X152567573Y-87887791D01*
X152779515Y-87625455D01*
X152814709Y-87574121D01*
X153010930Y-87297739D01*
X153115732Y-87213168D01*
X153176473Y-87299479D01*
X153205453Y-87401449D01*
X153280467Y-87601009D01*
X153391723Y-87576012D01*
X153483839Y-87489589D01*
X153610164Y-87262046D01*
X153736079Y-86872732D01*
X153821615Y-86474341D01*
X153888116Y-85978449D01*
X153881620Y-85600880D01*
X153791726Y-85213789D01*
X153696104Y-84931250D01*
X153557931Y-84514801D01*
X153535456Y-84284776D01*
X153661178Y-84215019D01*
X153967596Y-84279374D01*
X154350124Y-84404885D01*
X154773779Y-84592089D01*
X155047259Y-84846884D01*
X155200828Y-85103385D01*
X155437089Y-85453839D01*
X155667413Y-85596221D01*
X155861482Y-85514417D01*
X155892500Y-85471000D01*
X156067852Y-85348621D01*
X156107011Y-85344000D01*
X156191718Y-85450807D01*
X156200602Y-85722274D01*
X156146310Y-86084965D01*
X156041493Y-86465445D01*
X155898799Y-86790281D01*
X155843110Y-86876076D01*
X155627755Y-87214921D01*
X155597956Y-87417681D01*
X155750556Y-87518281D01*
X155782676Y-87525437D01*
X155805363Y-87614491D01*
X155625149Y-87835539D01*
X155238637Y-88192368D01*
X155010162Y-88386823D01*
X154554106Y-88778956D01*
X154267755Y-89058725D01*
X154118132Y-89266849D01*
X154072257Y-89444048D01*
X154078421Y-89537256D01*
X154126870Y-89867364D01*
X152813690Y-89689607D01*
X152127512Y-89605056D01*
X151653703Y-89572683D01*
X151355033Y-89597594D01*
X151194271Y-89684897D01*
X151134185Y-89839699D01*
X151130000Y-89920572D01*
X151086605Y-90109406D01*
X150909444Y-90117475D01*
X150844250Y-90098969D01*
X150362504Y-89906683D01*
X149930841Y-89622465D01*
X149477395Y-89194108D01*
X149242980Y-88935737D01*
X148907434Y-88565885D01*
X148683925Y-88363045D01*
X148525192Y-88296394D01*
X148383972Y-88335107D01*
X148351339Y-88354220D01*
X148182803Y-88425623D01*
X148062867Y-88347252D01*
X147932177Y-88075302D01*
X147914707Y-88031966D01*
X147706614Y-87312743D01*
X147563832Y-86364728D01*
X147526267Y-85932860D01*
X147442386Y-85542248D01*
X147277660Y-85322829D01*
X147163334Y-85212184D01*
X147163040Y-85042890D01*
X147292161Y-84779861D01*
X147566083Y-84388008D01*
X147846383Y-84025660D01*
X148194717Y-83501740D01*
X148323730Y-83080739D01*
X148237336Y-82744406D01*
X148145500Y-82631642D01*
X147991766Y-82454854D01*
X147955000Y-82385076D01*
X148071333Y-82311763D01*
X148383001Y-82215051D01*
X148834006Y-82108254D01*
X149368349Y-82004681D01*
X149910182Y-81920311D01*
X150502450Y-81817837D01*
X150848661Y-81704618D01*
X150946429Y-81582195D01*
X150793364Y-81452109D01*
X150697912Y-81411719D01*
X150351401Y-81312726D01*
X150099668Y-81279999D01*
X149842500Y-81191239D01*
X149566800Y-80976554D01*
X149556504Y-80965609D01*
X149323322Y-80758945D01*
X149092691Y-80717023D01*
X148833157Y-80775109D01*
X148471491Y-80860520D01*
X148183000Y-80898844D01*
X148170887Y-80899000D01*
X148019142Y-80878502D01*
X148036110Y-80771444D01*
X148138298Y-80616741D01*
X148304537Y-80334160D01*
X148275137Y-80189467D01*
X148026574Y-80139841D01*
X147874745Y-80136999D01*
X147523646Y-80088383D01*
X147218447Y-79907553D01*
X146985745Y-79683457D01*
X146712223Y-79345703D01*
X146568587Y-79067895D01*
X146573761Y-78896643D01*
X146653250Y-78864484D01*
X146818482Y-78846211D01*
X147161862Y-78800611D01*
X147610254Y-78737409D01*
X147627047Y-78734984D01*
X148637101Y-78675092D01*
X149203534Y-78737022D01*
G36*
X148249996Y-76903146D02*
X148054698Y-77065790D01*
X147967035Y-77133043D01*
X147533420Y-77406254D01*
X147009583Y-77618893D01*
X146350070Y-77783503D01*
X145509428Y-77912628D01*
X144907000Y-77977543D01*
X144118388Y-78057564D01*
X143552307Y-78127320D01*
X143177796Y-78192623D01*
X142963892Y-78259285D01*
X142879637Y-78333117D01*
X142875000Y-78358978D01*
X142988503Y-78469252D01*
X143291696Y-78620466D01*
X143728605Y-78789024D01*
X144243254Y-78951329D01*
X144350266Y-78980877D01*
X144950431Y-79216592D01*
X145490167Y-79560779D01*
X145876626Y-79953225D01*
X145897854Y-79984465D01*
X146018463Y-80183835D01*
X145973895Y-80216468D01*
X145748672Y-80121260D01*
X145459301Y-80031341D01*
X145274662Y-80100231D01*
X145259696Y-80114503D01*
X145231830Y-80231517D01*
X145338661Y-80426075D01*
X145601537Y-80727743D01*
X145966373Y-81093135D01*
X146472838Y-81612878D01*
X146804254Y-82031813D01*
X146990734Y-82398881D01*
X147062391Y-82763019D01*
X147066000Y-82880186D01*
X147055921Y-83056682D01*
X146996796Y-83081610D01*
X146845294Y-82939606D01*
X146666119Y-82738399D01*
X146364907Y-82450877D01*
X146171206Y-82392251D01*
X146088602Y-82559656D01*
X146120675Y-82950223D01*
X146160543Y-83142980D01*
X146362752Y-84163039D01*
X146470288Y-85035820D01*
X146479682Y-85727108D01*
X146448513Y-85983335D01*
X146381788Y-86321883D01*
X146336542Y-86432651D01*
X146288346Y-86337675D01*
X146242132Y-86169500D01*
X146090716Y-85708951D01*
X145920845Y-85363446D01*
X145760188Y-85179128D01*
X145651224Y-85183975D01*
X145572579Y-85364830D01*
X145484202Y-85721340D01*
X145405066Y-86176785D01*
X145404211Y-86182817D01*
X145268563Y-87008186D01*
X145123037Y-87614488D01*
X144958129Y-88036655D01*
X144853946Y-88205424D01*
X144743536Y-88338062D01*
X144715543Y-88297436D01*
X144761353Y-88051401D01*
X144784819Y-87947500D01*
X144875919Y-87502355D01*
X144891469Y-87250313D01*
X144827852Y-87140874D01*
X144725717Y-87122000D01*
X144479520Y-87238064D01*
X144231617Y-87548335D01*
X144018642Y-87995931D01*
X143900398Y-88403499D01*
X143686946Y-89136016D01*
X143407815Y-89677824D01*
X143197619Y-89911751D01*
X143086874Y-89981565D01*
X143039159Y-89920591D01*
X143045100Y-89685175D01*
X143079731Y-89362751D01*
X143116593Y-88945922D01*
X143097080Y-88725558D01*
X143013844Y-88648902D01*
X142979932Y-88645999D01*
X142690699Y-88762013D01*
X142372478Y-89082971D01*
X142061178Y-89568246D01*
X141931884Y-89831701D01*
X141721626Y-90248715D01*
X141472186Y-90670810D01*
X141216930Y-91051056D01*
X140989224Y-91342524D01*
X140822432Y-91498285D01*
X140753525Y-91489076D01*
X140773988Y-91301479D01*
X140876638Y-90974359D01*
X140961507Y-90761312D01*
X141214973Y-90170000D01*
X140959714Y-90170000D01*
X140633080Y-90285198D01*
X140274792Y-90635012D01*
X139879053Y-91225767D01*
X139704154Y-91539980D01*
X139420548Y-92029534D01*
X139134179Y-92452680D01*
X138878476Y-92766948D01*
X138686870Y-92929867D01*
X138609000Y-92931333D01*
X138617783Y-92790021D01*
X138701965Y-92483949D01*
X138818937Y-92146437D01*
X138951050Y-91754372D01*
X139021610Y-91464496D01*
X139019595Y-91352262D01*
X138881354Y-91372480D01*
X138592507Y-91495688D01*
X138276942Y-91661506D01*
X137903920Y-91882515D01*
X137695258Y-92065973D01*
X137592438Y-92296147D01*
X137536939Y-92657306D01*
X137527714Y-92740400D01*
X137448834Y-93188919D01*
X137331120Y-93570590D01*
X137254804Y-93719846D01*
X137128683Y-93882688D01*
X137057452Y-93874624D01*
X137002663Y-93663401D01*
X136971177Y-93481926D01*
X136856401Y-93108165D01*
X136685721Y-92968439D01*
X136472257Y-93071059D01*
X136417323Y-93131216D01*
X136343887Y-93323349D01*
X136258760Y-93704843D01*
X136174744Y-94212243D01*
X136129094Y-94559966D01*
X136033165Y-95289553D01*
X135946810Y-95770097D01*
X135868066Y-96006294D01*
X135794971Y-96002839D01*
X135725563Y-95764427D01*
X135696859Y-95594163D01*
X135596067Y-95181782D01*
X135446836Y-95013694D01*
X135237362Y-95082848D01*
X135084183Y-95228250D01*
X134905991Y-95609671D01*
X134893853Y-96177821D01*
X135047966Y-96934242D01*
X135368528Y-97880477D01*
X135450584Y-98087578D01*
X135489869Y-98220328D01*
X135424411Y-98241520D01*
X135206585Y-98147697D01*
X135026037Y-98056773D01*
X134638900Y-97899182D01*
X134431756Y-97906268D01*
X134401939Y-98066213D01*
X134546780Y-98367198D01*
X134863612Y-98797405D01*
X135306414Y-99298984D01*
X135624390Y-99653604D01*
X135754473Y-99852730D01*
X135686755Y-99906783D01*
X135411326Y-99826187D01*
X134976044Y-99646440D01*
X134668281Y-99541344D01*
X134470583Y-99525968D01*
X134444856Y-99543152D01*
X134466501Y-99718679D01*
X134618589Y-100007307D01*
X134852992Y-100341502D01*
X135121581Y-100653733D01*
X135376228Y-100876467D01*
X135410512Y-100898140D01*
X135801972Y-101040793D01*
X136127810Y-100950632D01*
X136414697Y-100618100D01*
X136471817Y-100517833D01*
X136641670Y-100237638D01*
X136770927Y-100085253D01*
X136792806Y-100076000D01*
X136913355Y-100167942D01*
X137119461Y-100399519D01*
X137214991Y-100520633D01*
X137651059Y-100972140D01*
X138113001Y-101246953D01*
X138558201Y-101333903D01*
X138944046Y-101221819D01*
X139149657Y-101027740D01*
X139335656Y-100820640D01*
X139536077Y-100772415D01*
X139819995Y-100835472D01*
X140416215Y-100884380D01*
X141023209Y-100727725D01*
X141570342Y-100400543D01*
X141986980Y-99937873D01*
X142111403Y-99698853D01*
X142247127Y-99064622D01*
X142197077Y-98297053D01*
X141966658Y-97430040D01*
X141619200Y-96612166D01*
X141223309Y-95875475D01*
X140852583Y-95359332D01*
X140462065Y-95040155D01*
X140006797Y-94894361D01*
X139441823Y-94898369D01*
X138722186Y-95028598D01*
X138637605Y-95048215D01*
X137892711Y-95223462D01*
X138637605Y-94461851D01*
X139724990Y-93466705D01*
X140896558Y-92605572D01*
X142103233Y-91908833D01*
X143295942Y-91406866D01*
X143826590Y-91249679D01*
X144951257Y-91033398D01*
X146248195Y-90899603D01*
X147649309Y-90848686D01*
X149086500Y-90881041D01*
X150491672Y-90997061D01*
X151796729Y-91197142D01*
X151828500Y-91203426D01*
X153946536Y-91748763D01*
X156043050Y-92530349D01*
X158082990Y-93530794D01*
X160031303Y-94732707D01*
X161852938Y-96118699D01*
X162016721Y-96258098D01*
X163563391Y-97752163D01*
X164922314Y-99406379D01*
X166087067Y-101203028D01*
X167051227Y-103124391D01*
X167808371Y-105152748D01*
X168352073Y-107270380D01*
X168675911Y-109459567D01*
X168773462Y-111702591D01*
X168638301Y-113981733D01*
X168589499Y-114388745D01*
X168162524Y-116941644D01*
X167558167Y-119321048D01*
X166766634Y-121544324D01*
X165778135Y-123628841D01*
X164582878Y-125591967D01*
X163171073Y-127451070D01*
X161532926Y-129223518D01*
X159658647Y-130926679D01*
X158931238Y-131520619D01*
X156778565Y-133088205D01*
X154441950Y-134524309D01*
X151965616Y-135809062D01*
X149393783Y-136922596D01*
X146770674Y-137845040D01*
X144140511Y-138556527D01*
X142557500Y-138877406D01*
X142092607Y-138942270D01*
X141480154Y-139003638D01*
X140773001Y-139058844D01*
X140024006Y-139105225D01*
X139286026Y-139140114D01*
X138611922Y-139160847D01*
X138054551Y-139164759D01*
X137666772Y-139149184D01*
X137541000Y-139130333D01*
X137334175Y-139098025D01*
X136943715Y-139054748D01*
X136439317Y-139007904D01*
X136207500Y-138988726D01*
X135064500Y-138897677D01*
X136398000Y-138729169D01*
X137823283Y-138546339D01*
X139033218Y-138383977D01*
X140065004Y-138235436D01*
X140955841Y-138094071D01*
X141742929Y-137953237D01*
X142463468Y-137806289D01*
X143154657Y-137646582D01*
X143853697Y-137467469D01*
X144578015Y-137267897D01*
X145789753Y-136908825D01*
X146772720Y-136574701D01*
X147548840Y-136249611D01*
X148140035Y-135917646D01*
X148568228Y-135562892D01*
X148855340Y-135169439D01*
X149023295Y-134721376D01*
X149094014Y-134202790D01*
X149099944Y-133985838D01*
X149129849Y-133636321D01*
X149199956Y-133386869D01*
X149206998Y-133374778D01*
X149373154Y-133268636D01*
X149720785Y-133134269D01*
X150182974Y-132996543D01*
X150316303Y-132962600D01*
X151652638Y-132556352D01*
X152906306Y-132022968D01*
X154024563Y-131389085D01*
X154954664Y-130681336D01*
X155098607Y-130547597D01*
X155430739Y-130210058D01*
X155612654Y-129952739D01*
X155688337Y-129692152D01*
X155702000Y-129402328D01*
X155598928Y-128779471D01*
X155384500Y-128369718D01*
X155191300Y-128063030D01*
X155078744Y-127841076D01*
X155067000Y-127794834D01*
X155160578Y-127667292D01*
X155404300Y-127442479D01*
X155699326Y-127204974D01*
X156216841Y-126779917D01*
X156803207Y-126250151D01*
X157400804Y-125672501D01*
X157952014Y-125103793D01*
X158399216Y-124600852D01*
X158603238Y-124341102D01*
X158889587Y-123863144D01*
X159134898Y-123317248D01*
X159204911Y-123109482D01*
X159311614Y-122374210D01*
X159176778Y-121713661D01*
X158796317Y-121112372D01*
X158630925Y-120938561D01*
X158339723Y-120680670D01*
X158088695Y-120558971D01*
X157763089Y-120533019D01*
X157513521Y-120544724D01*
X157108515Y-120552395D01*
X156901258Y-120490985D01*
X156884170Y-120328749D01*
X157049672Y-120033941D01*
X157307639Y-119682365D01*
X157762634Y-119028807D01*
X158048714Y-118447665D01*
X158194066Y-117851148D01*
X158226877Y-117151463D01*
X158216305Y-116852181D01*
X158106567Y-115911916D01*
X157888495Y-115126850D01*
X157576143Y-114514488D01*
X157183565Y-114092337D01*
X156724812Y-113877902D01*
X156213939Y-113888688D01*
X155921849Y-113994080D01*
X155527376Y-114238806D01*
X155280355Y-114546325D01*
X155178264Y-114947657D01*
X155218578Y-115473823D01*
X155398773Y-116155844D01*
X155682310Y-116938390D01*
X156011043Y-117835267D01*
X156248114Y-118605951D01*
X156386542Y-119222242D01*
X156419343Y-119655935D01*
X156391356Y-119802532D01*
X156259477Y-119986587D01*
X156129647Y-119984933D01*
X156083000Y-119833571D01*
X156007267Y-119617104D01*
X155835745Y-119411273D01*
X155651943Y-119302932D01*
X155581793Y-119312301D01*
X155534298Y-119381068D01*
X155524055Y-119533862D01*
X155555893Y-119810034D01*
X155634643Y-120248933D01*
X155765134Y-120889909D01*
X155789982Y-121008359D01*
X155890179Y-121634304D01*
X155922622Y-122192972D01*
X155903692Y-122468859D01*
X155812767Y-122930792D01*
X155691087Y-123385229D01*
X155558608Y-123774986D01*
X155435285Y-124042881D01*
X155341073Y-124131731D01*
X155326736Y-124122155D01*
X155237669Y-123954543D01*
X155096791Y-123621723D01*
X154947585Y-123230676D01*
X154763702Y-122798333D01*
X154585336Y-122494625D01*
X154437780Y-122341811D01*
X154346327Y-122362149D01*
X154336269Y-122577898D01*
X154358322Y-122712112D01*
X154418414Y-123077408D01*
X154482251Y-123561267D01*
X154515534Y-123860791D01*
X154544838Y-124273042D01*
X154513864Y-124579945D01*
X154396232Y-124882762D01*
X154165559Y-125282758D01*
X154130056Y-125340434D01*
X153853054Y-125839289D01*
X153707061Y-126260245D01*
X153654538Y-126715418D01*
X153653031Y-126765142D01*
X153636062Y-127444500D01*
X153552813Y-126849094D01*
X153440289Y-126410483D01*
X153255059Y-126032747D01*
X153038757Y-125786440D01*
X152892426Y-125730000D01*
X152844552Y-125846369D01*
X152813664Y-126153438D01*
X152805640Y-126588152D01*
X152806583Y-126650750D01*
X152781971Y-127317796D01*
X152656844Y-127862902D01*
X152397366Y-128387665D01*
X152070585Y-128860740D01*
X151825705Y-129222771D01*
X151558412Y-129667553D01*
X151459967Y-129846247D01*
X151148778Y-130431513D01*
X150991378Y-129728176D01*
X150886643Y-129355480D01*
X150778133Y-129117239D01*
X150709115Y-129066461D01*
X150611732Y-129203069D01*
X150491576Y-129511773D01*
X150407884Y-129800291D01*
X150234997Y-130314530D01*
X149985028Y-130875108D01*
X149823507Y-131171789D01*
X149560121Y-131550542D01*
X149242019Y-131923180D01*
X148915929Y-132245360D01*
X148628579Y-132472744D01*
X148426696Y-132560991D01*
X148377037Y-132544371D01*
X148359859Y-132386684D01*
X148405100Y-132079121D01*
X148436679Y-131942632D01*
X148512518Y-131482334D01*
X148476791Y-131176545D01*
X148334131Y-131064019D01*
X148331630Y-131064000D01*
X148135878Y-131177093D01*
X147930096Y-131469889D01*
X147752222Y-131872662D01*
X147640195Y-132315683D01*
X147636444Y-132341677D01*
X147519898Y-132822888D01*
X147287706Y-133268951D01*
X146902048Y-133739401D01*
X146494500Y-134139280D01*
X146019220Y-134484097D01*
X145599297Y-134590422D01*
X145334409Y-134516448D01*
X145189901Y-134367734D01*
X145137636Y-134093590D01*
X145144302Y-133806489D01*
X145147310Y-133433608D01*
X145086944Y-133257488D01*
X144989200Y-133223000D01*
X144840557Y-133338698D01*
X144704410Y-133692783D01*
X144641440Y-133953250D01*
X144516368Y-134489263D01*
X144389037Y-134830403D01*
X144211490Y-135031650D01*
X143935772Y-135147985D01*
X143525809Y-135232299D01*
X142773718Y-135436294D01*
X141964906Y-135773201D01*
X141217811Y-136191987D01*
X141077394Y-136287287D01*
X140773574Y-136477755D01*
X140625670Y-136484882D01*
X140599617Y-136293915D01*
X140626057Y-136091841D01*
X140655295Y-135782516D01*
X140633875Y-135598675D01*
X140627393Y-135589727D01*
X140487523Y-135606476D01*
X140190988Y-135718416D01*
X139843468Y-135881028D01*
X139358282Y-136105854D01*
X138756907Y-136357198D01*
X138164641Y-136582833D01*
X138131296Y-136594709D01*
X137491723Y-136842075D01*
X136787701Y-137145732D01*
X136194546Y-137428622D01*
X135746920Y-137640979D01*
X135423415Y-137761268D01*
X135266239Y-137774702D01*
X135257789Y-137756805D01*
X135308947Y-137557276D01*
X135435326Y-137226380D01*
X135512267Y-137049812D01*
X135763956Y-136495125D01*
X135477728Y-136576712D01*
X134716794Y-136782891D01*
X134103698Y-136917482D01*
X133547138Y-136994502D01*
X132955812Y-137027966D01*
X132505312Y-137033000D01*
X131956733Y-137023231D01*
X131509030Y-136996873D01*
X131218989Y-136958348D01*
X131140298Y-136926709D01*
X131198187Y-136801950D01*
X131416654Y-136592537D01*
X131640803Y-136421326D01*
X132013227Y-136138621D01*
X132176866Y-135950587D01*
X132122065Y-135845876D01*
X131839170Y-135813138D01*
X131318527Y-135841024D01*
X131159250Y-135855278D01*
X130572484Y-135896551D01*
X129874127Y-135924439D01*
X129120944Y-135939050D01*
X128369697Y-135940490D01*
X127677151Y-135928867D01*
X127100070Y-135904290D01*
X126695218Y-135866866D01*
X126587250Y-135846605D01*
X126335155Y-135751418D01*
X126238000Y-135656931D01*
X126343848Y-135555333D01*
X126621326Y-135386341D01*
X127009844Y-135186794D01*
X127410105Y-134985526D01*
X127710736Y-134815757D01*
X127844484Y-134716281D01*
X127810929Y-134617202D01*
X127592166Y-134491841D01*
X127173603Y-134334998D01*
X126540648Y-134141472D01*
X125678710Y-133906063D01*
X125281499Y-133802848D01*
X124346871Y-133560642D01*
X123630587Y-133369384D01*
X123104183Y-133219999D01*
X122739196Y-133103417D01*
X122507163Y-133010563D01*
X122379619Y-132932366D01*
X122328722Y-132861667D01*
X122396588Y-132750004D01*
X122597529Y-132715000D01*
X123051402Y-132655554D01*
X123283205Y-132476262D01*
X123317000Y-132324132D01*
X123196945Y-132119487D01*
X122856090Y-131882676D01*
X122323397Y-131627737D01*
X121627828Y-131368705D01*
X120874552Y-131140389D01*
X120314158Y-130973777D01*
X119781332Y-130794255D01*
X119375079Y-130635615D01*
X119315098Y-130608109D01*
X119011954Y-130457690D01*
X118919513Y-130380831D01*
X119018594Y-130343062D01*
X119157749Y-130325314D01*
X119411503Y-130248242D01*
X119506999Y-130132981D01*
X119415128Y-130006532D01*
X119162652Y-129748950D01*
X118784281Y-129391488D01*
X118314724Y-128965398D01*
X117788690Y-128501931D01*
X117240890Y-128032339D01*
X116706030Y-127587875D01*
X116459000Y-127388577D01*
X116141500Y-127135450D01*
X116617750Y-127131225D01*
X116924020Y-127101524D01*
X117086230Y-127033184D01*
X117093999Y-127012528D01*
X117007916Y-126888582D01*
X116770239Y-126620839D01*
X116411831Y-126242213D01*
X115963556Y-125785616D01*
X115665249Y-125488867D01*
X115123025Y-124947481D01*
X114750368Y-124557368D01*
X114530225Y-124297496D01*
X114445542Y-124146834D01*
X114479265Y-124084352D01*
X114522250Y-124079338D01*
X114745004Y-124015754D01*
X114808000Y-123910347D01*
X114733301Y-123747731D01*
X114530649Y-123435007D01*
X114232208Y-123019243D01*
X113919000Y-122609476D01*
X113483897Y-122046353D01*
X113203656Y-121658655D01*
X113068599Y-121428307D01*
X113069052Y-121337232D01*
X113195338Y-121367351D01*
X113275650Y-121407531D01*
X113558989Y-121513516D01*
X113676959Y-121453605D01*
X113633824Y-121250953D01*
X113433850Y-120928715D01*
X113117556Y-120549309D01*
X112597703Y-119957569D01*
X112131904Y-119382118D01*
X111743566Y-118856591D01*
X111456094Y-118414624D01*
X111292897Y-118089853D01*
X111277381Y-117915913D01*
X111281604Y-117911061D01*
X111405062Y-117945966D01*
X111660128Y-118090392D01*
X111792231Y-118176863D01*
X112087944Y-118367900D01*
X112288581Y-118479298D01*
X112324762Y-118491000D01*
X112404446Y-118392011D01*
X112343215Y-118110328D01*
X112149277Y-117668876D01*
X111830835Y-117090580D01*
X111812300Y-117059337D01*
X111481075Y-116429865D01*
X111195756Y-115752608D01*
X110985943Y-115108622D01*
X110881237Y-114578959D01*
X110875523Y-114494168D01*
X110955556Y-114520964D01*
X111173662Y-114696331D01*
X111490409Y-114987159D01*
X111664750Y-115156900D01*
X112159292Y-115606674D01*
X112644531Y-115977799D01*
X113077041Y-116243054D01*
X113413394Y-116375212D01*
X113589633Y-116363588D01*
X113585365Y-116246752D01*
X113416623Y-116061052D01*
X113399866Y-116047451D01*
X113172634Y-115861329D01*
X112810782Y-115559354D01*
X112372888Y-115190564D01*
X112097742Y-114957385D01*
X111656066Y-114576848D01*
X111387912Y-114325933D01*
X111269837Y-114173889D01*
X111278394Y-114089965D01*
X111390139Y-114043410D01*
X111399242Y-114041221D01*
X111623408Y-113920786D01*
X111695454Y-113655813D01*
X111696500Y-113598399D01*
X111636848Y-113301426D01*
X111417259Y-113069192D01*
X111261630Y-112969124D01*
X110729988Y-112589650D01*
X110289133Y-112151154D01*
X109995381Y-111715206D01*
X109916979Y-111499078D01*
X109878069Y-111151490D01*
X109954899Y-111014773D01*
X110141597Y-111099353D01*
X110141940Y-111099637D01*
X110390639Y-111164662D01*
X110489064Y-111125577D01*
X110566446Y-111041230D01*
X110594778Y-110881374D01*
X110571680Y-110598318D01*
X110494773Y-110144367D01*
X110421305Y-109767592D01*
X110316045Y-109118697D01*
X110237797Y-108392079D01*
X110187502Y-107638092D01*
X110166101Y-106907094D01*
X110174533Y-106249438D01*
X110213740Y-105715480D01*
X110284662Y-105355576D01*
X110336946Y-105250759D01*
X110556689Y-105119764D01*
X110920518Y-105019013D01*
X111098946Y-104993711D01*
X111526631Y-104937297D01*
X111891038Y-104865725D01*
X111985190Y-104839256D01*
X112144551Y-104798450D01*
X112222939Y-104846615D01*
X112237362Y-105035845D01*
X112204828Y-105418234D01*
X112197544Y-105489668D01*
X112132250Y-105949574D01*
X112045052Y-106343160D01*
X111983513Y-106519623D01*
X111911830Y-106827236D01*
X111976909Y-107237449D01*
X112002135Y-107325481D01*
X112088799Y-107677574D01*
X112072243Y-107896247D01*
X111944628Y-108083487D01*
X111943822Y-108084378D01*
X111798987Y-108376893D01*
X111817782Y-108548519D01*
X111868775Y-108767088D01*
X111936210Y-109176268D01*
X112011821Y-109713875D01*
X112087343Y-110317725D01*
X112154511Y-110925633D01*
X112202428Y-111442500D01*
X112303919Y-111872999D01*
X112519940Y-112379938D01*
X112807043Y-112889045D01*
X113121784Y-113326046D01*
X113420716Y-113616669D01*
X113502477Y-113665000D01*
X113826038Y-113876968D01*
X114187600Y-114196786D01*
X114343460Y-114363500D01*
X114731843Y-114736076D01*
X115189472Y-115072731D01*
X115356373Y-115169330D01*
X115672099Y-115321215D01*
X115934879Y-115396493D01*
X116235051Y-115404501D01*
X116662950Y-115354578D01*
X116861254Y-115324895D01*
X117355795Y-115254582D01*
X117779253Y-115203669D01*
X118044703Y-115182531D01*
X118054603Y-115182435D01*
X118300278Y-115085864D01*
X118632277Y-114833392D01*
X118996050Y-114480473D01*
X119337046Y-114082560D01*
X119600712Y-113695105D01*
X119685830Y-113524243D01*
X119791022Y-113170438D01*
X119820567Y-112747943D01*
X119780499Y-112168758D01*
X119779460Y-112158993D01*
X119734544Y-111688619D01*
X119730916Y-111416547D01*
X119776967Y-111289218D01*
X119881090Y-111253074D01*
X119921586Y-111252000D01*
X120106260Y-111173271D01*
X120117896Y-111029750D01*
X119970334Y-110849241D01*
X119598958Y-110743767D01*
X119568834Y-110739547D01*
X119204592Y-110672395D01*
X118939301Y-110591532D01*
X118903750Y-110573302D01*
X118756731Y-110405690D01*
X118802700Y-110267380D01*
X118928004Y-110236000D01*
X119149639Y-110169189D01*
X119168137Y-110021372D01*
X118977692Y-109871473D01*
X118955478Y-109862595D01*
X118687733Y-109724299D01*
X118559341Y-109608833D01*
X118386893Y-109517567D01*
X118077111Y-109474503D01*
X118039004Y-109474000D01*
X117741657Y-109449306D01*
X117621305Y-109338860D01*
X117602000Y-109156500D01*
X117526831Y-108901607D01*
X117341114Y-108850150D01*
X117104528Y-109017047D01*
X117093999Y-109029500D01*
X116877778Y-109190886D01*
X116760949Y-109220000D01*
X116606157Y-109118005D01*
X116586000Y-109029500D01*
X116520122Y-108858058D01*
X116352041Y-108892682D01*
X116194691Y-109041920D01*
X115924794Y-109188585D01*
X115629012Y-109180373D01*
X115353557Y-109163599D01*
X115197223Y-109273193D01*
X115075151Y-109548952D01*
X114902487Y-109870534D01*
X114674364Y-109982197D01*
X114641029Y-109983572D01*
X114365232Y-110099247D01*
X114095402Y-110397412D01*
X113874525Y-110809267D01*
X113745589Y-111266014D01*
X113729477Y-111442500D01*
X113683469Y-111791358D01*
X113580611Y-111946850D01*
X113558479Y-111950500D01*
X113362251Y-112046548D01*
X113286273Y-112137322D01*
X113198880Y-112253894D01*
X113122663Y-112243576D01*
X113025160Y-112070171D01*
X112873910Y-111697484D01*
X112860152Y-111662179D01*
X112713612Y-111070448D01*
X112656176Y-110347002D01*
X112688258Y-109598143D01*
X112810270Y-108930167D01*
X112849037Y-108805168D01*
X113216537Y-108072311D01*
X113764984Y-107420950D01*
X114436446Y-106902830D01*
X115172992Y-106569696D01*
X115419224Y-106509412D01*
X115839949Y-106429160D01*
X115565296Y-106776830D01*
X115389120Y-107010987D01*
X115368076Y-107114606D01*
X115499592Y-107156257D01*
X115550770Y-107164224D01*
X115868866Y-107136799D01*
X116087608Y-107055857D01*
X116365933Y-106964679D01*
X116781255Y-106892980D01*
X117261799Y-106845037D01*
X117735794Y-106825123D01*
X118131466Y-106837517D01*
X118377042Y-106886492D01*
X118417044Y-106917082D01*
X118396936Y-107034612D01*
X118254882Y-107061000D01*
X117920589Y-107103904D01*
X117673888Y-107208793D01*
X117602000Y-107312188D01*
X117718862Y-107366872D01*
X118030022Y-107427762D01*
X118476337Y-107484198D01*
X118644739Y-107500161D01*
X119535959Y-107635069D01*
X120211735Y-107870557D01*
X120693709Y-108216072D01*
X120902309Y-108485750D01*
X121052078Y-108757378D01*
X121064673Y-108908757D01*
X120945131Y-109030093D01*
X120933205Y-109038871D01*
X120821404Y-109152926D01*
X120850428Y-109283059D01*
X121044003Y-109493590D01*
X121131395Y-109576148D01*
X121528222Y-110056316D01*
X121840675Y-110639302D01*
X122019877Y-111223474D01*
X122044210Y-111474250D01*
X122028521Y-111779211D01*
X121939120Y-111870810D01*
X121721120Y-111788983D01*
X121657650Y-111755531D01*
X121482544Y-111693550D01*
X121420657Y-111806625D01*
X121415985Y-111977781D01*
X121474117Y-112275572D01*
X121621476Y-112697264D01*
X121796985Y-113090266D01*
X122109559Y-113994283D01*
X122172752Y-114939839D01*
X122031893Y-115759275D01*
X121891203Y-116266051D01*
X121522565Y-115537025D01*
X121252104Y-115070667D01*
X121035827Y-114840252D01*
X120880705Y-114847213D01*
X120793711Y-115092987D01*
X120777000Y-115383579D01*
X120736847Y-115847231D01*
X120637090Y-116283308D01*
X120603883Y-116373484D01*
X120443662Y-116630652D01*
X120170352Y-116959160D01*
X119841096Y-117302157D01*
X119513032Y-117602796D01*
X119243303Y-117804228D01*
X119113753Y-117856000D01*
X119088887Y-117750453D01*
X119146033Y-117483824D01*
X119195133Y-117332032D01*
X119333466Y-116904396D01*
X119367585Y-116661072D01*
X119277762Y-116598065D01*
X119044265Y-116711381D01*
X118647368Y-116997023D01*
X118417948Y-117174654D01*
X117768484Y-117639037D01*
X117169648Y-117984382D01*
X116667410Y-118186692D01*
X116395500Y-118230348D01*
X116221106Y-118216217D01*
X116286712Y-118145863D01*
X116363749Y-118099827D01*
X116549536Y-117879446D01*
X116585999Y-117722689D01*
X116546052Y-117566856D01*
X116383466Y-117493662D01*
X116034126Y-117475010D01*
X116020751Y-117475000D01*
X115469473Y-117440048D01*
X114881463Y-117347615D01*
X114344107Y-117216331D01*
X113944794Y-117064826D01*
X113858991Y-117014113D01*
X113612641Y-116902131D01*
X113327174Y-116846327D01*
X113083167Y-116850029D01*
X112961195Y-116916568D01*
X112972995Y-116977510D01*
X113133785Y-117107156D01*
X113441235Y-117274997D01*
X113601499Y-117347999D01*
X113991324Y-117532509D01*
X114201754Y-117714898D01*
X114291891Y-117980437D01*
X114319824Y-118384380D01*
X114371798Y-118769578D01*
X114527550Y-119118348D01*
X114831687Y-119529677D01*
X114841052Y-119540983D01*
X115113946Y-119887804D01*
X115236291Y-120108451D01*
X115232167Y-120261200D01*
X115175062Y-120349293D01*
X115099359Y-120494173D01*
X115162342Y-120645345D01*
X115395921Y-120863466D01*
X115482588Y-120933864D01*
X115796769Y-121214262D01*
X116033086Y-121475341D01*
X116088379Y-121558395D01*
X116153736Y-121726612D01*
X116050469Y-121753926D01*
X115894157Y-121719822D01*
X115637632Y-121694104D01*
X115595012Y-121795876D01*
X115764025Y-122019274D01*
X116141500Y-122357703D01*
X116451741Y-122641903D01*
X116659294Y-122889454D01*
X116713000Y-123011914D01*
X116799141Y-123187885D01*
X117025461Y-123473751D01*
X117343802Y-123808978D01*
X117358385Y-123823155D01*
X117712657Y-124190072D01*
X117894788Y-124449472D01*
X117934452Y-124648062D01*
X117921128Y-124708868D01*
X117924004Y-124957206D01*
X118040336Y-125046708D01*
X118215703Y-125176128D01*
X118473776Y-125438909D01*
X118776294Y-125786423D01*
X119084993Y-126170043D01*
X119361609Y-126541140D01*
X119567879Y-126851088D01*
X119665541Y-127051259D01*
X119655065Y-127098811D01*
X119517913Y-127242315D01*
X119549822Y-127446094D01*
X119729250Y-127595695D01*
X119926461Y-127718379D01*
X120240937Y-127968217D01*
X120608950Y-128294155D01*
X120655663Y-128337820D01*
X121419630Y-128969332D01*
X122177321Y-129403389D01*
X122884912Y-129653243D01*
X123170392Y-129765979D01*
X123621510Y-129986487D01*
X124188187Y-130288442D01*
X124820341Y-130645522D01*
X125213281Y-130877106D01*
X126306031Y-131525583D01*
X127224849Y-132050084D01*
X128009672Y-132463664D01*
X128700435Y-132779376D01*
X129337073Y-133010276D01*
X129959520Y-133169418D01*
X130607713Y-133269856D01*
X131321586Y-133324645D01*
X132141075Y-133346839D01*
X132778095Y-133349975D01*
X135244510Y-133242917D01*
X137579542Y-132922207D01*
X139780933Y-132388459D01*
X141846425Y-131642288D01*
X143773761Y-130684305D01*
X144716500Y-130105363D01*
X145788617Y-129325325D01*
X146667720Y-128506235D01*
X147378722Y-127608889D01*
X147946536Y-126594083D01*
X148396076Y-125422615D01*
X148752255Y-124055281D01*
X148842300Y-123613110D01*
X148970920Y-122934290D01*
X149050235Y-122465676D01*
X149081733Y-122168604D01*
X149066905Y-122004410D01*
X149007238Y-121934432D01*
X148907500Y-121920000D01*
X148815365Y-121875979D01*
X148757629Y-121715182D01*
X148727252Y-121394511D01*
X148717195Y-120870866D01*
X148717000Y-120753596D01*
X148701834Y-120102841D01*
X148648698Y-119628776D01*
X148546129Y-119255478D01*
X148461125Y-119058628D01*
X148133616Y-118579624D01*
X147749367Y-118341744D01*
X147335766Y-118346449D01*
X146920200Y-118595199D01*
X146612036Y-118959995D01*
X146419351Y-119395188D01*
X146264025Y-120061964D01*
X146148645Y-120940295D01*
X146075800Y-122010155D01*
X146048076Y-123251517D01*
X146047910Y-123325601D01*
X146043031Y-124035143D01*
X146025794Y-124544317D01*
X145989261Y-124906698D01*
X145926492Y-125175859D01*
X145830550Y-125405375D01*
X145762090Y-125532422D01*
X145487443Y-125906359D01*
X145156487Y-126214821D01*
X145071185Y-126271147D01*
X144664012Y-126508949D01*
X144855730Y-126124641D01*
X144975321Y-125640839D01*
X144928036Y-125103797D01*
X144725337Y-124641136D01*
X144722090Y-124636668D01*
X144600468Y-124516418D01*
X144424632Y-124478745D01*
X144119234Y-124517437D01*
X143877726Y-124567075D01*
X142488245Y-124859145D01*
X141307270Y-125087124D01*
X140298500Y-125254641D01*
X139425638Y-125365329D01*
X138652384Y-125422820D01*
X137942439Y-125430744D01*
X137259503Y-125392734D01*
X136567277Y-125312422D01*
X136509871Y-125304200D01*
X135832569Y-125194344D01*
X135156114Y-125064860D01*
X134573960Y-124934578D01*
X134276655Y-124854228D01*
X133827480Y-124729597D01*
X133507361Y-124695369D01*
X133287924Y-124782195D01*
X133140796Y-125020727D01*
X133037602Y-125441619D01*
X132949968Y-126075523D01*
X132921774Y-126317893D01*
X132752545Y-127344299D01*
X132501297Y-128139931D01*
X132159473Y-128717165D01*
X131718511Y-129088372D01*
X131169853Y-129265925D01*
X130868517Y-129286000D01*
X130406421Y-129286000D01*
X130747815Y-128880275D01*
X130969874Y-128565925D01*
X131033541Y-128283189D01*
X131002094Y-128023025D01*
X130950337Y-127682668D01*
X130890938Y-127183533D01*
X130834894Y-126620159D01*
X130822842Y-126482084D01*
X130705200Y-125662469D01*
X130486175Y-125033614D01*
X130130982Y-124554380D01*
X129604832Y-124183629D01*
X128872941Y-123880223D01*
X128532699Y-123773752D01*
X127852242Y-123612063D01*
X127333053Y-123587347D01*
X126920406Y-123702926D01*
X126642160Y-123888500D01*
X126326826Y-124125861D01*
X126109089Y-124185368D01*
X125911114Y-124072844D01*
X125793500Y-123952000D01*
X125479976Y-123729888D01*
X125152241Y-123756169D01*
X124863303Y-123958479D01*
X124601694Y-124136664D01*
X124432246Y-124088536D01*
X124347023Y-123807433D01*
X124333000Y-123513334D01*
X124336019Y-123269538D01*
X124366497Y-123082382D01*
X124456568Y-122907520D01*
X124638362Y-122700600D01*
X124944013Y-122417275D01*
X125405653Y-122013195D01*
X125444250Y-121979581D01*
X125801192Y-121636138D01*
X125957000Y-121383102D01*
X125926826Y-121177707D01*
X125783318Y-121022550D01*
X125577907Y-120922864D01*
X125302032Y-120964797D01*
X125186623Y-121005478D01*
X124887622Y-121089991D01*
X124729613Y-121044324D01*
X124694089Y-120998783D01*
X124639334Y-120692440D01*
X124759493Y-120327607D01*
X125006801Y-119967987D01*
X125333499Y-119677287D01*
X125691824Y-119519213D01*
X125812519Y-119507000D01*
X126178744Y-119470999D01*
X126560495Y-119379998D01*
X126882759Y-119259495D01*
X127070524Y-119134990D01*
X127088985Y-119073089D01*
X126942986Y-118958482D01*
X126696908Y-118894586D01*
X126438790Y-118798558D01*
X126400345Y-118619077D01*
X126574986Y-118388111D01*
X126839674Y-118201598D01*
X127332514Y-118026297D01*
X127608930Y-118040774D01*
X127980042Y-118207540D01*
X128429835Y-118534769D01*
X128900434Y-118968757D01*
X129333962Y-119455798D01*
X129672545Y-119942185D01*
X129689057Y-119971027D01*
X130217917Y-120761350D01*
X130854649Y-121423581D01*
X131636135Y-121984510D01*
X132599257Y-122470929D01*
X133696181Y-122881858D01*
X134952953Y-123167313D01*
X136320705Y-123229006D01*
X137801922Y-123066786D01*
X139399088Y-122680503D01*
X139954000Y-122503165D01*
X140688645Y-122203291D01*
X141177388Y-121870070D01*
X141428077Y-121481445D01*
X141448559Y-121015362D01*
X141246682Y-120449765D01*
X140895175Y-119857942D01*
X140439134Y-119121510D01*
X140118086Y-118444372D01*
X139908026Y-117748036D01*
X139784950Y-116954007D01*
X139726710Y-116037026D01*
X139693581Y-115335677D01*
X139644099Y-114858088D01*
X139564278Y-114574033D01*
X139440131Y-114453282D01*
X139257671Y-114465607D01*
X139043173Y-114559738D01*
X138594162Y-114864980D01*
X138162075Y-115323153D01*
X137715242Y-115971156D01*
X137464606Y-116398845D01*
X136795179Y-117508062D01*
X136165058Y-118376027D01*
X135565899Y-119010977D01*
X134989357Y-119421150D01*
X134427088Y-119614785D01*
X134188138Y-119633525D01*
X133667500Y-119633050D01*
X134073349Y-119385588D01*
X134558263Y-119003211D01*
X134809174Y-118606866D01*
X134825145Y-118222271D01*
X134605236Y-117875146D01*
X134148508Y-117591208D01*
X134139012Y-117587211D01*
X133342879Y-117233175D01*
X132506176Y-116824925D01*
X131692626Y-116396461D01*
X130965959Y-115981783D01*
X130389899Y-115614890D01*
X130238500Y-115506196D01*
X129428953Y-114840310D01*
X128603720Y-114057906D01*
X127830797Y-113229488D01*
X127178183Y-112425560D01*
X126936500Y-112082481D01*
X126593384Y-111591739D01*
X126339250Y-111296574D01*
X126145626Y-111167349D01*
X126047500Y-111157029D01*
X125899239Y-111215258D01*
X125806411Y-111383308D01*
X125744904Y-111719622D01*
X125720144Y-111950500D01*
X125634084Y-112549895D01*
X125486844Y-112980975D01*
X125239275Y-113328469D01*
X124965139Y-113584418D01*
X124437533Y-113923962D01*
X123888566Y-114099913D01*
X123391365Y-114091619D01*
X123285250Y-114058922D01*
X123001754Y-113904377D01*
X122971926Y-113753297D01*
X123195907Y-113603550D01*
X123318674Y-113556446D01*
X123667169Y-113360530D01*
X123790946Y-113076773D01*
X123699969Y-112675720D01*
X123652517Y-112569647D01*
X123466144Y-111986659D01*
X123506252Y-111447871D01*
X123646558Y-111101680D01*
X123830271Y-110481424D01*
X123811725Y-109756044D01*
X123594488Y-108969247D01*
X123444820Y-108630917D01*
X123240911Y-108252316D01*
X123010760Y-107916485D01*
X122719552Y-107590029D01*
X122332472Y-107239556D01*
X121814705Y-106831669D01*
X121131437Y-106332975D01*
X120814925Y-106108312D01*
X120170046Y-105677206D01*
X119671998Y-105408848D01*
X119282682Y-105291869D01*
X118964000Y-105314901D01*
X118677853Y-105466574D01*
X118674023Y-105469460D01*
X118385794Y-105619845D01*
X118198069Y-105659960D01*
X118055506Y-105647491D01*
X118042466Y-105559487D01*
X118158948Y-105331008D01*
X118198069Y-105262246D01*
X118426577Y-104924539D01*
X118739344Y-104534698D01*
X118884085Y-104373246D01*
X119218935Y-104061331D01*
X119513477Y-103915943D01*
X119789285Y-103886000D01*
X120169974Y-103823942D01*
X120412199Y-103675827D01*
X120647839Y-103483001D01*
X120983546Y-103299913D01*
X121008040Y-103289449D01*
X121305791Y-103114211D01*
X121351270Y-102946379D01*
X121146190Y-102790502D01*
X120775166Y-102670566D01*
X120365032Y-102538783D01*
X120194206Y-102389863D01*
X120248078Y-102200210D01*
X120390579Y-102049405D01*
X120734483Y-101891693D01*
X121240317Y-101855457D01*
X121850614Y-101934186D01*
X122507906Y-102121369D01*
X123037904Y-102349331D01*
X123449462Y-102538935D01*
X123777190Y-102656659D01*
X123953251Y-102678365D01*
X123957047Y-102676380D01*
X124078835Y-102476872D01*
X124015837Y-102197889D01*
X123789305Y-101908495D01*
X123697726Y-101833716D01*
X123465142Y-101610063D01*
X123471851Y-101456675D01*
X123720372Y-101370523D01*
X124102102Y-101347944D01*
X124475235Y-101397421D01*
X124738459Y-101594088D01*
X124836621Y-101720850D01*
X125272515Y-102469765D01*
X125580610Y-103281111D01*
X125727046Y-104059918D01*
X125734430Y-104238871D01*
X125853277Y-105629563D01*
X126197253Y-106964831D01*
X126773556Y-108260910D01*
X127589384Y-109534030D01*
X128636822Y-110784273D01*
X129019408Y-111165408D01*
X129494530Y-111596611D01*
X130020918Y-112045232D01*
X130557302Y-112478625D01*
X131062412Y-112864140D01*
X131494978Y-113169130D01*
X131813730Y-113360947D01*
X131957249Y-113411000D01*
X132168876Y-113329523D01*
X132197318Y-113098557D01*
X132048397Y-112738294D01*
X131727933Y-112268929D01*
X131573283Y-112079017D01*
X130782149Y-110961233D01*
X130133585Y-109657672D01*
X129644810Y-108203472D01*
X129611936Y-108077000D01*
X129455577Y-107500405D01*
X129300475Y-106993876D01*
X129167501Y-106622327D01*
X129096447Y-106473708D01*
X128985290Y-106148955D01*
X128979314Y-105648981D01*
X128992221Y-105504716D01*
X128995117Y-104893942D01*
X128839335Y-104423566D01*
X128494166Y-104043711D01*
X127928902Y-103704498D01*
X127864890Y-103673643D01*
X127433355Y-103448009D01*
X127176345Y-103269318D01*
X127114983Y-103155759D01*
X127226617Y-103124000D01*
X127383174Y-103013213D01*
X127549439Y-102736652D01*
X127687371Y-102378011D01*
X127758928Y-102020987D01*
X127762000Y-101946098D01*
X127715121Y-101623998D01*
X127543247Y-101324505D01*
X127253221Y-101013194D01*
X126983102Y-100718569D01*
X126821946Y-100477305D01*
X126799933Y-100374264D01*
X126807428Y-100119584D01*
X126730404Y-99724603D01*
X126596408Y-99276963D01*
X126432984Y-98864305D01*
X126267677Y-98574271D01*
X126217223Y-98520250D01*
X125894890Y-98354592D01*
X125575342Y-98298000D01*
X125317045Y-98272575D01*
X125258398Y-98169694D01*
X125288244Y-98075750D01*
X125441316Y-97536773D01*
X125390718Y-97114859D01*
X125356838Y-97042646D01*
X125134225Y-96802168D01*
X124767291Y-96554662D01*
X124357489Y-96357222D01*
X124006271Y-96266939D01*
X123976742Y-96266000D01*
X123663441Y-96149263D01*
X123396979Y-95839764D01*
X123250769Y-95476801D01*
X123060404Y-95151584D01*
X122729590Y-95019126D01*
X122431547Y-95058374D01*
X122136123Y-95040727D01*
X121716612Y-94863720D01*
X121626639Y-94812932D01*
X120929062Y-94538876D01*
X120213220Y-94516621D01*
X119497918Y-94746684D01*
X119483927Y-94753770D01*
X118937553Y-94946438D01*
X118568237Y-94957130D01*
X118267016Y-94959412D01*
X117934091Y-95083547D01*
X117525112Y-95334822D01*
X116809296Y-95712411D01*
X116159967Y-95872191D01*
X115755034Y-95938699D01*
X115460181Y-96008541D01*
X115361427Y-96051239D01*
X115350760Y-96159596D01*
X115558031Y-96222193D01*
X115950898Y-96236566D01*
X116497016Y-96200253D01*
X116818593Y-96162166D01*
X117309929Y-96099982D01*
X117692294Y-96058318D01*
X117906352Y-96043353D01*
X117931593Y-96046263D01*
X117843614Y-96124588D01*
X117582683Y-96319492D01*
X117185600Y-96604308D01*
X116689166Y-96952366D01*
X116510913Y-97075797D01*
X115986123Y-97444613D01*
X115546067Y-97766287D01*
X115228709Y-98012111D01*
X115072016Y-98153373D01*
X115062000Y-98171497D01*
X115147927Y-98324189D01*
X115241123Y-98415558D01*
X115394180Y-98473018D01*
X115599371Y-98385139D01*
X115880388Y-98160207D01*
X116161184Y-97939797D01*
X116362675Y-97829445D01*
X116415085Y-97830751D01*
X116381689Y-97961047D01*
X116226780Y-98240849D01*
X115981088Y-98616351D01*
X115902819Y-98727660D01*
X115627983Y-99121306D01*
X115422070Y-99432418D01*
X115320789Y-99606545D01*
X115316000Y-99622507D01*
X115406921Y-99695784D01*
X115668462Y-99603952D01*
X116083793Y-99353303D01*
X116141499Y-99314000D01*
X116467022Y-99099764D01*
X116704179Y-98961554D01*
X116776428Y-98933000D01*
X116736710Y-99022956D01*
X116563855Y-99264922D01*
X116288841Y-99617041D01*
X116086796Y-99864846D01*
X115634467Y-100459264D01*
X115376397Y-100928290D01*
X115305723Y-101301666D01*
X115415582Y-101609131D01*
X115633084Y-101830983D01*
X115855446Y-102067460D01*
X115892311Y-102345475D01*
X115871209Y-102475201D01*
X115837700Y-102747955D01*
X115927801Y-102854684D01*
X116157375Y-102874039D01*
X116403651Y-102886472D01*
X116421352Y-102945948D01*
X116268500Y-103072988D01*
X116081243Y-103171593D01*
X115810555Y-103215610D01*
X115393874Y-103210397D01*
X114998500Y-103181745D01*
X114516817Y-103134172D01*
X114141142Y-103084453D01*
X113936448Y-103041576D01*
X113919000Y-103032413D01*
X113962882Y-102925944D01*
X114141249Y-102777126D01*
X114351198Y-102571344D01*
X114424993Y-102369369D01*
X114344269Y-102245870D01*
X114274600Y-102235000D01*
X114186243Y-102197514D01*
X114274600Y-102082600D01*
X114420077Y-101801485D01*
X114329529Y-101532165D01*
X114096576Y-101363219D01*
X113876788Y-101223899D01*
X113876905Y-101083151D01*
X113903054Y-101047712D01*
X113968352Y-100847641D01*
X113894741Y-100737541D01*
X113831230Y-100596820D01*
X113961263Y-100511075D01*
X114113629Y-100366280D01*
X114171595Y-100154430D01*
X114121316Y-99984903D01*
X114032412Y-99949000D01*
X113947492Y-99856619D01*
X113964926Y-99758500D01*
X113946918Y-99607113D01*
X113791940Y-99566384D01*
X113588756Y-99630521D01*
X113426169Y-99793655D01*
X113351810Y-100022871D01*
X113264278Y-100425453D01*
X113180253Y-100922526D01*
X113165114Y-101027938D01*
X112993357Y-102047658D01*
X112785288Y-102849714D01*
X112525885Y-103469550D01*
X112200123Y-103942609D01*
X111792979Y-104304333D01*
X111769345Y-104320730D01*
X111432971Y-104520258D01*
X111098646Y-104670400D01*
X110824102Y-104753013D01*
X110667068Y-104749953D01*
X110669052Y-104666522D01*
X110865251Y-104530809D01*
X110934500Y-104521000D01*
X111148851Y-104460309D01*
X111156877Y-104312691D01*
X110965100Y-104129822D01*
X110878917Y-104080594D01*
X110566905Y-103861927D01*
X110353452Y-103614159D01*
X110265754Y-103433103D01*
X110318776Y-103427171D01*
X110504945Y-103551973D01*
X110956357Y-103727467D01*
X111493531Y-103728263D01*
X112020307Y-103556921D01*
X112104281Y-103509413D01*
X112456789Y-103158665D01*
X112714494Y-102590578D01*
X112879218Y-101798759D01*
X112952785Y-100776816D01*
X112956917Y-100520500D01*
X112955232Y-99929087D01*
X112935455Y-99549382D01*
X112891603Y-99339383D01*
X112817691Y-99257087D01*
X112776000Y-99250500D01*
X112625925Y-99353711D01*
X112606072Y-99490354D01*
X112528223Y-99722282D01*
X112309578Y-99993304D01*
X112245467Y-100050948D01*
X111988279Y-100317082D01*
X111908109Y-100578832D01*
X111921633Y-100762397D01*
X111899654Y-101138727D01*
X111774238Y-101304503D01*
X111643417Y-101463812D01*
X111719147Y-101607748D01*
X111802747Y-101805096D01*
X111728549Y-101984166D01*
X111670335Y-102165260D01*
X111772019Y-102351181D01*
X111959901Y-102528564D01*
X112191614Y-102780270D01*
X112230322Y-102935057D01*
X112092770Y-102954304D01*
X111831931Y-102823703D01*
X111482210Y-102667869D01*
X111186487Y-102615999D01*
X110928943Y-102554254D01*
X110744206Y-102327498D01*
X110674019Y-102175579D01*
X110513823Y-101648203D01*
X110532591Y-101183917D01*
X110669773Y-100793693D01*
X110801155Y-100408759D01*
X110908160Y-99940053D01*
X110929092Y-99806669D01*
X111038499Y-99315577D01*
X111210404Y-98831385D01*
X111257319Y-98732066D01*
X111437627Y-98204690D01*
X111504868Y-97522524D01*
X111505999Y-97401526D01*
X111513490Y-97011068D01*
X111552668Y-96705223D01*
X111585617Y-96605566D01*
X112021676Y-96605566D01*
X112120136Y-97095295D01*
X112211701Y-97253741D01*
X112422863Y-97490113D01*
X112562622Y-97487979D01*
X112635440Y-97244182D01*
X112649000Y-96944290D01*
X112677423Y-96565995D01*
X112788723Y-96238002D01*
X113021948Y-95863111D01*
X113157000Y-95679739D01*
X113454359Y-95278818D01*
X113609341Y-95037717D01*
X113635881Y-94916052D01*
X113547914Y-94873437D01*
X113436774Y-94869000D01*
X113218574Y-94961686D01*
X112914671Y-95199177D01*
X112588432Y-95520623D01*
X112303223Y-95865174D01*
X112156015Y-96098900D01*
X112021676Y-96605566D01*
X111585617Y-96605566D01*
X111648596Y-96415087D01*
X111826332Y-96071757D01*
X112110940Y-95606328D01*
X112223740Y-95428129D01*
X112683273Y-94697324D01*
X113027372Y-94128187D01*
X113281529Y-93671063D01*
X113471234Y-93276300D01*
X113621979Y-92894245D01*
X113759253Y-92475243D01*
X113787481Y-92382156D01*
X114203294Y-91388419D01*
X114622070Y-90731156D01*
X114967442Y-90198915D01*
X115281317Y-89592814D01*
X115457419Y-89154000D01*
X115640696Y-88625466D01*
X115779108Y-88318419D01*
X115893036Y-88208868D01*
X116002859Y-88272824D01*
X116089361Y-88410115D01*
X116233483Y-88885523D01*
X116245549Y-89448816D01*
X116132560Y-89984421D01*
X115975423Y-90291127D01*
X115747364Y-90672825D01*
X115719089Y-90956714D01*
X115843819Y-91155019D01*
X115888062Y-91294853D01*
X115777094Y-91513874D01*
X115526319Y-91815785D01*
X115270548Y-92167529D01*
X115103496Y-92529533D01*
X115040058Y-92842090D01*
X115095129Y-93045496D01*
X115208179Y-93090999D01*
X115359763Y-93015304D01*
X115662149Y-92809560D01*
X116070559Y-92505778D01*
X116509929Y-92160400D01*
X117246011Y-91575729D01*
X117798780Y-91155992D01*
X118174871Y-90897493D01*
X118380918Y-90796536D01*
X118423553Y-90849424D01*
X118309410Y-91052460D01*
X118179963Y-91229737D01*
X117993882Y-91537797D01*
X117875743Y-91852265D01*
X117845058Y-92098507D01*
X117921336Y-92201885D01*
X117925806Y-92202000D01*
X118165492Y-92123159D01*
X118526805Y-91915086D01*
X118944387Y-91620455D01*
X119352877Y-91281942D01*
X119397248Y-91241264D01*
X120026587Y-90781407D01*
X120650792Y-90575051D01*
X121252415Y-90616659D01*
X121602500Y-90710273D01*
X121158000Y-90884837D01*
X120592770Y-91126513D01*
X120246852Y-91325935D01*
X120092693Y-91500637D01*
X120078500Y-91571869D01*
X120183837Y-91715646D01*
X120457284Y-91763304D01*
X120834991Y-91722221D01*
X121253110Y-91599775D01*
X121647792Y-91403342D01*
X121671747Y-91387771D01*
X122427030Y-90976859D01*
X123168870Y-90738199D01*
X123682217Y-90686906D01*
X123927105Y-90695939D01*
X123991664Y-90723807D01*
X123856650Y-90790744D01*
X123502816Y-90916980D01*
X123444000Y-90937330D01*
X123064060Y-91067535D01*
X122797588Y-91156656D01*
X122713750Y-91182423D01*
X122682657Y-91284620D01*
X122682000Y-91309738D01*
X122783915Y-91445131D01*
X123033649Y-91614560D01*
X123077509Y-91638003D01*
X123332433Y-91738319D01*
X123648460Y-91787895D01*
X124091928Y-91792052D01*
X124633259Y-91762851D01*
X125264728Y-91736142D01*
X125724976Y-91751774D01*
X125975469Y-91808296D01*
X125984000Y-91813642D01*
X126039374Y-91893585D01*
X125890380Y-91934959D01*
X125571250Y-91946055D01*
X125164994Y-91970778D01*
X124995192Y-92053735D01*
X125047458Y-92213221D01*
X125220962Y-92391560D01*
X125516256Y-92546746D01*
X126022146Y-92657468D01*
X126459212Y-92707190D01*
X126978862Y-92771361D01*
X127435796Y-92860216D01*
X127739969Y-92955804D01*
X127762000Y-92966913D01*
X128079500Y-93139934D01*
X127635000Y-93255925D01*
X127293137Y-93346354D01*
X127048258Y-93413237D01*
X127031749Y-93417971D01*
X126889344Y-93563048D01*
X126897770Y-93807020D01*
X127041077Y-94057209D01*
X127158750Y-94155941D01*
X127441133Y-94281776D01*
X127863980Y-94412312D01*
X128179212Y-94486300D01*
X128752759Y-94657017D01*
X129191069Y-94895064D01*
X129258712Y-94951406D01*
X129603500Y-95267952D01*
X129230549Y-95208556D01*
X128790761Y-95192345D01*
X128557963Y-95298818D01*
X128533689Y-95501315D01*
X128719473Y-95773177D01*
X129116849Y-96087743D01*
X129177732Y-96126415D01*
X129550043Y-96333178D01*
X129850845Y-96456130D01*
X129990575Y-96471741D01*
X130107534Y-96317938D01*
X130205285Y-96008562D01*
X130225842Y-95893842D01*
X130298254Y-95402051D01*
X130371537Y-94903820D01*
X130376601Y-94869366D01*
X130440721Y-94548095D01*
X130537886Y-94421047D01*
X130718452Y-94429033D01*
X130745626Y-94435629D01*
X130992838Y-94436762D01*
X131125905Y-94238431D01*
X131132378Y-94218629D01*
X131154228Y-93961436D01*
X131078584Y-93879028D01*
X130744295Y-93676105D01*
X130591945Y-93340897D01*
X130620034Y-92857979D01*
X130827059Y-92211932D01*
X130899489Y-92039423D01*
X131078484Y-91581070D01*
X131184345Y-91158454D01*
X131235164Y-90671442D01*
X131248739Y-90106500D01*
X131239368Y-89548540D01*
X131209397Y-89050057D01*
X131164513Y-88693226D01*
X131145482Y-88614250D01*
X131092348Y-88365546D01*
X131176208Y-88274739D01*
X131308218Y-88265000D01*
X131560699Y-88188791D01*
X131665139Y-87946636D01*
X131626897Y-87518239D01*
X131569164Y-87276354D01*
X131234871Y-86350883D01*
X130787143Y-85637932D01*
X130232453Y-85147574D01*
X130181391Y-85116950D01*
X129845394Y-84906221D01*
X129614018Y-84731275D01*
X129555172Y-84663974D01*
X129355722Y-84364109D01*
X129020040Y-84016979D01*
X128633692Y-83698564D01*
X128282245Y-83484842D01*
X128188184Y-83450149D01*
X127793587Y-83401996D01*
X127411563Y-83450608D01*
X127120848Y-83575267D01*
X127000177Y-83755253D01*
X127000000Y-83762822D01*
X127097482Y-83924625D01*
X127348638Y-84159887D01*
X127585399Y-84337563D01*
X127920801Y-84601504D01*
X128028283Y-84784936D01*
X127901551Y-84898453D01*
X127534313Y-84952647D01*
X127214988Y-84961055D01*
X126755087Y-84988459D01*
X126284098Y-85057714D01*
X125869214Y-85153510D01*
X125577628Y-85260540D01*
X125476000Y-85357248D01*
X125587570Y-85449483D01*
X125871452Y-85560650D01*
X126067858Y-85616374D01*
X126659716Y-85765406D01*
X125559858Y-86318072D01*
X125089366Y-86566639D01*
X124719357Y-86785241D01*
X124499371Y-86943325D01*
X124460000Y-86996369D01*
X124573169Y-87074463D01*
X124857760Y-87122297D01*
X124999750Y-87128427D01*
X125539500Y-87134855D01*
X124423909Y-87703478D01*
X123798560Y-88043327D01*
X123386166Y-88332510D01*
X123161128Y-88607577D01*
X123097845Y-88905082D01*
X123170717Y-89261575D01*
X123226198Y-89413549D01*
X123342649Y-89742013D01*
X123354014Y-89911464D01*
X123262120Y-89993296D01*
X123241252Y-90001773D01*
X123013056Y-89979438D01*
X122812272Y-89855461D01*
X122589399Y-89716767D01*
X122450392Y-89711660D01*
X122282101Y-89690444D01*
X122172839Y-89597101D01*
X121941960Y-89463609D01*
X121607032Y-89408000D01*
X121606632Y-89408000D01*
X121192390Y-89315277D01*
X120967500Y-89154000D01*
X120634662Y-88937644D01*
X120221258Y-88946825D01*
X119712229Y-89182471D01*
X119628155Y-89236442D01*
X119051421Y-89510744D01*
X118513858Y-89631104D01*
X118100430Y-89645163D01*
X117807690Y-89564569D01*
X117509325Y-89353878D01*
X117500980Y-89346872D01*
X117196113Y-89054416D01*
X117113278Y-88870436D01*
X117250556Y-88783569D01*
X117404004Y-88773000D01*
X117710678Y-88712250D01*
X117793657Y-88532557D01*
X117651599Y-88237753D01*
X117610253Y-88183146D01*
X117390277Y-87699886D01*
X117356571Y-87327122D01*
X117365143Y-86804500D01*
X117525639Y-87400662D01*
X117711678Y-87938237D01*
X117955241Y-88293286D01*
X118311618Y-88537275D01*
X118455170Y-88602172D01*
X118767975Y-88693386D01*
X119147460Y-88752343D01*
X119513794Y-88774105D01*
X119787147Y-88753732D01*
X119888000Y-88690829D01*
X119845677Y-88595225D01*
X120799437Y-88595225D01*
X120843062Y-88709803D01*
X121070034Y-88763920D01*
X121341912Y-88773000D01*
X121662329Y-88756700D01*
X121914119Y-88681351D01*
X122172271Y-88507277D01*
X122511773Y-88194800D01*
X122602079Y-88106250D01*
X122970111Y-87716426D01*
X123287722Y-87332187D01*
X123486861Y-87035935D01*
X123488354Y-87033056D01*
X123637333Y-86677553D01*
X123698131Y-86390211D01*
X123658451Y-86240700D01*
X123629575Y-86233000D01*
X123488543Y-86311192D01*
X123201540Y-86521296D01*
X122812549Y-86826601D01*
X122365550Y-87190395D01*
X121904528Y-87575968D01*
X121473465Y-87946610D01*
X121116342Y-88265608D01*
X120877144Y-88496254D01*
X120799437Y-88595225D01*
X119845677Y-88595225D01*
X119795565Y-88482031D01*
X119560732Y-88187673D01*
X119247207Y-87870645D01*
X119044014Y-87699429D01*
X119761000Y-87699429D01*
X119830547Y-88121770D01*
X120013749Y-88415856D01*
X120256867Y-88519000D01*
X120425213Y-88430900D01*
X120729963Y-88187608D01*
X121135304Y-87820628D01*
X121605424Y-87361468D01*
X121808712Y-87153750D01*
X122300487Y-86637610D01*
X122750780Y-86152029D01*
X123118935Y-85741776D01*
X123364297Y-85451623D01*
X123414896Y-85384969D01*
X123593765Y-85122359D01*
X123629009Y-84993666D01*
X123524368Y-84925928D01*
X123439864Y-84898187D01*
X123081151Y-84912174D01*
X122704036Y-85176935D01*
X122307264Y-85693474D01*
X122176909Y-85910413D01*
X121912016Y-86343020D01*
X121725897Y-86561274D01*
X121594618Y-86583132D01*
X121494249Y-86426550D01*
X121493073Y-86423500D01*
X121339575Y-86241632D01*
X121160400Y-86261237D01*
X121042054Y-86455904D01*
X121031000Y-86564569D01*
X121031000Y-86896139D01*
X120797567Y-86607862D01*
X120560104Y-86402800D01*
X120391336Y-86427344D01*
X120313398Y-86661403D01*
X120337625Y-87025336D01*
X120383397Y-87347947D01*
X120350195Y-87479997D01*
X120204086Y-87480901D01*
X120092586Y-87454383D01*
X119851935Y-87424452D01*
X119768451Y-87546870D01*
X119761000Y-87699429D01*
X119044014Y-87699429D01*
X118918698Y-87593835D01*
X118638910Y-87420132D01*
X118579232Y-87398867D01*
X118289204Y-87275653D01*
X118210882Y-87097522D01*
X118215849Y-87057643D01*
X118268336Y-86941530D01*
X118838999Y-86941530D01*
X118845573Y-87188880D01*
X118997716Y-87230355D01*
X119293059Y-87066550D01*
X119700337Y-86724825D01*
X120072049Y-86357010D01*
X120237732Y-86122880D01*
X120199991Y-86011247D01*
X119961428Y-86010921D01*
X119862355Y-86028578D01*
X119387556Y-86221565D01*
X119020356Y-86554561D01*
X118838999Y-86941530D01*
X118268336Y-86941530D01*
X118410822Y-86626324D01*
X118817261Y-86201620D01*
X119167594Y-85955925D01*
X119420382Y-85800095D01*
X119700450Y-85620715D01*
X120048543Y-85390717D01*
X120505405Y-85083033D01*
X121111780Y-84670596D01*
X121452774Y-84437812D01*
X121796827Y-84189086D01*
X121969217Y-84004842D01*
X122011745Y-83828252D01*
X122212725Y-83828252D01*
X122301190Y-84010729D01*
X122424333Y-84107104D01*
X122592828Y-84087571D01*
X122877710Y-83937904D01*
X122982148Y-83874354D01*
X123361623Y-83648106D01*
X123698952Y-83459515D01*
X123796538Y-83409358D01*
X124018458Y-83246349D01*
X124009632Y-83113301D01*
X123793311Y-83038770D01*
X123495503Y-83039628D01*
X122953190Y-83143493D01*
X122535488Y-83328363D01*
X122277099Y-83566021D01*
X122212725Y-83828252D01*
X122011745Y-83828252D01*
X122014593Y-83816427D01*
X121988878Y-83613507D01*
X121970911Y-83301832D01*
X122102993Y-83086321D01*
X122265604Y-82958531D01*
X122824225Y-82618070D01*
X123523744Y-82269466D01*
X124258017Y-81963605D01*
X124569199Y-81854221D01*
X124988791Y-81683480D01*
X125329002Y-81486573D01*
X125458199Y-81372248D01*
X125970967Y-80772538D01*
X126443674Y-80321301D01*
X126961728Y-79946166D01*
X127526594Y-79619566D01*
X128096362Y-79283520D01*
X128673273Y-78894547D01*
X129152078Y-78524696D01*
X129243302Y-78444409D01*
X129585803Y-78136424D01*
X129774380Y-77988254D01*
X129840275Y-77985850D01*
X129814731Y-78115161D01*
X129786000Y-78200358D01*
X129645942Y-78467965D01*
X129386592Y-78855107D01*
X129056588Y-79290751D01*
X128948819Y-79423009D01*
X128641134Y-79813278D01*
X128421277Y-80130497D01*
X128321741Y-80325916D01*
X128324053Y-80360386D01*
X128493290Y-80405067D01*
X128811473Y-80413095D01*
X128917888Y-80407325D01*
X129236630Y-80392933D01*
X129350344Y-80434361D01*
X129306903Y-80563814D01*
X129261728Y-80638623D01*
X129190190Y-80901273D01*
X129352754Y-81073182D01*
X129744792Y-81150345D01*
X129857500Y-81154159D01*
X130284640Y-81192604D01*
X130763077Y-81283049D01*
X131198615Y-81402876D01*
X131497059Y-81529465D01*
X131536658Y-81557369D01*
X131628095Y-81695346D01*
X131500299Y-81841735D01*
X131490584Y-81848895D01*
X131356790Y-81978139D01*
X131397819Y-82111714D01*
X131530952Y-82254952D01*
X131793227Y-82435731D01*
X132193447Y-82627004D01*
X132471026Y-82729432D01*
X132918682Y-82916719D01*
X133338437Y-83163386D01*
X133667735Y-83424701D01*
X133844024Y-83655934D01*
X133858000Y-83721228D01*
X133766502Y-83755964D01*
X133612349Y-83697468D01*
X133303206Y-83584729D01*
X133061768Y-83585101D01*
X132969000Y-83692634D01*
X133061907Y-83890900D01*
X133307477Y-84192155D01*
X133655983Y-84545917D01*
X134057697Y-84901700D01*
X134462220Y-85208564D01*
X134859367Y-85516657D01*
X135205579Y-85847978D01*
X135352609Y-86027847D01*
X135659699Y-86637886D01*
X135833427Y-87322235D01*
X135847942Y-87969944D01*
X135830623Y-88079426D01*
X135764601Y-88389097D01*
X135712543Y-88474650D01*
X135642728Y-88361825D01*
X135601935Y-88265000D01*
X135311654Y-87597013D01*
X135082985Y-87154474D01*
X134905516Y-86919260D01*
X134799170Y-86867999D01*
X134686671Y-86983287D01*
X134630665Y-87295178D01*
X134630815Y-87752714D01*
X134686785Y-88304940D01*
X134798237Y-88900896D01*
X134813040Y-88963500D01*
X134914652Y-89454861D01*
X134982330Y-89916899D01*
X134999016Y-90157933D01*
X134989879Y-90438512D01*
X134931818Y-90504279D01*
X134784378Y-90394284D01*
X134768749Y-90380183D01*
X134508723Y-90193802D01*
X134344846Y-90212500D01*
X134260541Y-90451559D01*
X134239000Y-90868500D01*
X134247859Y-91269067D01*
X134292181Y-91477677D01*
X134398578Y-91556218D01*
X134539372Y-91567000D01*
X134853408Y-91489424D01*
X135163283Y-91312505D01*
X135451886Y-90995341D01*
X135725870Y-90549734D01*
X135931959Y-90078124D01*
X136016876Y-89682949D01*
X136017000Y-89670982D01*
X136036482Y-89496141D01*
X136139262Y-89426029D01*
X136391839Y-89437158D01*
X136596975Y-89466132D01*
X137148989Y-89477754D01*
X137538691Y-89305202D01*
X137798739Y-88927095D01*
X137901247Y-88612300D01*
X138041841Y-88053952D01*
X139759865Y-88074500D01*
X139898497Y-87651218D01*
X140071142Y-87325637D01*
X140383987Y-87082390D01*
X140595202Y-86978079D01*
X141039488Y-86750044D01*
X141463383Y-86487645D01*
X141563709Y-86415170D01*
X141780601Y-86202445D01*
X142080273Y-85847064D01*
X142427344Y-85398620D01*
X142786433Y-84906705D01*
X143122160Y-84420912D01*
X143399142Y-83990834D01*
X143582000Y-83666062D01*
X143637000Y-83509095D01*
X143550391Y-83312331D01*
X143383000Y-83121500D01*
X143193857Y-82831748D01*
X143129445Y-82384804D01*
X143129000Y-82332214D01*
X143110274Y-82021390D01*
X143028312Y-81766164D01*
X142844435Y-81493169D01*
X142519965Y-81129037D01*
X142462632Y-81068210D01*
X141985421Y-80588594D01*
X141569896Y-80218619D01*
X141247394Y-79983155D01*
X141049251Y-79907069D01*
X141016823Y-79920843D01*
X141026940Y-80074679D01*
X141166183Y-80368292D01*
X141402923Y-80744798D01*
X141684297Y-81121250D01*
X141864850Y-81374879D01*
X141882422Y-81499068D01*
X141723718Y-81493086D01*
X141375442Y-81356203D01*
X140824298Y-81087689D01*
X140794302Y-81072392D01*
X140164715Y-80763247D01*
X139705927Y-80572385D01*
X139371984Y-80485674D01*
X139116930Y-80488983D01*
X139001500Y-80521119D01*
X138889701Y-80585617D01*
X138892762Y-80687347D01*
X139034426Y-80866270D01*
X139338433Y-81162346D01*
X139437104Y-81254268D01*
X140126708Y-81894200D01*
X139183104Y-81714250D01*
X138494629Y-81597920D01*
X138044106Y-81555988D01*
X137832829Y-81587329D01*
X137862095Y-81690819D01*
X138133200Y-81865334D01*
X138647440Y-82109749D01*
X138700490Y-82132882D01*
X139077219Y-82305397D01*
X139331393Y-82439520D01*
X139407029Y-82504303D01*
X139270436Y-82504115D01*
X138942090Y-82465806D01*
X138480127Y-82396774D01*
X138213943Y-82352489D01*
X137590771Y-82264893D01*
X136957337Y-82207724D01*
X136427909Y-82190547D01*
X136319349Y-82193916D01*
X135903234Y-82222087D01*
X135682576Y-82271780D01*
X135598988Y-82373423D01*
X135594084Y-82557443D01*
X135594992Y-82571401D01*
X135596332Y-82792212D01*
X135513600Y-82848222D01*
X135278984Y-82768733D01*
X135207303Y-82738918D01*
X134820767Y-82637225D01*
X134577545Y-82728372D01*
X134474153Y-82917666D01*
X134417501Y-82914137D01*
X134335511Y-82709951D01*
X134284880Y-82516499D01*
X134212651Y-82172452D01*
X134213333Y-82027005D01*
X134297709Y-82032470D01*
X134383099Y-82082151D01*
X134648858Y-82157916D01*
X134810465Y-82037914D01*
X134828426Y-81772009D01*
X134768955Y-81594969D01*
X134643048Y-81265937D01*
X134638365Y-81118128D01*
X134749635Y-81170813D01*
X134853432Y-81286137D01*
X135088667Y-81473567D01*
X135270660Y-81457259D01*
X135336349Y-81261575D01*
X135307891Y-81110562D01*
X135260394Y-80932957D01*
X135306137Y-80921793D01*
X135488081Y-81079745D01*
X135536982Y-81124840D01*
X135839999Y-81320883D01*
X136060756Y-81333502D01*
X136232545Y-81245149D01*
X136246419Y-81114703D01*
X136134705Y-80881633D01*
X136054557Y-80714204D01*
X136107551Y-80705301D01*
X136323911Y-80840240D01*
X136557853Y-80974659D01*
X136671601Y-80958736D01*
X136725460Y-80855340D01*
X136748580Y-80608024D01*
X136719258Y-80524081D01*
X136719562Y-80402536D01*
X136764009Y-80391000D01*
X136943546Y-80483678D01*
X136969500Y-80518000D01*
X137155167Y-80641630D01*
X137354842Y-80568085D01*
X137446977Y-80405608D01*
X137570055Y-80231211D01*
X137824653Y-80226446D01*
X138131613Y-80177466D01*
X138402032Y-79958802D01*
X138598024Y-79642142D01*
X138681700Y-79299174D01*
X138615170Y-79001583D01*
X138525250Y-78900880D01*
X138285946Y-78787205D01*
X137892354Y-78665381D01*
X137442075Y-78559915D01*
X137032712Y-78495316D01*
X136873004Y-78486000D01*
X136604813Y-78542605D01*
X136207479Y-78690006D01*
X135825072Y-78867729D01*
X135332393Y-79090016D01*
X135033348Y-79153381D01*
X134950929Y-79121729D01*
X134690726Y-78999712D01*
X134428686Y-79062800D01*
X134303367Y-79216250D01*
X134225636Y-79354650D01*
X134152386Y-79273162D01*
X134106003Y-79159862D01*
X133883456Y-78909355D01*
X133470503Y-78723049D01*
X133045634Y-78543933D01*
X132977024Y-78461742D01*
X133505596Y-78461742D01*
X133537597Y-78562119D01*
X133749182Y-78598488D01*
X134057241Y-78588742D01*
X134451173Y-78530630D01*
X134685475Y-78428793D01*
X134718403Y-78383257D01*
X134686402Y-78282880D01*
X134474817Y-78246511D01*
X134166758Y-78256257D01*
X133772826Y-78314369D01*
X133538524Y-78416206D01*
X133505596Y-78461742D01*
X132977024Y-78461742D01*
X132869255Y-78332642D01*
X132937235Y-78083465D01*
X132973653Y-78035892D01*
X133090845Y-77952004D01*
X133304428Y-77898270D01*
X133606607Y-77874499D01*
X137931121Y-77874499D01*
X138048241Y-77999166D01*
X138296877Y-78031077D01*
X138640073Y-78017992D01*
X138995160Y-77971525D01*
X139279469Y-77903292D01*
X139410329Y-77824909D01*
X139410425Y-77807777D01*
X139251511Y-77663950D01*
X138939016Y-77541171D01*
X138573326Y-77464537D01*
X138254828Y-77459146D01*
X138144250Y-77491215D01*
X137964052Y-77668394D01*
X137931121Y-77874499D01*
X133606607Y-77874499D01*
X133657278Y-77870513D01*
X134192271Y-77864557D01*
X134670611Y-77870625D01*
X135717158Y-77865223D01*
X136539048Y-77804022D01*
X137160409Y-77682409D01*
X137605375Y-77495771D01*
X137884957Y-77256188D01*
X138139549Y-77037881D01*
X138485300Y-76934349D01*
X138962077Y-76943768D01*
X139609748Y-77064314D01*
X139988589Y-77159924D01*
X140846314Y-77372656D01*
X141519659Y-77493640D01*
X142061440Y-77521974D01*
X142524475Y-77456760D01*
X142961580Y-77297097D01*
X143324144Y-77103087D01*
X143615074Y-76942839D01*
X143855960Y-76863994D01*
X144119908Y-76867015D01*
X144480022Y-76952368D01*
X144988546Y-77113667D01*
X145429956Y-77252013D01*
X145754283Y-77319564D01*
X146061123Y-77320156D01*
X146450075Y-77257623D01*
X146800963Y-77183457D01*
X147310860Y-77070783D01*
X147760535Y-76967665D01*
X148061000Y-76894559D01*
X148082000Y-76888992D01*
X148254817Y-76853300D01*
X148249996Y-76903146D01*
X148249996Y-76903146D01*
G37*
X148249996Y-76903146D02*
X148054698Y-77065790D01*
X147967035Y-77133043D01*
X147533420Y-77406254D01*
X147009583Y-77618893D01*
X146350070Y-77783503D01*
X145509428Y-77912628D01*
X144907000Y-77977543D01*
X144118388Y-78057564D01*
X143552307Y-78127320D01*
X143177796Y-78192623D01*
X142963892Y-78259285D01*
X142879637Y-78333117D01*
X142875000Y-78358978D01*
X142988503Y-78469252D01*
X143291696Y-78620466D01*
X143728605Y-78789024D01*
X144243254Y-78951329D01*
X144350266Y-78980877D01*
X144950431Y-79216592D01*
X145490167Y-79560779D01*
X145876626Y-79953225D01*
X145897854Y-79984465D01*
X146018463Y-80183835D01*
X145973895Y-80216468D01*
X145748672Y-80121260D01*
X145459301Y-80031341D01*
X145274662Y-80100231D01*
X145259696Y-80114503D01*
X145231830Y-80231517D01*
X145338661Y-80426075D01*
X145601537Y-80727743D01*
X145966373Y-81093135D01*
X146472838Y-81612878D01*
X146804254Y-82031813D01*
X146990734Y-82398881D01*
X147062391Y-82763019D01*
X147066000Y-82880186D01*
X147055921Y-83056682D01*
X146996796Y-83081610D01*
X146845294Y-82939606D01*
X146666119Y-82738399D01*
X146364907Y-82450877D01*
X146171206Y-82392251D01*
X146088602Y-82559656D01*
X146120675Y-82950223D01*
X146160543Y-83142980D01*
X146362752Y-84163039D01*
X146470288Y-85035820D01*
X146479682Y-85727108D01*
X146448513Y-85983335D01*
X146381788Y-86321883D01*
X146336542Y-86432651D01*
X146288346Y-86337675D01*
X146242132Y-86169500D01*
X146090716Y-85708951D01*
X145920845Y-85363446D01*
X145760188Y-85179128D01*
X145651224Y-85183975D01*
X145572579Y-85364830D01*
X145484202Y-85721340D01*
X145405066Y-86176785D01*
X145404211Y-86182817D01*
X145268563Y-87008186D01*
X145123037Y-87614488D01*
X144958129Y-88036655D01*
X144853946Y-88205424D01*
X144743536Y-88338062D01*
X144715543Y-88297436D01*
X144761353Y-88051401D01*
X144784819Y-87947500D01*
X144875919Y-87502355D01*
X144891469Y-87250313D01*
X144827852Y-87140874D01*
X144725717Y-87122000D01*
X144479520Y-87238064D01*
X144231617Y-87548335D01*
X144018642Y-87995931D01*
X143900398Y-88403499D01*
X143686946Y-89136016D01*
X143407815Y-89677824D01*
X143197619Y-89911751D01*
X143086874Y-89981565D01*
X143039159Y-89920591D01*
X143045100Y-89685175D01*
X143079731Y-89362751D01*
X143116593Y-88945922D01*
X143097080Y-88725558D01*
X143013844Y-88648902D01*
X142979932Y-88645999D01*
X142690699Y-88762013D01*
X142372478Y-89082971D01*
X142061178Y-89568246D01*
X141931884Y-89831701D01*
X141721626Y-90248715D01*
X141472186Y-90670810D01*
X141216930Y-91051056D01*
X140989224Y-91342524D01*
X140822432Y-91498285D01*
X140753525Y-91489076D01*
X140773988Y-91301479D01*
X140876638Y-90974359D01*
X140961507Y-90761312D01*
X141214973Y-90170000D01*
X140959714Y-90170000D01*
X140633080Y-90285198D01*
X140274792Y-90635012D01*
X139879053Y-91225767D01*
X139704154Y-91539980D01*
X139420548Y-92029534D01*
X139134179Y-92452680D01*
X138878476Y-92766948D01*
X138686870Y-92929867D01*
X138609000Y-92931333D01*
X138617783Y-92790021D01*
X138701965Y-92483949D01*
X138818937Y-92146437D01*
X138951050Y-91754372D01*
X139021610Y-91464496D01*
X139019595Y-91352262D01*
X138881354Y-91372480D01*
X138592507Y-91495688D01*
X138276942Y-91661506D01*
X137903920Y-91882515D01*
X137695258Y-92065973D01*
X137592438Y-92296147D01*
X137536939Y-92657306D01*
X137527714Y-92740400D01*
X137448834Y-93188919D01*
X137331120Y-93570590D01*
X137254804Y-93719846D01*
X137128683Y-93882688D01*
X137057452Y-93874624D01*
X137002663Y-93663401D01*
X136971177Y-93481926D01*
X136856401Y-93108165D01*
X136685721Y-92968439D01*
X136472257Y-93071059D01*
X136417323Y-93131216D01*
X136343887Y-93323349D01*
X136258760Y-93704843D01*
X136174744Y-94212243D01*
X136129094Y-94559966D01*
X136033165Y-95289553D01*
X135946810Y-95770097D01*
X135868066Y-96006294D01*
X135794971Y-96002839D01*
X135725563Y-95764427D01*
X135696859Y-95594163D01*
X135596067Y-95181782D01*
X135446836Y-95013694D01*
X135237362Y-95082848D01*
X135084183Y-95228250D01*
X134905991Y-95609671D01*
X134893853Y-96177821D01*
X135047966Y-96934242D01*
X135368528Y-97880477D01*
X135450584Y-98087578D01*
X135489869Y-98220328D01*
X135424411Y-98241520D01*
X135206585Y-98147697D01*
X135026037Y-98056773D01*
X134638900Y-97899182D01*
X134431756Y-97906268D01*
X134401939Y-98066213D01*
X134546780Y-98367198D01*
X134863612Y-98797405D01*
X135306414Y-99298984D01*
X135624390Y-99653604D01*
X135754473Y-99852730D01*
X135686755Y-99906783D01*
X135411326Y-99826187D01*
X134976044Y-99646440D01*
X134668281Y-99541344D01*
X134470583Y-99525968D01*
X134444856Y-99543152D01*
X134466501Y-99718679D01*
X134618589Y-100007307D01*
X134852992Y-100341502D01*
X135121581Y-100653733D01*
X135376228Y-100876467D01*
X135410512Y-100898140D01*
X135801972Y-101040793D01*
X136127810Y-100950632D01*
X136414697Y-100618100D01*
X136471817Y-100517833D01*
X136641670Y-100237638D01*
X136770927Y-100085253D01*
X136792806Y-100076000D01*
X136913355Y-100167942D01*
X137119461Y-100399519D01*
X137214991Y-100520633D01*
X137651059Y-100972140D01*
X138113001Y-101246953D01*
X138558201Y-101333903D01*
X138944046Y-101221819D01*
X139149657Y-101027740D01*
X139335656Y-100820640D01*
X139536077Y-100772415D01*
X139819995Y-100835472D01*
X140416215Y-100884380D01*
X141023209Y-100727725D01*
X141570342Y-100400543D01*
X141986980Y-99937873D01*
X142111403Y-99698853D01*
X142247127Y-99064622D01*
X142197077Y-98297053D01*
X141966658Y-97430040D01*
X141619200Y-96612166D01*
X141223309Y-95875475D01*
X140852583Y-95359332D01*
X140462065Y-95040155D01*
X140006797Y-94894361D01*
X139441823Y-94898369D01*
X138722186Y-95028598D01*
X138637605Y-95048215D01*
X137892711Y-95223462D01*
X138637605Y-94461851D01*
X139724990Y-93466705D01*
X140896558Y-92605572D01*
X142103233Y-91908833D01*
X143295942Y-91406866D01*
X143826590Y-91249679D01*
X144951257Y-91033398D01*
X146248195Y-90899603D01*
X147649309Y-90848686D01*
X149086500Y-90881041D01*
X150491672Y-90997061D01*
X151796729Y-91197142D01*
X151828500Y-91203426D01*
X153946536Y-91748763D01*
X156043050Y-92530349D01*
X158082990Y-93530794D01*
X160031303Y-94732707D01*
X161852938Y-96118699D01*
X162016721Y-96258098D01*
X163563391Y-97752163D01*
X164922314Y-99406379D01*
X166087067Y-101203028D01*
X167051227Y-103124391D01*
X167808371Y-105152748D01*
X168352073Y-107270380D01*
X168675911Y-109459567D01*
X168773462Y-111702591D01*
X168638301Y-113981733D01*
X168589499Y-114388745D01*
X168162524Y-116941644D01*
X167558167Y-119321048D01*
X166766634Y-121544324D01*
X165778135Y-123628841D01*
X164582878Y-125591967D01*
X163171073Y-127451070D01*
X161532926Y-129223518D01*
X159658647Y-130926679D01*
X158931238Y-131520619D01*
X156778565Y-133088205D01*
X154441950Y-134524309D01*
X151965616Y-135809062D01*
X149393783Y-136922596D01*
X146770674Y-137845040D01*
X144140511Y-138556527D01*
X142557500Y-138877406D01*
X142092607Y-138942270D01*
X141480154Y-139003638D01*
X140773001Y-139058844D01*
X140024006Y-139105225D01*
X139286026Y-139140114D01*
X138611922Y-139160847D01*
X138054551Y-139164759D01*
X137666772Y-139149184D01*
X137541000Y-139130333D01*
X137334175Y-139098025D01*
X136943715Y-139054748D01*
X136439317Y-139007904D01*
X136207500Y-138988726D01*
X135064500Y-138897677D01*
X136398000Y-138729169D01*
X137823283Y-138546339D01*
X139033218Y-138383977D01*
X140065004Y-138235436D01*
X140955841Y-138094071D01*
X141742929Y-137953237D01*
X142463468Y-137806289D01*
X143154657Y-137646582D01*
X143853697Y-137467469D01*
X144578015Y-137267897D01*
X145789753Y-136908825D01*
X146772720Y-136574701D01*
X147548840Y-136249611D01*
X148140035Y-135917646D01*
X148568228Y-135562892D01*
X148855340Y-135169439D01*
X149023295Y-134721376D01*
X149094014Y-134202790D01*
X149099944Y-133985838D01*
X149129849Y-133636321D01*
X149199956Y-133386869D01*
X149206998Y-133374778D01*
X149373154Y-133268636D01*
X149720785Y-133134269D01*
X150182974Y-132996543D01*
X150316303Y-132962600D01*
X151652638Y-132556352D01*
X152906306Y-132022968D01*
X154024563Y-131389085D01*
X154954664Y-130681336D01*
X155098607Y-130547597D01*
X155430739Y-130210058D01*
X155612654Y-129952739D01*
X155688337Y-129692152D01*
X155702000Y-129402328D01*
X155598928Y-128779471D01*
X155384500Y-128369718D01*
X155191300Y-128063030D01*
X155078744Y-127841076D01*
X155067000Y-127794834D01*
X155160578Y-127667292D01*
X155404300Y-127442479D01*
X155699326Y-127204974D01*
X156216841Y-126779917D01*
X156803207Y-126250151D01*
X157400804Y-125672501D01*
X157952014Y-125103793D01*
X158399216Y-124600852D01*
X158603238Y-124341102D01*
X158889587Y-123863144D01*
X159134898Y-123317248D01*
X159204911Y-123109482D01*
X159311614Y-122374210D01*
X159176778Y-121713661D01*
X158796317Y-121112372D01*
X158630925Y-120938561D01*
X158339723Y-120680670D01*
X158088695Y-120558971D01*
X157763089Y-120533019D01*
X157513521Y-120544724D01*
X157108515Y-120552395D01*
X156901258Y-120490985D01*
X156884170Y-120328749D01*
X157049672Y-120033941D01*
X157307639Y-119682365D01*
X157762634Y-119028807D01*
X158048714Y-118447665D01*
X158194066Y-117851148D01*
X158226877Y-117151463D01*
X158216305Y-116852181D01*
X158106567Y-115911916D01*
X157888495Y-115126850D01*
X157576143Y-114514488D01*
X157183565Y-114092337D01*
X156724812Y-113877902D01*
X156213939Y-113888688D01*
X155921849Y-113994080D01*
X155527376Y-114238806D01*
X155280355Y-114546325D01*
X155178264Y-114947657D01*
X155218578Y-115473823D01*
X155398773Y-116155844D01*
X155682310Y-116938390D01*
X156011043Y-117835267D01*
X156248114Y-118605951D01*
X156386542Y-119222242D01*
X156419343Y-119655935D01*
X156391356Y-119802532D01*
X156259477Y-119986587D01*
X156129647Y-119984933D01*
X156083000Y-119833571D01*
X156007267Y-119617104D01*
X155835745Y-119411273D01*
X155651943Y-119302932D01*
X155581793Y-119312301D01*
X155534298Y-119381068D01*
X155524055Y-119533862D01*
X155555893Y-119810034D01*
X155634643Y-120248933D01*
X155765134Y-120889909D01*
X155789982Y-121008359D01*
X155890179Y-121634304D01*
X155922622Y-122192972D01*
X155903692Y-122468859D01*
X155812767Y-122930792D01*
X155691087Y-123385229D01*
X155558608Y-123774986D01*
X155435285Y-124042881D01*
X155341073Y-124131731D01*
X155326736Y-124122155D01*
X155237669Y-123954543D01*
X155096791Y-123621723D01*
X154947585Y-123230676D01*
X154763702Y-122798333D01*
X154585336Y-122494625D01*
X154437780Y-122341811D01*
X154346327Y-122362149D01*
X154336269Y-122577898D01*
X154358322Y-122712112D01*
X154418414Y-123077408D01*
X154482251Y-123561267D01*
X154515534Y-123860791D01*
X154544838Y-124273042D01*
X154513864Y-124579945D01*
X154396232Y-124882762D01*
X154165559Y-125282758D01*
X154130056Y-125340434D01*
X153853054Y-125839289D01*
X153707061Y-126260245D01*
X153654538Y-126715418D01*
X153653031Y-126765142D01*
X153636062Y-127444500D01*
X153552813Y-126849094D01*
X153440289Y-126410483D01*
X153255059Y-126032747D01*
X153038757Y-125786440D01*
X152892426Y-125730000D01*
X152844552Y-125846369D01*
X152813664Y-126153438D01*
X152805640Y-126588152D01*
X152806583Y-126650750D01*
X152781971Y-127317796D01*
X152656844Y-127862902D01*
X152397366Y-128387665D01*
X152070585Y-128860740D01*
X151825705Y-129222771D01*
X151558412Y-129667553D01*
X151459967Y-129846247D01*
X151148778Y-130431513D01*
X150991378Y-129728176D01*
X150886643Y-129355480D01*
X150778133Y-129117239D01*
X150709115Y-129066461D01*
X150611732Y-129203069D01*
X150491576Y-129511773D01*
X150407884Y-129800291D01*
X150234997Y-130314530D01*
X149985028Y-130875108D01*
X149823507Y-131171789D01*
X149560121Y-131550542D01*
X149242019Y-131923180D01*
X148915929Y-132245360D01*
X148628579Y-132472744D01*
X148426696Y-132560991D01*
X148377037Y-132544371D01*
X148359859Y-132386684D01*
X148405100Y-132079121D01*
X148436679Y-131942632D01*
X148512518Y-131482334D01*
X148476791Y-131176545D01*
X148334131Y-131064019D01*
X148331630Y-131064000D01*
X148135878Y-131177093D01*
X147930096Y-131469889D01*
X147752222Y-131872662D01*
X147640195Y-132315683D01*
X147636444Y-132341677D01*
X147519898Y-132822888D01*
X147287706Y-133268951D01*
X146902048Y-133739401D01*
X146494500Y-134139280D01*
X146019220Y-134484097D01*
X145599297Y-134590422D01*
X145334409Y-134516448D01*
X145189901Y-134367734D01*
X145137636Y-134093590D01*
X145144302Y-133806489D01*
X145147310Y-133433608D01*
X145086944Y-133257488D01*
X144989200Y-133223000D01*
X144840557Y-133338698D01*
X144704410Y-133692783D01*
X144641440Y-133953250D01*
X144516368Y-134489263D01*
X144389037Y-134830403D01*
X144211490Y-135031650D01*
X143935772Y-135147985D01*
X143525809Y-135232299D01*
X142773718Y-135436294D01*
X141964906Y-135773201D01*
X141217811Y-136191987D01*
X141077394Y-136287287D01*
X140773574Y-136477755D01*
X140625670Y-136484882D01*
X140599617Y-136293915D01*
X140626057Y-136091841D01*
X140655295Y-135782516D01*
X140633875Y-135598675D01*
X140627393Y-135589727D01*
X140487523Y-135606476D01*
X140190988Y-135718416D01*
X139843468Y-135881028D01*
X139358282Y-136105854D01*
X138756907Y-136357198D01*
X138164641Y-136582833D01*
X138131296Y-136594709D01*
X137491723Y-136842075D01*
X136787701Y-137145732D01*
X136194546Y-137428622D01*
X135746920Y-137640979D01*
X135423415Y-137761268D01*
X135266239Y-137774702D01*
X135257789Y-137756805D01*
X135308947Y-137557276D01*
X135435326Y-137226380D01*
X135512267Y-137049812D01*
X135763956Y-136495125D01*
X135477728Y-136576712D01*
X134716794Y-136782891D01*
X134103698Y-136917482D01*
X133547138Y-136994502D01*
X132955812Y-137027966D01*
X132505312Y-137033000D01*
X131956733Y-137023231D01*
X131509030Y-136996873D01*
X131218989Y-136958348D01*
X131140298Y-136926709D01*
X131198187Y-136801950D01*
X131416654Y-136592537D01*
X131640803Y-136421326D01*
X132013227Y-136138621D01*
X132176866Y-135950587D01*
X132122065Y-135845876D01*
X131839170Y-135813138D01*
X131318527Y-135841024D01*
X131159250Y-135855278D01*
X130572484Y-135896551D01*
X129874127Y-135924439D01*
X129120944Y-135939050D01*
X128369697Y-135940490D01*
X127677151Y-135928867D01*
X127100070Y-135904290D01*
X126695218Y-135866866D01*
X126587250Y-135846605D01*
X126335155Y-135751418D01*
X126238000Y-135656931D01*
X126343848Y-135555333D01*
X126621326Y-135386341D01*
X127009844Y-135186794D01*
X127410105Y-134985526D01*
X127710736Y-134815757D01*
X127844484Y-134716281D01*
X127810929Y-134617202D01*
X127592166Y-134491841D01*
X127173603Y-134334998D01*
X126540648Y-134141472D01*
X125678710Y-133906063D01*
X125281499Y-133802848D01*
X124346871Y-133560642D01*
X123630587Y-133369384D01*
X123104183Y-133219999D01*
X122739196Y-133103417D01*
X122507163Y-133010563D01*
X122379619Y-132932366D01*
X122328722Y-132861667D01*
X122396588Y-132750004D01*
X122597529Y-132715000D01*
X123051402Y-132655554D01*
X123283205Y-132476262D01*
X123317000Y-132324132D01*
X123196945Y-132119487D01*
X122856090Y-131882676D01*
X122323397Y-131627737D01*
X121627828Y-131368705D01*
X120874552Y-131140389D01*
X120314158Y-130973777D01*
X119781332Y-130794255D01*
X119375079Y-130635615D01*
X119315098Y-130608109D01*
X119011954Y-130457690D01*
X118919513Y-130380831D01*
X119018594Y-130343062D01*
X119157749Y-130325314D01*
X119411503Y-130248242D01*
X119506999Y-130132981D01*
X119415128Y-130006532D01*
X119162652Y-129748950D01*
X118784281Y-129391488D01*
X118314724Y-128965398D01*
X117788690Y-128501931D01*
X117240890Y-128032339D01*
X116706030Y-127587875D01*
X116459000Y-127388577D01*
X116141500Y-127135450D01*
X116617750Y-127131225D01*
X116924020Y-127101524D01*
X117086230Y-127033184D01*
X117093999Y-127012528D01*
X117007916Y-126888582D01*
X116770239Y-126620839D01*
X116411831Y-126242213D01*
X115963556Y-125785616D01*
X115665249Y-125488867D01*
X115123025Y-124947481D01*
X114750368Y-124557368D01*
X114530225Y-124297496D01*
X114445542Y-124146834D01*
X114479265Y-124084352D01*
X114522250Y-124079338D01*
X114745004Y-124015754D01*
X114808000Y-123910347D01*
X114733301Y-123747731D01*
X114530649Y-123435007D01*
X114232208Y-123019243D01*
X113919000Y-122609476D01*
X113483897Y-122046353D01*
X113203656Y-121658655D01*
X113068599Y-121428307D01*
X113069052Y-121337232D01*
X113195338Y-121367351D01*
X113275650Y-121407531D01*
X113558989Y-121513516D01*
X113676959Y-121453605D01*
X113633824Y-121250953D01*
X113433850Y-120928715D01*
X113117556Y-120549309D01*
X112597703Y-119957569D01*
X112131904Y-119382118D01*
X111743566Y-118856591D01*
X111456094Y-118414624D01*
X111292897Y-118089853D01*
X111277381Y-117915913D01*
X111281604Y-117911061D01*
X111405062Y-117945966D01*
X111660128Y-118090392D01*
X111792231Y-118176863D01*
X112087944Y-118367900D01*
X112288581Y-118479298D01*
X112324762Y-118491000D01*
X112404446Y-118392011D01*
X112343215Y-118110328D01*
X112149277Y-117668876D01*
X111830835Y-117090580D01*
X111812300Y-117059337D01*
X111481075Y-116429865D01*
X111195756Y-115752608D01*
X110985943Y-115108622D01*
X110881237Y-114578959D01*
X110875523Y-114494168D01*
X110955556Y-114520964D01*
X111173662Y-114696331D01*
X111490409Y-114987159D01*
X111664750Y-115156900D01*
X112159292Y-115606674D01*
X112644531Y-115977799D01*
X113077041Y-116243054D01*
X113413394Y-116375212D01*
X113589633Y-116363588D01*
X113585365Y-116246752D01*
X113416623Y-116061052D01*
X113399866Y-116047451D01*
X113172634Y-115861329D01*
X112810782Y-115559354D01*
X112372888Y-115190564D01*
X112097742Y-114957385D01*
X111656066Y-114576848D01*
X111387912Y-114325933D01*
X111269837Y-114173889D01*
X111278394Y-114089965D01*
X111390139Y-114043410D01*
X111399242Y-114041221D01*
X111623408Y-113920786D01*
X111695454Y-113655813D01*
X111696500Y-113598399D01*
X111636848Y-113301426D01*
X111417259Y-113069192D01*
X111261630Y-112969124D01*
X110729988Y-112589650D01*
X110289133Y-112151154D01*
X109995381Y-111715206D01*
X109916979Y-111499078D01*
X109878069Y-111151490D01*
X109954899Y-111014773D01*
X110141597Y-111099353D01*
X110141940Y-111099637D01*
X110390639Y-111164662D01*
X110489064Y-111125577D01*
X110566446Y-111041230D01*
X110594778Y-110881374D01*
X110571680Y-110598318D01*
X110494773Y-110144367D01*
X110421305Y-109767592D01*
X110316045Y-109118697D01*
X110237797Y-108392079D01*
X110187502Y-107638092D01*
X110166101Y-106907094D01*
X110174533Y-106249438D01*
X110213740Y-105715480D01*
X110284662Y-105355576D01*
X110336946Y-105250759D01*
X110556689Y-105119764D01*
X110920518Y-105019013D01*
X111098946Y-104993711D01*
X111526631Y-104937297D01*
X111891038Y-104865725D01*
X111985190Y-104839256D01*
X112144551Y-104798450D01*
X112222939Y-104846615D01*
X112237362Y-105035845D01*
X112204828Y-105418234D01*
X112197544Y-105489668D01*
X112132250Y-105949574D01*
X112045052Y-106343160D01*
X111983513Y-106519623D01*
X111911830Y-106827236D01*
X111976909Y-107237449D01*
X112002135Y-107325481D01*
X112088799Y-107677574D01*
X112072243Y-107896247D01*
X111944628Y-108083487D01*
X111943822Y-108084378D01*
X111798987Y-108376893D01*
X111817782Y-108548519D01*
X111868775Y-108767088D01*
X111936210Y-109176268D01*
X112011821Y-109713875D01*
X112087343Y-110317725D01*
X112154511Y-110925633D01*
X112202428Y-111442500D01*
X112303919Y-111872999D01*
X112519940Y-112379938D01*
X112807043Y-112889045D01*
X113121784Y-113326046D01*
X113420716Y-113616669D01*
X113502477Y-113665000D01*
X113826038Y-113876968D01*
X114187600Y-114196786D01*
X114343460Y-114363500D01*
X114731843Y-114736076D01*
X115189472Y-115072731D01*
X115356373Y-115169330D01*
X115672099Y-115321215D01*
X115934879Y-115396493D01*
X116235051Y-115404501D01*
X116662950Y-115354578D01*
X116861254Y-115324895D01*
X117355795Y-115254582D01*
X117779253Y-115203669D01*
X118044703Y-115182531D01*
X118054603Y-115182435D01*
X118300278Y-115085864D01*
X118632277Y-114833392D01*
X118996050Y-114480473D01*
X119337046Y-114082560D01*
X119600712Y-113695105D01*
X119685830Y-113524243D01*
X119791022Y-113170438D01*
X119820567Y-112747943D01*
X119780499Y-112168758D01*
X119779460Y-112158993D01*
X119734544Y-111688619D01*
X119730916Y-111416547D01*
X119776967Y-111289218D01*
X119881090Y-111253074D01*
X119921586Y-111252000D01*
X120106260Y-111173271D01*
X120117896Y-111029750D01*
X119970334Y-110849241D01*
X119598958Y-110743767D01*
X119568834Y-110739547D01*
X119204592Y-110672395D01*
X118939301Y-110591532D01*
X118903750Y-110573302D01*
X118756731Y-110405690D01*
X118802700Y-110267380D01*
X118928004Y-110236000D01*
X119149639Y-110169189D01*
X119168137Y-110021372D01*
X118977692Y-109871473D01*
X118955478Y-109862595D01*
X118687733Y-109724299D01*
X118559341Y-109608833D01*
X118386893Y-109517567D01*
X118077111Y-109474503D01*
X118039004Y-109474000D01*
X117741657Y-109449306D01*
X117621305Y-109338860D01*
X117602000Y-109156500D01*
X117526831Y-108901607D01*
X117341114Y-108850150D01*
X117104528Y-109017047D01*
X117093999Y-109029500D01*
X116877778Y-109190886D01*
X116760949Y-109220000D01*
X116606157Y-109118005D01*
X116586000Y-109029500D01*
X116520122Y-108858058D01*
X116352041Y-108892682D01*
X116194691Y-109041920D01*
X115924794Y-109188585D01*
X115629012Y-109180373D01*
X115353557Y-109163599D01*
X115197223Y-109273193D01*
X115075151Y-109548952D01*
X114902487Y-109870534D01*
X114674364Y-109982197D01*
X114641029Y-109983572D01*
X114365232Y-110099247D01*
X114095402Y-110397412D01*
X113874525Y-110809267D01*
X113745589Y-111266014D01*
X113729477Y-111442500D01*
X113683469Y-111791358D01*
X113580611Y-111946850D01*
X113558479Y-111950500D01*
X113362251Y-112046548D01*
X113286273Y-112137322D01*
X113198880Y-112253894D01*
X113122663Y-112243576D01*
X113025160Y-112070171D01*
X112873910Y-111697484D01*
X112860152Y-111662179D01*
X112713612Y-111070448D01*
X112656176Y-110347002D01*
X112688258Y-109598143D01*
X112810270Y-108930167D01*
X112849037Y-108805168D01*
X113216537Y-108072311D01*
X113764984Y-107420950D01*
X114436446Y-106902830D01*
X115172992Y-106569696D01*
X115419224Y-106509412D01*
X115839949Y-106429160D01*
X115565296Y-106776830D01*
X115389120Y-107010987D01*
X115368076Y-107114606D01*
X115499592Y-107156257D01*
X115550770Y-107164224D01*
X115868866Y-107136799D01*
X116087608Y-107055857D01*
X116365933Y-106964679D01*
X116781255Y-106892980D01*
X117261799Y-106845037D01*
X117735794Y-106825123D01*
X118131466Y-106837517D01*
X118377042Y-106886492D01*
X118417044Y-106917082D01*
X118396936Y-107034612D01*
X118254882Y-107061000D01*
X117920589Y-107103904D01*
X117673888Y-107208793D01*
X117602000Y-107312188D01*
X117718862Y-107366872D01*
X118030022Y-107427762D01*
X118476337Y-107484198D01*
X118644739Y-107500161D01*
X119535959Y-107635069D01*
X120211735Y-107870557D01*
X120693709Y-108216072D01*
X120902309Y-108485750D01*
X121052078Y-108757378D01*
X121064673Y-108908757D01*
X120945131Y-109030093D01*
X120933205Y-109038871D01*
X120821404Y-109152926D01*
X120850428Y-109283059D01*
X121044003Y-109493590D01*
X121131395Y-109576148D01*
X121528222Y-110056316D01*
X121840675Y-110639302D01*
X122019877Y-111223474D01*
X122044210Y-111474250D01*
X122028521Y-111779211D01*
X121939120Y-111870810D01*
X121721120Y-111788983D01*
X121657650Y-111755531D01*
X121482544Y-111693550D01*
X121420657Y-111806625D01*
X121415985Y-111977781D01*
X121474117Y-112275572D01*
X121621476Y-112697264D01*
X121796985Y-113090266D01*
X122109559Y-113994283D01*
X122172752Y-114939839D01*
X122031893Y-115759275D01*
X121891203Y-116266051D01*
X121522565Y-115537025D01*
X121252104Y-115070667D01*
X121035827Y-114840252D01*
X120880705Y-114847213D01*
X120793711Y-115092987D01*
X120777000Y-115383579D01*
X120736847Y-115847231D01*
X120637090Y-116283308D01*
X120603883Y-116373484D01*
X120443662Y-116630652D01*
X120170352Y-116959160D01*
X119841096Y-117302157D01*
X119513032Y-117602796D01*
X119243303Y-117804228D01*
X119113753Y-117856000D01*
X119088887Y-117750453D01*
X119146033Y-117483824D01*
X119195133Y-117332032D01*
X119333466Y-116904396D01*
X119367585Y-116661072D01*
X119277762Y-116598065D01*
X119044265Y-116711381D01*
X118647368Y-116997023D01*
X118417948Y-117174654D01*
X117768484Y-117639037D01*
X117169648Y-117984382D01*
X116667410Y-118186692D01*
X116395500Y-118230348D01*
X116221106Y-118216217D01*
X116286712Y-118145863D01*
X116363749Y-118099827D01*
X116549536Y-117879446D01*
X116585999Y-117722689D01*
X116546052Y-117566856D01*
X116383466Y-117493662D01*
X116034126Y-117475010D01*
X116020751Y-117475000D01*
X115469473Y-117440048D01*
X114881463Y-117347615D01*
X114344107Y-117216331D01*
X113944794Y-117064826D01*
X113858991Y-117014113D01*
X113612641Y-116902131D01*
X113327174Y-116846327D01*
X113083167Y-116850029D01*
X112961195Y-116916568D01*
X112972995Y-116977510D01*
X113133785Y-117107156D01*
X113441235Y-117274997D01*
X113601499Y-117347999D01*
X113991324Y-117532509D01*
X114201754Y-117714898D01*
X114291891Y-117980437D01*
X114319824Y-118384380D01*
X114371798Y-118769578D01*
X114527550Y-119118348D01*
X114831687Y-119529677D01*
X114841052Y-119540983D01*
X115113946Y-119887804D01*
X115236291Y-120108451D01*
X115232167Y-120261200D01*
X115175062Y-120349293D01*
X115099359Y-120494173D01*
X115162342Y-120645345D01*
X115395921Y-120863466D01*
X115482588Y-120933864D01*
X115796769Y-121214262D01*
X116033086Y-121475341D01*
X116088379Y-121558395D01*
X116153736Y-121726612D01*
X116050469Y-121753926D01*
X115894157Y-121719822D01*
X115637632Y-121694104D01*
X115595012Y-121795876D01*
X115764025Y-122019274D01*
X116141500Y-122357703D01*
X116451741Y-122641903D01*
X116659294Y-122889454D01*
X116713000Y-123011914D01*
X116799141Y-123187885D01*
X117025461Y-123473751D01*
X117343802Y-123808978D01*
X117358385Y-123823155D01*
X117712657Y-124190072D01*
X117894788Y-124449472D01*
X117934452Y-124648062D01*
X117921128Y-124708868D01*
X117924004Y-124957206D01*
X118040336Y-125046708D01*
X118215703Y-125176128D01*
X118473776Y-125438909D01*
X118776294Y-125786423D01*
X119084993Y-126170043D01*
X119361609Y-126541140D01*
X119567879Y-126851088D01*
X119665541Y-127051259D01*
X119655065Y-127098811D01*
X119517913Y-127242315D01*
X119549822Y-127446094D01*
X119729250Y-127595695D01*
X119926461Y-127718379D01*
X120240937Y-127968217D01*
X120608950Y-128294155D01*
X120655663Y-128337820D01*
X121419630Y-128969332D01*
X122177321Y-129403389D01*
X122884912Y-129653243D01*
X123170392Y-129765979D01*
X123621510Y-129986487D01*
X124188187Y-130288442D01*
X124820341Y-130645522D01*
X125213281Y-130877106D01*
X126306031Y-131525583D01*
X127224849Y-132050084D01*
X128009672Y-132463664D01*
X128700435Y-132779376D01*
X129337073Y-133010276D01*
X129959520Y-133169418D01*
X130607713Y-133269856D01*
X131321586Y-133324645D01*
X132141075Y-133346839D01*
X132778095Y-133349975D01*
X135244510Y-133242917D01*
X137579542Y-132922207D01*
X139780933Y-132388459D01*
X141846425Y-131642288D01*
X143773761Y-130684305D01*
X144716500Y-130105363D01*
X145788617Y-129325325D01*
X146667720Y-128506235D01*
X147378722Y-127608889D01*
X147946536Y-126594083D01*
X148396076Y-125422615D01*
X148752255Y-124055281D01*
X148842300Y-123613110D01*
X148970920Y-122934290D01*
X149050235Y-122465676D01*
X149081733Y-122168604D01*
X149066905Y-122004410D01*
X149007238Y-121934432D01*
X148907500Y-121920000D01*
X148815365Y-121875979D01*
X148757629Y-121715182D01*
X148727252Y-121394511D01*
X148717195Y-120870866D01*
X148717000Y-120753596D01*
X148701834Y-120102841D01*
X148648698Y-119628776D01*
X148546129Y-119255478D01*
X148461125Y-119058628D01*
X148133616Y-118579624D01*
X147749367Y-118341744D01*
X147335766Y-118346449D01*
X146920200Y-118595199D01*
X146612036Y-118959995D01*
X146419351Y-119395188D01*
X146264025Y-120061964D01*
X146148645Y-120940295D01*
X146075800Y-122010155D01*
X146048076Y-123251517D01*
X146047910Y-123325601D01*
X146043031Y-124035143D01*
X146025794Y-124544317D01*
X145989261Y-124906698D01*
X145926492Y-125175859D01*
X145830550Y-125405375D01*
X145762090Y-125532422D01*
X145487443Y-125906359D01*
X145156487Y-126214821D01*
X145071185Y-126271147D01*
X144664012Y-126508949D01*
X144855730Y-126124641D01*
X144975321Y-125640839D01*
X144928036Y-125103797D01*
X144725337Y-124641136D01*
X144722090Y-124636668D01*
X144600468Y-124516418D01*
X144424632Y-124478745D01*
X144119234Y-124517437D01*
X143877726Y-124567075D01*
X142488245Y-124859145D01*
X141307270Y-125087124D01*
X140298500Y-125254641D01*
X139425638Y-125365329D01*
X138652384Y-125422820D01*
X137942439Y-125430744D01*
X137259503Y-125392734D01*
X136567277Y-125312422D01*
X136509871Y-125304200D01*
X135832569Y-125194344D01*
X135156114Y-125064860D01*
X134573960Y-124934578D01*
X134276655Y-124854228D01*
X133827480Y-124729597D01*
X133507361Y-124695369D01*
X133287924Y-124782195D01*
X133140796Y-125020727D01*
X133037602Y-125441619D01*
X132949968Y-126075523D01*
X132921774Y-126317893D01*
X132752545Y-127344299D01*
X132501297Y-128139931D01*
X132159473Y-128717165D01*
X131718511Y-129088372D01*
X131169853Y-129265925D01*
X130868517Y-129286000D01*
X130406421Y-129286000D01*
X130747815Y-128880275D01*
X130969874Y-128565925D01*
X131033541Y-128283189D01*
X131002094Y-128023025D01*
X130950337Y-127682668D01*
X130890938Y-127183533D01*
X130834894Y-126620159D01*
X130822842Y-126482084D01*
X130705200Y-125662469D01*
X130486175Y-125033614D01*
X130130982Y-124554380D01*
X129604832Y-124183629D01*
X128872941Y-123880223D01*
X128532699Y-123773752D01*
X127852242Y-123612063D01*
X127333053Y-123587347D01*
X126920406Y-123702926D01*
X126642160Y-123888500D01*
X126326826Y-124125861D01*
X126109089Y-124185368D01*
X125911114Y-124072844D01*
X125793500Y-123952000D01*
X125479976Y-123729888D01*
X125152241Y-123756169D01*
X124863303Y-123958479D01*
X124601694Y-124136664D01*
X124432246Y-124088536D01*
X124347023Y-123807433D01*
X124333000Y-123513334D01*
X124336019Y-123269538D01*
X124366497Y-123082382D01*
X124456568Y-122907520D01*
X124638362Y-122700600D01*
X124944013Y-122417275D01*
X125405653Y-122013195D01*
X125444250Y-121979581D01*
X125801192Y-121636138D01*
X125957000Y-121383102D01*
X125926826Y-121177707D01*
X125783318Y-121022550D01*
X125577907Y-120922864D01*
X125302032Y-120964797D01*
X125186623Y-121005478D01*
X124887622Y-121089991D01*
X124729613Y-121044324D01*
X124694089Y-120998783D01*
X124639334Y-120692440D01*
X124759493Y-120327607D01*
X125006801Y-119967987D01*
X125333499Y-119677287D01*
X125691824Y-119519213D01*
X125812519Y-119507000D01*
X126178744Y-119470999D01*
X126560495Y-119379998D01*
X126882759Y-119259495D01*
X127070524Y-119134990D01*
X127088985Y-119073089D01*
X126942986Y-118958482D01*
X126696908Y-118894586D01*
X126438790Y-118798558D01*
X126400345Y-118619077D01*
X126574986Y-118388111D01*
X126839674Y-118201598D01*
X127332514Y-118026297D01*
X127608930Y-118040774D01*
X127980042Y-118207540D01*
X128429835Y-118534769D01*
X128900434Y-118968757D01*
X129333962Y-119455798D01*
X129672545Y-119942185D01*
X129689057Y-119971027D01*
X130217917Y-120761350D01*
X130854649Y-121423581D01*
X131636135Y-121984510D01*
X132599257Y-122470929D01*
X133696181Y-122881858D01*
X134952953Y-123167313D01*
X136320705Y-123229006D01*
X137801922Y-123066786D01*
X139399088Y-122680503D01*
X139954000Y-122503165D01*
X140688645Y-122203291D01*
X141177388Y-121870070D01*
X141428077Y-121481445D01*
X141448559Y-121015362D01*
X141246682Y-120449765D01*
X140895175Y-119857942D01*
X140439134Y-119121510D01*
X140118086Y-118444372D01*
X139908026Y-117748036D01*
X139784950Y-116954007D01*
X139726710Y-116037026D01*
X139693581Y-115335677D01*
X139644099Y-114858088D01*
X139564278Y-114574033D01*
X139440131Y-114453282D01*
X139257671Y-114465607D01*
X139043173Y-114559738D01*
X138594162Y-114864980D01*
X138162075Y-115323153D01*
X137715242Y-115971156D01*
X137464606Y-116398845D01*
X136795179Y-117508062D01*
X136165058Y-118376027D01*
X135565899Y-119010977D01*
X134989357Y-119421150D01*
X134427088Y-119614785D01*
X134188138Y-119633525D01*
X133667500Y-119633050D01*
X134073349Y-119385588D01*
X134558263Y-119003211D01*
X134809174Y-118606866D01*
X134825145Y-118222271D01*
X134605236Y-117875146D01*
X134148508Y-117591208D01*
X134139012Y-117587211D01*
X133342879Y-117233175D01*
X132506176Y-116824925D01*
X131692626Y-116396461D01*
X130965959Y-115981783D01*
X130389899Y-115614890D01*
X130238500Y-115506196D01*
X129428953Y-114840310D01*
X128603720Y-114057906D01*
X127830797Y-113229488D01*
X127178183Y-112425560D01*
X126936500Y-112082481D01*
X126593384Y-111591739D01*
X126339250Y-111296574D01*
X126145626Y-111167349D01*
X126047500Y-111157029D01*
X125899239Y-111215258D01*
X125806411Y-111383308D01*
X125744904Y-111719622D01*
X125720144Y-111950500D01*
X125634084Y-112549895D01*
X125486844Y-112980975D01*
X125239275Y-113328469D01*
X124965139Y-113584418D01*
X124437533Y-113923962D01*
X123888566Y-114099913D01*
X123391365Y-114091619D01*
X123285250Y-114058922D01*
X123001754Y-113904377D01*
X122971926Y-113753297D01*
X123195907Y-113603550D01*
X123318674Y-113556446D01*
X123667169Y-113360530D01*
X123790946Y-113076773D01*
X123699969Y-112675720D01*
X123652517Y-112569647D01*
X123466144Y-111986659D01*
X123506252Y-111447871D01*
X123646558Y-111101680D01*
X123830271Y-110481424D01*
X123811725Y-109756044D01*
X123594488Y-108969247D01*
X123444820Y-108630917D01*
X123240911Y-108252316D01*
X123010760Y-107916485D01*
X122719552Y-107590029D01*
X122332472Y-107239556D01*
X121814705Y-106831669D01*
X121131437Y-106332975D01*
X120814925Y-106108312D01*
X120170046Y-105677206D01*
X119671998Y-105408848D01*
X119282682Y-105291869D01*
X118964000Y-105314901D01*
X118677853Y-105466574D01*
X118674023Y-105469460D01*
X118385794Y-105619845D01*
X118198069Y-105659960D01*
X118055506Y-105647491D01*
X118042466Y-105559487D01*
X118158948Y-105331008D01*
X118198069Y-105262246D01*
X118426577Y-104924539D01*
X118739344Y-104534698D01*
X118884085Y-104373246D01*
X119218935Y-104061331D01*
X119513477Y-103915943D01*
X119789285Y-103886000D01*
X120169974Y-103823942D01*
X120412199Y-103675827D01*
X120647839Y-103483001D01*
X120983546Y-103299913D01*
X121008040Y-103289449D01*
X121305791Y-103114211D01*
X121351270Y-102946379D01*
X121146190Y-102790502D01*
X120775166Y-102670566D01*
X120365032Y-102538783D01*
X120194206Y-102389863D01*
X120248078Y-102200210D01*
X120390579Y-102049405D01*
X120734483Y-101891693D01*
X121240317Y-101855457D01*
X121850614Y-101934186D01*
X122507906Y-102121369D01*
X123037904Y-102349331D01*
X123449462Y-102538935D01*
X123777190Y-102656659D01*
X123953251Y-102678365D01*
X123957047Y-102676380D01*
X124078835Y-102476872D01*
X124015837Y-102197889D01*
X123789305Y-101908495D01*
X123697726Y-101833716D01*
X123465142Y-101610063D01*
X123471851Y-101456675D01*
X123720372Y-101370523D01*
X124102102Y-101347944D01*
X124475235Y-101397421D01*
X124738459Y-101594088D01*
X124836621Y-101720850D01*
X125272515Y-102469765D01*
X125580610Y-103281111D01*
X125727046Y-104059918D01*
X125734430Y-104238871D01*
X125853277Y-105629563D01*
X126197253Y-106964831D01*
X126773556Y-108260910D01*
X127589384Y-109534030D01*
X128636822Y-110784273D01*
X129019408Y-111165408D01*
X129494530Y-111596611D01*
X130020918Y-112045232D01*
X130557302Y-112478625D01*
X131062412Y-112864140D01*
X131494978Y-113169130D01*
X131813730Y-113360947D01*
X131957249Y-113411000D01*
X132168876Y-113329523D01*
X132197318Y-113098557D01*
X132048397Y-112738294D01*
X131727933Y-112268929D01*
X131573283Y-112079017D01*
X130782149Y-110961233D01*
X130133585Y-109657672D01*
X129644810Y-108203472D01*
X129611936Y-108077000D01*
X129455577Y-107500405D01*
X129300475Y-106993876D01*
X129167501Y-106622327D01*
X129096447Y-106473708D01*
X128985290Y-106148955D01*
X128979314Y-105648981D01*
X128992221Y-105504716D01*
X128995117Y-104893942D01*
X128839335Y-104423566D01*
X128494166Y-104043711D01*
X127928902Y-103704498D01*
X127864890Y-103673643D01*
X127433355Y-103448009D01*
X127176345Y-103269318D01*
X127114983Y-103155759D01*
X127226617Y-103124000D01*
X127383174Y-103013213D01*
X127549439Y-102736652D01*
X127687371Y-102378011D01*
X127758928Y-102020987D01*
X127762000Y-101946098D01*
X127715121Y-101623998D01*
X127543247Y-101324505D01*
X127253221Y-101013194D01*
X126983102Y-100718569D01*
X126821946Y-100477305D01*
X126799933Y-100374264D01*
X126807428Y-100119584D01*
X126730404Y-99724603D01*
X126596408Y-99276963D01*
X126432984Y-98864305D01*
X126267677Y-98574271D01*
X126217223Y-98520250D01*
X125894890Y-98354592D01*
X125575342Y-98298000D01*
X125317045Y-98272575D01*
X125258398Y-98169694D01*
X125288244Y-98075750D01*
X125441316Y-97536773D01*
X125390718Y-97114859D01*
X125356838Y-97042646D01*
X125134225Y-96802168D01*
X124767291Y-96554662D01*
X124357489Y-96357222D01*
X124006271Y-96266939D01*
X123976742Y-96266000D01*
X123663441Y-96149263D01*
X123396979Y-95839764D01*
X123250769Y-95476801D01*
X123060404Y-95151584D01*
X122729590Y-95019126D01*
X122431547Y-95058374D01*
X122136123Y-95040727D01*
X121716612Y-94863720D01*
X121626639Y-94812932D01*
X120929062Y-94538876D01*
X120213220Y-94516621D01*
X119497918Y-94746684D01*
X119483927Y-94753770D01*
X118937553Y-94946438D01*
X118568237Y-94957130D01*
X118267016Y-94959412D01*
X117934091Y-95083547D01*
X117525112Y-95334822D01*
X116809296Y-95712411D01*
X116159967Y-95872191D01*
X115755034Y-95938699D01*
X115460181Y-96008541D01*
X115361427Y-96051239D01*
X115350760Y-96159596D01*
X115558031Y-96222193D01*
X115950898Y-96236566D01*
X116497016Y-96200253D01*
X116818593Y-96162166D01*
X117309929Y-96099982D01*
X117692294Y-96058318D01*
X117906352Y-96043353D01*
X117931593Y-96046263D01*
X117843614Y-96124588D01*
X117582683Y-96319492D01*
X117185600Y-96604308D01*
X116689166Y-96952366D01*
X116510913Y-97075797D01*
X115986123Y-97444613D01*
X115546067Y-97766287D01*
X115228709Y-98012111D01*
X115072016Y-98153373D01*
X115062000Y-98171497D01*
X115147927Y-98324189D01*
X115241123Y-98415558D01*
X115394180Y-98473018D01*
X115599371Y-98385139D01*
X115880388Y-98160207D01*
X116161184Y-97939797D01*
X116362675Y-97829445D01*
X116415085Y-97830751D01*
X116381689Y-97961047D01*
X116226780Y-98240849D01*
X115981088Y-98616351D01*
X115902819Y-98727660D01*
X115627983Y-99121306D01*
X115422070Y-99432418D01*
X115320789Y-99606545D01*
X115316000Y-99622507D01*
X115406921Y-99695784D01*
X115668462Y-99603952D01*
X116083793Y-99353303D01*
X116141499Y-99314000D01*
X116467022Y-99099764D01*
X116704179Y-98961554D01*
X116776428Y-98933000D01*
X116736710Y-99022956D01*
X116563855Y-99264922D01*
X116288841Y-99617041D01*
X116086796Y-99864846D01*
X115634467Y-100459264D01*
X115376397Y-100928290D01*
X115305723Y-101301666D01*
X115415582Y-101609131D01*
X115633084Y-101830983D01*
X115855446Y-102067460D01*
X115892311Y-102345475D01*
X115871209Y-102475201D01*
X115837700Y-102747955D01*
X115927801Y-102854684D01*
X116157375Y-102874039D01*
X116403651Y-102886472D01*
X116421352Y-102945948D01*
X116268500Y-103072988D01*
X116081243Y-103171593D01*
X115810555Y-103215610D01*
X115393874Y-103210397D01*
X114998500Y-103181745D01*
X114516817Y-103134172D01*
X114141142Y-103084453D01*
X113936448Y-103041576D01*
X113919000Y-103032413D01*
X113962882Y-102925944D01*
X114141249Y-102777126D01*
X114351198Y-102571344D01*
X114424993Y-102369369D01*
X114344269Y-102245870D01*
X114274600Y-102235000D01*
X114186243Y-102197514D01*
X114274600Y-102082600D01*
X114420077Y-101801485D01*
X114329529Y-101532165D01*
X114096576Y-101363219D01*
X113876788Y-101223899D01*
X113876905Y-101083151D01*
X113903054Y-101047712D01*
X113968352Y-100847641D01*
X113894741Y-100737541D01*
X113831230Y-100596820D01*
X113961263Y-100511075D01*
X114113629Y-100366280D01*
X114171595Y-100154430D01*
X114121316Y-99984903D01*
X114032412Y-99949000D01*
X113947492Y-99856619D01*
X113964926Y-99758500D01*
X113946918Y-99607113D01*
X113791940Y-99566384D01*
X113588756Y-99630521D01*
X113426169Y-99793655D01*
X113351810Y-100022871D01*
X113264278Y-100425453D01*
X113180253Y-100922526D01*
X113165114Y-101027938D01*
X112993357Y-102047658D01*
X112785288Y-102849714D01*
X112525885Y-103469550D01*
X112200123Y-103942609D01*
X111792979Y-104304333D01*
X111769345Y-104320730D01*
X111432971Y-104520258D01*
X111098646Y-104670400D01*
X110824102Y-104753013D01*
X110667068Y-104749953D01*
X110669052Y-104666522D01*
X110865251Y-104530809D01*
X110934500Y-104521000D01*
X111148851Y-104460309D01*
X111156877Y-104312691D01*
X110965100Y-104129822D01*
X110878917Y-104080594D01*
X110566905Y-103861927D01*
X110353452Y-103614159D01*
X110265754Y-103433103D01*
X110318776Y-103427171D01*
X110504945Y-103551973D01*
X110956357Y-103727467D01*
X111493531Y-103728263D01*
X112020307Y-103556921D01*
X112104281Y-103509413D01*
X112456789Y-103158665D01*
X112714494Y-102590578D01*
X112879218Y-101798759D01*
X112952785Y-100776816D01*
X112956917Y-100520500D01*
X112955232Y-99929087D01*
X112935455Y-99549382D01*
X112891603Y-99339383D01*
X112817691Y-99257087D01*
X112776000Y-99250500D01*
X112625925Y-99353711D01*
X112606072Y-99490354D01*
X112528223Y-99722282D01*
X112309578Y-99993304D01*
X112245467Y-100050948D01*
X111988279Y-100317082D01*
X111908109Y-100578832D01*
X111921633Y-100762397D01*
X111899654Y-101138727D01*
X111774238Y-101304503D01*
X111643417Y-101463812D01*
X111719147Y-101607748D01*
X111802747Y-101805096D01*
X111728549Y-101984166D01*
X111670335Y-102165260D01*
X111772019Y-102351181D01*
X111959901Y-102528564D01*
X112191614Y-102780270D01*
X112230322Y-102935057D01*
X112092770Y-102954304D01*
X111831931Y-102823703D01*
X111482210Y-102667869D01*
X111186487Y-102615999D01*
X110928943Y-102554254D01*
X110744206Y-102327498D01*
X110674019Y-102175579D01*
X110513823Y-101648203D01*
X110532591Y-101183917D01*
X110669773Y-100793693D01*
X110801155Y-100408759D01*
X110908160Y-99940053D01*
X110929092Y-99806669D01*
X111038499Y-99315577D01*
X111210404Y-98831385D01*
X111257319Y-98732066D01*
X111437627Y-98204690D01*
X111504868Y-97522524D01*
X111505999Y-97401526D01*
X111513490Y-97011068D01*
X111552668Y-96705223D01*
X111585617Y-96605566D01*
X112021676Y-96605566D01*
X112120136Y-97095295D01*
X112211701Y-97253741D01*
X112422863Y-97490113D01*
X112562622Y-97487979D01*
X112635440Y-97244182D01*
X112649000Y-96944290D01*
X112677423Y-96565995D01*
X112788723Y-96238002D01*
X113021948Y-95863111D01*
X113157000Y-95679739D01*
X113454359Y-95278818D01*
X113609341Y-95037717D01*
X113635881Y-94916052D01*
X113547914Y-94873437D01*
X113436774Y-94869000D01*
X113218574Y-94961686D01*
X112914671Y-95199177D01*
X112588432Y-95520623D01*
X112303223Y-95865174D01*
X112156015Y-96098900D01*
X112021676Y-96605566D01*
X111585617Y-96605566D01*
X111648596Y-96415087D01*
X111826332Y-96071757D01*
X112110940Y-95606328D01*
X112223740Y-95428129D01*
X112683273Y-94697324D01*
X113027372Y-94128187D01*
X113281529Y-93671063D01*
X113471234Y-93276300D01*
X113621979Y-92894245D01*
X113759253Y-92475243D01*
X113787481Y-92382156D01*
X114203294Y-91388419D01*
X114622070Y-90731156D01*
X114967442Y-90198915D01*
X115281317Y-89592814D01*
X115457419Y-89154000D01*
X115640696Y-88625466D01*
X115779108Y-88318419D01*
X115893036Y-88208868D01*
X116002859Y-88272824D01*
X116089361Y-88410115D01*
X116233483Y-88885523D01*
X116245549Y-89448816D01*
X116132560Y-89984421D01*
X115975423Y-90291127D01*
X115747364Y-90672825D01*
X115719089Y-90956714D01*
X115843819Y-91155019D01*
X115888062Y-91294853D01*
X115777094Y-91513874D01*
X115526319Y-91815785D01*
X115270548Y-92167529D01*
X115103496Y-92529533D01*
X115040058Y-92842090D01*
X115095129Y-93045496D01*
X115208179Y-93090999D01*
X115359763Y-93015304D01*
X115662149Y-92809560D01*
X116070559Y-92505778D01*
X116509929Y-92160400D01*
X117246011Y-91575729D01*
X117798780Y-91155992D01*
X118174871Y-90897493D01*
X118380918Y-90796536D01*
X118423553Y-90849424D01*
X118309410Y-91052460D01*
X118179963Y-91229737D01*
X117993882Y-91537797D01*
X117875743Y-91852265D01*
X117845058Y-92098507D01*
X117921336Y-92201885D01*
X117925806Y-92202000D01*
X118165492Y-92123159D01*
X118526805Y-91915086D01*
X118944387Y-91620455D01*
X119352877Y-91281942D01*
X119397248Y-91241264D01*
X120026587Y-90781407D01*
X120650792Y-90575051D01*
X121252415Y-90616659D01*
X121602500Y-90710273D01*
X121158000Y-90884837D01*
X120592770Y-91126513D01*
X120246852Y-91325935D01*
X120092693Y-91500637D01*
X120078500Y-91571869D01*
X120183837Y-91715646D01*
X120457284Y-91763304D01*
X120834991Y-91722221D01*
X121253110Y-91599775D01*
X121647792Y-91403342D01*
X121671747Y-91387771D01*
X122427030Y-90976859D01*
X123168870Y-90738199D01*
X123682217Y-90686906D01*
X123927105Y-90695939D01*
X123991664Y-90723807D01*
X123856650Y-90790744D01*
X123502816Y-90916980D01*
X123444000Y-90937330D01*
X123064060Y-91067535D01*
X122797588Y-91156656D01*
X122713750Y-91182423D01*
X122682657Y-91284620D01*
X122682000Y-91309738D01*
X122783915Y-91445131D01*
X123033649Y-91614560D01*
X123077509Y-91638003D01*
X123332433Y-91738319D01*
X123648460Y-91787895D01*
X124091928Y-91792052D01*
X124633259Y-91762851D01*
X125264728Y-91736142D01*
X125724976Y-91751774D01*
X125975469Y-91808296D01*
X125984000Y-91813642D01*
X126039374Y-91893585D01*
X125890380Y-91934959D01*
X125571250Y-91946055D01*
X125164994Y-91970778D01*
X124995192Y-92053735D01*
X125047458Y-92213221D01*
X125220962Y-92391560D01*
X125516256Y-92546746D01*
X126022146Y-92657468D01*
X126459212Y-92707190D01*
X126978862Y-92771361D01*
X127435796Y-92860216D01*
X127739969Y-92955804D01*
X127762000Y-92966913D01*
X128079500Y-93139934D01*
X127635000Y-93255925D01*
X127293137Y-93346354D01*
X127048258Y-93413237D01*
X127031749Y-93417971D01*
X126889344Y-93563048D01*
X126897770Y-93807020D01*
X127041077Y-94057209D01*
X127158750Y-94155941D01*
X127441133Y-94281776D01*
X127863980Y-94412312D01*
X128179212Y-94486300D01*
X128752759Y-94657017D01*
X129191069Y-94895064D01*
X129258712Y-94951406D01*
X129603500Y-95267952D01*
X129230549Y-95208556D01*
X128790761Y-95192345D01*
X128557963Y-95298818D01*
X128533689Y-95501315D01*
X128719473Y-95773177D01*
X129116849Y-96087743D01*
X129177732Y-96126415D01*
X129550043Y-96333178D01*
X129850845Y-96456130D01*
X129990575Y-96471741D01*
X130107534Y-96317938D01*
X130205285Y-96008562D01*
X130225842Y-95893842D01*
X130298254Y-95402051D01*
X130371537Y-94903820D01*
X130376601Y-94869366D01*
X130440721Y-94548095D01*
X130537886Y-94421047D01*
X130718452Y-94429033D01*
X130745626Y-94435629D01*
X130992838Y-94436762D01*
X131125905Y-94238431D01*
X131132378Y-94218629D01*
X131154228Y-93961436D01*
X131078584Y-93879028D01*
X130744295Y-93676105D01*
X130591945Y-93340897D01*
X130620034Y-92857979D01*
X130827059Y-92211932D01*
X130899489Y-92039423D01*
X131078484Y-91581070D01*
X131184345Y-91158454D01*
X131235164Y-90671442D01*
X131248739Y-90106500D01*
X131239368Y-89548540D01*
X131209397Y-89050057D01*
X131164513Y-88693226D01*
X131145482Y-88614250D01*
X131092348Y-88365546D01*
X131176208Y-88274739D01*
X131308218Y-88265000D01*
X131560699Y-88188791D01*
X131665139Y-87946636D01*
X131626897Y-87518239D01*
X131569164Y-87276354D01*
X131234871Y-86350883D01*
X130787143Y-85637932D01*
X130232453Y-85147574D01*
X130181391Y-85116950D01*
X129845394Y-84906221D01*
X129614018Y-84731275D01*
X129555172Y-84663974D01*
X129355722Y-84364109D01*
X129020040Y-84016979D01*
X128633692Y-83698564D01*
X128282245Y-83484842D01*
X128188184Y-83450149D01*
X127793587Y-83401996D01*
X127411563Y-83450608D01*
X127120848Y-83575267D01*
X127000177Y-83755253D01*
X127000000Y-83762822D01*
X127097482Y-83924625D01*
X127348638Y-84159887D01*
X127585399Y-84337563D01*
X127920801Y-84601504D01*
X128028283Y-84784936D01*
X127901551Y-84898453D01*
X127534313Y-84952647D01*
X127214988Y-84961055D01*
X126755087Y-84988459D01*
X126284098Y-85057714D01*
X125869214Y-85153510D01*
X125577628Y-85260540D01*
X125476000Y-85357248D01*
X125587570Y-85449483D01*
X125871452Y-85560650D01*
X126067858Y-85616374D01*
X126659716Y-85765406D01*
X125559858Y-86318072D01*
X125089366Y-86566639D01*
X124719357Y-86785241D01*
X124499371Y-86943325D01*
X124460000Y-86996369D01*
X124573169Y-87074463D01*
X124857760Y-87122297D01*
X124999750Y-87128427D01*
X125539500Y-87134855D01*
X124423909Y-87703478D01*
X123798560Y-88043327D01*
X123386166Y-88332510D01*
X123161128Y-88607577D01*
X123097845Y-88905082D01*
X123170717Y-89261575D01*
X123226198Y-89413549D01*
X123342649Y-89742013D01*
X123354014Y-89911464D01*
X123262120Y-89993296D01*
X123241252Y-90001773D01*
X123013056Y-89979438D01*
X122812272Y-89855461D01*
X122589399Y-89716767D01*
X122450392Y-89711660D01*
X122282101Y-89690444D01*
X122172839Y-89597101D01*
X121941960Y-89463609D01*
X121607032Y-89408000D01*
X121606632Y-89408000D01*
X121192390Y-89315277D01*
X120967500Y-89154000D01*
X120634662Y-88937644D01*
X120221258Y-88946825D01*
X119712229Y-89182471D01*
X119628155Y-89236442D01*
X119051421Y-89510744D01*
X118513858Y-89631104D01*
X118100430Y-89645163D01*
X117807690Y-89564569D01*
X117509325Y-89353878D01*
X117500980Y-89346872D01*
X117196113Y-89054416D01*
X117113278Y-88870436D01*
X117250556Y-88783569D01*
X117404004Y-88773000D01*
X117710678Y-88712250D01*
X117793657Y-88532557D01*
X117651599Y-88237753D01*
X117610253Y-88183146D01*
X117390277Y-87699886D01*
X117356571Y-87327122D01*
X117365143Y-86804500D01*
X117525639Y-87400662D01*
X117711678Y-87938237D01*
X117955241Y-88293286D01*
X118311618Y-88537275D01*
X118455170Y-88602172D01*
X118767975Y-88693386D01*
X119147460Y-88752343D01*
X119513794Y-88774105D01*
X119787147Y-88753732D01*
X119888000Y-88690829D01*
X119845677Y-88595225D01*
X120799437Y-88595225D01*
X120843062Y-88709803D01*
X121070034Y-88763920D01*
X121341912Y-88773000D01*
X121662329Y-88756700D01*
X121914119Y-88681351D01*
X122172271Y-88507277D01*
X122511773Y-88194800D01*
X122602079Y-88106250D01*
X122970111Y-87716426D01*
X123287722Y-87332187D01*
X123486861Y-87035935D01*
X123488354Y-87033056D01*
X123637333Y-86677553D01*
X123698131Y-86390211D01*
X123658451Y-86240700D01*
X123629575Y-86233000D01*
X123488543Y-86311192D01*
X123201540Y-86521296D01*
X122812549Y-86826601D01*
X122365550Y-87190395D01*
X121904528Y-87575968D01*
X121473465Y-87946610D01*
X121116342Y-88265608D01*
X120877144Y-88496254D01*
X120799437Y-88595225D01*
X119845677Y-88595225D01*
X119795565Y-88482031D01*
X119560732Y-88187673D01*
X119247207Y-87870645D01*
X119044014Y-87699429D01*
X119761000Y-87699429D01*
X119830547Y-88121770D01*
X120013749Y-88415856D01*
X120256867Y-88519000D01*
X120425213Y-88430900D01*
X120729963Y-88187608D01*
X121135304Y-87820628D01*
X121605424Y-87361468D01*
X121808712Y-87153750D01*
X122300487Y-86637610D01*
X122750780Y-86152029D01*
X123118935Y-85741776D01*
X123364297Y-85451623D01*
X123414896Y-85384969D01*
X123593765Y-85122359D01*
X123629009Y-84993666D01*
X123524368Y-84925928D01*
X123439864Y-84898187D01*
X123081151Y-84912174D01*
X122704036Y-85176935D01*
X122307264Y-85693474D01*
X122176909Y-85910413D01*
X121912016Y-86343020D01*
X121725897Y-86561274D01*
X121594618Y-86583132D01*
X121494249Y-86426550D01*
X121493073Y-86423500D01*
X121339575Y-86241632D01*
X121160400Y-86261237D01*
X121042054Y-86455904D01*
X121031000Y-86564569D01*
X121031000Y-86896139D01*
X120797567Y-86607862D01*
X120560104Y-86402800D01*
X120391336Y-86427344D01*
X120313398Y-86661403D01*
X120337625Y-87025336D01*
X120383397Y-87347947D01*
X120350195Y-87479997D01*
X120204086Y-87480901D01*
X120092586Y-87454383D01*
X119851935Y-87424452D01*
X119768451Y-87546870D01*
X119761000Y-87699429D01*
X119044014Y-87699429D01*
X118918698Y-87593835D01*
X118638910Y-87420132D01*
X118579232Y-87398867D01*
X118289204Y-87275653D01*
X118210882Y-87097522D01*
X118215849Y-87057643D01*
X118268336Y-86941530D01*
X118838999Y-86941530D01*
X118845573Y-87188880D01*
X118997716Y-87230355D01*
X119293059Y-87066550D01*
X119700337Y-86724825D01*
X120072049Y-86357010D01*
X120237732Y-86122880D01*
X120199991Y-86011247D01*
X119961428Y-86010921D01*
X119862355Y-86028578D01*
X119387556Y-86221565D01*
X119020356Y-86554561D01*
X118838999Y-86941530D01*
X118268336Y-86941530D01*
X118410822Y-86626324D01*
X118817261Y-86201620D01*
X119167594Y-85955925D01*
X119420382Y-85800095D01*
X119700450Y-85620715D01*
X120048543Y-85390717D01*
X120505405Y-85083033D01*
X121111780Y-84670596D01*
X121452774Y-84437812D01*
X121796827Y-84189086D01*
X121969217Y-84004842D01*
X122011745Y-83828252D01*
X122212725Y-83828252D01*
X122301190Y-84010729D01*
X122424333Y-84107104D01*
X122592828Y-84087571D01*
X122877710Y-83937904D01*
X122982148Y-83874354D01*
X123361623Y-83648106D01*
X123698952Y-83459515D01*
X123796538Y-83409358D01*
X124018458Y-83246349D01*
X124009632Y-83113301D01*
X123793311Y-83038770D01*
X123495503Y-83039628D01*
X122953190Y-83143493D01*
X122535488Y-83328363D01*
X122277099Y-83566021D01*
X122212725Y-83828252D01*
X122011745Y-83828252D01*
X122014593Y-83816427D01*
X121988878Y-83613507D01*
X121970911Y-83301832D01*
X122102993Y-83086321D01*
X122265604Y-82958531D01*
X122824225Y-82618070D01*
X123523744Y-82269466D01*
X124258017Y-81963605D01*
X124569199Y-81854221D01*
X124988791Y-81683480D01*
X125329002Y-81486573D01*
X125458199Y-81372248D01*
X125970967Y-80772538D01*
X126443674Y-80321301D01*
X126961728Y-79946166D01*
X127526594Y-79619566D01*
X128096362Y-79283520D01*
X128673273Y-78894547D01*
X129152078Y-78524696D01*
X129243302Y-78444409D01*
X129585803Y-78136424D01*
X129774380Y-77988254D01*
X129840275Y-77985850D01*
X129814731Y-78115161D01*
X129786000Y-78200358D01*
X129645942Y-78467965D01*
X129386592Y-78855107D01*
X129056588Y-79290751D01*
X128948819Y-79423009D01*
X128641134Y-79813278D01*
X128421277Y-80130497D01*
X128321741Y-80325916D01*
X128324053Y-80360386D01*
X128493290Y-80405067D01*
X128811473Y-80413095D01*
X128917888Y-80407325D01*
X129236630Y-80392933D01*
X129350344Y-80434361D01*
X129306903Y-80563814D01*
X129261728Y-80638623D01*
X129190190Y-80901273D01*
X129352754Y-81073182D01*
X129744792Y-81150345D01*
X129857500Y-81154159D01*
X130284640Y-81192604D01*
X130763077Y-81283049D01*
X131198615Y-81402876D01*
X131497059Y-81529465D01*
X131536658Y-81557369D01*
X131628095Y-81695346D01*
X131500299Y-81841735D01*
X131490584Y-81848895D01*
X131356790Y-81978139D01*
X131397819Y-82111714D01*
X131530952Y-82254952D01*
X131793227Y-82435731D01*
X132193447Y-82627004D01*
X132471026Y-82729432D01*
X132918682Y-82916719D01*
X133338437Y-83163386D01*
X133667735Y-83424701D01*
X133844024Y-83655934D01*
X133858000Y-83721228D01*
X133766502Y-83755964D01*
X133612349Y-83697468D01*
X133303206Y-83584729D01*
X133061768Y-83585101D01*
X132969000Y-83692634D01*
X133061907Y-83890900D01*
X133307477Y-84192155D01*
X133655983Y-84545917D01*
X134057697Y-84901700D01*
X134462220Y-85208564D01*
X134859367Y-85516657D01*
X135205579Y-85847978D01*
X135352609Y-86027847D01*
X135659699Y-86637886D01*
X135833427Y-87322235D01*
X135847942Y-87969944D01*
X135830623Y-88079426D01*
X135764601Y-88389097D01*
X135712543Y-88474650D01*
X135642728Y-88361825D01*
X135601935Y-88265000D01*
X135311654Y-87597013D01*
X135082985Y-87154474D01*
X134905516Y-86919260D01*
X134799170Y-86867999D01*
X134686671Y-86983287D01*
X134630665Y-87295178D01*
X134630815Y-87752714D01*
X134686785Y-88304940D01*
X134798237Y-88900896D01*
X134813040Y-88963500D01*
X134914652Y-89454861D01*
X134982330Y-89916899D01*
X134999016Y-90157933D01*
X134989879Y-90438512D01*
X134931818Y-90504279D01*
X134784378Y-90394284D01*
X134768749Y-90380183D01*
X134508723Y-90193802D01*
X134344846Y-90212500D01*
X134260541Y-90451559D01*
X134239000Y-90868500D01*
X134247859Y-91269067D01*
X134292181Y-91477677D01*
X134398578Y-91556218D01*
X134539372Y-91567000D01*
X134853408Y-91489424D01*
X135163283Y-91312505D01*
X135451886Y-90995341D01*
X135725870Y-90549734D01*
X135931959Y-90078124D01*
X136016876Y-89682949D01*
X136017000Y-89670982D01*
X136036482Y-89496141D01*
X136139262Y-89426029D01*
X136391839Y-89437158D01*
X136596975Y-89466132D01*
X137148989Y-89477754D01*
X137538691Y-89305202D01*
X137798739Y-88927095D01*
X137901247Y-88612300D01*
X138041841Y-88053952D01*
X139759865Y-88074500D01*
X139898497Y-87651218D01*
X140071142Y-87325637D01*
X140383987Y-87082390D01*
X140595202Y-86978079D01*
X141039488Y-86750044D01*
X141463383Y-86487645D01*
X141563709Y-86415170D01*
X141780601Y-86202445D01*
X142080273Y-85847064D01*
X142427344Y-85398620D01*
X142786433Y-84906705D01*
X143122160Y-84420912D01*
X143399142Y-83990834D01*
X143582000Y-83666062D01*
X143637000Y-83509095D01*
X143550391Y-83312331D01*
X143383000Y-83121500D01*
X143193857Y-82831748D01*
X143129445Y-82384804D01*
X143129000Y-82332214D01*
X143110274Y-82021390D01*
X143028312Y-81766164D01*
X142844435Y-81493169D01*
X142519965Y-81129037D01*
X142462632Y-81068210D01*
X141985421Y-80588594D01*
X141569896Y-80218619D01*
X141247394Y-79983155D01*
X141049251Y-79907069D01*
X141016823Y-79920843D01*
X141026940Y-80074679D01*
X141166183Y-80368292D01*
X141402923Y-80744798D01*
X141684297Y-81121250D01*
X141864850Y-81374879D01*
X141882422Y-81499068D01*
X141723718Y-81493086D01*
X141375442Y-81356203D01*
X140824298Y-81087689D01*
X140794302Y-81072392D01*
X140164715Y-80763247D01*
X139705927Y-80572385D01*
X139371984Y-80485674D01*
X139116930Y-80488983D01*
X139001500Y-80521119D01*
X138889701Y-80585617D01*
X138892762Y-80687347D01*
X139034426Y-80866270D01*
X139338433Y-81162346D01*
X139437104Y-81254268D01*
X140126708Y-81894200D01*
X139183104Y-81714250D01*
X138494629Y-81597920D01*
X138044106Y-81555988D01*
X137832829Y-81587329D01*
X137862095Y-81690819D01*
X138133200Y-81865334D01*
X138647440Y-82109749D01*
X138700490Y-82132882D01*
X139077219Y-82305397D01*
X139331393Y-82439520D01*
X139407029Y-82504303D01*
X139270436Y-82504115D01*
X138942090Y-82465806D01*
X138480127Y-82396774D01*
X138213943Y-82352489D01*
X137590771Y-82264893D01*
X136957337Y-82207724D01*
X136427909Y-82190547D01*
X136319349Y-82193916D01*
X135903234Y-82222087D01*
X135682576Y-82271780D01*
X135598988Y-82373423D01*
X135594084Y-82557443D01*
X135594992Y-82571401D01*
X135596332Y-82792212D01*
X135513600Y-82848222D01*
X135278984Y-82768733D01*
X135207303Y-82738918D01*
X134820767Y-82637225D01*
X134577545Y-82728372D01*
X134474153Y-82917666D01*
X134417501Y-82914137D01*
X134335511Y-82709951D01*
X134284880Y-82516499D01*
X134212651Y-82172452D01*
X134213333Y-82027005D01*
X134297709Y-82032470D01*
X134383099Y-82082151D01*
X134648858Y-82157916D01*
X134810465Y-82037914D01*
X134828426Y-81772009D01*
X134768955Y-81594969D01*
X134643048Y-81265937D01*
X134638365Y-81118128D01*
X134749635Y-81170813D01*
X134853432Y-81286137D01*
X135088667Y-81473567D01*
X135270660Y-81457259D01*
X135336349Y-81261575D01*
X135307891Y-81110562D01*
X135260394Y-80932957D01*
X135306137Y-80921793D01*
X135488081Y-81079745D01*
X135536982Y-81124840D01*
X135839999Y-81320883D01*
X136060756Y-81333502D01*
X136232545Y-81245149D01*
X136246419Y-81114703D01*
X136134705Y-80881633D01*
X136054557Y-80714204D01*
X136107551Y-80705301D01*
X136323911Y-80840240D01*
X136557853Y-80974659D01*
X136671601Y-80958736D01*
X136725460Y-80855340D01*
X136748580Y-80608024D01*
X136719258Y-80524081D01*
X136719562Y-80402536D01*
X136764009Y-80391000D01*
X136943546Y-80483678D01*
X136969500Y-80518000D01*
X137155167Y-80641630D01*
X137354842Y-80568085D01*
X137446977Y-80405608D01*
X137570055Y-80231211D01*
X137824653Y-80226446D01*
X138131613Y-80177466D01*
X138402032Y-79958802D01*
X138598024Y-79642142D01*
X138681700Y-79299174D01*
X138615170Y-79001583D01*
X138525250Y-78900880D01*
X138285946Y-78787205D01*
X137892354Y-78665381D01*
X137442075Y-78559915D01*
X137032712Y-78495316D01*
X136873004Y-78486000D01*
X136604813Y-78542605D01*
X136207479Y-78690006D01*
X135825072Y-78867729D01*
X135332393Y-79090016D01*
X135033348Y-79153381D01*
X134950929Y-79121729D01*
X134690726Y-78999712D01*
X134428686Y-79062800D01*
X134303367Y-79216250D01*
X134225636Y-79354650D01*
X134152386Y-79273162D01*
X134106003Y-79159862D01*
X133883456Y-78909355D01*
X133470503Y-78723049D01*
X133045634Y-78543933D01*
X132977024Y-78461742D01*
X133505596Y-78461742D01*
X133537597Y-78562119D01*
X133749182Y-78598488D01*
X134057241Y-78588742D01*
X134451173Y-78530630D01*
X134685475Y-78428793D01*
X134718403Y-78383257D01*
X134686402Y-78282880D01*
X134474817Y-78246511D01*
X134166758Y-78256257D01*
X133772826Y-78314369D01*
X133538524Y-78416206D01*
X133505596Y-78461742D01*
X132977024Y-78461742D01*
X132869255Y-78332642D01*
X132937235Y-78083465D01*
X132973653Y-78035892D01*
X133090845Y-77952004D01*
X133304428Y-77898270D01*
X133606607Y-77874499D01*
X137931121Y-77874499D01*
X138048241Y-77999166D01*
X138296877Y-78031077D01*
X138640073Y-78017992D01*
X138995160Y-77971525D01*
X139279469Y-77903292D01*
X139410329Y-77824909D01*
X139410425Y-77807777D01*
X139251511Y-77663950D01*
X138939016Y-77541171D01*
X138573326Y-77464537D01*
X138254828Y-77459146D01*
X138144250Y-77491215D01*
X137964052Y-77668394D01*
X137931121Y-77874499D01*
X133606607Y-77874499D01*
X133657278Y-77870513D01*
X134192271Y-77864557D01*
X134670611Y-77870625D01*
X135717158Y-77865223D01*
X136539048Y-77804022D01*
X137160409Y-77682409D01*
X137605375Y-77495771D01*
X137884957Y-77256188D01*
X138139549Y-77037881D01*
X138485300Y-76934349D01*
X138962077Y-76943768D01*
X139609748Y-77064314D01*
X139988589Y-77159924D01*
X140846314Y-77372656D01*
X141519659Y-77493640D01*
X142061440Y-77521974D01*
X142524475Y-77456760D01*
X142961580Y-77297097D01*
X143324144Y-77103087D01*
X143615074Y-76942839D01*
X143855960Y-76863994D01*
X144119908Y-76867015D01*
X144480022Y-76952368D01*
X144988546Y-77113667D01*
X145429956Y-77252013D01*
X145754283Y-77319564D01*
X146061123Y-77320156D01*
X146450075Y-77257623D01*
X146800963Y-77183457D01*
X147310860Y-77070783D01*
X147760535Y-76967665D01*
X148061000Y-76894559D01*
X148082000Y-76888992D01*
X148254817Y-76853300D01*
X148249996Y-76903146D01*
G04 #@! TO.C,REF\002A\002A*
D11*
X138366666Y-108902380D02*
X138033333Y-108426190D01*
X137795238Y-108902380D02*
X137795238Y-107902380D01*
X138176190Y-107902380D01*
X138271428Y-107950000D01*
X138319047Y-107997619D01*
X138366666Y-108092857D01*
X138366666Y-108235714D01*
X138319047Y-108330952D01*
X138271428Y-108378571D01*
X138176190Y-108426190D01*
X137795238Y-108426190D01*
X138795238Y-108378571D02*
X139128571Y-108378571D01*
X139271428Y-108902380D02*
X138795238Y-108902380D01*
X138795238Y-107902380D01*
X139271428Y-107902380D01*
X140033333Y-108378571D02*
X139700000Y-108378571D01*
X139700000Y-108902380D02*
X139700000Y-107902380D01*
X140176190Y-107902380D01*
X140700000Y-107902380D02*
X140700000Y-108140476D01*
X140461904Y-108045238D02*
X140700000Y-108140476D01*
X140938095Y-108045238D01*
X140557142Y-108330952D02*
X140700000Y-108140476D01*
X140842857Y-108330952D01*
X141461904Y-107902380D02*
X141461904Y-108140476D01*
X141223809Y-108045238D02*
X141461904Y-108140476D01*
X141700000Y-108045238D01*
X141319047Y-108330952D02*
X141461904Y-108140476D01*
X141604761Y-108330952D01*
G04 #@! TD*
M02*
