M48
;DRILL file {KiCad (5.0.0)} date 01/27/19 21:54:21
;FORMAT={2:4/ absolute / inch / suppress leading zeros}
FMAT,2
INCH,TZ
T1C0.0157
%
G90
G05
M72
T1
X39750Y-44100
X39750Y-41000
X42720Y-51790
X42815Y-33115
X44730Y-40590
X45070Y-39360
X45425Y-54495
X45615Y-30315
X45800Y-34950
X46530Y-41670
X46940Y-48850
X47000Y-35200
X48270Y-45670
X48863Y-32800
X49590Y-48810
X50000Y-38890
X52700Y-31300
X53500Y-27250
X53550Y-57750
X55700Y-32600
X56450Y-57750
X56500Y-27250
X57800Y-51880
X58030Y-50220
X59909Y-53050
X60927Y-46067
X61270Y-44370
X62350Y-50690
X62400Y-40790
X62800Y-43790
X64385Y-54685
X64435Y-30365
X65760Y-40960
X67135Y-33065
X67185Y-51885
X70250Y-40250
X70250Y-43979
T0
M30
