G04 #@! TF.GenerationSoftware,KiCad,Pcbnew,(5.0.0)*
G04 #@! TF.CreationDate,2019-01-27T21:53:57-08:00*
G04 #@! TF.ProjectId,Lannister_coaster,4C616E6E69737465725F636F61737465,rev?*
G04 #@! TF.SameCoordinates,Original*
G04 #@! TF.FileFunction,Copper,L2,Bot,Signal*
G04 #@! TF.FilePolarity,Positive*
%FSLAX46Y46*%
G04 Gerber Fmt 4.6, Leading zero omitted, Abs format (unit mm)*
G04 Created by KiCad (PCBNEW (5.0.0)) date 01/27/19 21:53:57*
%MOMM*%
%LPD*%
G01*
G04 APERTURE LIST*
G04 #@! TA.AperFunction,ViaPad*
%ADD10C,0.800000*%
G04 #@! TD*
G04 #@! TA.AperFunction,Conductor*
%ADD11C,0.250000*%
G04 #@! TD*
G04 #@! TA.AperFunction,Conductor*
%ADD12C,0.508000*%
G04 #@! TD*
G04 APERTURE END LIST*
D10*
G04 #@! TO.N,GND*
X125958600Y-123977400D03*
X116332000Y-88773000D03*
X118186200Y-105841800D03*
X114477800Y-99974400D03*
X147396200Y-127558800D03*
X154754153Y-117009753D03*
X158369000Y-128752600D03*
X122605800Y-116001800D03*
X167030400Y-104038400D03*
G04 #@! TO.N,Net-(C4-Pad1)*
X113614200Y-103098600D03*
X127000000Y-98780600D03*
G04 #@! TO.N,Net-(D6-Pad2)*
X136017027Y-146685000D03*
X115378264Y-138416068D03*
G04 #@! TO.N,Net-(C3-Pad1)*
X155625800Y-112699800D03*
X158496000Y-103606600D03*
G04 #@! TO.N,Net-(C1-Pad1)*
X133858000Y-79502000D03*
X170522899Y-83985100D03*
G04 #@! TO.N,Net-(D7-Pad2)*
X143382973Y-146685000D03*
X163537918Y-138899928D03*
G04 #@! TO.N,+24V*
X159512000Y-111226600D03*
X119227600Y-124079000D03*
G04 #@! TO.N,Net-(D9-Pad2)*
X141478000Y-82804000D03*
X119380000Y-89408000D03*
G04 #@! TO.N,Net-(D4-Pad1)*
X108750100Y-84112100D03*
X100965000Y-104140000D03*
G04 #@! TO.N,Net-(D1-Pad1)*
X178435000Y-111706500D03*
X170649918Y-131787908D03*
G04 #@! TO.N,Net-(D2-Pad1)*
X163664901Y-77127100D03*
X143510021Y-69215000D03*
G04 #@! TO.N,Net-(D3-Pad1)*
X115862100Y-77000100D03*
X135889979Y-69214994D03*
G04 #@! TO.N,Net-(C8-Pad1)*
X178435000Y-102235000D03*
X146812000Y-131775200D03*
G04 #@! TO.N,Net-(C1-Pad2)*
X100964996Y-112013996D03*
X124113000Y-83312000D03*
G04 #@! TO.N,Net-(C8-Pad2)*
X152170000Y-134747000D03*
X108508800Y-131546600D03*
G04 #@! TD*
D11*
G04 #@! TO.N,GND*
X157969001Y-128352601D02*
X157969001Y-125431601D01*
X158369000Y-128752600D02*
X157969001Y-128352601D01*
G04 #@! TO.N,Net-(C4-Pad1)*
X114364200Y-103098600D02*
X118682200Y-98780600D01*
X113614200Y-103098600D02*
X114364200Y-103098600D01*
X118682200Y-98780600D02*
X127000000Y-98780600D01*
G04 #@! TO.N,Net-(D6-Pad2)*
X123647196Y-146685000D02*
X115378264Y-138416068D01*
X136017027Y-146685000D02*
X123647196Y-146685000D01*
G04 #@! TO.N,Net-(C3-Pad1)*
X155625800Y-112699800D02*
X155625800Y-106476800D01*
X155625800Y-106476800D02*
X158096001Y-104006599D01*
X158096001Y-104006599D02*
X158496000Y-103606600D01*
G04 #@! TO.N,Net-(C1-Pad1)*
X170122900Y-83585101D02*
X170522899Y-83985100D01*
X165639800Y-79102001D02*
X170122900Y-83585101D01*
X134257999Y-79102001D02*
X165639800Y-79102001D01*
X133858000Y-79502000D02*
X134257999Y-79102001D01*
G04 #@! TO.N,Net-(D7-Pad2)*
X154178000Y-146685000D02*
X143382973Y-146685000D01*
X154305000Y-146685000D02*
X154178000Y-146685000D01*
X163537918Y-138899928D02*
X162090072Y-138899928D01*
X162090072Y-138899928D02*
X154305000Y-146685000D01*
G04 #@! TO.N,+24V*
X121412000Y-121894600D02*
X119227600Y-124079000D01*
X159512000Y-111226600D02*
X148844000Y-121894600D01*
X148844000Y-121894600D02*
X121412000Y-121894600D01*
G04 #@! TO.N,Net-(D9-Pad2)*
X141478000Y-82804000D02*
X125984000Y-82804000D01*
X125984000Y-82804000D02*
X119380000Y-89408000D01*
G04 #@! TO.N,Net-(D4-Pad1)*
X100965000Y-91897200D02*
X108750100Y-84112100D01*
X100965000Y-104140000D02*
X100965000Y-91897200D01*
G04 #@! TO.N,Net-(D1-Pad1)*
X173990000Y-128447826D02*
X170649918Y-131787908D01*
X173990000Y-122428000D02*
X173990000Y-128447826D01*
X178435000Y-111706500D02*
X178435000Y-117983000D01*
X178435000Y-117983000D02*
X173990000Y-122428000D01*
G04 #@! TO.N,Net-(D2-Pad1)*
X155752801Y-69215000D02*
X163664901Y-77127100D01*
X143510021Y-69215000D02*
X155752801Y-69215000D01*
G04 #@! TO.N,Net-(D3-Pad1)*
X123647206Y-69214994D02*
X135889979Y-69214994D01*
X115862100Y-77000100D02*
X123647206Y-69214994D01*
G04 #@! TO.N,Net-(C8-Pad1)*
X178435000Y-102235000D02*
X176352200Y-102235000D01*
X176352200Y-102235000D02*
X146812000Y-131775200D01*
G04 #@! TO.N,Net-(C1-Pad2)*
X100964996Y-106460004D02*
X124113000Y-83312000D01*
X100964996Y-112013996D02*
X100964996Y-106460004D01*
G04 #@! TO.N,Net-(C8-Pad2)*
X111709200Y-134747000D02*
X152170000Y-134747000D01*
X108508800Y-131546600D02*
X111709200Y-134747000D01*
G04 #@! TD*
D12*
G04 #@! TO.N,GND*
G36*
X143476807Y-64780899D02*
X146030362Y-65080873D01*
X148561632Y-65531761D01*
X151061706Y-66131975D01*
X153521783Y-66879404D01*
X155933202Y-67771415D01*
X158287475Y-68804868D01*
X160576314Y-69976126D01*
X162791661Y-71281065D01*
X164925717Y-72715092D01*
X166970970Y-74273157D01*
X168920220Y-75949776D01*
X170766604Y-77739047D01*
X172503624Y-79634672D01*
X174125163Y-81629975D01*
X175625514Y-83717935D01*
X176999395Y-85891199D01*
X178241969Y-88142118D01*
X179348862Y-90462768D01*
X180316178Y-92844979D01*
X181140510Y-95280365D01*
X181818958Y-97760352D01*
X182349132Y-100276210D01*
X182729167Y-102819082D01*
X182957725Y-105380018D01*
X183034000Y-107950000D01*
X182974612Y-110217926D01*
X182763939Y-112780395D01*
X182401666Y-115325858D01*
X181889068Y-117845357D01*
X181227950Y-120330020D01*
X180420640Y-122771101D01*
X179469979Y-125160007D01*
X178379314Y-127488327D01*
X177152484Y-129747866D01*
X175793809Y-131930669D01*
X174308071Y-134029052D01*
X172700501Y-136035628D01*
X170976758Y-137943332D01*
X169142909Y-139745450D01*
X167205412Y-141435637D01*
X165171086Y-143007942D01*
X163047093Y-144456832D01*
X160840910Y-145777205D01*
X158560304Y-146964414D01*
X156213304Y-148014278D01*
X153808170Y-148923102D01*
X151353372Y-149687687D01*
X148857549Y-150305340D01*
X146329488Y-150773889D01*
X143778090Y-151091682D01*
X141212335Y-151257602D01*
X138641256Y-151271064D01*
X136073904Y-151132022D01*
X133519318Y-150840963D01*
X130986489Y-150398914D01*
X128484335Y-149807430D01*
X126021665Y-149068593D01*
X123607146Y-148185005D01*
X121249280Y-147159775D01*
X118956367Y-145996514D01*
X116736479Y-144699316D01*
X114597430Y-143272748D01*
X112546750Y-141721831D01*
X110591660Y-140052026D01*
X108739041Y-138269211D01*
X108614649Y-138134408D01*
X113962264Y-138134408D01*
X113962264Y-138697728D01*
X114177837Y-139218168D01*
X114576164Y-139616495D01*
X115096604Y-139832068D01*
X115180647Y-139832068D01*
X122760923Y-147412344D01*
X122824581Y-147507615D01*
X123202000Y-147759798D01*
X123647196Y-147848353D01*
X123759572Y-147826000D01*
X135155500Y-147826000D01*
X135214927Y-147885427D01*
X135735367Y-148101000D01*
X136298687Y-148101000D01*
X136819127Y-147885427D01*
X137217454Y-147487100D01*
X137433027Y-146966660D01*
X137433027Y-146403340D01*
X141966973Y-146403340D01*
X141966973Y-146966660D01*
X142182546Y-147487100D01*
X142580873Y-147885427D01*
X143101313Y-148101000D01*
X143664633Y-148101000D01*
X144185073Y-147885427D01*
X144244500Y-147826000D01*
X154192624Y-147826000D01*
X154305000Y-147848353D01*
X154417376Y-147826000D01*
X154750196Y-147759798D01*
X155127615Y-147507615D01*
X155191273Y-147412344D01*
X162562690Y-140040928D01*
X162676391Y-140040928D01*
X162735818Y-140100355D01*
X163256258Y-140315928D01*
X163819578Y-140315928D01*
X164340018Y-140100355D01*
X164738345Y-139702028D01*
X164953918Y-139181588D01*
X164953918Y-138618268D01*
X164738345Y-138097828D01*
X164340018Y-137699501D01*
X163819578Y-137483928D01*
X163256258Y-137483928D01*
X162735818Y-137699501D01*
X162676391Y-137758928D01*
X162202446Y-137758928D01*
X162090071Y-137736575D01*
X161977696Y-137758928D01*
X161644876Y-137825130D01*
X161267457Y-138077313D01*
X161203801Y-138172581D01*
X153832383Y-145544000D01*
X144244500Y-145544000D01*
X144185073Y-145484573D01*
X143664633Y-145269000D01*
X143101313Y-145269000D01*
X142580873Y-145484573D01*
X142182546Y-145882900D01*
X141966973Y-146403340D01*
X137433027Y-146403340D01*
X137217454Y-145882900D01*
X136819127Y-145484573D01*
X136298687Y-145269000D01*
X135735367Y-145269000D01*
X135214927Y-145484573D01*
X135155500Y-145544000D01*
X124119813Y-145544000D01*
X116794264Y-138218451D01*
X116794264Y-138134408D01*
X116578691Y-137613968D01*
X116180364Y-137215641D01*
X115659924Y-137000068D01*
X115096604Y-137000068D01*
X114576164Y-137215641D01*
X114177837Y-137613968D01*
X113962264Y-138134408D01*
X108614649Y-138134408D01*
X106995415Y-136379662D01*
X105366921Y-134390031D01*
X103859290Y-132307321D01*
X103195221Y-131264940D01*
X107092800Y-131264940D01*
X107092800Y-131828260D01*
X107308373Y-132348700D01*
X107706700Y-132747027D01*
X108227140Y-132962600D01*
X108311183Y-132962600D01*
X110822929Y-135474347D01*
X110886585Y-135569615D01*
X110981852Y-135633270D01*
X111264004Y-135821798D01*
X111709199Y-135910353D01*
X111821575Y-135888000D01*
X151308473Y-135888000D01*
X151367900Y-135947427D01*
X151888340Y-136163000D01*
X152451660Y-136163000D01*
X152972100Y-135947427D01*
X153370427Y-135549100D01*
X153586000Y-135028660D01*
X153586000Y-134465340D01*
X153370427Y-133944900D01*
X152972100Y-133546573D01*
X152451660Y-133331000D01*
X151888340Y-133331000D01*
X151367900Y-133546573D01*
X151308473Y-133606000D01*
X112181818Y-133606000D01*
X110069358Y-131493540D01*
X145396000Y-131493540D01*
X145396000Y-132056860D01*
X145611573Y-132577300D01*
X146009900Y-132975627D01*
X146530340Y-133191200D01*
X147093660Y-133191200D01*
X147614100Y-132975627D01*
X148012427Y-132577300D01*
X148228000Y-132056860D01*
X148228000Y-131972817D01*
X148694569Y-131506248D01*
X169233918Y-131506248D01*
X169233918Y-132069568D01*
X169449491Y-132590008D01*
X169847818Y-132988335D01*
X170368258Y-133203908D01*
X170931578Y-133203908D01*
X171452018Y-132988335D01*
X171850345Y-132590008D01*
X172065918Y-132069568D01*
X172065918Y-131985525D01*
X174717347Y-129334097D01*
X174812615Y-129270441D01*
X175064798Y-128893022D01*
X175131000Y-128560202D01*
X175153353Y-128447827D01*
X175131000Y-128335452D01*
X175131000Y-122900617D01*
X179162347Y-118869271D01*
X179257615Y-118805615D01*
X179509798Y-118428196D01*
X179576000Y-118095376D01*
X179598353Y-117983001D01*
X179576000Y-117870626D01*
X179576000Y-112568027D01*
X179635427Y-112508600D01*
X179851000Y-111988160D01*
X179851000Y-111424840D01*
X179635427Y-110904400D01*
X179237100Y-110506073D01*
X178716660Y-110290500D01*
X178153340Y-110290500D01*
X177632900Y-110506073D01*
X177234573Y-110904400D01*
X177019000Y-111424840D01*
X177019000Y-111988160D01*
X177234573Y-112508600D01*
X177294000Y-112568027D01*
X177294001Y-117510381D01*
X173262656Y-121541727D01*
X173167385Y-121605385D01*
X172974138Y-121894601D01*
X172915202Y-121982805D01*
X172826647Y-122428000D01*
X172849000Y-122540376D01*
X172849001Y-127975207D01*
X170452301Y-130371908D01*
X170368258Y-130371908D01*
X169847818Y-130587481D01*
X169449491Y-130985808D01*
X169233918Y-131506248D01*
X148694569Y-131506248D01*
X176824818Y-103376000D01*
X177573473Y-103376000D01*
X177632900Y-103435427D01*
X178153340Y-103651000D01*
X178716660Y-103651000D01*
X179237100Y-103435427D01*
X179635427Y-103037100D01*
X179851000Y-102516660D01*
X179851000Y-101953340D01*
X179635427Y-101432900D01*
X179237100Y-101034573D01*
X178716660Y-100819000D01*
X178153340Y-100819000D01*
X177632900Y-101034573D01*
X177573473Y-101094000D01*
X176464570Y-101094000D01*
X176352199Y-101071648D01*
X176239828Y-101094000D01*
X176239824Y-101094000D01*
X175907004Y-101160202D01*
X175529585Y-101412385D01*
X175465929Y-101507653D01*
X146614383Y-130359200D01*
X146530340Y-130359200D01*
X146009900Y-130574773D01*
X145611573Y-130973100D01*
X145396000Y-131493540D01*
X110069358Y-131493540D01*
X109924800Y-131348983D01*
X109924800Y-131264940D01*
X109709227Y-130744500D01*
X109310900Y-130346173D01*
X108790460Y-130130600D01*
X108227140Y-130130600D01*
X107706700Y-130346173D01*
X107308373Y-130744500D01*
X107092800Y-131264940D01*
X103195221Y-131264940D01*
X102477832Y-130138866D01*
X101227408Y-127892297D01*
X100112421Y-125575526D01*
X99383134Y-123797340D01*
X117811600Y-123797340D01*
X117811600Y-124360660D01*
X118027173Y-124881100D01*
X118425500Y-125279427D01*
X118945940Y-125495000D01*
X119509260Y-125495000D01*
X120029700Y-125279427D01*
X120428027Y-124881100D01*
X120643600Y-124360660D01*
X120643600Y-124276617D01*
X121884618Y-123035600D01*
X148731624Y-123035600D01*
X148844000Y-123057953D01*
X148956376Y-123035600D01*
X149289196Y-122969398D01*
X149666615Y-122717215D01*
X149730273Y-122621944D01*
X159709618Y-112642600D01*
X159793660Y-112642600D01*
X160314100Y-112427027D01*
X160712427Y-112028700D01*
X160928000Y-111508260D01*
X160928000Y-110944940D01*
X160712427Y-110424500D01*
X160314100Y-110026173D01*
X159793660Y-109810600D01*
X159230340Y-109810600D01*
X158709900Y-110026173D01*
X158311573Y-110424500D01*
X158096000Y-110944940D01*
X158096000Y-111028982D01*
X156943693Y-112181289D01*
X156826227Y-111897700D01*
X156766800Y-111838273D01*
X156766800Y-106949417D01*
X158693617Y-105022600D01*
X158777660Y-105022600D01*
X159298100Y-104807027D01*
X159696427Y-104408700D01*
X159912000Y-103888260D01*
X159912000Y-103324940D01*
X159696427Y-102804500D01*
X159298100Y-102406173D01*
X158777660Y-102190600D01*
X158214340Y-102190600D01*
X157693900Y-102406173D01*
X157295573Y-102804500D01*
X157080000Y-103324940D01*
X157080000Y-103408983D01*
X154898454Y-105590529D01*
X154803186Y-105654185D01*
X154739530Y-105749453D01*
X154551002Y-106031605D01*
X154462447Y-106476800D01*
X154484801Y-106589181D01*
X154484800Y-111838273D01*
X154425373Y-111897700D01*
X154209800Y-112418140D01*
X154209800Y-112981460D01*
X154425373Y-113501900D01*
X154823700Y-113900227D01*
X155107289Y-114017693D01*
X148371383Y-120753600D01*
X121524374Y-120753600D01*
X121411999Y-120731247D01*
X121299624Y-120753600D01*
X120966804Y-120819802D01*
X120589385Y-121071985D01*
X120525729Y-121167253D01*
X119029983Y-122663000D01*
X118945940Y-122663000D01*
X118425500Y-122878573D01*
X118027173Y-123276900D01*
X117811600Y-123797340D01*
X99383134Y-123797340D01*
X99136796Y-123196706D01*
X98303967Y-120764213D01*
X97616867Y-118286609D01*
X97077914Y-115772617D01*
X96689005Y-113231086D01*
X96549971Y-111732336D01*
X99548996Y-111732336D01*
X99548996Y-112295656D01*
X99764569Y-112816096D01*
X100162896Y-113214423D01*
X100683336Y-113429996D01*
X101246656Y-113429996D01*
X101767096Y-113214423D01*
X102165423Y-112816096D01*
X102380996Y-112295656D01*
X102380996Y-111732336D01*
X102165423Y-111211896D01*
X102105996Y-111152469D01*
X102105996Y-106932621D01*
X106221677Y-102816940D01*
X112198200Y-102816940D01*
X112198200Y-103380260D01*
X112413773Y-103900700D01*
X112812100Y-104299027D01*
X113332540Y-104514600D01*
X113895860Y-104514600D01*
X114416300Y-104299027D01*
X114475516Y-104239811D01*
X114476576Y-104239600D01*
X114809396Y-104173398D01*
X115186815Y-103921215D01*
X115250473Y-103825944D01*
X119154818Y-99921600D01*
X126138473Y-99921600D01*
X126197900Y-99981027D01*
X126718340Y-100196600D01*
X127281660Y-100196600D01*
X127802100Y-99981027D01*
X128200427Y-99582700D01*
X128416000Y-99062260D01*
X128416000Y-98498940D01*
X128200427Y-97978500D01*
X127802100Y-97580173D01*
X127281660Y-97364600D01*
X126718340Y-97364600D01*
X126197900Y-97580173D01*
X126138473Y-97639600D01*
X118794574Y-97639600D01*
X118682199Y-97617247D01*
X118569824Y-97639600D01*
X118237004Y-97705802D01*
X117859585Y-97957985D01*
X117795929Y-98053253D01*
X114087290Y-101761893D01*
X113895860Y-101682600D01*
X113332540Y-101682600D01*
X112812100Y-101898173D01*
X112413773Y-102296500D01*
X112198200Y-102816940D01*
X106221677Y-102816940D01*
X118504045Y-90534572D01*
X118577900Y-90608427D01*
X119098340Y-90824000D01*
X119661660Y-90824000D01*
X120182100Y-90608427D01*
X120580427Y-90210100D01*
X120796000Y-89689660D01*
X120796000Y-89605617D01*
X126456618Y-83945000D01*
X140616473Y-83945000D01*
X140675900Y-84004427D01*
X141196340Y-84220000D01*
X141759660Y-84220000D01*
X142280100Y-84004427D01*
X142678427Y-83606100D01*
X142894000Y-83085660D01*
X142894000Y-82522340D01*
X142678427Y-82001900D01*
X142280100Y-81603573D01*
X141759660Y-81388000D01*
X141196340Y-81388000D01*
X140675900Y-81603573D01*
X140616473Y-81663000D01*
X126096374Y-81663000D01*
X125983999Y-81640647D01*
X125871624Y-81663000D01*
X125538804Y-81729202D01*
X125161385Y-81981385D01*
X125097729Y-82076653D01*
X124988955Y-82185428D01*
X124915100Y-82111573D01*
X124394660Y-81896000D01*
X123831340Y-81896000D01*
X123310900Y-82111573D01*
X122912573Y-82509900D01*
X122697000Y-83030340D01*
X122697000Y-83114382D01*
X102255654Y-103555729D01*
X102165427Y-103337900D01*
X102106000Y-103278473D01*
X102106000Y-92369817D01*
X108947718Y-85528100D01*
X109031760Y-85528100D01*
X109552200Y-85312527D01*
X109950527Y-84914200D01*
X110166100Y-84393760D01*
X110166100Y-83830440D01*
X109950527Y-83310000D01*
X109552200Y-82911673D01*
X109031760Y-82696100D01*
X108468440Y-82696100D01*
X107948000Y-82911673D01*
X107549673Y-83310000D01*
X107334100Y-83830440D01*
X107334100Y-83914482D01*
X100237654Y-91010929D01*
X100142386Y-91074585D01*
X100078730Y-91169853D01*
X99890202Y-91452005D01*
X99801647Y-91897200D01*
X99824001Y-92009581D01*
X99824000Y-103278473D01*
X99764573Y-103337900D01*
X99549000Y-103858340D01*
X99549000Y-104421660D01*
X99764573Y-104942100D01*
X100162900Y-105340427D01*
X100380729Y-105430654D01*
X100237650Y-105573733D01*
X100142382Y-105637389D01*
X100078726Y-105732657D01*
X99890198Y-106014809D01*
X99801643Y-106460004D01*
X99823997Y-106572385D01*
X99823996Y-111152469D01*
X99764569Y-111211896D01*
X99548996Y-111732336D01*
X96549971Y-111732336D01*
X96451510Y-110670964D01*
X96366264Y-108101264D01*
X96433568Y-105531031D01*
X96653185Y-102969314D01*
X97024341Y-100425130D01*
X97545730Y-97907436D01*
X98215517Y-95425096D01*
X99031343Y-92986848D01*
X99990337Y-90601275D01*
X101089123Y-88276776D01*
X102323833Y-86021533D01*
X103690119Y-83843486D01*
X105183173Y-81750302D01*
X106797737Y-79749350D01*
X107279099Y-79220340D01*
X132442000Y-79220340D01*
X132442000Y-79783660D01*
X132657573Y-80304100D01*
X133055900Y-80702427D01*
X133576340Y-80918000D01*
X134139660Y-80918000D01*
X134660100Y-80702427D01*
X135058427Y-80304100D01*
X135083735Y-80243001D01*
X165167183Y-80243001D01*
X169106899Y-84182717D01*
X169106899Y-84266760D01*
X169322472Y-84787200D01*
X169720799Y-85185527D01*
X170241239Y-85401100D01*
X170804559Y-85401100D01*
X171324999Y-85185527D01*
X171723326Y-84787200D01*
X171938899Y-84266760D01*
X171938899Y-83703440D01*
X171723326Y-83183000D01*
X171324999Y-82784673D01*
X170804559Y-82569100D01*
X170720516Y-82569100D01*
X166526073Y-78374657D01*
X166462415Y-78279386D01*
X166084996Y-78027203D01*
X165752176Y-77961001D01*
X165639800Y-77938648D01*
X165527424Y-77961001D01*
X164833527Y-77961001D01*
X164865328Y-77929200D01*
X165080901Y-77408760D01*
X165080901Y-76845440D01*
X164865328Y-76325000D01*
X164467001Y-75926673D01*
X163946561Y-75711100D01*
X163862519Y-75711100D01*
X156639074Y-68487656D01*
X156575416Y-68392385D01*
X156197997Y-68140202D01*
X155865177Y-68074000D01*
X155752801Y-68051647D01*
X155640425Y-68074000D01*
X144371548Y-68074000D01*
X144312121Y-68014573D01*
X143791681Y-67799000D01*
X143228361Y-67799000D01*
X142707921Y-68014573D01*
X142309594Y-68412900D01*
X142094021Y-68933340D01*
X142094021Y-69496660D01*
X142309594Y-70017100D01*
X142707921Y-70415427D01*
X143228361Y-70631000D01*
X143791681Y-70631000D01*
X144312121Y-70415427D01*
X144371548Y-70356000D01*
X155280184Y-70356000D01*
X162248901Y-77324718D01*
X162248901Y-77408760D01*
X162464474Y-77929200D01*
X162496275Y-77961001D01*
X134370374Y-77961001D01*
X134257998Y-77938648D01*
X134020487Y-77985892D01*
X133812803Y-78027203D01*
X133724807Y-78086000D01*
X133576340Y-78086000D01*
X133055900Y-78301573D01*
X132657573Y-78699900D01*
X132442000Y-79220340D01*
X107279099Y-79220340D01*
X108528129Y-77847674D01*
X109685298Y-76718440D01*
X114446100Y-76718440D01*
X114446100Y-77281760D01*
X114661673Y-77802200D01*
X115060000Y-78200527D01*
X115580440Y-78416100D01*
X116143760Y-78416100D01*
X116664200Y-78200527D01*
X117062527Y-77802200D01*
X117278100Y-77281760D01*
X117278100Y-77197717D01*
X124119824Y-70355994D01*
X135028452Y-70355994D01*
X135087879Y-70415421D01*
X135608319Y-70630994D01*
X136171639Y-70630994D01*
X136692079Y-70415421D01*
X137090406Y-70017094D01*
X137305979Y-69496654D01*
X137305979Y-68933334D01*
X137090406Y-68412894D01*
X136692079Y-68014567D01*
X136171639Y-67798994D01*
X135608319Y-67798994D01*
X135087879Y-68014567D01*
X135028452Y-68073994D01*
X123759576Y-68073994D01*
X123647205Y-68051642D01*
X123534834Y-68073994D01*
X123534830Y-68073994D01*
X123202010Y-68140196D01*
X122824591Y-68392379D01*
X122760935Y-68487647D01*
X115664483Y-75584100D01*
X115580440Y-75584100D01*
X115060000Y-75799673D01*
X114661673Y-76198000D01*
X114446100Y-76718440D01*
X109685298Y-76718440D01*
X110368257Y-76051969D01*
X112311642Y-74368556D01*
X114351444Y-72803360D01*
X116480482Y-71361894D01*
X118691260Y-70049230D01*
X120975996Y-68869989D01*
X123326647Y-67828324D01*
X125734938Y-66927901D01*
X128192391Y-66171890D01*
X130690355Y-65562952D01*
X133220035Y-65103231D01*
X135772528Y-64794345D01*
X138338846Y-64637383D01*
X140909956Y-64632895D01*
X143476807Y-64780899D01*
X143476807Y-64780899D01*
G37*
X143476807Y-64780899D02*
X146030362Y-65080873D01*
X148561632Y-65531761D01*
X151061706Y-66131975D01*
X153521783Y-66879404D01*
X155933202Y-67771415D01*
X158287475Y-68804868D01*
X160576314Y-69976126D01*
X162791661Y-71281065D01*
X164925717Y-72715092D01*
X166970970Y-74273157D01*
X168920220Y-75949776D01*
X170766604Y-77739047D01*
X172503624Y-79634672D01*
X174125163Y-81629975D01*
X175625514Y-83717935D01*
X176999395Y-85891199D01*
X178241969Y-88142118D01*
X179348862Y-90462768D01*
X180316178Y-92844979D01*
X181140510Y-95280365D01*
X181818958Y-97760352D01*
X182349132Y-100276210D01*
X182729167Y-102819082D01*
X182957725Y-105380018D01*
X183034000Y-107950000D01*
X182974612Y-110217926D01*
X182763939Y-112780395D01*
X182401666Y-115325858D01*
X181889068Y-117845357D01*
X181227950Y-120330020D01*
X180420640Y-122771101D01*
X179469979Y-125160007D01*
X178379314Y-127488327D01*
X177152484Y-129747866D01*
X175793809Y-131930669D01*
X174308071Y-134029052D01*
X172700501Y-136035628D01*
X170976758Y-137943332D01*
X169142909Y-139745450D01*
X167205412Y-141435637D01*
X165171086Y-143007942D01*
X163047093Y-144456832D01*
X160840910Y-145777205D01*
X158560304Y-146964414D01*
X156213304Y-148014278D01*
X153808170Y-148923102D01*
X151353372Y-149687687D01*
X148857549Y-150305340D01*
X146329488Y-150773889D01*
X143778090Y-151091682D01*
X141212335Y-151257602D01*
X138641256Y-151271064D01*
X136073904Y-151132022D01*
X133519318Y-150840963D01*
X130986489Y-150398914D01*
X128484335Y-149807430D01*
X126021665Y-149068593D01*
X123607146Y-148185005D01*
X121249280Y-147159775D01*
X118956367Y-145996514D01*
X116736479Y-144699316D01*
X114597430Y-143272748D01*
X112546750Y-141721831D01*
X110591660Y-140052026D01*
X108739041Y-138269211D01*
X108614649Y-138134408D01*
X113962264Y-138134408D01*
X113962264Y-138697728D01*
X114177837Y-139218168D01*
X114576164Y-139616495D01*
X115096604Y-139832068D01*
X115180647Y-139832068D01*
X122760923Y-147412344D01*
X122824581Y-147507615D01*
X123202000Y-147759798D01*
X123647196Y-147848353D01*
X123759572Y-147826000D01*
X135155500Y-147826000D01*
X135214927Y-147885427D01*
X135735367Y-148101000D01*
X136298687Y-148101000D01*
X136819127Y-147885427D01*
X137217454Y-147487100D01*
X137433027Y-146966660D01*
X137433027Y-146403340D01*
X141966973Y-146403340D01*
X141966973Y-146966660D01*
X142182546Y-147487100D01*
X142580873Y-147885427D01*
X143101313Y-148101000D01*
X143664633Y-148101000D01*
X144185073Y-147885427D01*
X144244500Y-147826000D01*
X154192624Y-147826000D01*
X154305000Y-147848353D01*
X154417376Y-147826000D01*
X154750196Y-147759798D01*
X155127615Y-147507615D01*
X155191273Y-147412344D01*
X162562690Y-140040928D01*
X162676391Y-140040928D01*
X162735818Y-140100355D01*
X163256258Y-140315928D01*
X163819578Y-140315928D01*
X164340018Y-140100355D01*
X164738345Y-139702028D01*
X164953918Y-139181588D01*
X164953918Y-138618268D01*
X164738345Y-138097828D01*
X164340018Y-137699501D01*
X163819578Y-137483928D01*
X163256258Y-137483928D01*
X162735818Y-137699501D01*
X162676391Y-137758928D01*
X162202446Y-137758928D01*
X162090071Y-137736575D01*
X161977696Y-137758928D01*
X161644876Y-137825130D01*
X161267457Y-138077313D01*
X161203801Y-138172581D01*
X153832383Y-145544000D01*
X144244500Y-145544000D01*
X144185073Y-145484573D01*
X143664633Y-145269000D01*
X143101313Y-145269000D01*
X142580873Y-145484573D01*
X142182546Y-145882900D01*
X141966973Y-146403340D01*
X137433027Y-146403340D01*
X137217454Y-145882900D01*
X136819127Y-145484573D01*
X136298687Y-145269000D01*
X135735367Y-145269000D01*
X135214927Y-145484573D01*
X135155500Y-145544000D01*
X124119813Y-145544000D01*
X116794264Y-138218451D01*
X116794264Y-138134408D01*
X116578691Y-137613968D01*
X116180364Y-137215641D01*
X115659924Y-137000068D01*
X115096604Y-137000068D01*
X114576164Y-137215641D01*
X114177837Y-137613968D01*
X113962264Y-138134408D01*
X108614649Y-138134408D01*
X106995415Y-136379662D01*
X105366921Y-134390031D01*
X103859290Y-132307321D01*
X103195221Y-131264940D01*
X107092800Y-131264940D01*
X107092800Y-131828260D01*
X107308373Y-132348700D01*
X107706700Y-132747027D01*
X108227140Y-132962600D01*
X108311183Y-132962600D01*
X110822929Y-135474347D01*
X110886585Y-135569615D01*
X110981852Y-135633270D01*
X111264004Y-135821798D01*
X111709199Y-135910353D01*
X111821575Y-135888000D01*
X151308473Y-135888000D01*
X151367900Y-135947427D01*
X151888340Y-136163000D01*
X152451660Y-136163000D01*
X152972100Y-135947427D01*
X153370427Y-135549100D01*
X153586000Y-135028660D01*
X153586000Y-134465340D01*
X153370427Y-133944900D01*
X152972100Y-133546573D01*
X152451660Y-133331000D01*
X151888340Y-133331000D01*
X151367900Y-133546573D01*
X151308473Y-133606000D01*
X112181818Y-133606000D01*
X110069358Y-131493540D01*
X145396000Y-131493540D01*
X145396000Y-132056860D01*
X145611573Y-132577300D01*
X146009900Y-132975627D01*
X146530340Y-133191200D01*
X147093660Y-133191200D01*
X147614100Y-132975627D01*
X148012427Y-132577300D01*
X148228000Y-132056860D01*
X148228000Y-131972817D01*
X148694569Y-131506248D01*
X169233918Y-131506248D01*
X169233918Y-132069568D01*
X169449491Y-132590008D01*
X169847818Y-132988335D01*
X170368258Y-133203908D01*
X170931578Y-133203908D01*
X171452018Y-132988335D01*
X171850345Y-132590008D01*
X172065918Y-132069568D01*
X172065918Y-131985525D01*
X174717347Y-129334097D01*
X174812615Y-129270441D01*
X175064798Y-128893022D01*
X175131000Y-128560202D01*
X175153353Y-128447827D01*
X175131000Y-128335452D01*
X175131000Y-122900617D01*
X179162347Y-118869271D01*
X179257615Y-118805615D01*
X179509798Y-118428196D01*
X179576000Y-118095376D01*
X179598353Y-117983001D01*
X179576000Y-117870626D01*
X179576000Y-112568027D01*
X179635427Y-112508600D01*
X179851000Y-111988160D01*
X179851000Y-111424840D01*
X179635427Y-110904400D01*
X179237100Y-110506073D01*
X178716660Y-110290500D01*
X178153340Y-110290500D01*
X177632900Y-110506073D01*
X177234573Y-110904400D01*
X177019000Y-111424840D01*
X177019000Y-111988160D01*
X177234573Y-112508600D01*
X177294000Y-112568027D01*
X177294001Y-117510381D01*
X173262656Y-121541727D01*
X173167385Y-121605385D01*
X172974138Y-121894601D01*
X172915202Y-121982805D01*
X172826647Y-122428000D01*
X172849000Y-122540376D01*
X172849001Y-127975207D01*
X170452301Y-130371908D01*
X170368258Y-130371908D01*
X169847818Y-130587481D01*
X169449491Y-130985808D01*
X169233918Y-131506248D01*
X148694569Y-131506248D01*
X176824818Y-103376000D01*
X177573473Y-103376000D01*
X177632900Y-103435427D01*
X178153340Y-103651000D01*
X178716660Y-103651000D01*
X179237100Y-103435427D01*
X179635427Y-103037100D01*
X179851000Y-102516660D01*
X179851000Y-101953340D01*
X179635427Y-101432900D01*
X179237100Y-101034573D01*
X178716660Y-100819000D01*
X178153340Y-100819000D01*
X177632900Y-101034573D01*
X177573473Y-101094000D01*
X176464570Y-101094000D01*
X176352199Y-101071648D01*
X176239828Y-101094000D01*
X176239824Y-101094000D01*
X175907004Y-101160202D01*
X175529585Y-101412385D01*
X175465929Y-101507653D01*
X146614383Y-130359200D01*
X146530340Y-130359200D01*
X146009900Y-130574773D01*
X145611573Y-130973100D01*
X145396000Y-131493540D01*
X110069358Y-131493540D01*
X109924800Y-131348983D01*
X109924800Y-131264940D01*
X109709227Y-130744500D01*
X109310900Y-130346173D01*
X108790460Y-130130600D01*
X108227140Y-130130600D01*
X107706700Y-130346173D01*
X107308373Y-130744500D01*
X107092800Y-131264940D01*
X103195221Y-131264940D01*
X102477832Y-130138866D01*
X101227408Y-127892297D01*
X100112421Y-125575526D01*
X99383134Y-123797340D01*
X117811600Y-123797340D01*
X117811600Y-124360660D01*
X118027173Y-124881100D01*
X118425500Y-125279427D01*
X118945940Y-125495000D01*
X119509260Y-125495000D01*
X120029700Y-125279427D01*
X120428027Y-124881100D01*
X120643600Y-124360660D01*
X120643600Y-124276617D01*
X121884618Y-123035600D01*
X148731624Y-123035600D01*
X148844000Y-123057953D01*
X148956376Y-123035600D01*
X149289196Y-122969398D01*
X149666615Y-122717215D01*
X149730273Y-122621944D01*
X159709618Y-112642600D01*
X159793660Y-112642600D01*
X160314100Y-112427027D01*
X160712427Y-112028700D01*
X160928000Y-111508260D01*
X160928000Y-110944940D01*
X160712427Y-110424500D01*
X160314100Y-110026173D01*
X159793660Y-109810600D01*
X159230340Y-109810600D01*
X158709900Y-110026173D01*
X158311573Y-110424500D01*
X158096000Y-110944940D01*
X158096000Y-111028982D01*
X156943693Y-112181289D01*
X156826227Y-111897700D01*
X156766800Y-111838273D01*
X156766800Y-106949417D01*
X158693617Y-105022600D01*
X158777660Y-105022600D01*
X159298100Y-104807027D01*
X159696427Y-104408700D01*
X159912000Y-103888260D01*
X159912000Y-103324940D01*
X159696427Y-102804500D01*
X159298100Y-102406173D01*
X158777660Y-102190600D01*
X158214340Y-102190600D01*
X157693900Y-102406173D01*
X157295573Y-102804500D01*
X157080000Y-103324940D01*
X157080000Y-103408983D01*
X154898454Y-105590529D01*
X154803186Y-105654185D01*
X154739530Y-105749453D01*
X154551002Y-106031605D01*
X154462447Y-106476800D01*
X154484801Y-106589181D01*
X154484800Y-111838273D01*
X154425373Y-111897700D01*
X154209800Y-112418140D01*
X154209800Y-112981460D01*
X154425373Y-113501900D01*
X154823700Y-113900227D01*
X155107289Y-114017693D01*
X148371383Y-120753600D01*
X121524374Y-120753600D01*
X121411999Y-120731247D01*
X121299624Y-120753600D01*
X120966804Y-120819802D01*
X120589385Y-121071985D01*
X120525729Y-121167253D01*
X119029983Y-122663000D01*
X118945940Y-122663000D01*
X118425500Y-122878573D01*
X118027173Y-123276900D01*
X117811600Y-123797340D01*
X99383134Y-123797340D01*
X99136796Y-123196706D01*
X98303967Y-120764213D01*
X97616867Y-118286609D01*
X97077914Y-115772617D01*
X96689005Y-113231086D01*
X96549971Y-111732336D01*
X99548996Y-111732336D01*
X99548996Y-112295656D01*
X99764569Y-112816096D01*
X100162896Y-113214423D01*
X100683336Y-113429996D01*
X101246656Y-113429996D01*
X101767096Y-113214423D01*
X102165423Y-112816096D01*
X102380996Y-112295656D01*
X102380996Y-111732336D01*
X102165423Y-111211896D01*
X102105996Y-111152469D01*
X102105996Y-106932621D01*
X106221677Y-102816940D01*
X112198200Y-102816940D01*
X112198200Y-103380260D01*
X112413773Y-103900700D01*
X112812100Y-104299027D01*
X113332540Y-104514600D01*
X113895860Y-104514600D01*
X114416300Y-104299027D01*
X114475516Y-104239811D01*
X114476576Y-104239600D01*
X114809396Y-104173398D01*
X115186815Y-103921215D01*
X115250473Y-103825944D01*
X119154818Y-99921600D01*
X126138473Y-99921600D01*
X126197900Y-99981027D01*
X126718340Y-100196600D01*
X127281660Y-100196600D01*
X127802100Y-99981027D01*
X128200427Y-99582700D01*
X128416000Y-99062260D01*
X128416000Y-98498940D01*
X128200427Y-97978500D01*
X127802100Y-97580173D01*
X127281660Y-97364600D01*
X126718340Y-97364600D01*
X126197900Y-97580173D01*
X126138473Y-97639600D01*
X118794574Y-97639600D01*
X118682199Y-97617247D01*
X118569824Y-97639600D01*
X118237004Y-97705802D01*
X117859585Y-97957985D01*
X117795929Y-98053253D01*
X114087290Y-101761893D01*
X113895860Y-101682600D01*
X113332540Y-101682600D01*
X112812100Y-101898173D01*
X112413773Y-102296500D01*
X112198200Y-102816940D01*
X106221677Y-102816940D01*
X118504045Y-90534572D01*
X118577900Y-90608427D01*
X119098340Y-90824000D01*
X119661660Y-90824000D01*
X120182100Y-90608427D01*
X120580427Y-90210100D01*
X120796000Y-89689660D01*
X120796000Y-89605617D01*
X126456618Y-83945000D01*
X140616473Y-83945000D01*
X140675900Y-84004427D01*
X141196340Y-84220000D01*
X141759660Y-84220000D01*
X142280100Y-84004427D01*
X142678427Y-83606100D01*
X142894000Y-83085660D01*
X142894000Y-82522340D01*
X142678427Y-82001900D01*
X142280100Y-81603573D01*
X141759660Y-81388000D01*
X141196340Y-81388000D01*
X140675900Y-81603573D01*
X140616473Y-81663000D01*
X126096374Y-81663000D01*
X125983999Y-81640647D01*
X125871624Y-81663000D01*
X125538804Y-81729202D01*
X125161385Y-81981385D01*
X125097729Y-82076653D01*
X124988955Y-82185428D01*
X124915100Y-82111573D01*
X124394660Y-81896000D01*
X123831340Y-81896000D01*
X123310900Y-82111573D01*
X122912573Y-82509900D01*
X122697000Y-83030340D01*
X122697000Y-83114382D01*
X102255654Y-103555729D01*
X102165427Y-103337900D01*
X102106000Y-103278473D01*
X102106000Y-92369817D01*
X108947718Y-85528100D01*
X109031760Y-85528100D01*
X109552200Y-85312527D01*
X109950527Y-84914200D01*
X110166100Y-84393760D01*
X110166100Y-83830440D01*
X109950527Y-83310000D01*
X109552200Y-82911673D01*
X109031760Y-82696100D01*
X108468440Y-82696100D01*
X107948000Y-82911673D01*
X107549673Y-83310000D01*
X107334100Y-83830440D01*
X107334100Y-83914482D01*
X100237654Y-91010929D01*
X100142386Y-91074585D01*
X100078730Y-91169853D01*
X99890202Y-91452005D01*
X99801647Y-91897200D01*
X99824001Y-92009581D01*
X99824000Y-103278473D01*
X99764573Y-103337900D01*
X99549000Y-103858340D01*
X99549000Y-104421660D01*
X99764573Y-104942100D01*
X100162900Y-105340427D01*
X100380729Y-105430654D01*
X100237650Y-105573733D01*
X100142382Y-105637389D01*
X100078726Y-105732657D01*
X99890198Y-106014809D01*
X99801643Y-106460004D01*
X99823997Y-106572385D01*
X99823996Y-111152469D01*
X99764569Y-111211896D01*
X99548996Y-111732336D01*
X96549971Y-111732336D01*
X96451510Y-110670964D01*
X96366264Y-108101264D01*
X96433568Y-105531031D01*
X96653185Y-102969314D01*
X97024341Y-100425130D01*
X97545730Y-97907436D01*
X98215517Y-95425096D01*
X99031343Y-92986848D01*
X99990337Y-90601275D01*
X101089123Y-88276776D01*
X102323833Y-86021533D01*
X103690119Y-83843486D01*
X105183173Y-81750302D01*
X106797737Y-79749350D01*
X107279099Y-79220340D01*
X132442000Y-79220340D01*
X132442000Y-79783660D01*
X132657573Y-80304100D01*
X133055900Y-80702427D01*
X133576340Y-80918000D01*
X134139660Y-80918000D01*
X134660100Y-80702427D01*
X135058427Y-80304100D01*
X135083735Y-80243001D01*
X165167183Y-80243001D01*
X169106899Y-84182717D01*
X169106899Y-84266760D01*
X169322472Y-84787200D01*
X169720799Y-85185527D01*
X170241239Y-85401100D01*
X170804559Y-85401100D01*
X171324999Y-85185527D01*
X171723326Y-84787200D01*
X171938899Y-84266760D01*
X171938899Y-83703440D01*
X171723326Y-83183000D01*
X171324999Y-82784673D01*
X170804559Y-82569100D01*
X170720516Y-82569100D01*
X166526073Y-78374657D01*
X166462415Y-78279386D01*
X166084996Y-78027203D01*
X165752176Y-77961001D01*
X165639800Y-77938648D01*
X165527424Y-77961001D01*
X164833527Y-77961001D01*
X164865328Y-77929200D01*
X165080901Y-77408760D01*
X165080901Y-76845440D01*
X164865328Y-76325000D01*
X164467001Y-75926673D01*
X163946561Y-75711100D01*
X163862519Y-75711100D01*
X156639074Y-68487656D01*
X156575416Y-68392385D01*
X156197997Y-68140202D01*
X155865177Y-68074000D01*
X155752801Y-68051647D01*
X155640425Y-68074000D01*
X144371548Y-68074000D01*
X144312121Y-68014573D01*
X143791681Y-67799000D01*
X143228361Y-67799000D01*
X142707921Y-68014573D01*
X142309594Y-68412900D01*
X142094021Y-68933340D01*
X142094021Y-69496660D01*
X142309594Y-70017100D01*
X142707921Y-70415427D01*
X143228361Y-70631000D01*
X143791681Y-70631000D01*
X144312121Y-70415427D01*
X144371548Y-70356000D01*
X155280184Y-70356000D01*
X162248901Y-77324718D01*
X162248901Y-77408760D01*
X162464474Y-77929200D01*
X162496275Y-77961001D01*
X134370374Y-77961001D01*
X134257998Y-77938648D01*
X134020487Y-77985892D01*
X133812803Y-78027203D01*
X133724807Y-78086000D01*
X133576340Y-78086000D01*
X133055900Y-78301573D01*
X132657573Y-78699900D01*
X132442000Y-79220340D01*
X107279099Y-79220340D01*
X108528129Y-77847674D01*
X109685298Y-76718440D01*
X114446100Y-76718440D01*
X114446100Y-77281760D01*
X114661673Y-77802200D01*
X115060000Y-78200527D01*
X115580440Y-78416100D01*
X116143760Y-78416100D01*
X116664200Y-78200527D01*
X117062527Y-77802200D01*
X117278100Y-77281760D01*
X117278100Y-77197717D01*
X124119824Y-70355994D01*
X135028452Y-70355994D01*
X135087879Y-70415421D01*
X135608319Y-70630994D01*
X136171639Y-70630994D01*
X136692079Y-70415421D01*
X137090406Y-70017094D01*
X137305979Y-69496654D01*
X137305979Y-68933334D01*
X137090406Y-68412894D01*
X136692079Y-68014567D01*
X136171639Y-67798994D01*
X135608319Y-67798994D01*
X135087879Y-68014567D01*
X135028452Y-68073994D01*
X123759576Y-68073994D01*
X123647205Y-68051642D01*
X123534834Y-68073994D01*
X123534830Y-68073994D01*
X123202010Y-68140196D01*
X122824591Y-68392379D01*
X122760935Y-68487647D01*
X115664483Y-75584100D01*
X115580440Y-75584100D01*
X115060000Y-75799673D01*
X114661673Y-76198000D01*
X114446100Y-76718440D01*
X109685298Y-76718440D01*
X110368257Y-76051969D01*
X112311642Y-74368556D01*
X114351444Y-72803360D01*
X116480482Y-71361894D01*
X118691260Y-70049230D01*
X120975996Y-68869989D01*
X123326647Y-67828324D01*
X125734938Y-66927901D01*
X128192391Y-66171890D01*
X130690355Y-65562952D01*
X133220035Y-65103231D01*
X135772528Y-64794345D01*
X138338846Y-64637383D01*
X140909956Y-64632895D01*
X143476807Y-64780899D01*
G04 #@! TD*
M02*
