G04 #@! TF.GenerationSoftware,KiCad,Pcbnew,(5.0.0)*
G04 #@! TF.CreationDate,2019-01-27T21:53:57-08:00*
G04 #@! TF.ProjectId,Lannister_coaster,4C616E6E69737465725F636F61737465,rev?*
G04 #@! TF.SameCoordinates,Original*
G04 #@! TF.FileFunction,Legend,Top*
G04 #@! TF.FilePolarity,Positive*
%FSLAX46Y46*%
G04 Gerber Fmt 4.6, Leading zero omitted, Abs format (unit mm)*
G04 Created by KiCad (PCBNEW (5.0.0)) date 01/27/19 21:53:57*
%MOMM*%
%LPD*%
G01*
G04 APERTURE LIST*
%ADD10C,0.076200*%
%ADD11C,0.120000*%
%ADD12C,0.150000*%
%ADD13C,0.101600*%
G04 APERTURE END LIST*
D10*
X114878152Y-124039085D02*
X115265200Y-124039085D01*
X115071676Y-124232609D02*
X115071676Y-123845561D01*
X115482914Y-123772990D02*
X115507104Y-123748800D01*
X115555485Y-123724609D01*
X115676438Y-123724609D01*
X115724819Y-123748800D01*
X115749009Y-123772990D01*
X115773200Y-123821371D01*
X115773200Y-123869752D01*
X115749009Y-123942323D01*
X115458723Y-124232609D01*
X115773200Y-124232609D01*
X116208628Y-123893942D02*
X116208628Y-124232609D01*
X116087676Y-123700419D02*
X115966723Y-124063276D01*
X116281200Y-124063276D01*
X116402152Y-123724609D02*
X116571485Y-124232609D01*
X116740819Y-123724609D01*
X125190552Y-115798600D02*
X125142171Y-115774409D01*
X125069600Y-115774409D01*
X124997028Y-115798600D01*
X124948647Y-115846980D01*
X124924457Y-115895361D01*
X124900266Y-115992123D01*
X124900266Y-116064695D01*
X124924457Y-116161457D01*
X124948647Y-116209838D01*
X124997028Y-116258219D01*
X125069600Y-116282409D01*
X125117980Y-116282409D01*
X125190552Y-116258219D01*
X125214742Y-116234028D01*
X125214742Y-116064695D01*
X125117980Y-116064695D01*
X125432457Y-116282409D02*
X125432457Y-115774409D01*
X125722742Y-116282409D01*
X125722742Y-115774409D01*
X125964647Y-116282409D02*
X125964647Y-115774409D01*
X126085600Y-115774409D01*
X126158171Y-115798600D01*
X126206552Y-115846980D01*
X126230742Y-115895361D01*
X126254933Y-115992123D01*
X126254933Y-116064695D01*
X126230742Y-116161457D01*
X126206552Y-116209838D01*
X126158171Y-116258219D01*
X126085600Y-116282409D01*
X125964647Y-116282409D01*
X128543352Y-123647200D02*
X128494971Y-123623009D01*
X128422400Y-123623009D01*
X128349828Y-123647200D01*
X128301447Y-123695580D01*
X128277257Y-123743961D01*
X128253066Y-123840723D01*
X128253066Y-123913295D01*
X128277257Y-124010057D01*
X128301447Y-124058438D01*
X128349828Y-124106819D01*
X128422400Y-124131009D01*
X128470780Y-124131009D01*
X128543352Y-124106819D01*
X128567542Y-124082628D01*
X128567542Y-123913295D01*
X128470780Y-123913295D01*
X128785257Y-124131009D02*
X128785257Y-123623009D01*
X129075542Y-124131009D01*
X129075542Y-123623009D01*
X129317447Y-124131009D02*
X129317447Y-123623009D01*
X129438400Y-123623009D01*
X129510971Y-123647200D01*
X129559352Y-123695580D01*
X129583542Y-123743961D01*
X129607733Y-123840723D01*
X129607733Y-123913295D01*
X129583542Y-124010057D01*
X129559352Y-124058438D01*
X129510971Y-124106819D01*
X129438400Y-124131009D01*
X129317447Y-124131009D01*
D11*
G04 #@! TO.C,D1*
X176835000Y-104668500D02*
X176835000Y-108668500D01*
X180035000Y-104618500D02*
X180035000Y-108618500D01*
G04 #@! TO.C,D10*
X136554000Y-131954000D02*
X141954000Y-131954000D01*
X136554000Y-135254000D02*
X141954000Y-135254000D01*
X136554000Y-131954000D02*
X136554000Y-135254000D01*
G04 #@! TO.C,D9*
X136014000Y-77852000D02*
X136014000Y-81152000D01*
X136014000Y-81152000D02*
X141414000Y-81152000D01*
X136014000Y-77852000D02*
X141414000Y-77852000D01*
G04 #@! TO.C,C3*
X163481936Y-100732000D02*
X164686064Y-100732000D01*
X163481936Y-98912000D02*
X164686064Y-98912000D01*
G04 #@! TO.C,C2*
X164777336Y-95102000D02*
X165981464Y-95102000D01*
X164777336Y-96922000D02*
X165981464Y-96922000D01*
G04 #@! TO.C,R5*
X164028000Y-106841000D02*
X164028000Y-104156000D01*
X162108000Y-106841000D02*
X164028000Y-106841000D01*
X162108000Y-104156000D02*
X162108000Y-106841000D01*
G04 #@! TO.C,R6*
X158552000Y-106442000D02*
X158552000Y-109127000D01*
X158552000Y-109127000D02*
X160472000Y-109127000D01*
X160472000Y-109127000D02*
X160472000Y-106442000D01*
G04 #@! TO.C,U2*
X167772000Y-114662000D02*
X167772000Y-113402000D01*
X167772000Y-107842000D02*
X167772000Y-109102000D01*
X164012000Y-114662000D02*
X167772000Y-114662000D01*
X161762000Y-107842000D02*
X167772000Y-107842000D01*
D12*
G04 #@! TO.C,TP3*
X120705800Y-117101800D02*
X120705800Y-114901800D01*
X124505800Y-117101800D02*
X120705800Y-117101800D01*
X124505800Y-114901800D02*
X124505800Y-117101800D01*
X120705800Y-114901800D02*
X124505800Y-114901800D01*
G04 #@! TO.C,TP5*
X124058600Y-122877400D02*
X127858600Y-122877400D01*
X127858600Y-122877400D02*
X127858600Y-125077400D01*
X127858600Y-125077400D02*
X124058600Y-125077400D01*
X124058600Y-125077400D02*
X124058600Y-122877400D01*
G04 #@! TO.C,TP2*
X112400000Y-117178000D02*
X112400000Y-114978000D01*
X116200000Y-117178000D02*
X112400000Y-117178000D01*
X116200000Y-114978000D02*
X116200000Y-117178000D01*
X112400000Y-114978000D02*
X116200000Y-114978000D01*
G04 #@! TO.C,TP4*
X117327600Y-122979000D02*
X121127600Y-122979000D01*
X121127600Y-122979000D02*
X121127600Y-125179000D01*
X121127600Y-125179000D02*
X117327600Y-125179000D01*
X117327600Y-125179000D02*
X117327600Y-122979000D01*
D11*
G04 #@! TO.C,TP1*
X112914200Y-103798600D02*
X112914200Y-102398600D01*
X114314200Y-103798600D02*
X112914200Y-103798600D01*
X114314200Y-102398600D02*
X114314200Y-103798600D01*
X112914200Y-102398600D02*
X114314200Y-102398600D01*
G04 #@! TO.C,TP6*
X145858000Y-128509800D02*
X147258000Y-128509800D01*
X147258000Y-128509800D02*
X147258000Y-129909800D01*
X147258000Y-129909800D02*
X145858000Y-129909800D01*
X145858000Y-129909800D02*
X145858000Y-128509800D01*
G04 #@! TO.C,R8*
X164340000Y-121549279D02*
X164340000Y-121223721D01*
X163320000Y-121549279D02*
X163320000Y-121223721D01*
G04 #@! TO.C,R2*
X113536000Y-93634779D02*
X113536000Y-93309221D01*
X114556000Y-93634779D02*
X114556000Y-93309221D01*
G04 #@! TO.C,R3*
X113536000Y-97119221D02*
X113536000Y-97444779D01*
X114556000Y-97119221D02*
X114556000Y-97444779D01*
G04 #@! TO.C,R9*
X164340000Y-124779721D02*
X164340000Y-125105279D01*
X163320000Y-124779721D02*
X163320000Y-125105279D01*
G04 #@! TO.C,C4*
X117223000Y-102554721D02*
X117223000Y-102880279D01*
X116203000Y-102554721D02*
X116203000Y-102880279D01*
G04 #@! TO.C,D6*
X114232948Y-135008002D02*
X111404521Y-132179575D01*
X112005561Y-137306099D02*
X109177134Y-134477672D01*
G04 #@! TO.C,C7*
X150773200Y-125367522D02*
X150773200Y-125884678D01*
X149353200Y-125367522D02*
X149353200Y-125884678D01*
G04 #@! TO.C,C5*
X119036000Y-101381936D02*
X119036000Y-102586064D01*
X121756000Y-101381936D02*
X121756000Y-102586064D01*
G04 #@! TO.C,C6*
X148754000Y-118582064D02*
X148754000Y-117377936D01*
X151474000Y-118582064D02*
X151474000Y-117377936D01*
G04 #@! TO.C,C1*
X128364064Y-80428000D02*
X127159936Y-80428000D01*
X128364064Y-83148000D02*
X127159936Y-83148000D01*
G04 #@! TO.C,C8*
X147603936Y-134022000D02*
X148808064Y-134022000D01*
X147603936Y-136742000D02*
X148808064Y-136742000D01*
G04 #@! TO.C,L2*
X155426000Y-131541000D02*
X155426000Y-130561000D01*
X151406000Y-131541000D02*
X151406000Y-130561000D01*
G04 #@! TO.C,L1*
X124692000Y-86899000D02*
X124692000Y-87879000D01*
X120672000Y-86899000D02*
X120672000Y-87879000D01*
G04 #@! TO.C,D3*
X141199979Y-70815000D02*
X137199979Y-70815000D01*
X141149979Y-67615000D02*
X137149979Y-67615000D01*
G04 #@! TO.C,D5*
X99365000Y-106559996D02*
X99365000Y-110559996D01*
X102565000Y-106509996D02*
X102565000Y-110509996D01*
G04 #@! TO.C,D4*
X114930583Y-79686359D02*
X112102156Y-82514786D01*
X112632486Y-77458972D02*
X109804059Y-80287399D01*
G04 #@! TO.C,D2*
X169300340Y-80503811D02*
X166471913Y-77675384D01*
X167072953Y-82801908D02*
X164244526Y-79973481D01*
G04 #@! TO.C,D7*
X141327005Y-148285000D02*
X137327005Y-148285000D01*
X141277005Y-145085000D02*
X137277005Y-145085000D01*
G04 #@! TO.C,D8*
X169285949Y-135414671D02*
X166457522Y-138243098D01*
X166987852Y-133187284D02*
X164159425Y-136015711D01*
D12*
G04 #@! TO.C,U1*
X120803000Y-93242000D02*
X119878000Y-93242000D01*
X120803000Y-96367000D02*
X124053000Y-96367000D01*
X120803000Y-93117000D02*
X124053000Y-93117000D01*
X120803000Y-96367000D02*
X120803000Y-96152000D01*
X124053000Y-96367000D02*
X124053000Y-96152000D01*
X124053000Y-93117000D02*
X124053000Y-93332000D01*
X120803000Y-93117000D02*
X120803000Y-93242000D01*
G04 #@! TO.C,U3*
X157835000Y-125031000D02*
X157835000Y-124906000D01*
X154585000Y-125031000D02*
X154585000Y-124816000D01*
X154585000Y-121781000D02*
X154585000Y-121996000D01*
X157835000Y-121781000D02*
X157835000Y-121996000D01*
X157835000Y-125031000D02*
X154585000Y-125031000D01*
X157835000Y-121781000D02*
X154585000Y-121781000D01*
X157835000Y-124906000D02*
X158760000Y-124906000D01*
D11*
G04 #@! TO.C,R1*
X117804000Y-92285078D02*
X117804000Y-91767922D01*
X116384000Y-92285078D02*
X116384000Y-91767922D01*
G04 #@! TO.C,R10*
X161492000Y-126057922D02*
X161492000Y-126575078D01*
X160072000Y-126057922D02*
X160072000Y-126575078D01*
G04 #@! TO.C,R4*
X116384000Y-97863922D02*
X116384000Y-98381078D01*
X117804000Y-97863922D02*
X117804000Y-98381078D01*
G04 #@! TO.C,R7*
X160072000Y-120987078D02*
X160072000Y-120469922D01*
X161492000Y-120987078D02*
X161492000Y-120469922D01*
G04 #@! TO.C,D1*
D13*
X181264809Y-106673452D02*
X180756809Y-106673452D01*
X180756809Y-106552500D01*
X180781000Y-106479928D01*
X180829380Y-106431547D01*
X180877761Y-106407357D01*
X180974523Y-106383166D01*
X181047095Y-106383166D01*
X181143857Y-106407357D01*
X181192238Y-106431547D01*
X181240619Y-106479928D01*
X181264809Y-106552500D01*
X181264809Y-106673452D01*
X181264809Y-105899357D02*
X181264809Y-106189642D01*
X181264809Y-106044500D02*
X180756809Y-106044500D01*
X180829380Y-106092880D01*
X180877761Y-106141261D01*
X180901952Y-106189642D01*
G04 #@! TO.C,D10*
X139286342Y-131624009D02*
X139286342Y-131116009D01*
X139407295Y-131116009D01*
X139479866Y-131140200D01*
X139528247Y-131188580D01*
X139552438Y-131236961D01*
X139576628Y-131333723D01*
X139576628Y-131406295D01*
X139552438Y-131503057D01*
X139528247Y-131551438D01*
X139479866Y-131599819D01*
X139407295Y-131624009D01*
X139286342Y-131624009D01*
X140060438Y-131624009D02*
X139770152Y-131624009D01*
X139915295Y-131624009D02*
X139915295Y-131116009D01*
X139866914Y-131188580D01*
X139818533Y-131236961D01*
X139770152Y-131261152D01*
X140374914Y-131116009D02*
X140423295Y-131116009D01*
X140471676Y-131140200D01*
X140495866Y-131164390D01*
X140520057Y-131212771D01*
X140544247Y-131309533D01*
X140544247Y-131430485D01*
X140520057Y-131527247D01*
X140495866Y-131575628D01*
X140471676Y-131599819D01*
X140423295Y-131624009D01*
X140374914Y-131624009D01*
X140326533Y-131599819D01*
X140302342Y-131575628D01*
X140278152Y-131527247D01*
X140253961Y-131430485D01*
X140253961Y-131309533D01*
X140278152Y-131212771D01*
X140302342Y-131164390D01*
X140326533Y-131140200D01*
X140374914Y-131116009D01*
G04 #@! TO.C,D9*
X139198047Y-77547409D02*
X139198047Y-77039409D01*
X139319000Y-77039409D01*
X139391571Y-77063600D01*
X139439952Y-77111980D01*
X139464142Y-77160361D01*
X139488333Y-77257123D01*
X139488333Y-77329695D01*
X139464142Y-77426457D01*
X139439952Y-77474838D01*
X139391571Y-77523219D01*
X139319000Y-77547409D01*
X139198047Y-77547409D01*
X139730238Y-77547409D02*
X139827000Y-77547409D01*
X139875380Y-77523219D01*
X139899571Y-77499028D01*
X139947952Y-77426457D01*
X139972142Y-77329695D01*
X139972142Y-77136171D01*
X139947952Y-77087790D01*
X139923761Y-77063600D01*
X139875380Y-77039409D01*
X139778619Y-77039409D01*
X139730238Y-77063600D01*
X139706047Y-77087790D01*
X139681857Y-77136171D01*
X139681857Y-77257123D01*
X139706047Y-77305504D01*
X139730238Y-77329695D01*
X139778619Y-77353885D01*
X139875380Y-77353885D01*
X139923761Y-77329695D01*
X139947952Y-77305504D01*
X139972142Y-77257123D01*
G04 #@! TO.C,C3*
X161154533Y-100079628D02*
X161130342Y-100103819D01*
X161057771Y-100128009D01*
X161009390Y-100128009D01*
X160936819Y-100103819D01*
X160888438Y-100055438D01*
X160864247Y-100007057D01*
X160840057Y-99910295D01*
X160840057Y-99837723D01*
X160864247Y-99740961D01*
X160888438Y-99692580D01*
X160936819Y-99644200D01*
X161009390Y-99620009D01*
X161057771Y-99620009D01*
X161130342Y-99644200D01*
X161154533Y-99668390D01*
X161323866Y-99620009D02*
X161638342Y-99620009D01*
X161469009Y-99813533D01*
X161541580Y-99813533D01*
X161589961Y-99837723D01*
X161614152Y-99861914D01*
X161638342Y-99910295D01*
X161638342Y-100031247D01*
X161614152Y-100079628D01*
X161589961Y-100103819D01*
X161541580Y-100128009D01*
X161396438Y-100128009D01*
X161348057Y-100103819D01*
X161323866Y-100079628D01*
G04 #@! TO.C,C2*
X165091533Y-94669428D02*
X165067342Y-94693619D01*
X164994771Y-94717809D01*
X164946390Y-94717809D01*
X164873819Y-94693619D01*
X164825438Y-94645238D01*
X164801247Y-94596857D01*
X164777057Y-94500095D01*
X164777057Y-94427523D01*
X164801247Y-94330761D01*
X164825438Y-94282380D01*
X164873819Y-94234000D01*
X164946390Y-94209809D01*
X164994771Y-94209809D01*
X165067342Y-94234000D01*
X165091533Y-94258190D01*
X165285057Y-94258190D02*
X165309247Y-94234000D01*
X165357628Y-94209809D01*
X165478580Y-94209809D01*
X165526961Y-94234000D01*
X165551152Y-94258190D01*
X165575342Y-94306571D01*
X165575342Y-94354952D01*
X165551152Y-94427523D01*
X165260866Y-94717809D01*
X165575342Y-94717809D01*
G04 #@! TO.C,R5*
X162932533Y-103176009D02*
X162763200Y-102934104D01*
X162642247Y-103176009D02*
X162642247Y-102668009D01*
X162835771Y-102668009D01*
X162884152Y-102692200D01*
X162908342Y-102716390D01*
X162932533Y-102764771D01*
X162932533Y-102837342D01*
X162908342Y-102885723D01*
X162884152Y-102909914D01*
X162835771Y-102934104D01*
X162642247Y-102934104D01*
X163392152Y-102668009D02*
X163150247Y-102668009D01*
X163126057Y-102909914D01*
X163150247Y-102885723D01*
X163198628Y-102861533D01*
X163319580Y-102861533D01*
X163367961Y-102885723D01*
X163392152Y-102909914D01*
X163416342Y-102958295D01*
X163416342Y-103079247D01*
X163392152Y-103127628D01*
X163367961Y-103151819D01*
X163319580Y-103176009D01*
X163198628Y-103176009D01*
X163150247Y-103151819D01*
X163126057Y-103127628D01*
G04 #@! TO.C,R6*
X159401933Y-105462009D02*
X159232600Y-105220104D01*
X159111647Y-105462009D02*
X159111647Y-104954009D01*
X159305171Y-104954009D01*
X159353552Y-104978200D01*
X159377742Y-105002390D01*
X159401933Y-105050771D01*
X159401933Y-105123342D01*
X159377742Y-105171723D01*
X159353552Y-105195914D01*
X159305171Y-105220104D01*
X159111647Y-105220104D01*
X159837361Y-104954009D02*
X159740600Y-104954009D01*
X159692219Y-104978200D01*
X159668028Y-105002390D01*
X159619647Y-105074961D01*
X159595457Y-105171723D01*
X159595457Y-105365247D01*
X159619647Y-105413628D01*
X159643838Y-105437819D01*
X159692219Y-105462009D01*
X159788980Y-105462009D01*
X159837361Y-105437819D01*
X159861552Y-105413628D01*
X159885742Y-105365247D01*
X159885742Y-105244295D01*
X159861552Y-105195914D01*
X159837361Y-105171723D01*
X159788980Y-105147533D01*
X159692219Y-105147533D01*
X159643838Y-105171723D01*
X159619647Y-105195914D01*
X159595457Y-105244295D01*
G04 #@! TO.C,U2*
X165754352Y-106833609D02*
X165754352Y-107244847D01*
X165778542Y-107293228D01*
X165802733Y-107317419D01*
X165851114Y-107341609D01*
X165947876Y-107341609D01*
X165996257Y-107317419D01*
X166020447Y-107293228D01*
X166044638Y-107244847D01*
X166044638Y-106833609D01*
X166262352Y-106881990D02*
X166286542Y-106857800D01*
X166334923Y-106833609D01*
X166455876Y-106833609D01*
X166504257Y-106857800D01*
X166528447Y-106881990D01*
X166552638Y-106930371D01*
X166552638Y-106978752D01*
X166528447Y-107051323D01*
X166238161Y-107341609D01*
X166552638Y-107341609D01*
G04 #@! TO.C,TP3*
X121964752Y-113894809D02*
X122255038Y-113894809D01*
X122109895Y-114402809D02*
X122109895Y-113894809D01*
X122424371Y-114402809D02*
X122424371Y-113894809D01*
X122617895Y-113894809D01*
X122666276Y-113919000D01*
X122690466Y-113943190D01*
X122714657Y-113991571D01*
X122714657Y-114064142D01*
X122690466Y-114112523D01*
X122666276Y-114136714D01*
X122617895Y-114160904D01*
X122424371Y-114160904D01*
X122883990Y-113894809D02*
X123198466Y-113894809D01*
X123029133Y-114088333D01*
X123101704Y-114088333D01*
X123150085Y-114112523D01*
X123174276Y-114136714D01*
X123198466Y-114185095D01*
X123198466Y-114306047D01*
X123174276Y-114354428D01*
X123150085Y-114378619D01*
X123101704Y-114402809D01*
X122956561Y-114402809D01*
X122908180Y-114378619D01*
X122883990Y-114354428D01*
G04 #@! TO.C,TP5*
X125317552Y-121972009D02*
X125607838Y-121972009D01*
X125462695Y-122480009D02*
X125462695Y-121972009D01*
X125777171Y-122480009D02*
X125777171Y-121972009D01*
X125970695Y-121972009D01*
X126019076Y-121996200D01*
X126043266Y-122020390D01*
X126067457Y-122068771D01*
X126067457Y-122141342D01*
X126043266Y-122189723D01*
X126019076Y-122213914D01*
X125970695Y-122238104D01*
X125777171Y-122238104D01*
X126527076Y-121972009D02*
X126285171Y-121972009D01*
X126260980Y-122213914D01*
X126285171Y-122189723D01*
X126333552Y-122165533D01*
X126454504Y-122165533D01*
X126502885Y-122189723D01*
X126527076Y-122213914D01*
X126551266Y-122262295D01*
X126551266Y-122383247D01*
X126527076Y-122431628D01*
X126502885Y-122455819D01*
X126454504Y-122480009D01*
X126333552Y-122480009D01*
X126285171Y-122455819D01*
X126260980Y-122431628D01*
G04 #@! TO.C,TP2*
X113735152Y-113894809D02*
X114025438Y-113894809D01*
X113880295Y-114402809D02*
X113880295Y-113894809D01*
X114194771Y-114402809D02*
X114194771Y-113894809D01*
X114388295Y-113894809D01*
X114436676Y-113919000D01*
X114460866Y-113943190D01*
X114485057Y-113991571D01*
X114485057Y-114064142D01*
X114460866Y-114112523D01*
X114436676Y-114136714D01*
X114388295Y-114160904D01*
X114194771Y-114160904D01*
X114678580Y-113943190D02*
X114702771Y-113919000D01*
X114751152Y-113894809D01*
X114872104Y-113894809D01*
X114920485Y-113919000D01*
X114944676Y-113943190D01*
X114968866Y-113991571D01*
X114968866Y-114039952D01*
X114944676Y-114112523D01*
X114654390Y-114402809D01*
X114968866Y-114402809D01*
G04 #@! TO.C,TP4*
X118586552Y-122048209D02*
X118876838Y-122048209D01*
X118731695Y-122556209D02*
X118731695Y-122048209D01*
X119046171Y-122556209D02*
X119046171Y-122048209D01*
X119239695Y-122048209D01*
X119288076Y-122072400D01*
X119312266Y-122096590D01*
X119336457Y-122144971D01*
X119336457Y-122217542D01*
X119312266Y-122265923D01*
X119288076Y-122290114D01*
X119239695Y-122314304D01*
X119046171Y-122314304D01*
X119771885Y-122217542D02*
X119771885Y-122556209D01*
X119650933Y-122024019D02*
X119529980Y-122386876D01*
X119844457Y-122386876D01*
G04 #@! TO.C,TP1*
X111068152Y-102820409D02*
X111358438Y-102820409D01*
X111213295Y-103328409D02*
X111213295Y-102820409D01*
X111527771Y-103328409D02*
X111527771Y-102820409D01*
X111721295Y-102820409D01*
X111769676Y-102844600D01*
X111793866Y-102868790D01*
X111818057Y-102917171D01*
X111818057Y-102989742D01*
X111793866Y-103038123D01*
X111769676Y-103062314D01*
X111721295Y-103086504D01*
X111527771Y-103086504D01*
X112301866Y-103328409D02*
X112011580Y-103328409D01*
X112156723Y-103328409D02*
X112156723Y-102820409D01*
X112108342Y-102892980D01*
X112059961Y-102941361D01*
X112011580Y-102965552D01*
G04 #@! TO.C,TP6*
X145916952Y-127483609D02*
X146207238Y-127483609D01*
X146062095Y-127991609D02*
X146062095Y-127483609D01*
X146376571Y-127991609D02*
X146376571Y-127483609D01*
X146570095Y-127483609D01*
X146618476Y-127507800D01*
X146642666Y-127531990D01*
X146666857Y-127580371D01*
X146666857Y-127652942D01*
X146642666Y-127701323D01*
X146618476Y-127725514D01*
X146570095Y-127749704D01*
X146376571Y-127749704D01*
X147102285Y-127483609D02*
X147005523Y-127483609D01*
X146957142Y-127507800D01*
X146932952Y-127531990D01*
X146884571Y-127604561D01*
X146860380Y-127701323D01*
X146860380Y-127894847D01*
X146884571Y-127943228D01*
X146908761Y-127967419D01*
X146957142Y-127991609D01*
X147053904Y-127991609D01*
X147102285Y-127967419D01*
X147126476Y-127943228D01*
X147150666Y-127894847D01*
X147150666Y-127773895D01*
X147126476Y-127725514D01*
X147102285Y-127701323D01*
X147053904Y-127677133D01*
X146957142Y-127677133D01*
X146908761Y-127701323D01*
X146884571Y-127725514D01*
X146860380Y-127773895D01*
G04 #@! TO.C,R8*
X163719933Y-119762209D02*
X163550600Y-119520304D01*
X163429647Y-119762209D02*
X163429647Y-119254209D01*
X163623171Y-119254209D01*
X163671552Y-119278400D01*
X163695742Y-119302590D01*
X163719933Y-119350971D01*
X163719933Y-119423542D01*
X163695742Y-119471923D01*
X163671552Y-119496114D01*
X163623171Y-119520304D01*
X163429647Y-119520304D01*
X164010219Y-119471923D02*
X163961838Y-119447733D01*
X163937647Y-119423542D01*
X163913457Y-119375161D01*
X163913457Y-119350971D01*
X163937647Y-119302590D01*
X163961838Y-119278400D01*
X164010219Y-119254209D01*
X164106980Y-119254209D01*
X164155361Y-119278400D01*
X164179552Y-119302590D01*
X164203742Y-119350971D01*
X164203742Y-119375161D01*
X164179552Y-119423542D01*
X164155361Y-119447733D01*
X164106980Y-119471923D01*
X164010219Y-119471923D01*
X163961838Y-119496114D01*
X163937647Y-119520304D01*
X163913457Y-119568685D01*
X163913457Y-119665447D01*
X163937647Y-119713828D01*
X163961838Y-119738019D01*
X164010219Y-119762209D01*
X164106980Y-119762209D01*
X164155361Y-119738019D01*
X164179552Y-119713828D01*
X164203742Y-119665447D01*
X164203742Y-119568685D01*
X164179552Y-119520304D01*
X164155361Y-119496114D01*
X164106980Y-119471923D01*
G04 #@! TO.C,R2*
X112589733Y-93651009D02*
X112420400Y-93409104D01*
X112299447Y-93651009D02*
X112299447Y-93143009D01*
X112492971Y-93143009D01*
X112541352Y-93167200D01*
X112565542Y-93191390D01*
X112589733Y-93239771D01*
X112589733Y-93312342D01*
X112565542Y-93360723D01*
X112541352Y-93384914D01*
X112492971Y-93409104D01*
X112299447Y-93409104D01*
X112783257Y-93191390D02*
X112807447Y-93167200D01*
X112855828Y-93143009D01*
X112976780Y-93143009D01*
X113025161Y-93167200D01*
X113049352Y-93191390D01*
X113073542Y-93239771D01*
X113073542Y-93288152D01*
X113049352Y-93360723D01*
X112759066Y-93651009D01*
X113073542Y-93651009D01*
G04 #@! TO.C,R3*
X112615133Y-97486409D02*
X112445800Y-97244504D01*
X112324847Y-97486409D02*
X112324847Y-96978409D01*
X112518371Y-96978409D01*
X112566752Y-97002600D01*
X112590942Y-97026790D01*
X112615133Y-97075171D01*
X112615133Y-97147742D01*
X112590942Y-97196123D01*
X112566752Y-97220314D01*
X112518371Y-97244504D01*
X112324847Y-97244504D01*
X112784466Y-96978409D02*
X113098942Y-96978409D01*
X112929609Y-97171933D01*
X113002180Y-97171933D01*
X113050561Y-97196123D01*
X113074752Y-97220314D01*
X113098942Y-97268695D01*
X113098942Y-97389647D01*
X113074752Y-97438028D01*
X113050561Y-97462219D01*
X113002180Y-97486409D01*
X112857038Y-97486409D01*
X112808657Y-97462219D01*
X112784466Y-97438028D01*
G04 #@! TO.C,R9*
X163719933Y-127255209D02*
X163550600Y-127013304D01*
X163429647Y-127255209D02*
X163429647Y-126747209D01*
X163623171Y-126747209D01*
X163671552Y-126771400D01*
X163695742Y-126795590D01*
X163719933Y-126843971D01*
X163719933Y-126916542D01*
X163695742Y-126964923D01*
X163671552Y-126989114D01*
X163623171Y-127013304D01*
X163429647Y-127013304D01*
X163961838Y-127255209D02*
X164058600Y-127255209D01*
X164106980Y-127231019D01*
X164131171Y-127206828D01*
X164179552Y-127134257D01*
X164203742Y-127037495D01*
X164203742Y-126843971D01*
X164179552Y-126795590D01*
X164155361Y-126771400D01*
X164106980Y-126747209D01*
X164010219Y-126747209D01*
X163961838Y-126771400D01*
X163937647Y-126795590D01*
X163913457Y-126843971D01*
X163913457Y-126964923D01*
X163937647Y-127013304D01*
X163961838Y-127037495D01*
X164010219Y-127061685D01*
X164106980Y-127061685D01*
X164155361Y-127037495D01*
X164179552Y-127013304D01*
X164203742Y-126964923D01*
G04 #@! TO.C,C4*
X116628333Y-104829428D02*
X116604142Y-104853619D01*
X116531571Y-104877809D01*
X116483190Y-104877809D01*
X116410619Y-104853619D01*
X116362238Y-104805238D01*
X116338047Y-104756857D01*
X116313857Y-104660095D01*
X116313857Y-104587523D01*
X116338047Y-104490761D01*
X116362238Y-104442380D01*
X116410619Y-104394000D01*
X116483190Y-104369809D01*
X116531571Y-104369809D01*
X116604142Y-104394000D01*
X116628333Y-104418190D01*
X117063761Y-104539142D02*
X117063761Y-104877809D01*
X116942809Y-104345619D02*
X116821857Y-104708476D01*
X117136333Y-104708476D01*
G04 #@! TO.C,D6*
X109682883Y-136722634D02*
X110042094Y-136363424D01*
X110127620Y-136448950D01*
X110161830Y-136517371D01*
X110161830Y-136585792D01*
X110144725Y-136637108D01*
X110093409Y-136722634D01*
X110042094Y-136773950D01*
X109956567Y-136825266D01*
X109905252Y-136842371D01*
X109836831Y-136842371D01*
X109768410Y-136808160D01*
X109682883Y-136722634D01*
X110555251Y-136876581D02*
X110486830Y-136808160D01*
X110435514Y-136791055D01*
X110401304Y-136791055D01*
X110315777Y-136808160D01*
X110230251Y-136859476D01*
X110093409Y-136996318D01*
X110076304Y-137047634D01*
X110076304Y-137081844D01*
X110093409Y-137133160D01*
X110161830Y-137201581D01*
X110213146Y-137218686D01*
X110247356Y-137218686D01*
X110298672Y-137201581D01*
X110384198Y-137116055D01*
X110401304Y-137064739D01*
X110401304Y-137030528D01*
X110384198Y-136979213D01*
X110315777Y-136910792D01*
X110264462Y-136893686D01*
X110230251Y-136893686D01*
X110178935Y-136910792D01*
G04 #@! TO.C,C7*
X150080133Y-123727028D02*
X150055942Y-123751219D01*
X149983371Y-123775409D01*
X149934990Y-123775409D01*
X149862419Y-123751219D01*
X149814038Y-123702838D01*
X149789847Y-123654457D01*
X149765657Y-123557695D01*
X149765657Y-123485123D01*
X149789847Y-123388361D01*
X149814038Y-123339980D01*
X149862419Y-123291600D01*
X149934990Y-123267409D01*
X149983371Y-123267409D01*
X150055942Y-123291600D01*
X150080133Y-123315790D01*
X150249466Y-123267409D02*
X150588133Y-123267409D01*
X150370419Y-123775409D01*
G04 #@! TO.C,C5*
X120311333Y-104931028D02*
X120287142Y-104955219D01*
X120214571Y-104979409D01*
X120166190Y-104979409D01*
X120093619Y-104955219D01*
X120045238Y-104906838D01*
X120021047Y-104858457D01*
X119996857Y-104761695D01*
X119996857Y-104689123D01*
X120021047Y-104592361D01*
X120045238Y-104543980D01*
X120093619Y-104495600D01*
X120166190Y-104471409D01*
X120214571Y-104471409D01*
X120287142Y-104495600D01*
X120311333Y-104519790D01*
X120770952Y-104471409D02*
X120529047Y-104471409D01*
X120504857Y-104713314D01*
X120529047Y-104689123D01*
X120577428Y-104664933D01*
X120698380Y-104664933D01*
X120746761Y-104689123D01*
X120770952Y-104713314D01*
X120795142Y-104761695D01*
X120795142Y-104882647D01*
X120770952Y-104931028D01*
X120746761Y-104955219D01*
X120698380Y-104979409D01*
X120577428Y-104979409D01*
X120529047Y-104955219D01*
X120504857Y-104931028D01*
G04 #@! TO.C,C6*
X150080133Y-115548228D02*
X150055942Y-115572419D01*
X149983371Y-115596609D01*
X149934990Y-115596609D01*
X149862419Y-115572419D01*
X149814038Y-115524038D01*
X149789847Y-115475657D01*
X149765657Y-115378895D01*
X149765657Y-115306323D01*
X149789847Y-115209561D01*
X149814038Y-115161180D01*
X149862419Y-115112800D01*
X149934990Y-115088609D01*
X149983371Y-115088609D01*
X150055942Y-115112800D01*
X150080133Y-115136990D01*
X150515561Y-115088609D02*
X150418800Y-115088609D01*
X150370419Y-115112800D01*
X150346228Y-115136990D01*
X150297847Y-115209561D01*
X150273657Y-115306323D01*
X150273657Y-115499847D01*
X150297847Y-115548228D01*
X150322038Y-115572419D01*
X150370419Y-115596609D01*
X150467180Y-115596609D01*
X150515561Y-115572419D01*
X150539752Y-115548228D01*
X150563942Y-115499847D01*
X150563942Y-115378895D01*
X150539752Y-115330514D01*
X150515561Y-115306323D01*
X150467180Y-115282133D01*
X150370419Y-115282133D01*
X150322038Y-115306323D01*
X150297847Y-115330514D01*
X150273657Y-115378895D01*
G04 #@! TO.C,C1*
X127804333Y-79937428D02*
X127780142Y-79961619D01*
X127707571Y-79985809D01*
X127659190Y-79985809D01*
X127586619Y-79961619D01*
X127538238Y-79913238D01*
X127514047Y-79864857D01*
X127489857Y-79768095D01*
X127489857Y-79695523D01*
X127514047Y-79598761D01*
X127538238Y-79550380D01*
X127586619Y-79502000D01*
X127659190Y-79477809D01*
X127707571Y-79477809D01*
X127780142Y-79502000D01*
X127804333Y-79526190D01*
X128288142Y-79985809D02*
X127997857Y-79985809D01*
X128143000Y-79985809D02*
X128143000Y-79477809D01*
X128094619Y-79550380D01*
X128046238Y-79598761D01*
X127997857Y-79622952D01*
G04 #@! TO.C,C8*
X148121333Y-133556828D02*
X148097142Y-133581019D01*
X148024571Y-133605209D01*
X147976190Y-133605209D01*
X147903619Y-133581019D01*
X147855238Y-133532638D01*
X147831047Y-133484257D01*
X147806857Y-133387495D01*
X147806857Y-133314923D01*
X147831047Y-133218161D01*
X147855238Y-133169780D01*
X147903619Y-133121400D01*
X147976190Y-133097209D01*
X148024571Y-133097209D01*
X148097142Y-133121400D01*
X148121333Y-133145590D01*
X148411619Y-133314923D02*
X148363238Y-133290733D01*
X148339047Y-133266542D01*
X148314857Y-133218161D01*
X148314857Y-133193971D01*
X148339047Y-133145590D01*
X148363238Y-133121400D01*
X148411619Y-133097209D01*
X148508380Y-133097209D01*
X148556761Y-133121400D01*
X148580952Y-133145590D01*
X148605142Y-133193971D01*
X148605142Y-133218161D01*
X148580952Y-133266542D01*
X148556761Y-133290733D01*
X148508380Y-133314923D01*
X148411619Y-133314923D01*
X148363238Y-133339114D01*
X148339047Y-133363304D01*
X148314857Y-133411685D01*
X148314857Y-133508447D01*
X148339047Y-133556828D01*
X148363238Y-133581019D01*
X148411619Y-133605209D01*
X148508380Y-133605209D01*
X148556761Y-133581019D01*
X148580952Y-133556828D01*
X148605142Y-133508447D01*
X148605142Y-133411685D01*
X148580952Y-133363304D01*
X148556761Y-133339114D01*
X148508380Y-133314923D01*
G04 #@! TO.C,L2*
X153305933Y-134316409D02*
X153064028Y-134316409D01*
X153064028Y-133808409D01*
X153451076Y-133856790D02*
X153475266Y-133832600D01*
X153523647Y-133808409D01*
X153644600Y-133808409D01*
X153692980Y-133832600D01*
X153717171Y-133856790D01*
X153741361Y-133905171D01*
X153741361Y-133953552D01*
X153717171Y-134026123D01*
X153426885Y-134316409D01*
X153741361Y-134316409D01*
G04 #@! TO.C,L1*
X125492933Y-87682009D02*
X125251028Y-87682009D01*
X125251028Y-87174009D01*
X125928361Y-87682009D02*
X125638076Y-87682009D01*
X125783219Y-87682009D02*
X125783219Y-87174009D01*
X125734838Y-87246580D01*
X125686457Y-87294961D01*
X125638076Y-87319152D01*
G04 #@! TO.C,D3*
X139096447Y-71934009D02*
X139096447Y-71426009D01*
X139217400Y-71426009D01*
X139289971Y-71450200D01*
X139338352Y-71498580D01*
X139362542Y-71546961D01*
X139386733Y-71643723D01*
X139386733Y-71716295D01*
X139362542Y-71813057D01*
X139338352Y-71861438D01*
X139289971Y-71909819D01*
X139217400Y-71934009D01*
X139096447Y-71934009D01*
X139556066Y-71426009D02*
X139870542Y-71426009D01*
X139701209Y-71619533D01*
X139773780Y-71619533D01*
X139822161Y-71643723D01*
X139846352Y-71667914D01*
X139870542Y-71716295D01*
X139870542Y-71837247D01*
X139846352Y-71885628D01*
X139822161Y-71909819D01*
X139773780Y-71934009D01*
X139628638Y-71934009D01*
X139580257Y-71909819D01*
X139556066Y-71885628D01*
G04 #@! TO.C,D5*
X103794809Y-108564948D02*
X103286809Y-108564948D01*
X103286809Y-108443996D01*
X103311000Y-108371424D01*
X103359380Y-108323043D01*
X103407761Y-108298853D01*
X103504523Y-108274662D01*
X103577095Y-108274662D01*
X103673857Y-108298853D01*
X103722238Y-108323043D01*
X103770619Y-108371424D01*
X103794809Y-108443996D01*
X103794809Y-108564948D01*
X103286809Y-107815043D02*
X103286809Y-108056948D01*
X103528714Y-108081138D01*
X103504523Y-108056948D01*
X103480333Y-108008567D01*
X103480333Y-107887615D01*
X103504523Y-107839234D01*
X103528714Y-107815043D01*
X103577095Y-107790853D01*
X103698047Y-107790853D01*
X103746428Y-107815043D01*
X103770619Y-107839234D01*
X103794809Y-107887615D01*
X103794809Y-108008567D01*
X103770619Y-108056948D01*
X103746428Y-108081138D01*
G04 #@! TO.C,D4*
X114347118Y-82009036D02*
X113987908Y-81649825D01*
X114073434Y-81564299D01*
X114141855Y-81530089D01*
X114210276Y-81530089D01*
X114261592Y-81547194D01*
X114347118Y-81598510D01*
X114398434Y-81649825D01*
X114449750Y-81735352D01*
X114466855Y-81786667D01*
X114466855Y-81855088D01*
X114432644Y-81923509D01*
X114347118Y-82009036D01*
X114620802Y-81256405D02*
X114860275Y-81495878D01*
X114398434Y-81205089D02*
X114569486Y-81547194D01*
X114791854Y-81324826D01*
G04 #@! TO.C,D2*
X164750275Y-82218443D02*
X165109486Y-81859233D01*
X165195012Y-81944759D01*
X165229222Y-82013180D01*
X165229222Y-82081601D01*
X165212117Y-82132917D01*
X165160801Y-82218443D01*
X165109486Y-82269759D01*
X165023959Y-82321074D01*
X164972644Y-82338180D01*
X164904223Y-82338180D01*
X164835802Y-82303969D01*
X164750275Y-82218443D01*
X165417380Y-82235548D02*
X165451590Y-82235548D01*
X165502906Y-82252654D01*
X165588432Y-82338180D01*
X165605538Y-82389495D01*
X165605538Y-82423706D01*
X165588432Y-82475022D01*
X165554222Y-82509232D01*
X165485801Y-82543443D01*
X165075275Y-82543443D01*
X165297643Y-82765811D01*
G04 #@! TO.C,D7*
X139272052Y-149514809D02*
X139272052Y-149006809D01*
X139393005Y-149006809D01*
X139465576Y-149031000D01*
X139513957Y-149079380D01*
X139538147Y-149127761D01*
X139562338Y-149224523D01*
X139562338Y-149297095D01*
X139538147Y-149393857D01*
X139513957Y-149442238D01*
X139465576Y-149490619D01*
X139393005Y-149514809D01*
X139272052Y-149514809D01*
X139731671Y-149006809D02*
X140070338Y-149006809D01*
X139852624Y-149514809D01*
G04 #@! TO.C,D8*
X168702484Y-137737348D02*
X168343274Y-137378137D01*
X168428800Y-137292611D01*
X168497221Y-137258401D01*
X168565642Y-137258401D01*
X168616958Y-137275506D01*
X168702484Y-137326822D01*
X168753800Y-137378137D01*
X168805115Y-137463664D01*
X168822221Y-137514979D01*
X168822221Y-137583400D01*
X168788010Y-137651821D01*
X168702484Y-137737348D01*
X168907747Y-137121559D02*
X168856431Y-137138664D01*
X168822221Y-137138664D01*
X168770905Y-137121559D01*
X168753800Y-137104454D01*
X168736695Y-137053138D01*
X168736695Y-137018927D01*
X168753800Y-136967612D01*
X168822221Y-136899191D01*
X168873536Y-136882085D01*
X168907747Y-136882085D01*
X168959063Y-136899191D01*
X168976168Y-136916296D01*
X168993273Y-136967612D01*
X168993273Y-137001822D01*
X168976168Y-137053138D01*
X168907747Y-137121559D01*
X168890642Y-137172875D01*
X168890642Y-137207085D01*
X168907747Y-137258401D01*
X168976168Y-137326822D01*
X169027484Y-137343927D01*
X169061694Y-137343927D01*
X169113010Y-137326822D01*
X169181431Y-137258401D01*
X169198536Y-137207085D01*
X169198536Y-137172875D01*
X169181431Y-137121559D01*
X169113010Y-137053138D01*
X169061694Y-137036033D01*
X169027484Y-137036033D01*
X168976168Y-137053138D01*
G04 #@! TO.C,U1*
X122117152Y-92304809D02*
X122117152Y-92716047D01*
X122141342Y-92764428D01*
X122165533Y-92788619D01*
X122213914Y-92812809D01*
X122310676Y-92812809D01*
X122359057Y-92788619D01*
X122383247Y-92764428D01*
X122407438Y-92716047D01*
X122407438Y-92304809D01*
X122915438Y-92812809D02*
X122625152Y-92812809D01*
X122770295Y-92812809D02*
X122770295Y-92304809D01*
X122721914Y-92377380D01*
X122673533Y-92425761D01*
X122625152Y-92449952D01*
G04 #@! TO.C,U3*
X155822952Y-125477209D02*
X155822952Y-125888447D01*
X155847142Y-125936828D01*
X155871333Y-125961019D01*
X155919714Y-125985209D01*
X156016476Y-125985209D01*
X156064857Y-125961019D01*
X156089047Y-125936828D01*
X156113238Y-125888447D01*
X156113238Y-125477209D01*
X156306761Y-125477209D02*
X156621238Y-125477209D01*
X156451904Y-125670733D01*
X156524476Y-125670733D01*
X156572857Y-125694923D01*
X156597047Y-125719114D01*
X156621238Y-125767495D01*
X156621238Y-125888447D01*
X156597047Y-125936828D01*
X156572857Y-125961019D01*
X156524476Y-125985209D01*
X156379333Y-125985209D01*
X156330952Y-125961019D01*
X156306761Y-125936828D01*
G04 #@! TO.C,R1*
X117034733Y-90095009D02*
X116865400Y-89853104D01*
X116744447Y-90095009D02*
X116744447Y-89587009D01*
X116937971Y-89587009D01*
X116986352Y-89611200D01*
X117010542Y-89635390D01*
X117034733Y-89683771D01*
X117034733Y-89756342D01*
X117010542Y-89804723D01*
X116986352Y-89828914D01*
X116937971Y-89853104D01*
X116744447Y-89853104D01*
X117518542Y-90095009D02*
X117228257Y-90095009D01*
X117373400Y-90095009D02*
X117373400Y-89587009D01*
X117325019Y-89659580D01*
X117276638Y-89707961D01*
X117228257Y-89732152D01*
G04 #@! TO.C,R10*
X160480828Y-128855409D02*
X160311495Y-128613504D01*
X160190542Y-128855409D02*
X160190542Y-128347409D01*
X160384066Y-128347409D01*
X160432447Y-128371600D01*
X160456638Y-128395790D01*
X160480828Y-128444171D01*
X160480828Y-128516742D01*
X160456638Y-128565123D01*
X160432447Y-128589314D01*
X160384066Y-128613504D01*
X160190542Y-128613504D01*
X160964638Y-128855409D02*
X160674352Y-128855409D01*
X160819495Y-128855409D02*
X160819495Y-128347409D01*
X160771114Y-128419980D01*
X160722733Y-128468361D01*
X160674352Y-128492552D01*
X161279114Y-128347409D02*
X161327495Y-128347409D01*
X161375876Y-128371600D01*
X161400066Y-128395790D01*
X161424257Y-128444171D01*
X161448447Y-128540933D01*
X161448447Y-128661885D01*
X161424257Y-128758647D01*
X161400066Y-128807028D01*
X161375876Y-128831219D01*
X161327495Y-128855409D01*
X161279114Y-128855409D01*
X161230733Y-128831219D01*
X161206542Y-128807028D01*
X161182352Y-128758647D01*
X161158161Y-128661885D01*
X161158161Y-128540933D01*
X161182352Y-128444171D01*
X161206542Y-128395790D01*
X161230733Y-128371600D01*
X161279114Y-128347409D01*
G04 #@! TO.C,R4*
X117034733Y-96343409D02*
X116865400Y-96101504D01*
X116744447Y-96343409D02*
X116744447Y-95835409D01*
X116937971Y-95835409D01*
X116986352Y-95859600D01*
X117010542Y-95883790D01*
X117034733Y-95932171D01*
X117034733Y-96004742D01*
X117010542Y-96053123D01*
X116986352Y-96077314D01*
X116937971Y-96101504D01*
X116744447Y-96101504D01*
X117470161Y-96004742D02*
X117470161Y-96343409D01*
X117349209Y-95811219D02*
X117228257Y-96174076D01*
X117542733Y-96174076D01*
G04 #@! TO.C,R7*
X160773533Y-118873209D02*
X160604200Y-118631304D01*
X160483247Y-118873209D02*
X160483247Y-118365209D01*
X160676771Y-118365209D01*
X160725152Y-118389400D01*
X160749342Y-118413590D01*
X160773533Y-118461971D01*
X160773533Y-118534542D01*
X160749342Y-118582923D01*
X160725152Y-118607114D01*
X160676771Y-118631304D01*
X160483247Y-118631304D01*
X160942866Y-118365209D02*
X161281533Y-118365209D01*
X161063819Y-118873209D01*
G04 #@! TD*
M02*
