G04 #@! TF.GenerationSoftware,KiCad,Pcbnew,(5.0.0)*
G04 #@! TF.CreationDate,2019-01-30T00:43:17-08:00*
G04 #@! TF.ProjectId,Stark_coaster,537461726B5F636F61737465722E6B69,rev?*
G04 #@! TF.SameCoordinates,Original*
G04 #@! TF.FileFunction,Soldermask,Top*
G04 #@! TF.FilePolarity,Negative*
%FSLAX46Y46*%
G04 Gerber Fmt 4.6, Leading zero omitted, Abs format (unit mm)*
G04 Created by KiCad (PCBNEW (5.0.0)) date 01/30/19 00:43:17*
%MOMM*%
%LPD*%
G01*
G04 APERTURE LIST*
%ADD10C,0.700000*%
%ADD11C,0.100000*%
%ADD12C,1.950000*%
%ADD13C,0.800000*%
%ADD14C,0.810000*%
%ADD15C,3.000000*%
%ADD16C,0.650000*%
%ADD17R,1.200000X1.100000*%
%ADD18R,4.690000X4.900000*%
%ADD19C,1.750000*%
%ADD20C,1.525000*%
%ADD21C,0.990000*%
%ADD22C,1.275000*%
%ADD23C,1.375000*%
%ADD24C,1.650000*%
%ADD25C,0.420000*%
%ADD26C,2.760000*%
%ADD27C,1.200000*%
%ADD28C,1.050000*%
G04 APERTURE END LIST*
D10*
G04 #@! TO.C,DFN*
X171552482Y-119914034D03*
D11*
G36*
X171428738Y-120532752D02*
X170933764Y-120037778D01*
X171676226Y-119295316D01*
X172171200Y-119790290D01*
X171428738Y-120532752D01*
X171428738Y-120532752D01*
G37*
D10*
X171906035Y-120267587D03*
D11*
G36*
X171782291Y-120886305D02*
X171287317Y-120391331D01*
X172029779Y-119648869D01*
X172524753Y-120143843D01*
X171782291Y-120886305D01*
X171782291Y-120886305D01*
G37*
D10*
X172259588Y-120621141D03*
D11*
G36*
X172135844Y-121239859D02*
X171640870Y-120744885D01*
X172383332Y-120002423D01*
X172878306Y-120497397D01*
X172135844Y-121239859D01*
X172135844Y-121239859D01*
G37*
D10*
X172613142Y-120974694D03*
D11*
G36*
X172489398Y-121593412D02*
X171994424Y-121098438D01*
X172736886Y-120355976D01*
X173231860Y-120850950D01*
X172489398Y-121593412D01*
X172489398Y-121593412D01*
G37*
D10*
X172966695Y-121328247D03*
D11*
G36*
X172842951Y-121946965D02*
X172347977Y-121451991D01*
X173090439Y-120709529D01*
X173585413Y-121204503D01*
X172842951Y-121946965D01*
X172842951Y-121946965D01*
G37*
D10*
X175158726Y-119136216D03*
D11*
G36*
X175034982Y-119754934D02*
X174540008Y-119259960D01*
X175282470Y-118517498D01*
X175777444Y-119012472D01*
X175034982Y-119754934D01*
X175034982Y-119754934D01*
G37*
D10*
X174805173Y-118782663D03*
D11*
G36*
X174681429Y-119401381D02*
X174186455Y-118906407D01*
X174928917Y-118163945D01*
X175423891Y-118658919D01*
X174681429Y-119401381D01*
X174681429Y-119401381D01*
G37*
D10*
X174451620Y-118429109D03*
D11*
G36*
X174327876Y-119047827D02*
X173832902Y-118552853D01*
X174575364Y-117810391D01*
X175070338Y-118305365D01*
X174327876Y-119047827D01*
X174327876Y-119047827D01*
G37*
D10*
X174098066Y-118075556D03*
D11*
G36*
X173974322Y-118694274D02*
X173479348Y-118199300D01*
X174221810Y-117456838D01*
X174716784Y-117951812D01*
X173974322Y-118694274D01*
X173974322Y-118694274D01*
G37*
D10*
X173744513Y-117722003D03*
D11*
G36*
X173620769Y-118340721D02*
X173125795Y-117845747D01*
X173868257Y-117103285D01*
X174363231Y-117598259D01*
X173620769Y-118340721D01*
X173620769Y-118340721D01*
G37*
D12*
X173355604Y-119525125D03*
D11*
G36*
X173684409Y-121232788D02*
X171647941Y-119196320D01*
X173026799Y-117817462D01*
X175063267Y-119853930D01*
X173684409Y-121232788D01*
X173684409Y-121232788D01*
G37*
G04 #@! TD*
D13*
G04 #@! TO.C,BGA*
X105904039Y-88138000D03*
X106611146Y-88845107D03*
X107318253Y-89552214D03*
X108025359Y-90259320D03*
X108732466Y-90966427D03*
X109439573Y-91673534D03*
X110146680Y-92380641D03*
X110853786Y-93087747D03*
X111560893Y-93794854D03*
X112268000Y-94501961D03*
X106611146Y-87430893D03*
X107318253Y-88138000D03*
X108025359Y-88845107D03*
X108732466Y-89552214D03*
X109439573Y-90259320D03*
X110146680Y-90966427D03*
X110853786Y-91673534D03*
X111560893Y-92380641D03*
X112268000Y-93087747D03*
X112975107Y-93794854D03*
X107318253Y-86723786D03*
X108025359Y-87430893D03*
X108732466Y-88138000D03*
X109439573Y-88845107D03*
X110146680Y-89552214D03*
X110853786Y-90259320D03*
X111560893Y-90966427D03*
X112268000Y-91673534D03*
X112975107Y-92380641D03*
X113682214Y-93087747D03*
X108025359Y-86016680D03*
X108732466Y-86723786D03*
X109439573Y-87430893D03*
X110146680Y-88138000D03*
X110853786Y-88845107D03*
X111560893Y-89552214D03*
X112268000Y-90259320D03*
X112975107Y-90966427D03*
X113682214Y-91673534D03*
X114389320Y-92380641D03*
X108732466Y-85309573D03*
X109439573Y-86016680D03*
X110146680Y-86723786D03*
X110853786Y-87430893D03*
X111560893Y-88138000D03*
X112268000Y-88845107D03*
X112975107Y-89552214D03*
X113682214Y-90259320D03*
X114389320Y-90966427D03*
X115096427Y-91673534D03*
X109439573Y-84602466D03*
X110146680Y-85309573D03*
X110853786Y-86016680D03*
X111560893Y-86723786D03*
X112268000Y-87430893D03*
X112975107Y-88138000D03*
X113682214Y-88845107D03*
X114389320Y-89552214D03*
X115096427Y-90259320D03*
X115803534Y-90966427D03*
X110146680Y-83895359D03*
X110853786Y-84602466D03*
X111560893Y-85309573D03*
X112268000Y-86016680D03*
X112975107Y-86723786D03*
X113682214Y-87430893D03*
X114389320Y-88138000D03*
X115096427Y-88845107D03*
X115803534Y-89552214D03*
X116510641Y-90259320D03*
X110853786Y-83188253D03*
X111560893Y-83895359D03*
X112268000Y-84602466D03*
X112975107Y-85309573D03*
X113682214Y-86016680D03*
X114389320Y-86723786D03*
X115096427Y-87430893D03*
X115803534Y-88138000D03*
X116510641Y-88845107D03*
X117217747Y-89552214D03*
X111560893Y-82481146D03*
X112268000Y-83188253D03*
X112975107Y-83895359D03*
X113682214Y-84602466D03*
X114389320Y-85309573D03*
X115096427Y-86016680D03*
X115803534Y-86723786D03*
X116510641Y-87430893D03*
X117217747Y-88138000D03*
X117924854Y-88845107D03*
X112268000Y-81774039D03*
X112975107Y-82481146D03*
X113682214Y-83188253D03*
X114389320Y-83895359D03*
X115096427Y-84602466D03*
X115803534Y-85309573D03*
X116510641Y-86016680D03*
X117217747Y-86723786D03*
X117924854Y-87430893D03*
X118631961Y-88138000D03*
G04 #@! TD*
D14*
G04 #@! TO.C,QSOP*
X173155281Y-113550285D03*
D11*
G36*
X172734552Y-114543770D02*
X172161796Y-113971014D01*
X173576010Y-112556800D01*
X174148766Y-113129556D01*
X172734552Y-114543770D01*
X172734552Y-114543770D01*
G37*
D14*
X173604293Y-113999298D03*
D11*
G36*
X173183564Y-114992783D02*
X172610808Y-114420027D01*
X174025022Y-113005813D01*
X174597778Y-113578569D01*
X173183564Y-114992783D01*
X173183564Y-114992783D01*
G37*
D14*
X174053306Y-114448310D03*
D11*
G36*
X173632577Y-115441795D02*
X173059821Y-114869039D01*
X174474035Y-113454825D01*
X175046791Y-114027581D01*
X173632577Y-115441795D01*
X173632577Y-115441795D01*
G37*
D14*
X174502319Y-114897323D03*
D11*
G36*
X174081590Y-115890808D02*
X173508834Y-115318052D01*
X174923048Y-113903838D01*
X175495804Y-114476594D01*
X174081590Y-115890808D01*
X174081590Y-115890808D01*
G37*
D14*
X174951332Y-115346336D03*
D11*
G36*
X174530603Y-116339821D02*
X173957847Y-115767065D01*
X175372061Y-114352851D01*
X175944817Y-114925607D01*
X174530603Y-116339821D01*
X174530603Y-116339821D01*
G37*
D14*
X175400345Y-115795349D03*
D11*
G36*
X174979616Y-116788834D02*
X174406860Y-116216078D01*
X175821074Y-114801864D01*
X176393830Y-115374620D01*
X174979616Y-116788834D01*
X174979616Y-116788834D01*
G37*
D14*
X175849357Y-116244362D03*
D11*
G36*
X175428628Y-117237847D02*
X174855872Y-116665091D01*
X176270086Y-115250877D01*
X176842842Y-115823633D01*
X175428628Y-117237847D01*
X175428628Y-117237847D01*
G37*
D14*
X176298370Y-116693374D03*
D11*
G36*
X175877641Y-117686859D02*
X175304885Y-117114103D01*
X176719099Y-115699889D01*
X177291855Y-116272645D01*
X175877641Y-117686859D01*
X175877641Y-117686859D01*
G37*
D14*
X180052117Y-112939627D03*
D11*
G36*
X179631388Y-113933112D02*
X179058632Y-113360356D01*
X180472846Y-111946142D01*
X181045602Y-112518898D01*
X179631388Y-113933112D01*
X179631388Y-113933112D01*
G37*
D14*
X179603105Y-112490614D03*
D11*
G36*
X179182376Y-113484099D02*
X178609620Y-112911343D01*
X180023834Y-111497129D01*
X180596590Y-112069885D01*
X179182376Y-113484099D01*
X179182376Y-113484099D01*
G37*
D14*
X179154092Y-112041602D03*
D11*
G36*
X178733363Y-113035087D02*
X178160607Y-112462331D01*
X179574821Y-111048117D01*
X180147577Y-111620873D01*
X178733363Y-113035087D01*
X178733363Y-113035087D01*
G37*
D14*
X178705079Y-111592589D03*
D11*
G36*
X178284350Y-112586074D02*
X177711594Y-112013318D01*
X179125808Y-110599104D01*
X179698564Y-111171860D01*
X178284350Y-112586074D01*
X178284350Y-112586074D01*
G37*
D14*
X178256066Y-111143576D03*
D11*
G36*
X177835337Y-112137061D02*
X177262581Y-111564305D01*
X178676795Y-110150091D01*
X179249551Y-110722847D01*
X177835337Y-112137061D01*
X177835337Y-112137061D01*
G37*
D14*
X177807053Y-110694563D03*
D11*
G36*
X177386324Y-111688048D02*
X176813568Y-111115292D01*
X178227782Y-109701078D01*
X178800538Y-110273834D01*
X177386324Y-111688048D01*
X177386324Y-111688048D01*
G37*
D14*
X177358041Y-110245550D03*
D11*
G36*
X176937312Y-111239035D02*
X176364556Y-110666279D01*
X177778770Y-109252065D01*
X178351526Y-109824821D01*
X176937312Y-111239035D01*
X176937312Y-111239035D01*
G37*
D14*
X176909028Y-109796538D03*
D11*
G36*
X176488299Y-110790023D02*
X175915543Y-110217267D01*
X177329757Y-108803053D01*
X177902513Y-109375809D01*
X176488299Y-110790023D01*
X176488299Y-110790023D01*
G37*
G04 #@! TD*
D10*
G04 #@! TO.C,TQFP*
X116541554Y-125197971D03*
D11*
G36*
X115622315Y-124773707D02*
X116117290Y-124278732D01*
X117460793Y-125622235D01*
X116965818Y-126117210D01*
X115622315Y-124773707D01*
X115622315Y-124773707D01*
G37*
D10*
X116188001Y-125551525D03*
D11*
G36*
X115268762Y-125127261D02*
X115763737Y-124632286D01*
X117107240Y-125975789D01*
X116612265Y-126470764D01*
X115268762Y-125127261D01*
X115268762Y-125127261D01*
G37*
D10*
X115834447Y-125905078D03*
D11*
G36*
X114915208Y-125480814D02*
X115410183Y-124985839D01*
X116753686Y-126329342D01*
X116258711Y-126824317D01*
X114915208Y-125480814D01*
X114915208Y-125480814D01*
G37*
D10*
X115480894Y-126258631D03*
D11*
G36*
X114561655Y-125834367D02*
X115056630Y-125339392D01*
X116400133Y-126682895D01*
X115905158Y-127177870D01*
X114561655Y-125834367D01*
X114561655Y-125834367D01*
G37*
D10*
X115127341Y-126612185D03*
D11*
G36*
X114208102Y-126187921D02*
X114703077Y-125692946D01*
X116046580Y-127036449D01*
X115551605Y-127531424D01*
X114208102Y-126187921D01*
X114208102Y-126187921D01*
G37*
D10*
X114773787Y-126965738D03*
D11*
G36*
X113854548Y-126541474D02*
X114349523Y-126046499D01*
X115693026Y-127390002D01*
X115198051Y-127884977D01*
X113854548Y-126541474D01*
X113854548Y-126541474D01*
G37*
D10*
X114420234Y-127319292D03*
D11*
G36*
X113500995Y-126895028D02*
X113995970Y-126400053D01*
X115339473Y-127743556D01*
X114844498Y-128238531D01*
X113500995Y-126895028D01*
X113500995Y-126895028D01*
G37*
D10*
X114066680Y-127672845D03*
D11*
G36*
X113147441Y-127248581D02*
X113642416Y-126753606D01*
X114985919Y-128097109D01*
X114490944Y-128592084D01*
X113147441Y-127248581D01*
X113147441Y-127248581D01*
G37*
D10*
X113713127Y-128026398D03*
D11*
G36*
X112793888Y-127602134D02*
X113288863Y-127107159D01*
X114632366Y-128450662D01*
X114137391Y-128945637D01*
X112793888Y-127602134D01*
X112793888Y-127602134D01*
G37*
D10*
X113359574Y-128379952D03*
D11*
G36*
X112440335Y-127955688D02*
X112935310Y-127460713D01*
X114278813Y-128804216D01*
X113783838Y-129299191D01*
X112440335Y-127955688D01*
X112440335Y-127955688D01*
G37*
D10*
X113006020Y-128733505D03*
D11*
G36*
X112086781Y-128309241D02*
X112581756Y-127814266D01*
X113925259Y-129157769D01*
X113430284Y-129652744D01*
X112086781Y-128309241D01*
X112086781Y-128309241D01*
G37*
D10*
X112652467Y-129087059D03*
D11*
G36*
X111733228Y-128662795D02*
X112228203Y-128167820D01*
X113571706Y-129511323D01*
X113076731Y-130006298D01*
X111733228Y-128662795D01*
X111733228Y-128662795D01*
G37*
D10*
X112298913Y-129440612D03*
D11*
G36*
X111379674Y-129016348D02*
X111874649Y-128521373D01*
X113218152Y-129864876D01*
X112723177Y-130359851D01*
X111379674Y-129016348D01*
X111379674Y-129016348D01*
G37*
D10*
X111945360Y-129794165D03*
D11*
G36*
X111026121Y-129369901D02*
X111521096Y-128874926D01*
X112864599Y-130218429D01*
X112369624Y-130713404D01*
X111026121Y-129369901D01*
X111026121Y-129369901D01*
G37*
D10*
X111591807Y-130147719D03*
D11*
G36*
X110672568Y-129723455D02*
X111167543Y-129228480D01*
X112511046Y-130571983D01*
X112016071Y-131066958D01*
X110672568Y-129723455D01*
X110672568Y-129723455D01*
G37*
D10*
X111238253Y-130501272D03*
D11*
G36*
X110319014Y-130077008D02*
X110813989Y-129582033D01*
X112157492Y-130925536D01*
X111662517Y-131420511D01*
X110319014Y-130077008D01*
X110319014Y-130077008D01*
G37*
D10*
X111238253Y-133188278D03*
D11*
G36*
X110319014Y-133612542D02*
X111662517Y-132269039D01*
X112157492Y-132764014D01*
X110813989Y-134107517D01*
X110319014Y-133612542D01*
X110319014Y-133612542D01*
G37*
D10*
X111591807Y-133541831D03*
D11*
G36*
X110672568Y-133966095D02*
X112016071Y-132622592D01*
X112511046Y-133117567D01*
X111167543Y-134461070D01*
X110672568Y-133966095D01*
X110672568Y-133966095D01*
G37*
D10*
X111945360Y-133895385D03*
D11*
G36*
X111026121Y-134319649D02*
X112369624Y-132976146D01*
X112864599Y-133471121D01*
X111521096Y-134814624D01*
X111026121Y-134319649D01*
X111026121Y-134319649D01*
G37*
D10*
X112298913Y-134248938D03*
D11*
G36*
X111379674Y-134673202D02*
X112723177Y-133329699D01*
X113218152Y-133824674D01*
X111874649Y-135168177D01*
X111379674Y-134673202D01*
X111379674Y-134673202D01*
G37*
D10*
X112652467Y-134602491D03*
D11*
G36*
X111733228Y-135026755D02*
X113076731Y-133683252D01*
X113571706Y-134178227D01*
X112228203Y-135521730D01*
X111733228Y-135026755D01*
X111733228Y-135026755D01*
G37*
D10*
X113006020Y-134956045D03*
D11*
G36*
X112086781Y-135380309D02*
X113430284Y-134036806D01*
X113925259Y-134531781D01*
X112581756Y-135875284D01*
X112086781Y-135380309D01*
X112086781Y-135380309D01*
G37*
D10*
X113359574Y-135309598D03*
D11*
G36*
X112440335Y-135733862D02*
X113783838Y-134390359D01*
X114278813Y-134885334D01*
X112935310Y-136228837D01*
X112440335Y-135733862D01*
X112440335Y-135733862D01*
G37*
D10*
X113713127Y-135663152D03*
D11*
G36*
X112793888Y-136087416D02*
X114137391Y-134743913D01*
X114632366Y-135238888D01*
X113288863Y-136582391D01*
X112793888Y-136087416D01*
X112793888Y-136087416D01*
G37*
D10*
X114066680Y-136016705D03*
D11*
G36*
X113147441Y-136440969D02*
X114490944Y-135097466D01*
X114985919Y-135592441D01*
X113642416Y-136935944D01*
X113147441Y-136440969D01*
X113147441Y-136440969D01*
G37*
D10*
X114420234Y-136370258D03*
D11*
G36*
X113500995Y-136794522D02*
X114844498Y-135451019D01*
X115339473Y-135945994D01*
X113995970Y-137289497D01*
X113500995Y-136794522D01*
X113500995Y-136794522D01*
G37*
D10*
X114773787Y-136723812D03*
D11*
G36*
X113854548Y-137148076D02*
X115198051Y-135804573D01*
X115693026Y-136299548D01*
X114349523Y-137643051D01*
X113854548Y-137148076D01*
X113854548Y-137148076D01*
G37*
D10*
X115127341Y-137077365D03*
D11*
G36*
X114208102Y-137501629D02*
X115551605Y-136158126D01*
X116046580Y-136653101D01*
X114703077Y-137996604D01*
X114208102Y-137501629D01*
X114208102Y-137501629D01*
G37*
D10*
X115480894Y-137430919D03*
D11*
G36*
X114561655Y-137855183D02*
X115905158Y-136511680D01*
X116400133Y-137006655D01*
X115056630Y-138350158D01*
X114561655Y-137855183D01*
X114561655Y-137855183D01*
G37*
D10*
X115834447Y-137784472D03*
D11*
G36*
X114915208Y-138208736D02*
X116258711Y-136865233D01*
X116753686Y-137360208D01*
X115410183Y-138703711D01*
X114915208Y-138208736D01*
X114915208Y-138208736D01*
G37*
D10*
X116188001Y-138138025D03*
D11*
G36*
X115268762Y-138562289D02*
X116612265Y-137218786D01*
X117107240Y-137713761D01*
X115763737Y-139057264D01*
X115268762Y-138562289D01*
X115268762Y-138562289D01*
G37*
D10*
X116541554Y-138491579D03*
D11*
G36*
X115622315Y-138915843D02*
X116965818Y-137572340D01*
X117460793Y-138067315D01*
X116117290Y-139410818D01*
X115622315Y-138915843D01*
X115622315Y-138915843D01*
G37*
D10*
X119228560Y-138491579D03*
D11*
G36*
X118309321Y-138067315D02*
X118804296Y-137572340D01*
X120147799Y-138915843D01*
X119652824Y-139410818D01*
X118309321Y-138067315D01*
X118309321Y-138067315D01*
G37*
D10*
X119582113Y-138138025D03*
D11*
G36*
X118662874Y-137713761D02*
X119157849Y-137218786D01*
X120501352Y-138562289D01*
X120006377Y-139057264D01*
X118662874Y-137713761D01*
X118662874Y-137713761D01*
G37*
D10*
X119935667Y-137784472D03*
D11*
G36*
X119016428Y-137360208D02*
X119511403Y-136865233D01*
X120854906Y-138208736D01*
X120359931Y-138703711D01*
X119016428Y-137360208D01*
X119016428Y-137360208D01*
G37*
D10*
X120289220Y-137430919D03*
D11*
G36*
X119369981Y-137006655D02*
X119864956Y-136511680D01*
X121208459Y-137855183D01*
X120713484Y-138350158D01*
X119369981Y-137006655D01*
X119369981Y-137006655D01*
G37*
D10*
X120642773Y-137077365D03*
D11*
G36*
X119723534Y-136653101D02*
X120218509Y-136158126D01*
X121562012Y-137501629D01*
X121067037Y-137996604D01*
X119723534Y-136653101D01*
X119723534Y-136653101D01*
G37*
D10*
X120996327Y-136723812D03*
D11*
G36*
X120077088Y-136299548D02*
X120572063Y-135804573D01*
X121915566Y-137148076D01*
X121420591Y-137643051D01*
X120077088Y-136299548D01*
X120077088Y-136299548D01*
G37*
D10*
X121349880Y-136370258D03*
D11*
G36*
X120430641Y-135945994D02*
X120925616Y-135451019D01*
X122269119Y-136794522D01*
X121774144Y-137289497D01*
X120430641Y-135945994D01*
X120430641Y-135945994D01*
G37*
D10*
X121703434Y-136016705D03*
D11*
G36*
X120784195Y-135592441D02*
X121279170Y-135097466D01*
X122622673Y-136440969D01*
X122127698Y-136935944D01*
X120784195Y-135592441D01*
X120784195Y-135592441D01*
G37*
D10*
X122056987Y-135663152D03*
D11*
G36*
X121137748Y-135238888D02*
X121632723Y-134743913D01*
X122976226Y-136087416D01*
X122481251Y-136582391D01*
X121137748Y-135238888D01*
X121137748Y-135238888D01*
G37*
D10*
X122410540Y-135309598D03*
D11*
G36*
X121491301Y-134885334D02*
X121986276Y-134390359D01*
X123329779Y-135733862D01*
X122834804Y-136228837D01*
X121491301Y-134885334D01*
X121491301Y-134885334D01*
G37*
D10*
X122764094Y-134956045D03*
D11*
G36*
X121844855Y-134531781D02*
X122339830Y-134036806D01*
X123683333Y-135380309D01*
X123188358Y-135875284D01*
X121844855Y-134531781D01*
X121844855Y-134531781D01*
G37*
D10*
X123117647Y-134602491D03*
D11*
G36*
X122198408Y-134178227D02*
X122693383Y-133683252D01*
X124036886Y-135026755D01*
X123541911Y-135521730D01*
X122198408Y-134178227D01*
X122198408Y-134178227D01*
G37*
D10*
X123471201Y-134248938D03*
D11*
G36*
X122551962Y-133824674D02*
X123046937Y-133329699D01*
X124390440Y-134673202D01*
X123895465Y-135168177D01*
X122551962Y-133824674D01*
X122551962Y-133824674D01*
G37*
D10*
X123824754Y-133895385D03*
D11*
G36*
X122905515Y-133471121D02*
X123400490Y-132976146D01*
X124743993Y-134319649D01*
X124249018Y-134814624D01*
X122905515Y-133471121D01*
X122905515Y-133471121D01*
G37*
D10*
X124178307Y-133541831D03*
D11*
G36*
X123259068Y-133117567D02*
X123754043Y-132622592D01*
X125097546Y-133966095D01*
X124602571Y-134461070D01*
X123259068Y-133117567D01*
X123259068Y-133117567D01*
G37*
D10*
X124531861Y-133188278D03*
D11*
G36*
X123612622Y-132764014D02*
X124107597Y-132269039D01*
X125451100Y-133612542D01*
X124956125Y-134107517D01*
X123612622Y-132764014D01*
X123612622Y-132764014D01*
G37*
D10*
X124531861Y-130501272D03*
D11*
G36*
X123612622Y-130925536D02*
X124956125Y-129582033D01*
X125451100Y-130077008D01*
X124107597Y-131420511D01*
X123612622Y-130925536D01*
X123612622Y-130925536D01*
G37*
D10*
X124178307Y-130147719D03*
D11*
G36*
X123259068Y-130571983D02*
X124602571Y-129228480D01*
X125097546Y-129723455D01*
X123754043Y-131066958D01*
X123259068Y-130571983D01*
X123259068Y-130571983D01*
G37*
D10*
X123824754Y-129794165D03*
D11*
G36*
X122905515Y-130218429D02*
X124249018Y-128874926D01*
X124743993Y-129369901D01*
X123400490Y-130713404D01*
X122905515Y-130218429D01*
X122905515Y-130218429D01*
G37*
D10*
X123471201Y-129440612D03*
D11*
G36*
X122551962Y-129864876D02*
X123895465Y-128521373D01*
X124390440Y-129016348D01*
X123046937Y-130359851D01*
X122551962Y-129864876D01*
X122551962Y-129864876D01*
G37*
D10*
X123117647Y-129087059D03*
D11*
G36*
X122198408Y-129511323D02*
X123541911Y-128167820D01*
X124036886Y-128662795D01*
X122693383Y-130006298D01*
X122198408Y-129511323D01*
X122198408Y-129511323D01*
G37*
D10*
X122764094Y-128733505D03*
D11*
G36*
X121844855Y-129157769D02*
X123188358Y-127814266D01*
X123683333Y-128309241D01*
X122339830Y-129652744D01*
X121844855Y-129157769D01*
X121844855Y-129157769D01*
G37*
D10*
X122410540Y-128379952D03*
D11*
G36*
X121491301Y-128804216D02*
X122834804Y-127460713D01*
X123329779Y-127955688D01*
X121986276Y-129299191D01*
X121491301Y-128804216D01*
X121491301Y-128804216D01*
G37*
D10*
X122056987Y-128026398D03*
D11*
G36*
X121137748Y-128450662D02*
X122481251Y-127107159D01*
X122976226Y-127602134D01*
X121632723Y-128945637D01*
X121137748Y-128450662D01*
X121137748Y-128450662D01*
G37*
D10*
X121703434Y-127672845D03*
D11*
G36*
X120784195Y-128097109D02*
X122127698Y-126753606D01*
X122622673Y-127248581D01*
X121279170Y-128592084D01*
X120784195Y-128097109D01*
X120784195Y-128097109D01*
G37*
D10*
X121349880Y-127319292D03*
D11*
G36*
X120430641Y-127743556D02*
X121774144Y-126400053D01*
X122269119Y-126895028D01*
X120925616Y-128238531D01*
X120430641Y-127743556D01*
X120430641Y-127743556D01*
G37*
D10*
X120996327Y-126965738D03*
D11*
G36*
X120077088Y-127390002D02*
X121420591Y-126046499D01*
X121915566Y-126541474D01*
X120572063Y-127884977D01*
X120077088Y-127390002D01*
X120077088Y-127390002D01*
G37*
D10*
X120642773Y-126612185D03*
D11*
G36*
X119723534Y-127036449D02*
X121067037Y-125692946D01*
X121562012Y-126187921D01*
X120218509Y-127531424D01*
X119723534Y-127036449D01*
X119723534Y-127036449D01*
G37*
D10*
X120289220Y-126258631D03*
D11*
G36*
X119369981Y-126682895D02*
X120713484Y-125339392D01*
X121208459Y-125834367D01*
X119864956Y-127177870D01*
X119369981Y-126682895D01*
X119369981Y-126682895D01*
G37*
D10*
X119935667Y-125905078D03*
D11*
G36*
X119016428Y-126329342D02*
X120359931Y-124985839D01*
X120854906Y-125480814D01*
X119511403Y-126824317D01*
X119016428Y-126329342D01*
X119016428Y-126329342D01*
G37*
D10*
X119582113Y-125551525D03*
D11*
G36*
X118662874Y-125975789D02*
X120006377Y-124632286D01*
X120501352Y-125127261D01*
X119157849Y-126470764D01*
X118662874Y-125975789D01*
X118662874Y-125975789D01*
G37*
D10*
X119228560Y-125197971D03*
D11*
G36*
X118309321Y-125622235D02*
X119652824Y-124278732D01*
X120147799Y-124773707D01*
X118804296Y-126117210D01*
X118309321Y-125622235D01*
X118309321Y-125622235D01*
G37*
G04 #@! TD*
G04 #@! TO.C,QFN*
G36*
X103455118Y-115565721D02*
X103483120Y-115569875D01*
X103510580Y-115576753D01*
X103537234Y-115586290D01*
X103562824Y-115598393D01*
X103587105Y-115612947D01*
X103609842Y-115629810D01*
X103630817Y-115648821D01*
X105344190Y-117362194D01*
X105363201Y-117383169D01*
X105380064Y-117405906D01*
X105394618Y-117430187D01*
X105406721Y-117455777D01*
X105416258Y-117482431D01*
X105423136Y-117509891D01*
X105427290Y-117537893D01*
X105428679Y-117566167D01*
X105427290Y-117594441D01*
X105423136Y-117622443D01*
X105416258Y-117649903D01*
X105406721Y-117676557D01*
X105394618Y-117702147D01*
X105380064Y-117726428D01*
X105363201Y-117749165D01*
X105344190Y-117770140D01*
X103630817Y-119483513D01*
X103609842Y-119502524D01*
X103587105Y-119519387D01*
X103562824Y-119533941D01*
X103537234Y-119546044D01*
X103510580Y-119555581D01*
X103483120Y-119562459D01*
X103455118Y-119566613D01*
X103426844Y-119568002D01*
X103398570Y-119566613D01*
X103370568Y-119562459D01*
X103343108Y-119555581D01*
X103316454Y-119546044D01*
X103290864Y-119533941D01*
X103266583Y-119519387D01*
X103243846Y-119502524D01*
X103222871Y-119483513D01*
X101509498Y-117770140D01*
X101490487Y-117749165D01*
X101473624Y-117726428D01*
X101459070Y-117702147D01*
X101446967Y-117676557D01*
X101437430Y-117649903D01*
X101430552Y-117622443D01*
X101426398Y-117594441D01*
X101425009Y-117566167D01*
X101426398Y-117537893D01*
X101430552Y-117509891D01*
X101437430Y-117482431D01*
X101446967Y-117455777D01*
X101459070Y-117430187D01*
X101473624Y-117405906D01*
X101490487Y-117383169D01*
X101509498Y-117362194D01*
X103222871Y-115648821D01*
X103243846Y-115629810D01*
X103266583Y-115612947D01*
X103290864Y-115598393D01*
X103316454Y-115586290D01*
X103343108Y-115576753D01*
X103370568Y-115569875D01*
X103398570Y-115565721D01*
X103426844Y-115564332D01*
X103455118Y-115565721D01*
X103455118Y-115565721D01*
G37*
D15*
X103426844Y-117566167D03*
D11*
G36*
X102753343Y-114717443D02*
X102769117Y-114719783D01*
X102784586Y-114723658D01*
X102799601Y-114729031D01*
X102814017Y-114735849D01*
X102827695Y-114744047D01*
X102840504Y-114753547D01*
X102852320Y-114764256D01*
X103488716Y-115400652D01*
X103499425Y-115412468D01*
X103508925Y-115425277D01*
X103517123Y-115438955D01*
X103523941Y-115453371D01*
X103529314Y-115468386D01*
X103533189Y-115483855D01*
X103535529Y-115499629D01*
X103536311Y-115515557D01*
X103535529Y-115531485D01*
X103533189Y-115547259D01*
X103529314Y-115562728D01*
X103523941Y-115577743D01*
X103517123Y-115592159D01*
X103508925Y-115605837D01*
X103499425Y-115618646D01*
X103488716Y-115630462D01*
X103258906Y-115860272D01*
X103247090Y-115870981D01*
X103234281Y-115880481D01*
X103220603Y-115888679D01*
X103206187Y-115895497D01*
X103191172Y-115900870D01*
X103175703Y-115904745D01*
X103159929Y-115907085D01*
X103144001Y-115907867D01*
X103128073Y-115907085D01*
X103112299Y-115904745D01*
X103096830Y-115900870D01*
X103081815Y-115895497D01*
X103067399Y-115888679D01*
X103053721Y-115880481D01*
X103040912Y-115870981D01*
X103029096Y-115860272D01*
X102392700Y-115223876D01*
X102381991Y-115212060D01*
X102372491Y-115199251D01*
X102364293Y-115185573D01*
X102357475Y-115171157D01*
X102352102Y-115156142D01*
X102348227Y-115140673D01*
X102345887Y-115124899D01*
X102345105Y-115108971D01*
X102345887Y-115093043D01*
X102348227Y-115077269D01*
X102352102Y-115061800D01*
X102357475Y-115046785D01*
X102364293Y-115032369D01*
X102372491Y-115018691D01*
X102381991Y-115005882D01*
X102392700Y-114994066D01*
X102622510Y-114764256D01*
X102634326Y-114753547D01*
X102647135Y-114744047D01*
X102660813Y-114735849D01*
X102675229Y-114729031D01*
X102690244Y-114723658D01*
X102705713Y-114719783D01*
X102721487Y-114717443D01*
X102737415Y-114716661D01*
X102753343Y-114717443D01*
X102753343Y-114717443D01*
G37*
D16*
X102940708Y-115312264D03*
D11*
G36*
X102399790Y-115070997D02*
X102415564Y-115073337D01*
X102431033Y-115077212D01*
X102446048Y-115082585D01*
X102460464Y-115089403D01*
X102474142Y-115097601D01*
X102486951Y-115107101D01*
X102498767Y-115117810D01*
X103135163Y-115754206D01*
X103145872Y-115766022D01*
X103155372Y-115778831D01*
X103163570Y-115792509D01*
X103170388Y-115806925D01*
X103175761Y-115821940D01*
X103179636Y-115837409D01*
X103181976Y-115853183D01*
X103182758Y-115869111D01*
X103181976Y-115885039D01*
X103179636Y-115900813D01*
X103175761Y-115916282D01*
X103170388Y-115931297D01*
X103163570Y-115945713D01*
X103155372Y-115959391D01*
X103145872Y-115972200D01*
X103135163Y-115984016D01*
X102905353Y-116213826D01*
X102893537Y-116224535D01*
X102880728Y-116234035D01*
X102867050Y-116242233D01*
X102852634Y-116249051D01*
X102837619Y-116254424D01*
X102822150Y-116258299D01*
X102806376Y-116260639D01*
X102790448Y-116261421D01*
X102774520Y-116260639D01*
X102758746Y-116258299D01*
X102743277Y-116254424D01*
X102728262Y-116249051D01*
X102713846Y-116242233D01*
X102700168Y-116234035D01*
X102687359Y-116224535D01*
X102675543Y-116213826D01*
X102039147Y-115577430D01*
X102028438Y-115565614D01*
X102018938Y-115552805D01*
X102010740Y-115539127D01*
X102003922Y-115524711D01*
X101998549Y-115509696D01*
X101994674Y-115494227D01*
X101992334Y-115478453D01*
X101991552Y-115462525D01*
X101992334Y-115446597D01*
X101994674Y-115430823D01*
X101998549Y-115415354D01*
X102003922Y-115400339D01*
X102010740Y-115385923D01*
X102018938Y-115372245D01*
X102028438Y-115359436D01*
X102039147Y-115347620D01*
X102268957Y-115117810D01*
X102280773Y-115107101D01*
X102293582Y-115097601D01*
X102307260Y-115089403D01*
X102321676Y-115082585D01*
X102336691Y-115077212D01*
X102352160Y-115073337D01*
X102367934Y-115070997D01*
X102383862Y-115070215D01*
X102399790Y-115070997D01*
X102399790Y-115070997D01*
G37*
D16*
X102587155Y-115665818D03*
D11*
G36*
X102046236Y-115424550D02*
X102062010Y-115426890D01*
X102077479Y-115430765D01*
X102092494Y-115436138D01*
X102106910Y-115442956D01*
X102120588Y-115451154D01*
X102133397Y-115460654D01*
X102145213Y-115471363D01*
X102781609Y-116107759D01*
X102792318Y-116119575D01*
X102801818Y-116132384D01*
X102810016Y-116146062D01*
X102816834Y-116160478D01*
X102822207Y-116175493D01*
X102826082Y-116190962D01*
X102828422Y-116206736D01*
X102829204Y-116222664D01*
X102828422Y-116238592D01*
X102826082Y-116254366D01*
X102822207Y-116269835D01*
X102816834Y-116284850D01*
X102810016Y-116299266D01*
X102801818Y-116312944D01*
X102792318Y-116325753D01*
X102781609Y-116337569D01*
X102551799Y-116567379D01*
X102539983Y-116578088D01*
X102527174Y-116587588D01*
X102513496Y-116595786D01*
X102499080Y-116602604D01*
X102484065Y-116607977D01*
X102468596Y-116611852D01*
X102452822Y-116614192D01*
X102436894Y-116614974D01*
X102420966Y-116614192D01*
X102405192Y-116611852D01*
X102389723Y-116607977D01*
X102374708Y-116602604D01*
X102360292Y-116595786D01*
X102346614Y-116587588D01*
X102333805Y-116578088D01*
X102321989Y-116567379D01*
X101685593Y-115930983D01*
X101674884Y-115919167D01*
X101665384Y-115906358D01*
X101657186Y-115892680D01*
X101650368Y-115878264D01*
X101644995Y-115863249D01*
X101641120Y-115847780D01*
X101638780Y-115832006D01*
X101637998Y-115816078D01*
X101638780Y-115800150D01*
X101641120Y-115784376D01*
X101644995Y-115768907D01*
X101650368Y-115753892D01*
X101657186Y-115739476D01*
X101665384Y-115725798D01*
X101674884Y-115712989D01*
X101685593Y-115701173D01*
X101915403Y-115471363D01*
X101927219Y-115460654D01*
X101940028Y-115451154D01*
X101953706Y-115442956D01*
X101968122Y-115436138D01*
X101983137Y-115430765D01*
X101998606Y-115426890D01*
X102014380Y-115424550D01*
X102030308Y-115423768D01*
X102046236Y-115424550D01*
X102046236Y-115424550D01*
G37*
D16*
X102233601Y-116019371D03*
D11*
G36*
X101692683Y-115778103D02*
X101708457Y-115780443D01*
X101723926Y-115784318D01*
X101738941Y-115789691D01*
X101753357Y-115796509D01*
X101767035Y-115804707D01*
X101779844Y-115814207D01*
X101791660Y-115824916D01*
X102428056Y-116461312D01*
X102438765Y-116473128D01*
X102448265Y-116485937D01*
X102456463Y-116499615D01*
X102463281Y-116514031D01*
X102468654Y-116529046D01*
X102472529Y-116544515D01*
X102474869Y-116560289D01*
X102475651Y-116576217D01*
X102474869Y-116592145D01*
X102472529Y-116607919D01*
X102468654Y-116623388D01*
X102463281Y-116638403D01*
X102456463Y-116652819D01*
X102448265Y-116666497D01*
X102438765Y-116679306D01*
X102428056Y-116691122D01*
X102198246Y-116920932D01*
X102186430Y-116931641D01*
X102173621Y-116941141D01*
X102159943Y-116949339D01*
X102145527Y-116956157D01*
X102130512Y-116961530D01*
X102115043Y-116965405D01*
X102099269Y-116967745D01*
X102083341Y-116968527D01*
X102067413Y-116967745D01*
X102051639Y-116965405D01*
X102036170Y-116961530D01*
X102021155Y-116956157D01*
X102006739Y-116949339D01*
X101993061Y-116941141D01*
X101980252Y-116931641D01*
X101968436Y-116920932D01*
X101332040Y-116284536D01*
X101321331Y-116272720D01*
X101311831Y-116259911D01*
X101303633Y-116246233D01*
X101296815Y-116231817D01*
X101291442Y-116216802D01*
X101287567Y-116201333D01*
X101285227Y-116185559D01*
X101284445Y-116169631D01*
X101285227Y-116153703D01*
X101287567Y-116137929D01*
X101291442Y-116122460D01*
X101296815Y-116107445D01*
X101303633Y-116093029D01*
X101311831Y-116079351D01*
X101321331Y-116066542D01*
X101332040Y-116054726D01*
X101561850Y-115824916D01*
X101573666Y-115814207D01*
X101586475Y-115804707D01*
X101600153Y-115796509D01*
X101614569Y-115789691D01*
X101629584Y-115784318D01*
X101645053Y-115780443D01*
X101660827Y-115778103D01*
X101676755Y-115777321D01*
X101692683Y-115778103D01*
X101692683Y-115778103D01*
G37*
D16*
X101880048Y-116372924D03*
D11*
G36*
X101339130Y-116131657D02*
X101354904Y-116133997D01*
X101370373Y-116137872D01*
X101385388Y-116143245D01*
X101399804Y-116150063D01*
X101413482Y-116158261D01*
X101426291Y-116167761D01*
X101438107Y-116178470D01*
X102074503Y-116814866D01*
X102085212Y-116826682D01*
X102094712Y-116839491D01*
X102102910Y-116853169D01*
X102109728Y-116867585D01*
X102115101Y-116882600D01*
X102118976Y-116898069D01*
X102121316Y-116913843D01*
X102122098Y-116929771D01*
X102121316Y-116945699D01*
X102118976Y-116961473D01*
X102115101Y-116976942D01*
X102109728Y-116991957D01*
X102102910Y-117006373D01*
X102094712Y-117020051D01*
X102085212Y-117032860D01*
X102074503Y-117044676D01*
X101844693Y-117274486D01*
X101832877Y-117285195D01*
X101820068Y-117294695D01*
X101806390Y-117302893D01*
X101791974Y-117309711D01*
X101776959Y-117315084D01*
X101761490Y-117318959D01*
X101745716Y-117321299D01*
X101729788Y-117322081D01*
X101713860Y-117321299D01*
X101698086Y-117318959D01*
X101682617Y-117315084D01*
X101667602Y-117309711D01*
X101653186Y-117302893D01*
X101639508Y-117294695D01*
X101626699Y-117285195D01*
X101614883Y-117274486D01*
X100978487Y-116638090D01*
X100967778Y-116626274D01*
X100958278Y-116613465D01*
X100950080Y-116599787D01*
X100943262Y-116585371D01*
X100937889Y-116570356D01*
X100934014Y-116554887D01*
X100931674Y-116539113D01*
X100930892Y-116523185D01*
X100931674Y-116507257D01*
X100934014Y-116491483D01*
X100937889Y-116476014D01*
X100943262Y-116460999D01*
X100950080Y-116446583D01*
X100958278Y-116432905D01*
X100967778Y-116420096D01*
X100978487Y-116408280D01*
X101208297Y-116178470D01*
X101220113Y-116167761D01*
X101232922Y-116158261D01*
X101246600Y-116150063D01*
X101261016Y-116143245D01*
X101276031Y-116137872D01*
X101291500Y-116133997D01*
X101307274Y-116131657D01*
X101323202Y-116130875D01*
X101339130Y-116131657D01*
X101339130Y-116131657D01*
G37*
D16*
X101526495Y-116726478D03*
D11*
G36*
X100985576Y-116485210D02*
X101001350Y-116487550D01*
X101016819Y-116491425D01*
X101031834Y-116496798D01*
X101046250Y-116503616D01*
X101059928Y-116511814D01*
X101072737Y-116521314D01*
X101084553Y-116532023D01*
X101720949Y-117168419D01*
X101731658Y-117180235D01*
X101741158Y-117193044D01*
X101749356Y-117206722D01*
X101756174Y-117221138D01*
X101761547Y-117236153D01*
X101765422Y-117251622D01*
X101767762Y-117267396D01*
X101768544Y-117283324D01*
X101767762Y-117299252D01*
X101765422Y-117315026D01*
X101761547Y-117330495D01*
X101756174Y-117345510D01*
X101749356Y-117359926D01*
X101741158Y-117373604D01*
X101731658Y-117386413D01*
X101720949Y-117398229D01*
X101491139Y-117628039D01*
X101479323Y-117638748D01*
X101466514Y-117648248D01*
X101452836Y-117656446D01*
X101438420Y-117663264D01*
X101423405Y-117668637D01*
X101407936Y-117672512D01*
X101392162Y-117674852D01*
X101376234Y-117675634D01*
X101360306Y-117674852D01*
X101344532Y-117672512D01*
X101329063Y-117668637D01*
X101314048Y-117663264D01*
X101299632Y-117656446D01*
X101285954Y-117648248D01*
X101273145Y-117638748D01*
X101261329Y-117628039D01*
X100624933Y-116991643D01*
X100614224Y-116979827D01*
X100604724Y-116967018D01*
X100596526Y-116953340D01*
X100589708Y-116938924D01*
X100584335Y-116923909D01*
X100580460Y-116908440D01*
X100578120Y-116892666D01*
X100577338Y-116876738D01*
X100578120Y-116860810D01*
X100580460Y-116845036D01*
X100584335Y-116829567D01*
X100589708Y-116814552D01*
X100596526Y-116800136D01*
X100604724Y-116786458D01*
X100614224Y-116773649D01*
X100624933Y-116761833D01*
X100854743Y-116532023D01*
X100866559Y-116521314D01*
X100879368Y-116511814D01*
X100893046Y-116503616D01*
X100907462Y-116496798D01*
X100922477Y-116491425D01*
X100937946Y-116487550D01*
X100953720Y-116485210D01*
X100969648Y-116484428D01*
X100985576Y-116485210D01*
X100985576Y-116485210D01*
G37*
D16*
X101172941Y-117080031D03*
D11*
G36*
X101392162Y-117457482D02*
X101407936Y-117459822D01*
X101423405Y-117463697D01*
X101438420Y-117469070D01*
X101452836Y-117475888D01*
X101466514Y-117484086D01*
X101479323Y-117493586D01*
X101491139Y-117504295D01*
X101720949Y-117734105D01*
X101731658Y-117745921D01*
X101741158Y-117758730D01*
X101749356Y-117772408D01*
X101756174Y-117786824D01*
X101761547Y-117801839D01*
X101765422Y-117817308D01*
X101767762Y-117833082D01*
X101768544Y-117849010D01*
X101767762Y-117864938D01*
X101765422Y-117880712D01*
X101761547Y-117896181D01*
X101756174Y-117911196D01*
X101749356Y-117925612D01*
X101741158Y-117939290D01*
X101731658Y-117952099D01*
X101720949Y-117963915D01*
X101084553Y-118600311D01*
X101072737Y-118611020D01*
X101059928Y-118620520D01*
X101046250Y-118628718D01*
X101031834Y-118635536D01*
X101016819Y-118640909D01*
X101001350Y-118644784D01*
X100985576Y-118647124D01*
X100969648Y-118647906D01*
X100953720Y-118647124D01*
X100937946Y-118644784D01*
X100922477Y-118640909D01*
X100907462Y-118635536D01*
X100893046Y-118628718D01*
X100879368Y-118620520D01*
X100866559Y-118611020D01*
X100854743Y-118600311D01*
X100624933Y-118370501D01*
X100614224Y-118358685D01*
X100604724Y-118345876D01*
X100596526Y-118332198D01*
X100589708Y-118317782D01*
X100584335Y-118302767D01*
X100580460Y-118287298D01*
X100578120Y-118271524D01*
X100577338Y-118255596D01*
X100578120Y-118239668D01*
X100580460Y-118223894D01*
X100584335Y-118208425D01*
X100589708Y-118193410D01*
X100596526Y-118178994D01*
X100604724Y-118165316D01*
X100614224Y-118152507D01*
X100624933Y-118140691D01*
X101261329Y-117504295D01*
X101273145Y-117493586D01*
X101285954Y-117484086D01*
X101299632Y-117475888D01*
X101314048Y-117469070D01*
X101329063Y-117463697D01*
X101344532Y-117459822D01*
X101360306Y-117457482D01*
X101376234Y-117456700D01*
X101392162Y-117457482D01*
X101392162Y-117457482D01*
G37*
D16*
X101172941Y-118052303D03*
D11*
G36*
X101745716Y-117811035D02*
X101761490Y-117813375D01*
X101776959Y-117817250D01*
X101791974Y-117822623D01*
X101806390Y-117829441D01*
X101820068Y-117837639D01*
X101832877Y-117847139D01*
X101844693Y-117857848D01*
X102074503Y-118087658D01*
X102085212Y-118099474D01*
X102094712Y-118112283D01*
X102102910Y-118125961D01*
X102109728Y-118140377D01*
X102115101Y-118155392D01*
X102118976Y-118170861D01*
X102121316Y-118186635D01*
X102122098Y-118202563D01*
X102121316Y-118218491D01*
X102118976Y-118234265D01*
X102115101Y-118249734D01*
X102109728Y-118264749D01*
X102102910Y-118279165D01*
X102094712Y-118292843D01*
X102085212Y-118305652D01*
X102074503Y-118317468D01*
X101438107Y-118953864D01*
X101426291Y-118964573D01*
X101413482Y-118974073D01*
X101399804Y-118982271D01*
X101385388Y-118989089D01*
X101370373Y-118994462D01*
X101354904Y-118998337D01*
X101339130Y-119000677D01*
X101323202Y-119001459D01*
X101307274Y-119000677D01*
X101291500Y-118998337D01*
X101276031Y-118994462D01*
X101261016Y-118989089D01*
X101246600Y-118982271D01*
X101232922Y-118974073D01*
X101220113Y-118964573D01*
X101208297Y-118953864D01*
X100978487Y-118724054D01*
X100967778Y-118712238D01*
X100958278Y-118699429D01*
X100950080Y-118685751D01*
X100943262Y-118671335D01*
X100937889Y-118656320D01*
X100934014Y-118640851D01*
X100931674Y-118625077D01*
X100930892Y-118609149D01*
X100931674Y-118593221D01*
X100934014Y-118577447D01*
X100937889Y-118561978D01*
X100943262Y-118546963D01*
X100950080Y-118532547D01*
X100958278Y-118518869D01*
X100967778Y-118506060D01*
X100978487Y-118494244D01*
X101614883Y-117857848D01*
X101626699Y-117847139D01*
X101639508Y-117837639D01*
X101653186Y-117829441D01*
X101667602Y-117822623D01*
X101682617Y-117817250D01*
X101698086Y-117813375D01*
X101713860Y-117811035D01*
X101729788Y-117810253D01*
X101745716Y-117811035D01*
X101745716Y-117811035D01*
G37*
D16*
X101526495Y-118405856D03*
D11*
G36*
X102099269Y-118164589D02*
X102115043Y-118166929D01*
X102130512Y-118170804D01*
X102145527Y-118176177D01*
X102159943Y-118182995D01*
X102173621Y-118191193D01*
X102186430Y-118200693D01*
X102198246Y-118211402D01*
X102428056Y-118441212D01*
X102438765Y-118453028D01*
X102448265Y-118465837D01*
X102456463Y-118479515D01*
X102463281Y-118493931D01*
X102468654Y-118508946D01*
X102472529Y-118524415D01*
X102474869Y-118540189D01*
X102475651Y-118556117D01*
X102474869Y-118572045D01*
X102472529Y-118587819D01*
X102468654Y-118603288D01*
X102463281Y-118618303D01*
X102456463Y-118632719D01*
X102448265Y-118646397D01*
X102438765Y-118659206D01*
X102428056Y-118671022D01*
X101791660Y-119307418D01*
X101779844Y-119318127D01*
X101767035Y-119327627D01*
X101753357Y-119335825D01*
X101738941Y-119342643D01*
X101723926Y-119348016D01*
X101708457Y-119351891D01*
X101692683Y-119354231D01*
X101676755Y-119355013D01*
X101660827Y-119354231D01*
X101645053Y-119351891D01*
X101629584Y-119348016D01*
X101614569Y-119342643D01*
X101600153Y-119335825D01*
X101586475Y-119327627D01*
X101573666Y-119318127D01*
X101561850Y-119307418D01*
X101332040Y-119077608D01*
X101321331Y-119065792D01*
X101311831Y-119052983D01*
X101303633Y-119039305D01*
X101296815Y-119024889D01*
X101291442Y-119009874D01*
X101287567Y-118994405D01*
X101285227Y-118978631D01*
X101284445Y-118962703D01*
X101285227Y-118946775D01*
X101287567Y-118931001D01*
X101291442Y-118915532D01*
X101296815Y-118900517D01*
X101303633Y-118886101D01*
X101311831Y-118872423D01*
X101321331Y-118859614D01*
X101332040Y-118847798D01*
X101968436Y-118211402D01*
X101980252Y-118200693D01*
X101993061Y-118191193D01*
X102006739Y-118182995D01*
X102021155Y-118176177D01*
X102036170Y-118170804D01*
X102051639Y-118166929D01*
X102067413Y-118164589D01*
X102083341Y-118163807D01*
X102099269Y-118164589D01*
X102099269Y-118164589D01*
G37*
D16*
X101880048Y-118759410D03*
D11*
G36*
X102452822Y-118518142D02*
X102468596Y-118520482D01*
X102484065Y-118524357D01*
X102499080Y-118529730D01*
X102513496Y-118536548D01*
X102527174Y-118544746D01*
X102539983Y-118554246D01*
X102551799Y-118564955D01*
X102781609Y-118794765D01*
X102792318Y-118806581D01*
X102801818Y-118819390D01*
X102810016Y-118833068D01*
X102816834Y-118847484D01*
X102822207Y-118862499D01*
X102826082Y-118877968D01*
X102828422Y-118893742D01*
X102829204Y-118909670D01*
X102828422Y-118925598D01*
X102826082Y-118941372D01*
X102822207Y-118956841D01*
X102816834Y-118971856D01*
X102810016Y-118986272D01*
X102801818Y-118999950D01*
X102792318Y-119012759D01*
X102781609Y-119024575D01*
X102145213Y-119660971D01*
X102133397Y-119671680D01*
X102120588Y-119681180D01*
X102106910Y-119689378D01*
X102092494Y-119696196D01*
X102077479Y-119701569D01*
X102062010Y-119705444D01*
X102046236Y-119707784D01*
X102030308Y-119708566D01*
X102014380Y-119707784D01*
X101998606Y-119705444D01*
X101983137Y-119701569D01*
X101968122Y-119696196D01*
X101953706Y-119689378D01*
X101940028Y-119681180D01*
X101927219Y-119671680D01*
X101915403Y-119660971D01*
X101685593Y-119431161D01*
X101674884Y-119419345D01*
X101665384Y-119406536D01*
X101657186Y-119392858D01*
X101650368Y-119378442D01*
X101644995Y-119363427D01*
X101641120Y-119347958D01*
X101638780Y-119332184D01*
X101637998Y-119316256D01*
X101638780Y-119300328D01*
X101641120Y-119284554D01*
X101644995Y-119269085D01*
X101650368Y-119254070D01*
X101657186Y-119239654D01*
X101665384Y-119225976D01*
X101674884Y-119213167D01*
X101685593Y-119201351D01*
X102321989Y-118564955D01*
X102333805Y-118554246D01*
X102346614Y-118544746D01*
X102360292Y-118536548D01*
X102374708Y-118529730D01*
X102389723Y-118524357D01*
X102405192Y-118520482D01*
X102420966Y-118518142D01*
X102436894Y-118517360D01*
X102452822Y-118518142D01*
X102452822Y-118518142D01*
G37*
D16*
X102233601Y-119112963D03*
D11*
G36*
X102806376Y-118871695D02*
X102822150Y-118874035D01*
X102837619Y-118877910D01*
X102852634Y-118883283D01*
X102867050Y-118890101D01*
X102880728Y-118898299D01*
X102893537Y-118907799D01*
X102905353Y-118918508D01*
X103135163Y-119148318D01*
X103145872Y-119160134D01*
X103155372Y-119172943D01*
X103163570Y-119186621D01*
X103170388Y-119201037D01*
X103175761Y-119216052D01*
X103179636Y-119231521D01*
X103181976Y-119247295D01*
X103182758Y-119263223D01*
X103181976Y-119279151D01*
X103179636Y-119294925D01*
X103175761Y-119310394D01*
X103170388Y-119325409D01*
X103163570Y-119339825D01*
X103155372Y-119353503D01*
X103145872Y-119366312D01*
X103135163Y-119378128D01*
X102498767Y-120014524D01*
X102486951Y-120025233D01*
X102474142Y-120034733D01*
X102460464Y-120042931D01*
X102446048Y-120049749D01*
X102431033Y-120055122D01*
X102415564Y-120058997D01*
X102399790Y-120061337D01*
X102383862Y-120062119D01*
X102367934Y-120061337D01*
X102352160Y-120058997D01*
X102336691Y-120055122D01*
X102321676Y-120049749D01*
X102307260Y-120042931D01*
X102293582Y-120034733D01*
X102280773Y-120025233D01*
X102268957Y-120014524D01*
X102039147Y-119784714D01*
X102028438Y-119772898D01*
X102018938Y-119760089D01*
X102010740Y-119746411D01*
X102003922Y-119731995D01*
X101998549Y-119716980D01*
X101994674Y-119701511D01*
X101992334Y-119685737D01*
X101991552Y-119669809D01*
X101992334Y-119653881D01*
X101994674Y-119638107D01*
X101998549Y-119622638D01*
X102003922Y-119607623D01*
X102010740Y-119593207D01*
X102018938Y-119579529D01*
X102028438Y-119566720D01*
X102039147Y-119554904D01*
X102675543Y-118918508D01*
X102687359Y-118907799D01*
X102700168Y-118898299D01*
X102713846Y-118890101D01*
X102728262Y-118883283D01*
X102743277Y-118877910D01*
X102758746Y-118874035D01*
X102774520Y-118871695D01*
X102790448Y-118870913D01*
X102806376Y-118871695D01*
X102806376Y-118871695D01*
G37*
D16*
X102587155Y-119466516D03*
D11*
G36*
X103159929Y-119225249D02*
X103175703Y-119227589D01*
X103191172Y-119231464D01*
X103206187Y-119236837D01*
X103220603Y-119243655D01*
X103234281Y-119251853D01*
X103247090Y-119261353D01*
X103258906Y-119272062D01*
X103488716Y-119501872D01*
X103499425Y-119513688D01*
X103508925Y-119526497D01*
X103517123Y-119540175D01*
X103523941Y-119554591D01*
X103529314Y-119569606D01*
X103533189Y-119585075D01*
X103535529Y-119600849D01*
X103536311Y-119616777D01*
X103535529Y-119632705D01*
X103533189Y-119648479D01*
X103529314Y-119663948D01*
X103523941Y-119678963D01*
X103517123Y-119693379D01*
X103508925Y-119707057D01*
X103499425Y-119719866D01*
X103488716Y-119731682D01*
X102852320Y-120368078D01*
X102840504Y-120378787D01*
X102827695Y-120388287D01*
X102814017Y-120396485D01*
X102799601Y-120403303D01*
X102784586Y-120408676D01*
X102769117Y-120412551D01*
X102753343Y-120414891D01*
X102737415Y-120415673D01*
X102721487Y-120414891D01*
X102705713Y-120412551D01*
X102690244Y-120408676D01*
X102675229Y-120403303D01*
X102660813Y-120396485D01*
X102647135Y-120388287D01*
X102634326Y-120378787D01*
X102622510Y-120368078D01*
X102392700Y-120138268D01*
X102381991Y-120126452D01*
X102372491Y-120113643D01*
X102364293Y-120099965D01*
X102357475Y-120085549D01*
X102352102Y-120070534D01*
X102348227Y-120055065D01*
X102345887Y-120039291D01*
X102345105Y-120023363D01*
X102345887Y-120007435D01*
X102348227Y-119991661D01*
X102352102Y-119976192D01*
X102357475Y-119961177D01*
X102364293Y-119946761D01*
X102372491Y-119933083D01*
X102381991Y-119920274D01*
X102392700Y-119908458D01*
X103029096Y-119272062D01*
X103040912Y-119261353D01*
X103053721Y-119251853D01*
X103067399Y-119243655D01*
X103081815Y-119236837D01*
X103096830Y-119231464D01*
X103112299Y-119227589D01*
X103128073Y-119225249D01*
X103144001Y-119224467D01*
X103159929Y-119225249D01*
X103159929Y-119225249D01*
G37*
D16*
X102940708Y-119820070D03*
D11*
G36*
X103725615Y-119225249D02*
X103741389Y-119227589D01*
X103756858Y-119231464D01*
X103771873Y-119236837D01*
X103786289Y-119243655D01*
X103799967Y-119251853D01*
X103812776Y-119261353D01*
X103824592Y-119272062D01*
X104460988Y-119908458D01*
X104471697Y-119920274D01*
X104481197Y-119933083D01*
X104489395Y-119946761D01*
X104496213Y-119961177D01*
X104501586Y-119976192D01*
X104505461Y-119991661D01*
X104507801Y-120007435D01*
X104508583Y-120023363D01*
X104507801Y-120039291D01*
X104505461Y-120055065D01*
X104501586Y-120070534D01*
X104496213Y-120085549D01*
X104489395Y-120099965D01*
X104481197Y-120113643D01*
X104471697Y-120126452D01*
X104460988Y-120138268D01*
X104231178Y-120368078D01*
X104219362Y-120378787D01*
X104206553Y-120388287D01*
X104192875Y-120396485D01*
X104178459Y-120403303D01*
X104163444Y-120408676D01*
X104147975Y-120412551D01*
X104132201Y-120414891D01*
X104116273Y-120415673D01*
X104100345Y-120414891D01*
X104084571Y-120412551D01*
X104069102Y-120408676D01*
X104054087Y-120403303D01*
X104039671Y-120396485D01*
X104025993Y-120388287D01*
X104013184Y-120378787D01*
X104001368Y-120368078D01*
X103364972Y-119731682D01*
X103354263Y-119719866D01*
X103344763Y-119707057D01*
X103336565Y-119693379D01*
X103329747Y-119678963D01*
X103324374Y-119663948D01*
X103320499Y-119648479D01*
X103318159Y-119632705D01*
X103317377Y-119616777D01*
X103318159Y-119600849D01*
X103320499Y-119585075D01*
X103324374Y-119569606D01*
X103329747Y-119554591D01*
X103336565Y-119540175D01*
X103344763Y-119526497D01*
X103354263Y-119513688D01*
X103364972Y-119501872D01*
X103594782Y-119272062D01*
X103606598Y-119261353D01*
X103619407Y-119251853D01*
X103633085Y-119243655D01*
X103647501Y-119236837D01*
X103662516Y-119231464D01*
X103677985Y-119227589D01*
X103693759Y-119225249D01*
X103709687Y-119224467D01*
X103725615Y-119225249D01*
X103725615Y-119225249D01*
G37*
D16*
X103912980Y-119820070D03*
D11*
G36*
X104079168Y-118871695D02*
X104094942Y-118874035D01*
X104110411Y-118877910D01*
X104125426Y-118883283D01*
X104139842Y-118890101D01*
X104153520Y-118898299D01*
X104166329Y-118907799D01*
X104178145Y-118918508D01*
X104814541Y-119554904D01*
X104825250Y-119566720D01*
X104834750Y-119579529D01*
X104842948Y-119593207D01*
X104849766Y-119607623D01*
X104855139Y-119622638D01*
X104859014Y-119638107D01*
X104861354Y-119653881D01*
X104862136Y-119669809D01*
X104861354Y-119685737D01*
X104859014Y-119701511D01*
X104855139Y-119716980D01*
X104849766Y-119731995D01*
X104842948Y-119746411D01*
X104834750Y-119760089D01*
X104825250Y-119772898D01*
X104814541Y-119784714D01*
X104584731Y-120014524D01*
X104572915Y-120025233D01*
X104560106Y-120034733D01*
X104546428Y-120042931D01*
X104532012Y-120049749D01*
X104516997Y-120055122D01*
X104501528Y-120058997D01*
X104485754Y-120061337D01*
X104469826Y-120062119D01*
X104453898Y-120061337D01*
X104438124Y-120058997D01*
X104422655Y-120055122D01*
X104407640Y-120049749D01*
X104393224Y-120042931D01*
X104379546Y-120034733D01*
X104366737Y-120025233D01*
X104354921Y-120014524D01*
X103718525Y-119378128D01*
X103707816Y-119366312D01*
X103698316Y-119353503D01*
X103690118Y-119339825D01*
X103683300Y-119325409D01*
X103677927Y-119310394D01*
X103674052Y-119294925D01*
X103671712Y-119279151D01*
X103670930Y-119263223D01*
X103671712Y-119247295D01*
X103674052Y-119231521D01*
X103677927Y-119216052D01*
X103683300Y-119201037D01*
X103690118Y-119186621D01*
X103698316Y-119172943D01*
X103707816Y-119160134D01*
X103718525Y-119148318D01*
X103948335Y-118918508D01*
X103960151Y-118907799D01*
X103972960Y-118898299D01*
X103986638Y-118890101D01*
X104001054Y-118883283D01*
X104016069Y-118877910D01*
X104031538Y-118874035D01*
X104047312Y-118871695D01*
X104063240Y-118870913D01*
X104079168Y-118871695D01*
X104079168Y-118871695D01*
G37*
D16*
X104266533Y-119466516D03*
D11*
G36*
X104432722Y-118518142D02*
X104448496Y-118520482D01*
X104463965Y-118524357D01*
X104478980Y-118529730D01*
X104493396Y-118536548D01*
X104507074Y-118544746D01*
X104519883Y-118554246D01*
X104531699Y-118564955D01*
X105168095Y-119201351D01*
X105178804Y-119213167D01*
X105188304Y-119225976D01*
X105196502Y-119239654D01*
X105203320Y-119254070D01*
X105208693Y-119269085D01*
X105212568Y-119284554D01*
X105214908Y-119300328D01*
X105215690Y-119316256D01*
X105214908Y-119332184D01*
X105212568Y-119347958D01*
X105208693Y-119363427D01*
X105203320Y-119378442D01*
X105196502Y-119392858D01*
X105188304Y-119406536D01*
X105178804Y-119419345D01*
X105168095Y-119431161D01*
X104938285Y-119660971D01*
X104926469Y-119671680D01*
X104913660Y-119681180D01*
X104899982Y-119689378D01*
X104885566Y-119696196D01*
X104870551Y-119701569D01*
X104855082Y-119705444D01*
X104839308Y-119707784D01*
X104823380Y-119708566D01*
X104807452Y-119707784D01*
X104791678Y-119705444D01*
X104776209Y-119701569D01*
X104761194Y-119696196D01*
X104746778Y-119689378D01*
X104733100Y-119681180D01*
X104720291Y-119671680D01*
X104708475Y-119660971D01*
X104072079Y-119024575D01*
X104061370Y-119012759D01*
X104051870Y-118999950D01*
X104043672Y-118986272D01*
X104036854Y-118971856D01*
X104031481Y-118956841D01*
X104027606Y-118941372D01*
X104025266Y-118925598D01*
X104024484Y-118909670D01*
X104025266Y-118893742D01*
X104027606Y-118877968D01*
X104031481Y-118862499D01*
X104036854Y-118847484D01*
X104043672Y-118833068D01*
X104051870Y-118819390D01*
X104061370Y-118806581D01*
X104072079Y-118794765D01*
X104301889Y-118564955D01*
X104313705Y-118554246D01*
X104326514Y-118544746D01*
X104340192Y-118536548D01*
X104354608Y-118529730D01*
X104369623Y-118524357D01*
X104385092Y-118520482D01*
X104400866Y-118518142D01*
X104416794Y-118517360D01*
X104432722Y-118518142D01*
X104432722Y-118518142D01*
G37*
D16*
X104620087Y-119112963D03*
D11*
G36*
X104786275Y-118164589D02*
X104802049Y-118166929D01*
X104817518Y-118170804D01*
X104832533Y-118176177D01*
X104846949Y-118182995D01*
X104860627Y-118191193D01*
X104873436Y-118200693D01*
X104885252Y-118211402D01*
X105521648Y-118847798D01*
X105532357Y-118859614D01*
X105541857Y-118872423D01*
X105550055Y-118886101D01*
X105556873Y-118900517D01*
X105562246Y-118915532D01*
X105566121Y-118931001D01*
X105568461Y-118946775D01*
X105569243Y-118962703D01*
X105568461Y-118978631D01*
X105566121Y-118994405D01*
X105562246Y-119009874D01*
X105556873Y-119024889D01*
X105550055Y-119039305D01*
X105541857Y-119052983D01*
X105532357Y-119065792D01*
X105521648Y-119077608D01*
X105291838Y-119307418D01*
X105280022Y-119318127D01*
X105267213Y-119327627D01*
X105253535Y-119335825D01*
X105239119Y-119342643D01*
X105224104Y-119348016D01*
X105208635Y-119351891D01*
X105192861Y-119354231D01*
X105176933Y-119355013D01*
X105161005Y-119354231D01*
X105145231Y-119351891D01*
X105129762Y-119348016D01*
X105114747Y-119342643D01*
X105100331Y-119335825D01*
X105086653Y-119327627D01*
X105073844Y-119318127D01*
X105062028Y-119307418D01*
X104425632Y-118671022D01*
X104414923Y-118659206D01*
X104405423Y-118646397D01*
X104397225Y-118632719D01*
X104390407Y-118618303D01*
X104385034Y-118603288D01*
X104381159Y-118587819D01*
X104378819Y-118572045D01*
X104378037Y-118556117D01*
X104378819Y-118540189D01*
X104381159Y-118524415D01*
X104385034Y-118508946D01*
X104390407Y-118493931D01*
X104397225Y-118479515D01*
X104405423Y-118465837D01*
X104414923Y-118453028D01*
X104425632Y-118441212D01*
X104655442Y-118211402D01*
X104667258Y-118200693D01*
X104680067Y-118191193D01*
X104693745Y-118182995D01*
X104708161Y-118176177D01*
X104723176Y-118170804D01*
X104738645Y-118166929D01*
X104754419Y-118164589D01*
X104770347Y-118163807D01*
X104786275Y-118164589D01*
X104786275Y-118164589D01*
G37*
D16*
X104973640Y-118759410D03*
D11*
G36*
X105139828Y-117811035D02*
X105155602Y-117813375D01*
X105171071Y-117817250D01*
X105186086Y-117822623D01*
X105200502Y-117829441D01*
X105214180Y-117837639D01*
X105226989Y-117847139D01*
X105238805Y-117857848D01*
X105875201Y-118494244D01*
X105885910Y-118506060D01*
X105895410Y-118518869D01*
X105903608Y-118532547D01*
X105910426Y-118546963D01*
X105915799Y-118561978D01*
X105919674Y-118577447D01*
X105922014Y-118593221D01*
X105922796Y-118609149D01*
X105922014Y-118625077D01*
X105919674Y-118640851D01*
X105915799Y-118656320D01*
X105910426Y-118671335D01*
X105903608Y-118685751D01*
X105895410Y-118699429D01*
X105885910Y-118712238D01*
X105875201Y-118724054D01*
X105645391Y-118953864D01*
X105633575Y-118964573D01*
X105620766Y-118974073D01*
X105607088Y-118982271D01*
X105592672Y-118989089D01*
X105577657Y-118994462D01*
X105562188Y-118998337D01*
X105546414Y-119000677D01*
X105530486Y-119001459D01*
X105514558Y-119000677D01*
X105498784Y-118998337D01*
X105483315Y-118994462D01*
X105468300Y-118989089D01*
X105453884Y-118982271D01*
X105440206Y-118974073D01*
X105427397Y-118964573D01*
X105415581Y-118953864D01*
X104779185Y-118317468D01*
X104768476Y-118305652D01*
X104758976Y-118292843D01*
X104750778Y-118279165D01*
X104743960Y-118264749D01*
X104738587Y-118249734D01*
X104734712Y-118234265D01*
X104732372Y-118218491D01*
X104731590Y-118202563D01*
X104732372Y-118186635D01*
X104734712Y-118170861D01*
X104738587Y-118155392D01*
X104743960Y-118140377D01*
X104750778Y-118125961D01*
X104758976Y-118112283D01*
X104768476Y-118099474D01*
X104779185Y-118087658D01*
X105008995Y-117857848D01*
X105020811Y-117847139D01*
X105033620Y-117837639D01*
X105047298Y-117829441D01*
X105061714Y-117822623D01*
X105076729Y-117817250D01*
X105092198Y-117813375D01*
X105107972Y-117811035D01*
X105123900Y-117810253D01*
X105139828Y-117811035D01*
X105139828Y-117811035D01*
G37*
D16*
X105327193Y-118405856D03*
D11*
G36*
X105493382Y-117457482D02*
X105509156Y-117459822D01*
X105524625Y-117463697D01*
X105539640Y-117469070D01*
X105554056Y-117475888D01*
X105567734Y-117484086D01*
X105580543Y-117493586D01*
X105592359Y-117504295D01*
X106228755Y-118140691D01*
X106239464Y-118152507D01*
X106248964Y-118165316D01*
X106257162Y-118178994D01*
X106263980Y-118193410D01*
X106269353Y-118208425D01*
X106273228Y-118223894D01*
X106275568Y-118239668D01*
X106276350Y-118255596D01*
X106275568Y-118271524D01*
X106273228Y-118287298D01*
X106269353Y-118302767D01*
X106263980Y-118317782D01*
X106257162Y-118332198D01*
X106248964Y-118345876D01*
X106239464Y-118358685D01*
X106228755Y-118370501D01*
X105998945Y-118600311D01*
X105987129Y-118611020D01*
X105974320Y-118620520D01*
X105960642Y-118628718D01*
X105946226Y-118635536D01*
X105931211Y-118640909D01*
X105915742Y-118644784D01*
X105899968Y-118647124D01*
X105884040Y-118647906D01*
X105868112Y-118647124D01*
X105852338Y-118644784D01*
X105836869Y-118640909D01*
X105821854Y-118635536D01*
X105807438Y-118628718D01*
X105793760Y-118620520D01*
X105780951Y-118611020D01*
X105769135Y-118600311D01*
X105132739Y-117963915D01*
X105122030Y-117952099D01*
X105112530Y-117939290D01*
X105104332Y-117925612D01*
X105097514Y-117911196D01*
X105092141Y-117896181D01*
X105088266Y-117880712D01*
X105085926Y-117864938D01*
X105085144Y-117849010D01*
X105085926Y-117833082D01*
X105088266Y-117817308D01*
X105092141Y-117801839D01*
X105097514Y-117786824D01*
X105104332Y-117772408D01*
X105112530Y-117758730D01*
X105122030Y-117745921D01*
X105132739Y-117734105D01*
X105362549Y-117504295D01*
X105374365Y-117493586D01*
X105387174Y-117484086D01*
X105400852Y-117475888D01*
X105415268Y-117469070D01*
X105430283Y-117463697D01*
X105445752Y-117459822D01*
X105461526Y-117457482D01*
X105477454Y-117456700D01*
X105493382Y-117457482D01*
X105493382Y-117457482D01*
G37*
D16*
X105680747Y-118052303D03*
D11*
G36*
X105899968Y-116485210D02*
X105915742Y-116487550D01*
X105931211Y-116491425D01*
X105946226Y-116496798D01*
X105960642Y-116503616D01*
X105974320Y-116511814D01*
X105987129Y-116521314D01*
X105998945Y-116532023D01*
X106228755Y-116761833D01*
X106239464Y-116773649D01*
X106248964Y-116786458D01*
X106257162Y-116800136D01*
X106263980Y-116814552D01*
X106269353Y-116829567D01*
X106273228Y-116845036D01*
X106275568Y-116860810D01*
X106276350Y-116876738D01*
X106275568Y-116892666D01*
X106273228Y-116908440D01*
X106269353Y-116923909D01*
X106263980Y-116938924D01*
X106257162Y-116953340D01*
X106248964Y-116967018D01*
X106239464Y-116979827D01*
X106228755Y-116991643D01*
X105592359Y-117628039D01*
X105580543Y-117638748D01*
X105567734Y-117648248D01*
X105554056Y-117656446D01*
X105539640Y-117663264D01*
X105524625Y-117668637D01*
X105509156Y-117672512D01*
X105493382Y-117674852D01*
X105477454Y-117675634D01*
X105461526Y-117674852D01*
X105445752Y-117672512D01*
X105430283Y-117668637D01*
X105415268Y-117663264D01*
X105400852Y-117656446D01*
X105387174Y-117648248D01*
X105374365Y-117638748D01*
X105362549Y-117628039D01*
X105132739Y-117398229D01*
X105122030Y-117386413D01*
X105112530Y-117373604D01*
X105104332Y-117359926D01*
X105097514Y-117345510D01*
X105092141Y-117330495D01*
X105088266Y-117315026D01*
X105085926Y-117299252D01*
X105085144Y-117283324D01*
X105085926Y-117267396D01*
X105088266Y-117251622D01*
X105092141Y-117236153D01*
X105097514Y-117221138D01*
X105104332Y-117206722D01*
X105112530Y-117193044D01*
X105122030Y-117180235D01*
X105132739Y-117168419D01*
X105769135Y-116532023D01*
X105780951Y-116521314D01*
X105793760Y-116511814D01*
X105807438Y-116503616D01*
X105821854Y-116496798D01*
X105836869Y-116491425D01*
X105852338Y-116487550D01*
X105868112Y-116485210D01*
X105884040Y-116484428D01*
X105899968Y-116485210D01*
X105899968Y-116485210D01*
G37*
D16*
X105680747Y-117080031D03*
D11*
G36*
X105546414Y-116131657D02*
X105562188Y-116133997D01*
X105577657Y-116137872D01*
X105592672Y-116143245D01*
X105607088Y-116150063D01*
X105620766Y-116158261D01*
X105633575Y-116167761D01*
X105645391Y-116178470D01*
X105875201Y-116408280D01*
X105885910Y-116420096D01*
X105895410Y-116432905D01*
X105903608Y-116446583D01*
X105910426Y-116460999D01*
X105915799Y-116476014D01*
X105919674Y-116491483D01*
X105922014Y-116507257D01*
X105922796Y-116523185D01*
X105922014Y-116539113D01*
X105919674Y-116554887D01*
X105915799Y-116570356D01*
X105910426Y-116585371D01*
X105903608Y-116599787D01*
X105895410Y-116613465D01*
X105885910Y-116626274D01*
X105875201Y-116638090D01*
X105238805Y-117274486D01*
X105226989Y-117285195D01*
X105214180Y-117294695D01*
X105200502Y-117302893D01*
X105186086Y-117309711D01*
X105171071Y-117315084D01*
X105155602Y-117318959D01*
X105139828Y-117321299D01*
X105123900Y-117322081D01*
X105107972Y-117321299D01*
X105092198Y-117318959D01*
X105076729Y-117315084D01*
X105061714Y-117309711D01*
X105047298Y-117302893D01*
X105033620Y-117294695D01*
X105020811Y-117285195D01*
X105008995Y-117274486D01*
X104779185Y-117044676D01*
X104768476Y-117032860D01*
X104758976Y-117020051D01*
X104750778Y-117006373D01*
X104743960Y-116991957D01*
X104738587Y-116976942D01*
X104734712Y-116961473D01*
X104732372Y-116945699D01*
X104731590Y-116929771D01*
X104732372Y-116913843D01*
X104734712Y-116898069D01*
X104738587Y-116882600D01*
X104743960Y-116867585D01*
X104750778Y-116853169D01*
X104758976Y-116839491D01*
X104768476Y-116826682D01*
X104779185Y-116814866D01*
X105415581Y-116178470D01*
X105427397Y-116167761D01*
X105440206Y-116158261D01*
X105453884Y-116150063D01*
X105468300Y-116143245D01*
X105483315Y-116137872D01*
X105498784Y-116133997D01*
X105514558Y-116131657D01*
X105530486Y-116130875D01*
X105546414Y-116131657D01*
X105546414Y-116131657D01*
G37*
D16*
X105327193Y-116726478D03*
D11*
G36*
X105192861Y-115778103D02*
X105208635Y-115780443D01*
X105224104Y-115784318D01*
X105239119Y-115789691D01*
X105253535Y-115796509D01*
X105267213Y-115804707D01*
X105280022Y-115814207D01*
X105291838Y-115824916D01*
X105521648Y-116054726D01*
X105532357Y-116066542D01*
X105541857Y-116079351D01*
X105550055Y-116093029D01*
X105556873Y-116107445D01*
X105562246Y-116122460D01*
X105566121Y-116137929D01*
X105568461Y-116153703D01*
X105569243Y-116169631D01*
X105568461Y-116185559D01*
X105566121Y-116201333D01*
X105562246Y-116216802D01*
X105556873Y-116231817D01*
X105550055Y-116246233D01*
X105541857Y-116259911D01*
X105532357Y-116272720D01*
X105521648Y-116284536D01*
X104885252Y-116920932D01*
X104873436Y-116931641D01*
X104860627Y-116941141D01*
X104846949Y-116949339D01*
X104832533Y-116956157D01*
X104817518Y-116961530D01*
X104802049Y-116965405D01*
X104786275Y-116967745D01*
X104770347Y-116968527D01*
X104754419Y-116967745D01*
X104738645Y-116965405D01*
X104723176Y-116961530D01*
X104708161Y-116956157D01*
X104693745Y-116949339D01*
X104680067Y-116941141D01*
X104667258Y-116931641D01*
X104655442Y-116920932D01*
X104425632Y-116691122D01*
X104414923Y-116679306D01*
X104405423Y-116666497D01*
X104397225Y-116652819D01*
X104390407Y-116638403D01*
X104385034Y-116623388D01*
X104381159Y-116607919D01*
X104378819Y-116592145D01*
X104378037Y-116576217D01*
X104378819Y-116560289D01*
X104381159Y-116544515D01*
X104385034Y-116529046D01*
X104390407Y-116514031D01*
X104397225Y-116499615D01*
X104405423Y-116485937D01*
X104414923Y-116473128D01*
X104425632Y-116461312D01*
X105062028Y-115824916D01*
X105073844Y-115814207D01*
X105086653Y-115804707D01*
X105100331Y-115796509D01*
X105114747Y-115789691D01*
X105129762Y-115784318D01*
X105145231Y-115780443D01*
X105161005Y-115778103D01*
X105176933Y-115777321D01*
X105192861Y-115778103D01*
X105192861Y-115778103D01*
G37*
D16*
X104973640Y-116372924D03*
D11*
G36*
X104839308Y-115424550D02*
X104855082Y-115426890D01*
X104870551Y-115430765D01*
X104885566Y-115436138D01*
X104899982Y-115442956D01*
X104913660Y-115451154D01*
X104926469Y-115460654D01*
X104938285Y-115471363D01*
X105168095Y-115701173D01*
X105178804Y-115712989D01*
X105188304Y-115725798D01*
X105196502Y-115739476D01*
X105203320Y-115753892D01*
X105208693Y-115768907D01*
X105212568Y-115784376D01*
X105214908Y-115800150D01*
X105215690Y-115816078D01*
X105214908Y-115832006D01*
X105212568Y-115847780D01*
X105208693Y-115863249D01*
X105203320Y-115878264D01*
X105196502Y-115892680D01*
X105188304Y-115906358D01*
X105178804Y-115919167D01*
X105168095Y-115930983D01*
X104531699Y-116567379D01*
X104519883Y-116578088D01*
X104507074Y-116587588D01*
X104493396Y-116595786D01*
X104478980Y-116602604D01*
X104463965Y-116607977D01*
X104448496Y-116611852D01*
X104432722Y-116614192D01*
X104416794Y-116614974D01*
X104400866Y-116614192D01*
X104385092Y-116611852D01*
X104369623Y-116607977D01*
X104354608Y-116602604D01*
X104340192Y-116595786D01*
X104326514Y-116587588D01*
X104313705Y-116578088D01*
X104301889Y-116567379D01*
X104072079Y-116337569D01*
X104061370Y-116325753D01*
X104051870Y-116312944D01*
X104043672Y-116299266D01*
X104036854Y-116284850D01*
X104031481Y-116269835D01*
X104027606Y-116254366D01*
X104025266Y-116238592D01*
X104024484Y-116222664D01*
X104025266Y-116206736D01*
X104027606Y-116190962D01*
X104031481Y-116175493D01*
X104036854Y-116160478D01*
X104043672Y-116146062D01*
X104051870Y-116132384D01*
X104061370Y-116119575D01*
X104072079Y-116107759D01*
X104708475Y-115471363D01*
X104720291Y-115460654D01*
X104733100Y-115451154D01*
X104746778Y-115442956D01*
X104761194Y-115436138D01*
X104776209Y-115430765D01*
X104791678Y-115426890D01*
X104807452Y-115424550D01*
X104823380Y-115423768D01*
X104839308Y-115424550D01*
X104839308Y-115424550D01*
G37*
D16*
X104620087Y-116019371D03*
D11*
G36*
X104485754Y-115070997D02*
X104501528Y-115073337D01*
X104516997Y-115077212D01*
X104532012Y-115082585D01*
X104546428Y-115089403D01*
X104560106Y-115097601D01*
X104572915Y-115107101D01*
X104584731Y-115117810D01*
X104814541Y-115347620D01*
X104825250Y-115359436D01*
X104834750Y-115372245D01*
X104842948Y-115385923D01*
X104849766Y-115400339D01*
X104855139Y-115415354D01*
X104859014Y-115430823D01*
X104861354Y-115446597D01*
X104862136Y-115462525D01*
X104861354Y-115478453D01*
X104859014Y-115494227D01*
X104855139Y-115509696D01*
X104849766Y-115524711D01*
X104842948Y-115539127D01*
X104834750Y-115552805D01*
X104825250Y-115565614D01*
X104814541Y-115577430D01*
X104178145Y-116213826D01*
X104166329Y-116224535D01*
X104153520Y-116234035D01*
X104139842Y-116242233D01*
X104125426Y-116249051D01*
X104110411Y-116254424D01*
X104094942Y-116258299D01*
X104079168Y-116260639D01*
X104063240Y-116261421D01*
X104047312Y-116260639D01*
X104031538Y-116258299D01*
X104016069Y-116254424D01*
X104001054Y-116249051D01*
X103986638Y-116242233D01*
X103972960Y-116234035D01*
X103960151Y-116224535D01*
X103948335Y-116213826D01*
X103718525Y-115984016D01*
X103707816Y-115972200D01*
X103698316Y-115959391D01*
X103690118Y-115945713D01*
X103683300Y-115931297D01*
X103677927Y-115916282D01*
X103674052Y-115900813D01*
X103671712Y-115885039D01*
X103670930Y-115869111D01*
X103671712Y-115853183D01*
X103674052Y-115837409D01*
X103677927Y-115821940D01*
X103683300Y-115806925D01*
X103690118Y-115792509D01*
X103698316Y-115778831D01*
X103707816Y-115766022D01*
X103718525Y-115754206D01*
X104354921Y-115117810D01*
X104366737Y-115107101D01*
X104379546Y-115097601D01*
X104393224Y-115089403D01*
X104407640Y-115082585D01*
X104422655Y-115077212D01*
X104438124Y-115073337D01*
X104453898Y-115070997D01*
X104469826Y-115070215D01*
X104485754Y-115070997D01*
X104485754Y-115070997D01*
G37*
D16*
X104266533Y-115665818D03*
D11*
G36*
X104132201Y-114717443D02*
X104147975Y-114719783D01*
X104163444Y-114723658D01*
X104178459Y-114729031D01*
X104192875Y-114735849D01*
X104206553Y-114744047D01*
X104219362Y-114753547D01*
X104231178Y-114764256D01*
X104460988Y-114994066D01*
X104471697Y-115005882D01*
X104481197Y-115018691D01*
X104489395Y-115032369D01*
X104496213Y-115046785D01*
X104501586Y-115061800D01*
X104505461Y-115077269D01*
X104507801Y-115093043D01*
X104508583Y-115108971D01*
X104507801Y-115124899D01*
X104505461Y-115140673D01*
X104501586Y-115156142D01*
X104496213Y-115171157D01*
X104489395Y-115185573D01*
X104481197Y-115199251D01*
X104471697Y-115212060D01*
X104460988Y-115223876D01*
X103824592Y-115860272D01*
X103812776Y-115870981D01*
X103799967Y-115880481D01*
X103786289Y-115888679D01*
X103771873Y-115895497D01*
X103756858Y-115900870D01*
X103741389Y-115904745D01*
X103725615Y-115907085D01*
X103709687Y-115907867D01*
X103693759Y-115907085D01*
X103677985Y-115904745D01*
X103662516Y-115900870D01*
X103647501Y-115895497D01*
X103633085Y-115888679D01*
X103619407Y-115880481D01*
X103606598Y-115870981D01*
X103594782Y-115860272D01*
X103364972Y-115630462D01*
X103354263Y-115618646D01*
X103344763Y-115605837D01*
X103336565Y-115592159D01*
X103329747Y-115577743D01*
X103324374Y-115562728D01*
X103320499Y-115547259D01*
X103318159Y-115531485D01*
X103317377Y-115515557D01*
X103318159Y-115499629D01*
X103320499Y-115483855D01*
X103324374Y-115468386D01*
X103329747Y-115453371D01*
X103336565Y-115438955D01*
X103344763Y-115425277D01*
X103354263Y-115412468D01*
X103364972Y-115400652D01*
X104001368Y-114764256D01*
X104013184Y-114753547D01*
X104025993Y-114744047D01*
X104039671Y-114735849D01*
X104054087Y-114729031D01*
X104069102Y-114723658D01*
X104084571Y-114719783D01*
X104100345Y-114717443D01*
X104116273Y-114716661D01*
X104132201Y-114717443D01*
X104132201Y-114717443D01*
G37*
D16*
X103912980Y-115312264D03*
G04 #@! TD*
D10*
G04 #@! TO.C,SC-70-8*
X168522176Y-115775692D03*
D11*
G36*
X167779714Y-116023179D02*
X168769663Y-115033230D01*
X169264638Y-115528205D01*
X168274689Y-116518154D01*
X167779714Y-116023179D01*
X167779714Y-116023179D01*
G37*
D10*
X168875729Y-116129245D03*
D11*
G36*
X168133267Y-116376732D02*
X169123216Y-115386783D01*
X169618191Y-115881758D01*
X168628242Y-116871707D01*
X168133267Y-116376732D01*
X168133267Y-116376732D01*
G37*
D10*
X169229283Y-116482799D03*
D11*
G36*
X168486821Y-116730286D02*
X169476770Y-115740337D01*
X169971745Y-116235312D01*
X168981796Y-117225261D01*
X168486821Y-116730286D01*
X168486821Y-116730286D01*
G37*
D10*
X169582836Y-116836352D03*
D11*
G36*
X168840374Y-117083839D02*
X169830323Y-116093890D01*
X170325298Y-116588865D01*
X169335349Y-117578814D01*
X168840374Y-117083839D01*
X168840374Y-117083839D01*
G37*
D10*
X170855628Y-115563560D03*
D11*
G36*
X170113166Y-115811047D02*
X171103115Y-114821098D01*
X171598090Y-115316073D01*
X170608141Y-116306022D01*
X170113166Y-115811047D01*
X170113166Y-115811047D01*
G37*
D10*
X170502075Y-115210007D03*
D11*
G36*
X169759613Y-115457494D02*
X170749562Y-114467545D01*
X171244537Y-114962520D01*
X170254588Y-115952469D01*
X169759613Y-115457494D01*
X169759613Y-115457494D01*
G37*
D10*
X170148521Y-114856453D03*
D11*
G36*
X169406059Y-115103940D02*
X170396008Y-114113991D01*
X170890983Y-114608966D01*
X169901034Y-115598915D01*
X169406059Y-115103940D01*
X169406059Y-115103940D01*
G37*
D10*
X169794968Y-114502900D03*
D11*
G36*
X169052506Y-114750387D02*
X170042455Y-113760438D01*
X170537430Y-114255413D01*
X169547481Y-115245362D01*
X169052506Y-114750387D01*
X169052506Y-114750387D01*
G37*
G04 #@! TD*
D17*
G04 #@! TO.C,TDSON*
X161588000Y-81910000D03*
X161588000Y-83180000D03*
X161588000Y-84460000D03*
X161588000Y-85730000D03*
X167088000Y-85730000D03*
X167088000Y-84460000D03*
X167088000Y-83180000D03*
X167088000Y-81910000D03*
D18*
X164838000Y-83820000D03*
G04 #@! TD*
D11*
G04 #@! TO.C,2010*
G36*
X133693692Y-138608561D02*
X133725151Y-138613227D01*
X133756000Y-138620954D01*
X133785944Y-138631669D01*
X133814694Y-138645266D01*
X133841972Y-138661616D01*
X133867517Y-138680561D01*
X133891081Y-138701919D01*
X133912439Y-138725483D01*
X133931384Y-138751028D01*
X133947734Y-138778306D01*
X133961331Y-138807056D01*
X133972046Y-138837000D01*
X133979773Y-138867849D01*
X133984439Y-138899308D01*
X133986000Y-138931073D01*
X133986000Y-140032927D01*
X133984439Y-140064692D01*
X133979773Y-140096151D01*
X133972046Y-140127000D01*
X133961331Y-140156944D01*
X133947734Y-140185694D01*
X133931384Y-140212972D01*
X133912439Y-140238517D01*
X133891081Y-140262081D01*
X133867517Y-140283439D01*
X133841972Y-140302384D01*
X133814694Y-140318734D01*
X133785944Y-140332331D01*
X133756000Y-140343046D01*
X133725151Y-140350773D01*
X133693692Y-140355439D01*
X133661927Y-140357000D01*
X131260073Y-140357000D01*
X131228308Y-140355439D01*
X131196849Y-140350773D01*
X131166000Y-140343046D01*
X131136056Y-140332331D01*
X131107306Y-140318734D01*
X131080028Y-140302384D01*
X131054483Y-140283439D01*
X131030919Y-140262081D01*
X131009561Y-140238517D01*
X130990616Y-140212972D01*
X130974266Y-140185694D01*
X130960669Y-140156944D01*
X130949954Y-140127000D01*
X130942227Y-140096151D01*
X130937561Y-140064692D01*
X130936000Y-140032927D01*
X130936000Y-138931073D01*
X130937561Y-138899308D01*
X130942227Y-138867849D01*
X130949954Y-138837000D01*
X130960669Y-138807056D01*
X130974266Y-138778306D01*
X130990616Y-138751028D01*
X131009561Y-138725483D01*
X131030919Y-138701919D01*
X131054483Y-138680561D01*
X131080028Y-138661616D01*
X131107306Y-138645266D01*
X131136056Y-138631669D01*
X131166000Y-138620954D01*
X131196849Y-138613227D01*
X131228308Y-138608561D01*
X131260073Y-138607000D01*
X133661927Y-138607000D01*
X133693692Y-138608561D01*
X133693692Y-138608561D01*
G37*
D19*
X132461000Y-139482000D03*
D11*
G36*
X133693692Y-143108561D02*
X133725151Y-143113227D01*
X133756000Y-143120954D01*
X133785944Y-143131669D01*
X133814694Y-143145266D01*
X133841972Y-143161616D01*
X133867517Y-143180561D01*
X133891081Y-143201919D01*
X133912439Y-143225483D01*
X133931384Y-143251028D01*
X133947734Y-143278306D01*
X133961331Y-143307056D01*
X133972046Y-143337000D01*
X133979773Y-143367849D01*
X133984439Y-143399308D01*
X133986000Y-143431073D01*
X133986000Y-144532927D01*
X133984439Y-144564692D01*
X133979773Y-144596151D01*
X133972046Y-144627000D01*
X133961331Y-144656944D01*
X133947734Y-144685694D01*
X133931384Y-144712972D01*
X133912439Y-144738517D01*
X133891081Y-144762081D01*
X133867517Y-144783439D01*
X133841972Y-144802384D01*
X133814694Y-144818734D01*
X133785944Y-144832331D01*
X133756000Y-144843046D01*
X133725151Y-144850773D01*
X133693692Y-144855439D01*
X133661927Y-144857000D01*
X131260073Y-144857000D01*
X131228308Y-144855439D01*
X131196849Y-144850773D01*
X131166000Y-144843046D01*
X131136056Y-144832331D01*
X131107306Y-144818734D01*
X131080028Y-144802384D01*
X131054483Y-144783439D01*
X131030919Y-144762081D01*
X131009561Y-144738517D01*
X130990616Y-144712972D01*
X130974266Y-144685694D01*
X130960669Y-144656944D01*
X130949954Y-144627000D01*
X130942227Y-144596151D01*
X130937561Y-144564692D01*
X130936000Y-144532927D01*
X130936000Y-143431073D01*
X130937561Y-143399308D01*
X130942227Y-143367849D01*
X130949954Y-143337000D01*
X130960669Y-143307056D01*
X130974266Y-143278306D01*
X130990616Y-143251028D01*
X131009561Y-143225483D01*
X131030919Y-143201919D01*
X131054483Y-143180561D01*
X131080028Y-143161616D01*
X131107306Y-143145266D01*
X131136056Y-143131669D01*
X131166000Y-143120954D01*
X131196849Y-143113227D01*
X131228308Y-143108561D01*
X131260073Y-143107000D01*
X133661927Y-143107000D01*
X133693692Y-143108561D01*
X133693692Y-143108561D01*
G37*
D19*
X132461000Y-143982000D03*
G04 #@! TD*
D11*
G04 #@! TO.C,1812*
G36*
X134750890Y-72774870D02*
X134783787Y-72779750D01*
X134816047Y-72787830D01*
X134847360Y-72799034D01*
X134877424Y-72813253D01*
X134905949Y-72830351D01*
X134932661Y-72850162D01*
X134957303Y-72872496D01*
X134979637Y-72897138D01*
X134999448Y-72923850D01*
X135016546Y-72952375D01*
X135030765Y-72982439D01*
X135041969Y-73013752D01*
X135050049Y-73046012D01*
X135054929Y-73078909D01*
X135056561Y-73112126D01*
X135056561Y-73959350D01*
X135054929Y-73992567D01*
X135050049Y-74025464D01*
X135041969Y-74057724D01*
X135030765Y-74089037D01*
X135016546Y-74119101D01*
X134999448Y-74147626D01*
X134979637Y-74174338D01*
X134957303Y-74198980D01*
X134932661Y-74221314D01*
X134905949Y-74241125D01*
X134877424Y-74258223D01*
X134847360Y-74272442D01*
X134816047Y-74283646D01*
X134783787Y-74291726D01*
X134750890Y-74296606D01*
X134717673Y-74298238D01*
X131595449Y-74298238D01*
X131562232Y-74296606D01*
X131529335Y-74291726D01*
X131497075Y-74283646D01*
X131465762Y-74272442D01*
X131435698Y-74258223D01*
X131407173Y-74241125D01*
X131380461Y-74221314D01*
X131355819Y-74198980D01*
X131333485Y-74174338D01*
X131313674Y-74147626D01*
X131296576Y-74119101D01*
X131282357Y-74089037D01*
X131271153Y-74057724D01*
X131263073Y-74025464D01*
X131258193Y-73992567D01*
X131256561Y-73959350D01*
X131256561Y-73112126D01*
X131258193Y-73078909D01*
X131263073Y-73046012D01*
X131271153Y-73013752D01*
X131282357Y-72982439D01*
X131296576Y-72952375D01*
X131313674Y-72923850D01*
X131333485Y-72897138D01*
X131355819Y-72872496D01*
X131380461Y-72850162D01*
X131407173Y-72830351D01*
X131435698Y-72813253D01*
X131465762Y-72799034D01*
X131497075Y-72787830D01*
X131529335Y-72779750D01*
X131562232Y-72774870D01*
X131595449Y-72773238D01*
X134717673Y-72773238D01*
X134750890Y-72774870D01*
X134750890Y-72774870D01*
G37*
D20*
X133156561Y-73535738D03*
D11*
G36*
X134750890Y-77049870D02*
X134783787Y-77054750D01*
X134816047Y-77062830D01*
X134847360Y-77074034D01*
X134877424Y-77088253D01*
X134905949Y-77105351D01*
X134932661Y-77125162D01*
X134957303Y-77147496D01*
X134979637Y-77172138D01*
X134999448Y-77198850D01*
X135016546Y-77227375D01*
X135030765Y-77257439D01*
X135041969Y-77288752D01*
X135050049Y-77321012D01*
X135054929Y-77353909D01*
X135056561Y-77387126D01*
X135056561Y-78234350D01*
X135054929Y-78267567D01*
X135050049Y-78300464D01*
X135041969Y-78332724D01*
X135030765Y-78364037D01*
X135016546Y-78394101D01*
X134999448Y-78422626D01*
X134979637Y-78449338D01*
X134957303Y-78473980D01*
X134932661Y-78496314D01*
X134905949Y-78516125D01*
X134877424Y-78533223D01*
X134847360Y-78547442D01*
X134816047Y-78558646D01*
X134783787Y-78566726D01*
X134750890Y-78571606D01*
X134717673Y-78573238D01*
X131595449Y-78573238D01*
X131562232Y-78571606D01*
X131529335Y-78566726D01*
X131497075Y-78558646D01*
X131465762Y-78547442D01*
X131435698Y-78533223D01*
X131407173Y-78516125D01*
X131380461Y-78496314D01*
X131355819Y-78473980D01*
X131333485Y-78449338D01*
X131313674Y-78422626D01*
X131296576Y-78394101D01*
X131282357Y-78364037D01*
X131271153Y-78332724D01*
X131263073Y-78300464D01*
X131258193Y-78267567D01*
X131256561Y-78234350D01*
X131256561Y-77387126D01*
X131258193Y-77353909D01*
X131263073Y-77321012D01*
X131271153Y-77288752D01*
X131282357Y-77257439D01*
X131296576Y-77227375D01*
X131313674Y-77198850D01*
X131333485Y-77172138D01*
X131355819Y-77147496D01*
X131380461Y-77125162D01*
X131407173Y-77105351D01*
X131435698Y-77088253D01*
X131465762Y-77074034D01*
X131497075Y-77062830D01*
X131529335Y-77054750D01*
X131562232Y-77049870D01*
X131595449Y-77048238D01*
X134717673Y-77048238D01*
X134750890Y-77049870D01*
X134750890Y-77049870D01*
G37*
D20*
X133156561Y-77810738D03*
G04 #@! TD*
D11*
G04 #@! TO.C,01005*
G36*
X150687153Y-138690843D02*
X150704141Y-138693363D01*
X150720800Y-138697535D01*
X150736970Y-138703321D01*
X150752494Y-138710664D01*
X150767225Y-138719493D01*
X150781019Y-138729723D01*
X150793744Y-138741256D01*
X150805277Y-138753981D01*
X150815507Y-138767775D01*
X150824336Y-138782506D01*
X150831679Y-138798030D01*
X150837465Y-138814200D01*
X150841637Y-138830859D01*
X150844157Y-138847847D01*
X150845000Y-138865000D01*
X150845000Y-139315000D01*
X150844157Y-139332153D01*
X150841637Y-139349141D01*
X150837465Y-139365800D01*
X150831679Y-139381970D01*
X150824336Y-139397494D01*
X150815507Y-139412225D01*
X150805277Y-139426019D01*
X150793744Y-139438744D01*
X150781019Y-139450277D01*
X150767225Y-139460507D01*
X150752494Y-139469336D01*
X150736970Y-139476679D01*
X150720800Y-139482465D01*
X150704141Y-139486637D01*
X150687153Y-139489157D01*
X150670000Y-139490000D01*
X150320000Y-139490000D01*
X150302847Y-139489157D01*
X150285859Y-139486637D01*
X150269200Y-139482465D01*
X150253030Y-139476679D01*
X150237506Y-139469336D01*
X150222775Y-139460507D01*
X150208981Y-139450277D01*
X150196256Y-139438744D01*
X150184723Y-139426019D01*
X150174493Y-139412225D01*
X150165664Y-139397494D01*
X150158321Y-139381970D01*
X150152535Y-139365800D01*
X150148363Y-139349141D01*
X150145843Y-139332153D01*
X150145000Y-139315000D01*
X150145000Y-138865000D01*
X150145843Y-138847847D01*
X150148363Y-138830859D01*
X150152535Y-138814200D01*
X150158321Y-138798030D01*
X150165664Y-138782506D01*
X150174493Y-138767775D01*
X150184723Y-138753981D01*
X150196256Y-138741256D01*
X150208981Y-138729723D01*
X150222775Y-138719493D01*
X150237506Y-138710664D01*
X150253030Y-138703321D01*
X150269200Y-138697535D01*
X150285859Y-138693363D01*
X150302847Y-138690843D01*
X150320000Y-138690000D01*
X150670000Y-138690000D01*
X150687153Y-138690843D01*
X150687153Y-138690843D01*
G37*
D10*
X150495000Y-139090000D03*
D11*
G36*
X150687153Y-139190843D02*
X150704141Y-139193363D01*
X150720800Y-139197535D01*
X150736970Y-139203321D01*
X150752494Y-139210664D01*
X150767225Y-139219493D01*
X150781019Y-139229723D01*
X150793744Y-139241256D01*
X150805277Y-139253981D01*
X150815507Y-139267775D01*
X150824336Y-139282506D01*
X150831679Y-139298030D01*
X150837465Y-139314200D01*
X150841637Y-139330859D01*
X150844157Y-139347847D01*
X150845000Y-139365000D01*
X150845000Y-139815000D01*
X150844157Y-139832153D01*
X150841637Y-139849141D01*
X150837465Y-139865800D01*
X150831679Y-139881970D01*
X150824336Y-139897494D01*
X150815507Y-139912225D01*
X150805277Y-139926019D01*
X150793744Y-139938744D01*
X150781019Y-139950277D01*
X150767225Y-139960507D01*
X150752494Y-139969336D01*
X150736970Y-139976679D01*
X150720800Y-139982465D01*
X150704141Y-139986637D01*
X150687153Y-139989157D01*
X150670000Y-139990000D01*
X150320000Y-139990000D01*
X150302847Y-139989157D01*
X150285859Y-139986637D01*
X150269200Y-139982465D01*
X150253030Y-139976679D01*
X150237506Y-139969336D01*
X150222775Y-139960507D01*
X150208981Y-139950277D01*
X150196256Y-139938744D01*
X150184723Y-139926019D01*
X150174493Y-139912225D01*
X150165664Y-139897494D01*
X150158321Y-139881970D01*
X150152535Y-139865800D01*
X150148363Y-139849141D01*
X150145843Y-139832153D01*
X150145000Y-139815000D01*
X150145000Y-139365000D01*
X150145843Y-139347847D01*
X150148363Y-139330859D01*
X150152535Y-139314200D01*
X150158321Y-139298030D01*
X150165664Y-139282506D01*
X150174493Y-139267775D01*
X150184723Y-139253981D01*
X150196256Y-139241256D01*
X150208981Y-139229723D01*
X150222775Y-139219493D01*
X150237506Y-139210664D01*
X150253030Y-139203321D01*
X150269200Y-139197535D01*
X150285859Y-139193363D01*
X150302847Y-139190843D01*
X150320000Y-139190000D01*
X150670000Y-139190000D01*
X150687153Y-139190843D01*
X150687153Y-139190843D01*
G37*
D10*
X150495000Y-139590000D03*
G04 #@! TD*
D11*
G04 #@! TO.C,0201*
G36*
X148555603Y-138787963D02*
X148575018Y-138790843D01*
X148594057Y-138795612D01*
X148612537Y-138802224D01*
X148630279Y-138810616D01*
X148647114Y-138820706D01*
X148662879Y-138832398D01*
X148677421Y-138845579D01*
X148690602Y-138860121D01*
X148702294Y-138875886D01*
X148712384Y-138892721D01*
X148720776Y-138910463D01*
X148727388Y-138928943D01*
X148732157Y-138947982D01*
X148735037Y-138967397D01*
X148736000Y-138987000D01*
X148736000Y-139447000D01*
X148735037Y-139466603D01*
X148732157Y-139486018D01*
X148727388Y-139505057D01*
X148720776Y-139523537D01*
X148712384Y-139541279D01*
X148702294Y-139558114D01*
X148690602Y-139573879D01*
X148677421Y-139588421D01*
X148662879Y-139601602D01*
X148647114Y-139613294D01*
X148630279Y-139623384D01*
X148612537Y-139631776D01*
X148594057Y-139638388D01*
X148575018Y-139643157D01*
X148555603Y-139646037D01*
X148536000Y-139647000D01*
X148136000Y-139647000D01*
X148116397Y-139646037D01*
X148096982Y-139643157D01*
X148077943Y-139638388D01*
X148059463Y-139631776D01*
X148041721Y-139623384D01*
X148024886Y-139613294D01*
X148009121Y-139601602D01*
X147994579Y-139588421D01*
X147981398Y-139573879D01*
X147969706Y-139558114D01*
X147959616Y-139541279D01*
X147951224Y-139523537D01*
X147944612Y-139505057D01*
X147939843Y-139486018D01*
X147936963Y-139466603D01*
X147936000Y-139447000D01*
X147936000Y-138987000D01*
X147936963Y-138967397D01*
X147939843Y-138947982D01*
X147944612Y-138928943D01*
X147951224Y-138910463D01*
X147959616Y-138892721D01*
X147969706Y-138875886D01*
X147981398Y-138860121D01*
X147994579Y-138845579D01*
X148009121Y-138832398D01*
X148024886Y-138820706D01*
X148041721Y-138810616D01*
X148059463Y-138802224D01*
X148077943Y-138795612D01*
X148096982Y-138790843D01*
X148116397Y-138787963D01*
X148136000Y-138787000D01*
X148536000Y-138787000D01*
X148555603Y-138787963D01*
X148555603Y-138787963D01*
G37*
D13*
X148336000Y-139217000D03*
D11*
G36*
X148555603Y-139427963D02*
X148575018Y-139430843D01*
X148594057Y-139435612D01*
X148612537Y-139442224D01*
X148630279Y-139450616D01*
X148647114Y-139460706D01*
X148662879Y-139472398D01*
X148677421Y-139485579D01*
X148690602Y-139500121D01*
X148702294Y-139515886D01*
X148712384Y-139532721D01*
X148720776Y-139550463D01*
X148727388Y-139568943D01*
X148732157Y-139587982D01*
X148735037Y-139607397D01*
X148736000Y-139627000D01*
X148736000Y-140087000D01*
X148735037Y-140106603D01*
X148732157Y-140126018D01*
X148727388Y-140145057D01*
X148720776Y-140163537D01*
X148712384Y-140181279D01*
X148702294Y-140198114D01*
X148690602Y-140213879D01*
X148677421Y-140228421D01*
X148662879Y-140241602D01*
X148647114Y-140253294D01*
X148630279Y-140263384D01*
X148612537Y-140271776D01*
X148594057Y-140278388D01*
X148575018Y-140283157D01*
X148555603Y-140286037D01*
X148536000Y-140287000D01*
X148136000Y-140287000D01*
X148116397Y-140286037D01*
X148096982Y-140283157D01*
X148077943Y-140278388D01*
X148059463Y-140271776D01*
X148041721Y-140263384D01*
X148024886Y-140253294D01*
X148009121Y-140241602D01*
X147994579Y-140228421D01*
X147981398Y-140213879D01*
X147969706Y-140198114D01*
X147959616Y-140181279D01*
X147951224Y-140163537D01*
X147944612Y-140145057D01*
X147939843Y-140126018D01*
X147936963Y-140106603D01*
X147936000Y-140087000D01*
X147936000Y-139627000D01*
X147936963Y-139607397D01*
X147939843Y-139587982D01*
X147944612Y-139568943D01*
X147951224Y-139550463D01*
X147959616Y-139532721D01*
X147969706Y-139515886D01*
X147981398Y-139500121D01*
X147994579Y-139485579D01*
X148009121Y-139472398D01*
X148024886Y-139460706D01*
X148041721Y-139450616D01*
X148059463Y-139442224D01*
X148077943Y-139435612D01*
X148096982Y-139430843D01*
X148116397Y-139427963D01*
X148136000Y-139427000D01*
X148536000Y-139427000D01*
X148555603Y-139427963D01*
X148555603Y-139427963D01*
G37*
D13*
X148336000Y-139857000D03*
G04 #@! TD*
D11*
G04 #@! TO.C,0402*
G36*
X146346759Y-138825192D02*
X146370785Y-138828756D01*
X146394345Y-138834657D01*
X146417214Y-138842840D01*
X146439171Y-138853224D01*
X146460004Y-138865711D01*
X146479512Y-138880180D01*
X146497509Y-138896491D01*
X146513820Y-138914488D01*
X146528289Y-138933996D01*
X146540776Y-138954829D01*
X146551160Y-138976786D01*
X146559343Y-138999655D01*
X146565244Y-139023215D01*
X146568808Y-139047241D01*
X146570000Y-139071500D01*
X146570000Y-139566500D01*
X146568808Y-139590759D01*
X146565244Y-139614785D01*
X146559343Y-139638345D01*
X146551160Y-139661214D01*
X146540776Y-139683171D01*
X146528289Y-139704004D01*
X146513820Y-139723512D01*
X146497509Y-139741509D01*
X146479512Y-139757820D01*
X146460004Y-139772289D01*
X146439171Y-139784776D01*
X146417214Y-139795160D01*
X146394345Y-139803343D01*
X146370785Y-139809244D01*
X146346759Y-139812808D01*
X146322500Y-139814000D01*
X145777500Y-139814000D01*
X145753241Y-139812808D01*
X145729215Y-139809244D01*
X145705655Y-139803343D01*
X145682786Y-139795160D01*
X145660829Y-139784776D01*
X145639996Y-139772289D01*
X145620488Y-139757820D01*
X145602491Y-139741509D01*
X145586180Y-139723512D01*
X145571711Y-139704004D01*
X145559224Y-139683171D01*
X145548840Y-139661214D01*
X145540657Y-139638345D01*
X145534756Y-139614785D01*
X145531192Y-139590759D01*
X145530000Y-139566500D01*
X145530000Y-139071500D01*
X145531192Y-139047241D01*
X145534756Y-139023215D01*
X145540657Y-138999655D01*
X145548840Y-138976786D01*
X145559224Y-138954829D01*
X145571711Y-138933996D01*
X145586180Y-138914488D01*
X145602491Y-138896491D01*
X145620488Y-138880180D01*
X145639996Y-138865711D01*
X145660829Y-138853224D01*
X145682786Y-138842840D01*
X145705655Y-138834657D01*
X145729215Y-138828756D01*
X145753241Y-138825192D01*
X145777500Y-138824000D01*
X146322500Y-138824000D01*
X146346759Y-138825192D01*
X146346759Y-138825192D01*
G37*
D21*
X146050000Y-139319000D03*
D11*
G36*
X146346759Y-139795192D02*
X146370785Y-139798756D01*
X146394345Y-139804657D01*
X146417214Y-139812840D01*
X146439171Y-139823224D01*
X146460004Y-139835711D01*
X146479512Y-139850180D01*
X146497509Y-139866491D01*
X146513820Y-139884488D01*
X146528289Y-139903996D01*
X146540776Y-139924829D01*
X146551160Y-139946786D01*
X146559343Y-139969655D01*
X146565244Y-139993215D01*
X146568808Y-140017241D01*
X146570000Y-140041500D01*
X146570000Y-140536500D01*
X146568808Y-140560759D01*
X146565244Y-140584785D01*
X146559343Y-140608345D01*
X146551160Y-140631214D01*
X146540776Y-140653171D01*
X146528289Y-140674004D01*
X146513820Y-140693512D01*
X146497509Y-140711509D01*
X146479512Y-140727820D01*
X146460004Y-140742289D01*
X146439171Y-140754776D01*
X146417214Y-140765160D01*
X146394345Y-140773343D01*
X146370785Y-140779244D01*
X146346759Y-140782808D01*
X146322500Y-140784000D01*
X145777500Y-140784000D01*
X145753241Y-140782808D01*
X145729215Y-140779244D01*
X145705655Y-140773343D01*
X145682786Y-140765160D01*
X145660829Y-140754776D01*
X145639996Y-140742289D01*
X145620488Y-140727820D01*
X145602491Y-140711509D01*
X145586180Y-140693512D01*
X145571711Y-140674004D01*
X145559224Y-140653171D01*
X145548840Y-140631214D01*
X145540657Y-140608345D01*
X145534756Y-140584785D01*
X145531192Y-140560759D01*
X145530000Y-140536500D01*
X145530000Y-140041500D01*
X145531192Y-140017241D01*
X145534756Y-139993215D01*
X145540657Y-139969655D01*
X145548840Y-139946786D01*
X145559224Y-139924829D01*
X145571711Y-139903996D01*
X145586180Y-139884488D01*
X145602491Y-139866491D01*
X145620488Y-139850180D01*
X145639996Y-139835711D01*
X145660829Y-139823224D01*
X145682786Y-139812840D01*
X145705655Y-139804657D01*
X145729215Y-139798756D01*
X145753241Y-139795192D01*
X145777500Y-139794000D01*
X146322500Y-139794000D01*
X146346759Y-139795192D01*
X146346759Y-139795192D01*
G37*
D21*
X146050000Y-140289000D03*
G04 #@! TD*
D11*
G04 #@! TO.C,0603*
G36*
X143897493Y-138937035D02*
X143928435Y-138941625D01*
X143958778Y-138949225D01*
X143988230Y-138959763D01*
X144016508Y-138973138D01*
X144043338Y-138989219D01*
X144068463Y-139007853D01*
X144091640Y-139028860D01*
X144112647Y-139052037D01*
X144131281Y-139077162D01*
X144147362Y-139103992D01*
X144160737Y-139132270D01*
X144171275Y-139161722D01*
X144178875Y-139192065D01*
X144183465Y-139223007D01*
X144185000Y-139254250D01*
X144185000Y-139891750D01*
X144183465Y-139922993D01*
X144178875Y-139953935D01*
X144171275Y-139984278D01*
X144160737Y-140013730D01*
X144147362Y-140042008D01*
X144131281Y-140068838D01*
X144112647Y-140093963D01*
X144091640Y-140117140D01*
X144068463Y-140138147D01*
X144043338Y-140156781D01*
X144016508Y-140172862D01*
X143988230Y-140186237D01*
X143958778Y-140196775D01*
X143928435Y-140204375D01*
X143897493Y-140208965D01*
X143866250Y-140210500D01*
X143153750Y-140210500D01*
X143122507Y-140208965D01*
X143091565Y-140204375D01*
X143061222Y-140196775D01*
X143031770Y-140186237D01*
X143003492Y-140172862D01*
X142976662Y-140156781D01*
X142951537Y-140138147D01*
X142928360Y-140117140D01*
X142907353Y-140093963D01*
X142888719Y-140068838D01*
X142872638Y-140042008D01*
X142859263Y-140013730D01*
X142848725Y-139984278D01*
X142841125Y-139953935D01*
X142836535Y-139922993D01*
X142835000Y-139891750D01*
X142835000Y-139254250D01*
X142836535Y-139223007D01*
X142841125Y-139192065D01*
X142848725Y-139161722D01*
X142859263Y-139132270D01*
X142872638Y-139103992D01*
X142888719Y-139077162D01*
X142907353Y-139052037D01*
X142928360Y-139028860D01*
X142951537Y-139007853D01*
X142976662Y-138989219D01*
X143003492Y-138973138D01*
X143031770Y-138959763D01*
X143061222Y-138949225D01*
X143091565Y-138941625D01*
X143122507Y-138937035D01*
X143153750Y-138935500D01*
X143866250Y-138935500D01*
X143897493Y-138937035D01*
X143897493Y-138937035D01*
G37*
D22*
X143510000Y-139573000D03*
D11*
G36*
X143897493Y-140512035D02*
X143928435Y-140516625D01*
X143958778Y-140524225D01*
X143988230Y-140534763D01*
X144016508Y-140548138D01*
X144043338Y-140564219D01*
X144068463Y-140582853D01*
X144091640Y-140603860D01*
X144112647Y-140627037D01*
X144131281Y-140652162D01*
X144147362Y-140678992D01*
X144160737Y-140707270D01*
X144171275Y-140736722D01*
X144178875Y-140767065D01*
X144183465Y-140798007D01*
X144185000Y-140829250D01*
X144185000Y-141466750D01*
X144183465Y-141497993D01*
X144178875Y-141528935D01*
X144171275Y-141559278D01*
X144160737Y-141588730D01*
X144147362Y-141617008D01*
X144131281Y-141643838D01*
X144112647Y-141668963D01*
X144091640Y-141692140D01*
X144068463Y-141713147D01*
X144043338Y-141731781D01*
X144016508Y-141747862D01*
X143988230Y-141761237D01*
X143958778Y-141771775D01*
X143928435Y-141779375D01*
X143897493Y-141783965D01*
X143866250Y-141785500D01*
X143153750Y-141785500D01*
X143122507Y-141783965D01*
X143091565Y-141779375D01*
X143061222Y-141771775D01*
X143031770Y-141761237D01*
X143003492Y-141747862D01*
X142976662Y-141731781D01*
X142951537Y-141713147D01*
X142928360Y-141692140D01*
X142907353Y-141668963D01*
X142888719Y-141643838D01*
X142872638Y-141617008D01*
X142859263Y-141588730D01*
X142848725Y-141559278D01*
X142841125Y-141528935D01*
X142836535Y-141497993D01*
X142835000Y-141466750D01*
X142835000Y-140829250D01*
X142836535Y-140798007D01*
X142841125Y-140767065D01*
X142848725Y-140736722D01*
X142859263Y-140707270D01*
X142872638Y-140678992D01*
X142888719Y-140652162D01*
X142907353Y-140627037D01*
X142928360Y-140603860D01*
X142951537Y-140582853D01*
X142976662Y-140564219D01*
X143003492Y-140548138D01*
X143031770Y-140534763D01*
X143061222Y-140524225D01*
X143091565Y-140516625D01*
X143122507Y-140512035D01*
X143153750Y-140510500D01*
X143866250Y-140510500D01*
X143897493Y-140512035D01*
X143897493Y-140512035D01*
G37*
D22*
X143510000Y-141148000D03*
G04 #@! TD*
D11*
G04 #@! TO.C,0805*
G36*
X140924943Y-138838655D02*
X140958312Y-138843605D01*
X140991035Y-138851802D01*
X141022797Y-138863166D01*
X141053293Y-138877590D01*
X141082227Y-138894932D01*
X141109323Y-138915028D01*
X141134318Y-138937682D01*
X141156972Y-138962677D01*
X141177068Y-138989773D01*
X141194410Y-139018707D01*
X141208834Y-139049203D01*
X141220198Y-139080965D01*
X141228395Y-139113688D01*
X141233345Y-139147057D01*
X141235000Y-139180750D01*
X141235000Y-139868250D01*
X141233345Y-139901943D01*
X141228395Y-139935312D01*
X141220198Y-139968035D01*
X141208834Y-139999797D01*
X141194410Y-140030293D01*
X141177068Y-140059227D01*
X141156972Y-140086323D01*
X141134318Y-140111318D01*
X141109323Y-140133972D01*
X141082227Y-140154068D01*
X141053293Y-140171410D01*
X141022797Y-140185834D01*
X140991035Y-140197198D01*
X140958312Y-140205395D01*
X140924943Y-140210345D01*
X140891250Y-140212000D01*
X139778750Y-140212000D01*
X139745057Y-140210345D01*
X139711688Y-140205395D01*
X139678965Y-140197198D01*
X139647203Y-140185834D01*
X139616707Y-140171410D01*
X139587773Y-140154068D01*
X139560677Y-140133972D01*
X139535682Y-140111318D01*
X139513028Y-140086323D01*
X139492932Y-140059227D01*
X139475590Y-140030293D01*
X139461166Y-139999797D01*
X139449802Y-139968035D01*
X139441605Y-139935312D01*
X139436655Y-139901943D01*
X139435000Y-139868250D01*
X139435000Y-139180750D01*
X139436655Y-139147057D01*
X139441605Y-139113688D01*
X139449802Y-139080965D01*
X139461166Y-139049203D01*
X139475590Y-139018707D01*
X139492932Y-138989773D01*
X139513028Y-138962677D01*
X139535682Y-138937682D01*
X139560677Y-138915028D01*
X139587773Y-138894932D01*
X139616707Y-138877590D01*
X139647203Y-138863166D01*
X139678965Y-138851802D01*
X139711688Y-138843605D01*
X139745057Y-138838655D01*
X139778750Y-138837000D01*
X140891250Y-138837000D01*
X140924943Y-138838655D01*
X140924943Y-138838655D01*
G37*
D23*
X140335000Y-139524500D03*
D11*
G36*
X140924943Y-140713655D02*
X140958312Y-140718605D01*
X140991035Y-140726802D01*
X141022797Y-140738166D01*
X141053293Y-140752590D01*
X141082227Y-140769932D01*
X141109323Y-140790028D01*
X141134318Y-140812682D01*
X141156972Y-140837677D01*
X141177068Y-140864773D01*
X141194410Y-140893707D01*
X141208834Y-140924203D01*
X141220198Y-140955965D01*
X141228395Y-140988688D01*
X141233345Y-141022057D01*
X141235000Y-141055750D01*
X141235000Y-141743250D01*
X141233345Y-141776943D01*
X141228395Y-141810312D01*
X141220198Y-141843035D01*
X141208834Y-141874797D01*
X141194410Y-141905293D01*
X141177068Y-141934227D01*
X141156972Y-141961323D01*
X141134318Y-141986318D01*
X141109323Y-142008972D01*
X141082227Y-142029068D01*
X141053293Y-142046410D01*
X141022797Y-142060834D01*
X140991035Y-142072198D01*
X140958312Y-142080395D01*
X140924943Y-142085345D01*
X140891250Y-142087000D01*
X139778750Y-142087000D01*
X139745057Y-142085345D01*
X139711688Y-142080395D01*
X139678965Y-142072198D01*
X139647203Y-142060834D01*
X139616707Y-142046410D01*
X139587773Y-142029068D01*
X139560677Y-142008972D01*
X139535682Y-141986318D01*
X139513028Y-141961323D01*
X139492932Y-141934227D01*
X139475590Y-141905293D01*
X139461166Y-141874797D01*
X139449802Y-141843035D01*
X139441605Y-141810312D01*
X139436655Y-141776943D01*
X139435000Y-141743250D01*
X139435000Y-141055750D01*
X139436655Y-141022057D01*
X139441605Y-140988688D01*
X139449802Y-140955965D01*
X139461166Y-140924203D01*
X139475590Y-140893707D01*
X139492932Y-140864773D01*
X139513028Y-140837677D01*
X139535682Y-140812682D01*
X139560677Y-140790028D01*
X139587773Y-140769932D01*
X139616707Y-140752590D01*
X139647203Y-140738166D01*
X139678965Y-140726802D01*
X139711688Y-140718605D01*
X139745057Y-140713655D01*
X139778750Y-140712000D01*
X140891250Y-140712000D01*
X140924943Y-140713655D01*
X140924943Y-140713655D01*
G37*
D23*
X140335000Y-141399500D03*
G04 #@! TD*
D11*
G04 #@! TO.C,1206*
G36*
X137556346Y-138746589D02*
X137588380Y-138751341D01*
X137619794Y-138759210D01*
X137650286Y-138770120D01*
X137679561Y-138783966D01*
X137707338Y-138800615D01*
X137733350Y-138819907D01*
X137757345Y-138841655D01*
X137779093Y-138865650D01*
X137798385Y-138891662D01*
X137815034Y-138919439D01*
X137828880Y-138948714D01*
X137839790Y-138979206D01*
X137847659Y-139010620D01*
X137852411Y-139042654D01*
X137854000Y-139075000D01*
X137854000Y-140065000D01*
X137852411Y-140097346D01*
X137847659Y-140129380D01*
X137839790Y-140160794D01*
X137828880Y-140191286D01*
X137815034Y-140220561D01*
X137798385Y-140248338D01*
X137779093Y-140274350D01*
X137757345Y-140298345D01*
X137733350Y-140320093D01*
X137707338Y-140339385D01*
X137679561Y-140356034D01*
X137650286Y-140369880D01*
X137619794Y-140380790D01*
X137588380Y-140388659D01*
X137556346Y-140393411D01*
X137524000Y-140395000D01*
X136034000Y-140395000D01*
X136001654Y-140393411D01*
X135969620Y-140388659D01*
X135938206Y-140380790D01*
X135907714Y-140369880D01*
X135878439Y-140356034D01*
X135850662Y-140339385D01*
X135824650Y-140320093D01*
X135800655Y-140298345D01*
X135778907Y-140274350D01*
X135759615Y-140248338D01*
X135742966Y-140220561D01*
X135729120Y-140191286D01*
X135718210Y-140160794D01*
X135710341Y-140129380D01*
X135705589Y-140097346D01*
X135704000Y-140065000D01*
X135704000Y-139075000D01*
X135705589Y-139042654D01*
X135710341Y-139010620D01*
X135718210Y-138979206D01*
X135729120Y-138948714D01*
X135742966Y-138919439D01*
X135759615Y-138891662D01*
X135778907Y-138865650D01*
X135800655Y-138841655D01*
X135824650Y-138819907D01*
X135850662Y-138800615D01*
X135878439Y-138783966D01*
X135907714Y-138770120D01*
X135938206Y-138759210D01*
X135969620Y-138751341D01*
X136001654Y-138746589D01*
X136034000Y-138745000D01*
X137524000Y-138745000D01*
X137556346Y-138746589D01*
X137556346Y-138746589D01*
G37*
D24*
X136779000Y-139570000D03*
D11*
G36*
X137556346Y-141546589D02*
X137588380Y-141551341D01*
X137619794Y-141559210D01*
X137650286Y-141570120D01*
X137679561Y-141583966D01*
X137707338Y-141600615D01*
X137733350Y-141619907D01*
X137757345Y-141641655D01*
X137779093Y-141665650D01*
X137798385Y-141691662D01*
X137815034Y-141719439D01*
X137828880Y-141748714D01*
X137839790Y-141779206D01*
X137847659Y-141810620D01*
X137852411Y-141842654D01*
X137854000Y-141875000D01*
X137854000Y-142865000D01*
X137852411Y-142897346D01*
X137847659Y-142929380D01*
X137839790Y-142960794D01*
X137828880Y-142991286D01*
X137815034Y-143020561D01*
X137798385Y-143048338D01*
X137779093Y-143074350D01*
X137757345Y-143098345D01*
X137733350Y-143120093D01*
X137707338Y-143139385D01*
X137679561Y-143156034D01*
X137650286Y-143169880D01*
X137619794Y-143180790D01*
X137588380Y-143188659D01*
X137556346Y-143193411D01*
X137524000Y-143195000D01*
X136034000Y-143195000D01*
X136001654Y-143193411D01*
X135969620Y-143188659D01*
X135938206Y-143180790D01*
X135907714Y-143169880D01*
X135878439Y-143156034D01*
X135850662Y-143139385D01*
X135824650Y-143120093D01*
X135800655Y-143098345D01*
X135778907Y-143074350D01*
X135759615Y-143048338D01*
X135742966Y-143020561D01*
X135729120Y-142991286D01*
X135718210Y-142960794D01*
X135710341Y-142929380D01*
X135705589Y-142897346D01*
X135704000Y-142865000D01*
X135704000Y-141875000D01*
X135705589Y-141842654D01*
X135710341Y-141810620D01*
X135718210Y-141779206D01*
X135729120Y-141748714D01*
X135742966Y-141719439D01*
X135759615Y-141691662D01*
X135778907Y-141665650D01*
X135800655Y-141641655D01*
X135824650Y-141619907D01*
X135850662Y-141600615D01*
X135878439Y-141583966D01*
X135907714Y-141570120D01*
X135938206Y-141559210D01*
X135969620Y-141551341D01*
X136001654Y-141546589D01*
X136034000Y-141545000D01*
X137524000Y-141545000D01*
X137556346Y-141546589D01*
X137556346Y-141546589D01*
G37*
D24*
X136779000Y-142370000D03*
G04 #@! TD*
D25*
G04 #@! TO.C,QFN*
X108612058Y-119389796D03*
D11*
G36*
X108163045Y-119237768D02*
X108460030Y-118940783D01*
X109061071Y-119541824D01*
X108764086Y-119838809D01*
X108163045Y-119237768D01*
X108163045Y-119237768D01*
G37*
D25*
X108863081Y-119640819D03*
X108258505Y-119743349D03*
D11*
G36*
X107809492Y-119591321D02*
X108106477Y-119294336D01*
X108707518Y-119895377D01*
X108410533Y-120192362D01*
X107809492Y-119591321D01*
X107809492Y-119591321D01*
G37*
D25*
X108509528Y-119994372D03*
X107904951Y-120096902D03*
D11*
G36*
X107455938Y-119944874D02*
X107752923Y-119647889D01*
X108353964Y-120248930D01*
X108056979Y-120545915D01*
X107455938Y-119944874D01*
X107455938Y-119944874D01*
G37*
D25*
X108155974Y-120347925D03*
X107551398Y-120450456D03*
D11*
G36*
X107102385Y-120298428D02*
X107399370Y-120001443D01*
X108000411Y-120602484D01*
X107703426Y-120899469D01*
X107102385Y-120298428D01*
X107102385Y-120298428D01*
G37*
D25*
X107802421Y-120701479D03*
X107197845Y-120804009D03*
D11*
G36*
X106748832Y-120651981D02*
X107045817Y-120354996D01*
X107646858Y-120956037D01*
X107349873Y-121253022D01*
X106748832Y-120651981D01*
X106748832Y-120651981D01*
G37*
D25*
X107448867Y-121055032D03*
X106844291Y-121157563D03*
D11*
G36*
X106395278Y-121005535D02*
X106692263Y-120708550D01*
X107293304Y-121309591D01*
X106996319Y-121606576D01*
X106395278Y-121005535D01*
X106395278Y-121005535D01*
G37*
D25*
X107095314Y-121408585D03*
X106490738Y-121511116D03*
D11*
G36*
X106041725Y-121359088D02*
X106338710Y-121062103D01*
X106939751Y-121663144D01*
X106642766Y-121960129D01*
X106041725Y-121359088D01*
X106041725Y-121359088D01*
G37*
D25*
X106741761Y-121762139D03*
X106137184Y-121864669D03*
D11*
G36*
X105688171Y-121712641D02*
X105985156Y-121415656D01*
X106586197Y-122016697D01*
X106289212Y-122313682D01*
X105688171Y-121712641D01*
X105688171Y-121712641D01*
G37*
D25*
X106388207Y-122115692D03*
X105783631Y-122218223D03*
D11*
G36*
X105334618Y-122066195D02*
X105631603Y-121769210D01*
X106232644Y-122370251D01*
X105935659Y-122667236D01*
X105334618Y-122066195D01*
X105334618Y-122066195D01*
G37*
D25*
X106034654Y-122469246D03*
X105430078Y-122571776D03*
D11*
G36*
X104981065Y-122419748D02*
X105278050Y-122122763D01*
X105879091Y-122723804D01*
X105582106Y-123020789D01*
X104981065Y-122419748D01*
X104981065Y-122419748D01*
G37*
D25*
X105681101Y-122822799D03*
X105430078Y-123696076D03*
D11*
G36*
X104981065Y-123848104D02*
X105582106Y-123247063D01*
X105879091Y-123544048D01*
X105278050Y-124145089D01*
X104981065Y-123848104D01*
X104981065Y-123848104D01*
G37*
D25*
X105681101Y-123445053D03*
X105783631Y-124049629D03*
D11*
G36*
X105334618Y-124201657D02*
X105935659Y-123600616D01*
X106232644Y-123897601D01*
X105631603Y-124498642D01*
X105334618Y-124201657D01*
X105334618Y-124201657D01*
G37*
D25*
X106034654Y-123798606D03*
X106137184Y-124403183D03*
D11*
G36*
X105688171Y-124555211D02*
X106289212Y-123954170D01*
X106586197Y-124251155D01*
X105985156Y-124852196D01*
X105688171Y-124555211D01*
X105688171Y-124555211D01*
G37*
D25*
X106388207Y-124152160D03*
X106490738Y-124756736D03*
D11*
G36*
X106041725Y-124908764D02*
X106642766Y-124307723D01*
X106939751Y-124604708D01*
X106338710Y-125205749D01*
X106041725Y-124908764D01*
X106041725Y-124908764D01*
G37*
D25*
X106741761Y-124505713D03*
X106844291Y-125110289D03*
D11*
G36*
X106395278Y-125262317D02*
X106996319Y-124661276D01*
X107293304Y-124958261D01*
X106692263Y-125559302D01*
X106395278Y-125262317D01*
X106395278Y-125262317D01*
G37*
D25*
X107095314Y-124859267D03*
X107197845Y-125463843D03*
D11*
G36*
X106748832Y-125615871D02*
X107349873Y-125014830D01*
X107646858Y-125311815D01*
X107045817Y-125912856D01*
X106748832Y-125615871D01*
X106748832Y-125615871D01*
G37*
D25*
X107448867Y-125212820D03*
X107551398Y-125817396D03*
D11*
G36*
X107102385Y-125969424D02*
X107703426Y-125368383D01*
X108000411Y-125665368D01*
X107399370Y-126266409D01*
X107102385Y-125969424D01*
X107102385Y-125969424D01*
G37*
D25*
X107802421Y-125566373D03*
X107904951Y-126170950D03*
D11*
G36*
X107455938Y-126322978D02*
X108056979Y-125721937D01*
X108353964Y-126018922D01*
X107752923Y-126619963D01*
X107455938Y-126322978D01*
X107455938Y-126322978D01*
G37*
D25*
X108155974Y-125919927D03*
X108258505Y-126524503D03*
D11*
G36*
X107809492Y-126676531D02*
X108410533Y-126075490D01*
X108707518Y-126372475D01*
X108106477Y-126973516D01*
X107809492Y-126676531D01*
X107809492Y-126676531D01*
G37*
D25*
X108509528Y-126273480D03*
X108612058Y-126878056D03*
D11*
G36*
X108163045Y-127030084D02*
X108764086Y-126429043D01*
X109061071Y-126726028D01*
X108460030Y-127327069D01*
X108163045Y-127030084D01*
X108163045Y-127030084D01*
G37*
D25*
X108863081Y-126627033D03*
X109736358Y-126878056D03*
D11*
G36*
X109287345Y-126726028D02*
X109584330Y-126429043D01*
X110185371Y-127030084D01*
X109888386Y-127327069D01*
X109287345Y-126726028D01*
X109287345Y-126726028D01*
G37*
D25*
X109485335Y-126627033D03*
X110089911Y-126524503D03*
D11*
G36*
X109640898Y-126372475D02*
X109937883Y-126075490D01*
X110538924Y-126676531D01*
X110241939Y-126973516D01*
X109640898Y-126372475D01*
X109640898Y-126372475D01*
G37*
D25*
X109838888Y-126273480D03*
X110443465Y-126170950D03*
D11*
G36*
X109994452Y-126018922D02*
X110291437Y-125721937D01*
X110892478Y-126322978D01*
X110595493Y-126619963D01*
X109994452Y-126018922D01*
X109994452Y-126018922D01*
G37*
D25*
X110192442Y-125919927D03*
X110797018Y-125817396D03*
D11*
G36*
X110348005Y-125665368D02*
X110644990Y-125368383D01*
X111246031Y-125969424D01*
X110949046Y-126266409D01*
X110348005Y-125665368D01*
X110348005Y-125665368D01*
G37*
D25*
X110545995Y-125566373D03*
X111150571Y-125463843D03*
D11*
G36*
X110701558Y-125311815D02*
X110998543Y-125014830D01*
X111599584Y-125615871D01*
X111302599Y-125912856D01*
X110701558Y-125311815D01*
X110701558Y-125311815D01*
G37*
D25*
X110899549Y-125212820D03*
X111504125Y-125110289D03*
D11*
G36*
X111055112Y-124958261D02*
X111352097Y-124661276D01*
X111953138Y-125262317D01*
X111656153Y-125559302D01*
X111055112Y-124958261D01*
X111055112Y-124958261D01*
G37*
D25*
X111253102Y-124859267D03*
X111857678Y-124756736D03*
D11*
G36*
X111408665Y-124604708D02*
X111705650Y-124307723D01*
X112306691Y-124908764D01*
X112009706Y-125205749D01*
X111408665Y-124604708D01*
X111408665Y-124604708D01*
G37*
D25*
X111606655Y-124505713D03*
X112211232Y-124403183D03*
D11*
G36*
X111762219Y-124251155D02*
X112059204Y-123954170D01*
X112660245Y-124555211D01*
X112363260Y-124852196D01*
X111762219Y-124251155D01*
X111762219Y-124251155D01*
G37*
D25*
X111960209Y-124152160D03*
X112564785Y-124049629D03*
D11*
G36*
X112115772Y-123897601D02*
X112412757Y-123600616D01*
X113013798Y-124201657D01*
X112716813Y-124498642D01*
X112115772Y-123897601D01*
X112115772Y-123897601D01*
G37*
D25*
X112313762Y-123798606D03*
X112918338Y-123696076D03*
D11*
G36*
X112469325Y-123544048D02*
X112766310Y-123247063D01*
X113367351Y-123848104D01*
X113070366Y-124145089D01*
X112469325Y-123544048D01*
X112469325Y-123544048D01*
G37*
D25*
X112667315Y-123445053D03*
X112918338Y-122571776D03*
D11*
G36*
X112469325Y-122723804D02*
X113070366Y-122122763D01*
X113367351Y-122419748D01*
X112766310Y-123020789D01*
X112469325Y-122723804D01*
X112469325Y-122723804D01*
G37*
D25*
X112667315Y-122822799D03*
X112564785Y-122218223D03*
D11*
G36*
X112115772Y-122370251D02*
X112716813Y-121769210D01*
X113013798Y-122066195D01*
X112412757Y-122667236D01*
X112115772Y-122370251D01*
X112115772Y-122370251D01*
G37*
D25*
X112313762Y-122469246D03*
X112211232Y-121864669D03*
D11*
G36*
X111762219Y-122016697D02*
X112363260Y-121415656D01*
X112660245Y-121712641D01*
X112059204Y-122313682D01*
X111762219Y-122016697D01*
X111762219Y-122016697D01*
G37*
D25*
X111960209Y-122115692D03*
X111857678Y-121511116D03*
D11*
G36*
X111408665Y-121663144D02*
X112009706Y-121062103D01*
X112306691Y-121359088D01*
X111705650Y-121960129D01*
X111408665Y-121663144D01*
X111408665Y-121663144D01*
G37*
D25*
X111606655Y-121762139D03*
X111504125Y-121157563D03*
D11*
G36*
X111055112Y-121309591D02*
X111656153Y-120708550D01*
X111953138Y-121005535D01*
X111352097Y-121606576D01*
X111055112Y-121309591D01*
X111055112Y-121309591D01*
G37*
D25*
X111253102Y-121408585D03*
X111150571Y-120804009D03*
D11*
G36*
X110701558Y-120956037D02*
X111302599Y-120354996D01*
X111599584Y-120651981D01*
X110998543Y-121253022D01*
X110701558Y-120956037D01*
X110701558Y-120956037D01*
G37*
D25*
X110899549Y-121055032D03*
X110797018Y-120450456D03*
D11*
G36*
X110348005Y-120602484D02*
X110949046Y-120001443D01*
X111246031Y-120298428D01*
X110644990Y-120899469D01*
X110348005Y-120602484D01*
X110348005Y-120602484D01*
G37*
D25*
X110545995Y-120701479D03*
X110443465Y-120096902D03*
D11*
G36*
X109994452Y-120248930D02*
X110595493Y-119647889D01*
X110892478Y-119944874D01*
X110291437Y-120545915D01*
X109994452Y-120248930D01*
X109994452Y-120248930D01*
G37*
D25*
X110192442Y-120347925D03*
X110089911Y-119743349D03*
D11*
G36*
X109640898Y-119895377D02*
X110241939Y-119294336D01*
X110538924Y-119591321D01*
X109937883Y-120192362D01*
X109640898Y-119895377D01*
X109640898Y-119895377D01*
G37*
D25*
X109838888Y-119994372D03*
X109736358Y-119389796D03*
D11*
G36*
X109287345Y-119541824D02*
X109888386Y-118940783D01*
X110185371Y-119237768D01*
X109584330Y-119838809D01*
X109287345Y-119541824D01*
X109287345Y-119541824D01*
G37*
D25*
X109485335Y-119640819D03*
D26*
X109174208Y-123133926D03*
D11*
G36*
X106904395Y-122815728D02*
X108856010Y-120864113D01*
X111444021Y-123452124D01*
X109492406Y-125403739D01*
X106904395Y-122815728D01*
X106904395Y-122815728D01*
G37*
G04 #@! TD*
D27*
G04 #@! TO.C,*
X159953384Y-125584749D03*
D11*
G36*
X159918029Y-126468632D02*
X159069501Y-125620104D01*
X159988739Y-124700866D01*
X160837267Y-125549394D01*
X159918029Y-126468632D01*
X159918029Y-126468632D01*
G37*
D27*
X159210922Y-127670714D03*
D11*
G36*
X159175567Y-128554597D02*
X158327039Y-127706069D01*
X159246277Y-126786831D01*
X160094805Y-127635359D01*
X159175567Y-128554597D01*
X159175567Y-128554597D01*
G37*
D27*
X157867419Y-126327211D03*
D11*
G36*
X157832064Y-127211094D02*
X156983536Y-126362566D01*
X157902774Y-125443328D01*
X158751302Y-126291856D01*
X157832064Y-127211094D01*
X157832064Y-127211094D01*
G37*
G04 #@! TD*
D27*
G04 #@! TO.C,*
X161369719Y-129829511D03*
D11*
G36*
X161334364Y-130713394D02*
X160485836Y-129864866D01*
X161405074Y-128945628D01*
X162253602Y-129794156D01*
X161334364Y-130713394D01*
X161334364Y-130713394D01*
G37*
D27*
X162713222Y-131173014D03*
D11*
G36*
X162677867Y-132056897D02*
X161829339Y-131208369D01*
X162748577Y-130289131D01*
X163597105Y-131137659D01*
X162677867Y-132056897D01*
X162677867Y-132056897D01*
G37*
D27*
X163455684Y-129087049D03*
D11*
G36*
X163420329Y-129970932D02*
X162571801Y-129122404D01*
X163491039Y-128203166D01*
X164339567Y-129051694D01*
X163420329Y-129970932D01*
X163420329Y-129970932D01*
G37*
G04 #@! TD*
D27*
G04 #@! TO.C,*
X160043186Y-132499546D03*
D11*
G36*
X160007831Y-133383429D02*
X159159303Y-132534901D01*
X160078541Y-131615663D01*
X160927069Y-132464191D01*
X160007831Y-133383429D01*
X160007831Y-133383429D01*
G37*
D27*
X159300724Y-134585511D03*
D11*
G36*
X159265369Y-135469394D02*
X158416841Y-134620866D01*
X159336079Y-133701628D01*
X160184607Y-134550156D01*
X159265369Y-135469394D01*
X159265369Y-135469394D01*
G37*
D27*
X157957221Y-133242008D03*
D11*
G36*
X157921866Y-134125891D02*
X157073338Y-133277363D01*
X157992576Y-132358125D01*
X158841104Y-133206653D01*
X157921866Y-134125891D01*
X157921866Y-134125891D01*
G37*
G04 #@! TD*
D27*
G04 #@! TO.C,*
X154544724Y-129829511D03*
D11*
G36*
X154509369Y-130713394D02*
X153660841Y-129864866D01*
X154580079Y-128945628D01*
X155428607Y-129794156D01*
X154509369Y-130713394D01*
X154509369Y-130713394D01*
G37*
D27*
X155888227Y-131173014D03*
D11*
G36*
X155852872Y-132056897D02*
X155004344Y-131208369D01*
X155923582Y-130289131D01*
X156772110Y-131137659D01*
X155852872Y-132056897D01*
X155852872Y-132056897D01*
G37*
D27*
X156630689Y-129087049D03*
D11*
G36*
X156595334Y-129970932D02*
X155746806Y-129122404D01*
X156666044Y-128203166D01*
X157514572Y-129051694D01*
X156595334Y-129970932D01*
X156595334Y-129970932D01*
G37*
G04 #@! TD*
D28*
G04 #@! TO.C,SOT-23-5*
X162838415Y-121430609D03*
D11*
G36*
X162693458Y-122318028D02*
X161950996Y-121575566D01*
X162983372Y-120543190D01*
X163725834Y-121285652D01*
X162693458Y-122318028D01*
X162693458Y-122318028D01*
G37*
D28*
X163510167Y-122102360D03*
D11*
G36*
X163365210Y-122989779D02*
X162622748Y-122247317D01*
X163655124Y-121214941D01*
X164397586Y-121957403D01*
X163365210Y-122989779D01*
X163365210Y-122989779D01*
G37*
D28*
X164181918Y-122774112D03*
D11*
G36*
X164036961Y-123661531D02*
X163294499Y-122919069D01*
X164326875Y-121886693D01*
X165069337Y-122629155D01*
X164036961Y-123661531D01*
X164036961Y-123661531D01*
G37*
D28*
X165737553Y-121218477D03*
D11*
G36*
X165592596Y-122105896D02*
X164850134Y-121363434D01*
X165882510Y-120331058D01*
X166624972Y-121073520D01*
X165592596Y-122105896D01*
X165592596Y-122105896D01*
G37*
D28*
X164394050Y-119874974D03*
D11*
G36*
X164249093Y-120762393D02*
X163506631Y-120019931D01*
X164539007Y-118987555D01*
X165281469Y-119730017D01*
X164249093Y-120762393D01*
X164249093Y-120762393D01*
G37*
G04 #@! TD*
D13*
G04 #@! TO.C,SOT-23-8*
X166583960Y-125057360D03*
D11*
G36*
X166350615Y-125856391D02*
X165784929Y-125290705D01*
X166817305Y-124258329D01*
X167382991Y-124824015D01*
X166350615Y-125856391D01*
X166350615Y-125856391D01*
G37*
D13*
X167043579Y-125516979D03*
D11*
G36*
X166810234Y-126316010D02*
X166244548Y-125750324D01*
X167276924Y-124717948D01*
X167842610Y-125283634D01*
X166810234Y-126316010D01*
X166810234Y-126316010D01*
G37*
D13*
X167510270Y-125983670D03*
D11*
G36*
X167276925Y-126782701D02*
X166711239Y-126217015D01*
X167743615Y-125184639D01*
X168309301Y-125750325D01*
X167276925Y-126782701D01*
X167276925Y-126782701D01*
G37*
D13*
X167969889Y-126443289D03*
D11*
G36*
X167736544Y-127242320D02*
X167170858Y-126676634D01*
X168203234Y-125644258D01*
X168768920Y-126209944D01*
X167736544Y-127242320D01*
X167736544Y-127242320D01*
G37*
D13*
X169525524Y-124887654D03*
D11*
G36*
X169292179Y-125686685D02*
X168726493Y-125120999D01*
X169758869Y-124088623D01*
X170324555Y-124654309D01*
X169292179Y-125686685D01*
X169292179Y-125686685D01*
G37*
D13*
X169065905Y-124428035D03*
D11*
G36*
X168832560Y-125227066D02*
X168266874Y-124661380D01*
X169299250Y-123629004D01*
X169864936Y-124194690D01*
X168832560Y-125227066D01*
X168832560Y-125227066D01*
G37*
D13*
X168599214Y-123961344D03*
D11*
G36*
X168365869Y-124760375D02*
X167800183Y-124194689D01*
X168832559Y-123162313D01*
X169398245Y-123727999D01*
X168365869Y-124760375D01*
X168365869Y-124760375D01*
G37*
D13*
X168139595Y-123501725D03*
D11*
G36*
X167906250Y-124300756D02*
X167340564Y-123735070D01*
X168372940Y-122702694D01*
X168938626Y-123268380D01*
X167906250Y-124300756D01*
X167906250Y-124300756D01*
G37*
G04 #@! TD*
G04 #@! TO.C,0201*
G36*
X149441828Y-72608503D02*
X149461243Y-72611383D01*
X149480282Y-72616152D01*
X149498762Y-72622764D01*
X149516504Y-72631156D01*
X149533339Y-72641246D01*
X149549104Y-72652938D01*
X149563646Y-72666119D01*
X149576827Y-72680661D01*
X149588519Y-72696426D01*
X149598609Y-72713261D01*
X149607001Y-72731003D01*
X149613613Y-72749483D01*
X149618382Y-72768522D01*
X149621262Y-72787937D01*
X149622225Y-72807540D01*
X149622225Y-73267540D01*
X149621262Y-73287143D01*
X149618382Y-73306558D01*
X149613613Y-73325597D01*
X149607001Y-73344077D01*
X149598609Y-73361819D01*
X149588519Y-73378654D01*
X149576827Y-73394419D01*
X149563646Y-73408961D01*
X149549104Y-73422142D01*
X149533339Y-73433834D01*
X149516504Y-73443924D01*
X149498762Y-73452316D01*
X149480282Y-73458928D01*
X149461243Y-73463697D01*
X149441828Y-73466577D01*
X149422225Y-73467540D01*
X149022225Y-73467540D01*
X149002622Y-73466577D01*
X148983207Y-73463697D01*
X148964168Y-73458928D01*
X148945688Y-73452316D01*
X148927946Y-73443924D01*
X148911111Y-73433834D01*
X148895346Y-73422142D01*
X148880804Y-73408961D01*
X148867623Y-73394419D01*
X148855931Y-73378654D01*
X148845841Y-73361819D01*
X148837449Y-73344077D01*
X148830837Y-73325597D01*
X148826068Y-73306558D01*
X148823188Y-73287143D01*
X148822225Y-73267540D01*
X148822225Y-72807540D01*
X148823188Y-72787937D01*
X148826068Y-72768522D01*
X148830837Y-72749483D01*
X148837449Y-72731003D01*
X148845841Y-72713261D01*
X148855931Y-72696426D01*
X148867623Y-72680661D01*
X148880804Y-72666119D01*
X148895346Y-72652938D01*
X148911111Y-72641246D01*
X148927946Y-72631156D01*
X148945688Y-72622764D01*
X148964168Y-72616152D01*
X148983207Y-72611383D01*
X149002622Y-72608503D01*
X149022225Y-72607540D01*
X149422225Y-72607540D01*
X149441828Y-72608503D01*
X149441828Y-72608503D01*
G37*
D13*
X149222225Y-73037540D03*
D11*
G36*
X149441828Y-73248503D02*
X149461243Y-73251383D01*
X149480282Y-73256152D01*
X149498762Y-73262764D01*
X149516504Y-73271156D01*
X149533339Y-73281246D01*
X149549104Y-73292938D01*
X149563646Y-73306119D01*
X149576827Y-73320661D01*
X149588519Y-73336426D01*
X149598609Y-73353261D01*
X149607001Y-73371003D01*
X149613613Y-73389483D01*
X149618382Y-73408522D01*
X149621262Y-73427937D01*
X149622225Y-73447540D01*
X149622225Y-73907540D01*
X149621262Y-73927143D01*
X149618382Y-73946558D01*
X149613613Y-73965597D01*
X149607001Y-73984077D01*
X149598609Y-74001819D01*
X149588519Y-74018654D01*
X149576827Y-74034419D01*
X149563646Y-74048961D01*
X149549104Y-74062142D01*
X149533339Y-74073834D01*
X149516504Y-74083924D01*
X149498762Y-74092316D01*
X149480282Y-74098928D01*
X149461243Y-74103697D01*
X149441828Y-74106577D01*
X149422225Y-74107540D01*
X149022225Y-74107540D01*
X149002622Y-74106577D01*
X148983207Y-74103697D01*
X148964168Y-74098928D01*
X148945688Y-74092316D01*
X148927946Y-74083924D01*
X148911111Y-74073834D01*
X148895346Y-74062142D01*
X148880804Y-74048961D01*
X148867623Y-74034419D01*
X148855931Y-74018654D01*
X148845841Y-74001819D01*
X148837449Y-73984077D01*
X148830837Y-73965597D01*
X148826068Y-73946558D01*
X148823188Y-73927143D01*
X148822225Y-73907540D01*
X148822225Y-73447540D01*
X148823188Y-73427937D01*
X148826068Y-73408522D01*
X148830837Y-73389483D01*
X148837449Y-73371003D01*
X148845841Y-73353261D01*
X148855931Y-73336426D01*
X148867623Y-73320661D01*
X148880804Y-73306119D01*
X148895346Y-73292938D01*
X148911111Y-73281246D01*
X148927946Y-73271156D01*
X148945688Y-73262764D01*
X148964168Y-73256152D01*
X148983207Y-73251383D01*
X149002622Y-73248503D01*
X149022225Y-73247540D01*
X149422225Y-73247540D01*
X149441828Y-73248503D01*
X149441828Y-73248503D01*
G37*
D13*
X149222225Y-73677540D03*
G04 #@! TD*
D11*
G04 #@! TO.C,0402*
G36*
X147207584Y-72645732D02*
X147231610Y-72649296D01*
X147255170Y-72655197D01*
X147278039Y-72663380D01*
X147299996Y-72673764D01*
X147320829Y-72686251D01*
X147340337Y-72700720D01*
X147358334Y-72717031D01*
X147374645Y-72735028D01*
X147389114Y-72754536D01*
X147401601Y-72775369D01*
X147411985Y-72797326D01*
X147420168Y-72820195D01*
X147426069Y-72843755D01*
X147429633Y-72867781D01*
X147430825Y-72892040D01*
X147430825Y-73387040D01*
X147429633Y-73411299D01*
X147426069Y-73435325D01*
X147420168Y-73458885D01*
X147411985Y-73481754D01*
X147401601Y-73503711D01*
X147389114Y-73524544D01*
X147374645Y-73544052D01*
X147358334Y-73562049D01*
X147340337Y-73578360D01*
X147320829Y-73592829D01*
X147299996Y-73605316D01*
X147278039Y-73615700D01*
X147255170Y-73623883D01*
X147231610Y-73629784D01*
X147207584Y-73633348D01*
X147183325Y-73634540D01*
X146638325Y-73634540D01*
X146614066Y-73633348D01*
X146590040Y-73629784D01*
X146566480Y-73623883D01*
X146543611Y-73615700D01*
X146521654Y-73605316D01*
X146500821Y-73592829D01*
X146481313Y-73578360D01*
X146463316Y-73562049D01*
X146447005Y-73544052D01*
X146432536Y-73524544D01*
X146420049Y-73503711D01*
X146409665Y-73481754D01*
X146401482Y-73458885D01*
X146395581Y-73435325D01*
X146392017Y-73411299D01*
X146390825Y-73387040D01*
X146390825Y-72892040D01*
X146392017Y-72867781D01*
X146395581Y-72843755D01*
X146401482Y-72820195D01*
X146409665Y-72797326D01*
X146420049Y-72775369D01*
X146432536Y-72754536D01*
X146447005Y-72735028D01*
X146463316Y-72717031D01*
X146481313Y-72700720D01*
X146500821Y-72686251D01*
X146521654Y-72673764D01*
X146543611Y-72663380D01*
X146566480Y-72655197D01*
X146590040Y-72649296D01*
X146614066Y-72645732D01*
X146638325Y-72644540D01*
X147183325Y-72644540D01*
X147207584Y-72645732D01*
X147207584Y-72645732D01*
G37*
D21*
X146910825Y-73139540D03*
D11*
G36*
X147207584Y-73615732D02*
X147231610Y-73619296D01*
X147255170Y-73625197D01*
X147278039Y-73633380D01*
X147299996Y-73643764D01*
X147320829Y-73656251D01*
X147340337Y-73670720D01*
X147358334Y-73687031D01*
X147374645Y-73705028D01*
X147389114Y-73724536D01*
X147401601Y-73745369D01*
X147411985Y-73767326D01*
X147420168Y-73790195D01*
X147426069Y-73813755D01*
X147429633Y-73837781D01*
X147430825Y-73862040D01*
X147430825Y-74357040D01*
X147429633Y-74381299D01*
X147426069Y-74405325D01*
X147420168Y-74428885D01*
X147411985Y-74451754D01*
X147401601Y-74473711D01*
X147389114Y-74494544D01*
X147374645Y-74514052D01*
X147358334Y-74532049D01*
X147340337Y-74548360D01*
X147320829Y-74562829D01*
X147299996Y-74575316D01*
X147278039Y-74585700D01*
X147255170Y-74593883D01*
X147231610Y-74599784D01*
X147207584Y-74603348D01*
X147183325Y-74604540D01*
X146638325Y-74604540D01*
X146614066Y-74603348D01*
X146590040Y-74599784D01*
X146566480Y-74593883D01*
X146543611Y-74585700D01*
X146521654Y-74575316D01*
X146500821Y-74562829D01*
X146481313Y-74548360D01*
X146463316Y-74532049D01*
X146447005Y-74514052D01*
X146432536Y-74494544D01*
X146420049Y-74473711D01*
X146409665Y-74451754D01*
X146401482Y-74428885D01*
X146395581Y-74405325D01*
X146392017Y-74381299D01*
X146390825Y-74357040D01*
X146390825Y-73862040D01*
X146392017Y-73837781D01*
X146395581Y-73813755D01*
X146401482Y-73790195D01*
X146409665Y-73767326D01*
X146420049Y-73745369D01*
X146432536Y-73724536D01*
X146447005Y-73705028D01*
X146463316Y-73687031D01*
X146481313Y-73670720D01*
X146500821Y-73656251D01*
X146521654Y-73643764D01*
X146543611Y-73633380D01*
X146566480Y-73625197D01*
X146590040Y-73619296D01*
X146614066Y-73615732D01*
X146638325Y-73614540D01*
X147183325Y-73614540D01*
X147207584Y-73615732D01*
X147207584Y-73615732D01*
G37*
D21*
X146910825Y-74109540D03*
G04 #@! TD*
D11*
G04 #@! TO.C,0603*
G36*
X144656718Y-72757574D02*
X144687660Y-72762164D01*
X144718003Y-72769764D01*
X144747455Y-72780302D01*
X144775733Y-72793677D01*
X144802563Y-72809758D01*
X144827688Y-72828392D01*
X144850865Y-72849399D01*
X144871872Y-72872576D01*
X144890506Y-72897701D01*
X144906587Y-72924531D01*
X144919962Y-72952809D01*
X144930500Y-72982261D01*
X144938100Y-73012604D01*
X144942690Y-73043546D01*
X144944225Y-73074789D01*
X144944225Y-73712289D01*
X144942690Y-73743532D01*
X144938100Y-73774474D01*
X144930500Y-73804817D01*
X144919962Y-73834269D01*
X144906587Y-73862547D01*
X144890506Y-73889377D01*
X144871872Y-73914502D01*
X144850865Y-73937679D01*
X144827688Y-73958686D01*
X144802563Y-73977320D01*
X144775733Y-73993401D01*
X144747455Y-74006776D01*
X144718003Y-74017314D01*
X144687660Y-74024914D01*
X144656718Y-74029504D01*
X144625475Y-74031039D01*
X143912975Y-74031039D01*
X143881732Y-74029504D01*
X143850790Y-74024914D01*
X143820447Y-74017314D01*
X143790995Y-74006776D01*
X143762717Y-73993401D01*
X143735887Y-73977320D01*
X143710762Y-73958686D01*
X143687585Y-73937679D01*
X143666578Y-73914502D01*
X143647944Y-73889377D01*
X143631863Y-73862547D01*
X143618488Y-73834269D01*
X143607950Y-73804817D01*
X143600350Y-73774474D01*
X143595760Y-73743532D01*
X143594225Y-73712289D01*
X143594225Y-73074789D01*
X143595760Y-73043546D01*
X143600350Y-73012604D01*
X143607950Y-72982261D01*
X143618488Y-72952809D01*
X143631863Y-72924531D01*
X143647944Y-72897701D01*
X143666578Y-72872576D01*
X143687585Y-72849399D01*
X143710762Y-72828392D01*
X143735887Y-72809758D01*
X143762717Y-72793677D01*
X143790995Y-72780302D01*
X143820447Y-72769764D01*
X143850790Y-72762164D01*
X143881732Y-72757574D01*
X143912975Y-72756039D01*
X144625475Y-72756039D01*
X144656718Y-72757574D01*
X144656718Y-72757574D01*
G37*
D22*
X144269225Y-73393539D03*
D11*
G36*
X144656718Y-74332576D02*
X144687660Y-74337166D01*
X144718003Y-74344766D01*
X144747455Y-74355304D01*
X144775733Y-74368679D01*
X144802563Y-74384760D01*
X144827688Y-74403394D01*
X144850865Y-74424401D01*
X144871872Y-74447578D01*
X144890506Y-74472703D01*
X144906587Y-74499533D01*
X144919962Y-74527811D01*
X144930500Y-74557263D01*
X144938100Y-74587606D01*
X144942690Y-74618548D01*
X144944225Y-74649791D01*
X144944225Y-75287291D01*
X144942690Y-75318534D01*
X144938100Y-75349476D01*
X144930500Y-75379819D01*
X144919962Y-75409271D01*
X144906587Y-75437549D01*
X144890506Y-75464379D01*
X144871872Y-75489504D01*
X144850865Y-75512681D01*
X144827688Y-75533688D01*
X144802563Y-75552322D01*
X144775733Y-75568403D01*
X144747455Y-75581778D01*
X144718003Y-75592316D01*
X144687660Y-75599916D01*
X144656718Y-75604506D01*
X144625475Y-75606041D01*
X143912975Y-75606041D01*
X143881732Y-75604506D01*
X143850790Y-75599916D01*
X143820447Y-75592316D01*
X143790995Y-75581778D01*
X143762717Y-75568403D01*
X143735887Y-75552322D01*
X143710762Y-75533688D01*
X143687585Y-75512681D01*
X143666578Y-75489504D01*
X143647944Y-75464379D01*
X143631863Y-75437549D01*
X143618488Y-75409271D01*
X143607950Y-75379819D01*
X143600350Y-75349476D01*
X143595760Y-75318534D01*
X143594225Y-75287291D01*
X143594225Y-74649791D01*
X143595760Y-74618548D01*
X143600350Y-74587606D01*
X143607950Y-74557263D01*
X143618488Y-74527811D01*
X143631863Y-74499533D01*
X143647944Y-74472703D01*
X143666578Y-74447578D01*
X143687585Y-74424401D01*
X143710762Y-74403394D01*
X143735887Y-74384760D01*
X143762717Y-74368679D01*
X143790995Y-74355304D01*
X143820447Y-74344766D01*
X143850790Y-74337166D01*
X143881732Y-74332576D01*
X143912975Y-74331041D01*
X144625475Y-74331041D01*
X144656718Y-74332576D01*
X144656718Y-74332576D01*
G37*
D22*
X144269225Y-74968541D03*
G04 #@! TD*
D11*
G04 #@! TO.C,0805*
G36*
X141811167Y-72707694D02*
X141844536Y-72712644D01*
X141877259Y-72720841D01*
X141909021Y-72732205D01*
X141939517Y-72746629D01*
X141968451Y-72763971D01*
X141995547Y-72784067D01*
X142020542Y-72806721D01*
X142043196Y-72831716D01*
X142063292Y-72858812D01*
X142080634Y-72887746D01*
X142095058Y-72918242D01*
X142106422Y-72950004D01*
X142114619Y-72982727D01*
X142119569Y-73016096D01*
X142121224Y-73049789D01*
X142121224Y-73737289D01*
X142119569Y-73770982D01*
X142114619Y-73804351D01*
X142106422Y-73837074D01*
X142095058Y-73868836D01*
X142080634Y-73899332D01*
X142063292Y-73928266D01*
X142043196Y-73955362D01*
X142020542Y-73980357D01*
X141995547Y-74003011D01*
X141968451Y-74023107D01*
X141939517Y-74040449D01*
X141909021Y-74054873D01*
X141877259Y-74066237D01*
X141844536Y-74074434D01*
X141811167Y-74079384D01*
X141777474Y-74081039D01*
X140664974Y-74081039D01*
X140631281Y-74079384D01*
X140597912Y-74074434D01*
X140565189Y-74066237D01*
X140533427Y-74054873D01*
X140502931Y-74040449D01*
X140473997Y-74023107D01*
X140446901Y-74003011D01*
X140421906Y-73980357D01*
X140399252Y-73955362D01*
X140379156Y-73928266D01*
X140361814Y-73899332D01*
X140347390Y-73868836D01*
X140336026Y-73837074D01*
X140327829Y-73804351D01*
X140322879Y-73770982D01*
X140321224Y-73737289D01*
X140321224Y-73049789D01*
X140322879Y-73016096D01*
X140327829Y-72982727D01*
X140336026Y-72950004D01*
X140347390Y-72918242D01*
X140361814Y-72887746D01*
X140379156Y-72858812D01*
X140399252Y-72831716D01*
X140421906Y-72806721D01*
X140446901Y-72784067D01*
X140473997Y-72763971D01*
X140502931Y-72746629D01*
X140533427Y-72732205D01*
X140565189Y-72720841D01*
X140597912Y-72712644D01*
X140631281Y-72707694D01*
X140664974Y-72706039D01*
X141777474Y-72706039D01*
X141811167Y-72707694D01*
X141811167Y-72707694D01*
G37*
D23*
X141221224Y-73393539D03*
D11*
G36*
X141811167Y-74582696D02*
X141844536Y-74587646D01*
X141877259Y-74595843D01*
X141909021Y-74607207D01*
X141939517Y-74621631D01*
X141968451Y-74638973D01*
X141995547Y-74659069D01*
X142020542Y-74681723D01*
X142043196Y-74706718D01*
X142063292Y-74733814D01*
X142080634Y-74762748D01*
X142095058Y-74793244D01*
X142106422Y-74825006D01*
X142114619Y-74857729D01*
X142119569Y-74891098D01*
X142121224Y-74924791D01*
X142121224Y-75612291D01*
X142119569Y-75645984D01*
X142114619Y-75679353D01*
X142106422Y-75712076D01*
X142095058Y-75743838D01*
X142080634Y-75774334D01*
X142063292Y-75803268D01*
X142043196Y-75830364D01*
X142020542Y-75855359D01*
X141995547Y-75878013D01*
X141968451Y-75898109D01*
X141939517Y-75915451D01*
X141909021Y-75929875D01*
X141877259Y-75941239D01*
X141844536Y-75949436D01*
X141811167Y-75954386D01*
X141777474Y-75956041D01*
X140664974Y-75956041D01*
X140631281Y-75954386D01*
X140597912Y-75949436D01*
X140565189Y-75941239D01*
X140533427Y-75929875D01*
X140502931Y-75915451D01*
X140473997Y-75898109D01*
X140446901Y-75878013D01*
X140421906Y-75855359D01*
X140399252Y-75830364D01*
X140379156Y-75803268D01*
X140361814Y-75774334D01*
X140347390Y-75743838D01*
X140336026Y-75712076D01*
X140327829Y-75679353D01*
X140322879Y-75645984D01*
X140321224Y-75612291D01*
X140321224Y-74924791D01*
X140322879Y-74891098D01*
X140327829Y-74857729D01*
X140336026Y-74825006D01*
X140347390Y-74793244D01*
X140361814Y-74762748D01*
X140379156Y-74733814D01*
X140399252Y-74706718D01*
X140421906Y-74681723D01*
X140446901Y-74659069D01*
X140473997Y-74638973D01*
X140502931Y-74621631D01*
X140533427Y-74607207D01*
X140565189Y-74595843D01*
X140597912Y-74587646D01*
X140631281Y-74582696D01*
X140664974Y-74581041D01*
X141777474Y-74581041D01*
X141811167Y-74582696D01*
X141811167Y-74582696D01*
G37*
D23*
X141221224Y-75268541D03*
G04 #@! TD*
D11*
G04 #@! TO.C,1206*
G36*
X138442571Y-72747930D02*
X138474605Y-72752682D01*
X138506019Y-72760551D01*
X138536511Y-72771461D01*
X138565786Y-72785307D01*
X138593563Y-72801956D01*
X138619575Y-72821248D01*
X138643570Y-72842996D01*
X138665318Y-72866991D01*
X138684610Y-72893003D01*
X138701259Y-72920780D01*
X138715105Y-72950055D01*
X138726015Y-72980547D01*
X138733884Y-73011961D01*
X138738636Y-73043995D01*
X138740225Y-73076341D01*
X138740225Y-74066341D01*
X138738636Y-74098687D01*
X138733884Y-74130721D01*
X138726015Y-74162135D01*
X138715105Y-74192627D01*
X138701259Y-74221902D01*
X138684610Y-74249679D01*
X138665318Y-74275691D01*
X138643570Y-74299686D01*
X138619575Y-74321434D01*
X138593563Y-74340726D01*
X138565786Y-74357375D01*
X138536511Y-74371221D01*
X138506019Y-74382131D01*
X138474605Y-74390000D01*
X138442571Y-74394752D01*
X138410225Y-74396341D01*
X136920225Y-74396341D01*
X136887879Y-74394752D01*
X136855845Y-74390000D01*
X136824431Y-74382131D01*
X136793939Y-74371221D01*
X136764664Y-74357375D01*
X136736887Y-74340726D01*
X136710875Y-74321434D01*
X136686880Y-74299686D01*
X136665132Y-74275691D01*
X136645840Y-74249679D01*
X136629191Y-74221902D01*
X136615345Y-74192627D01*
X136604435Y-74162135D01*
X136596566Y-74130721D01*
X136591814Y-74098687D01*
X136590225Y-74066341D01*
X136590225Y-73076341D01*
X136591814Y-73043995D01*
X136596566Y-73011961D01*
X136604435Y-72980547D01*
X136615345Y-72950055D01*
X136629191Y-72920780D01*
X136645840Y-72893003D01*
X136665132Y-72866991D01*
X136686880Y-72842996D01*
X136710875Y-72821248D01*
X136736887Y-72801956D01*
X136764664Y-72785307D01*
X136793939Y-72771461D01*
X136824431Y-72760551D01*
X136855845Y-72752682D01*
X136887879Y-72747930D01*
X136920225Y-72746341D01*
X138410225Y-72746341D01*
X138442571Y-72747930D01*
X138442571Y-72747930D01*
G37*
D24*
X137665225Y-73571341D03*
D11*
G36*
X138442571Y-75547928D02*
X138474605Y-75552680D01*
X138506019Y-75560549D01*
X138536511Y-75571459D01*
X138565786Y-75585305D01*
X138593563Y-75601954D01*
X138619575Y-75621246D01*
X138643570Y-75642994D01*
X138665318Y-75666989D01*
X138684610Y-75693001D01*
X138701259Y-75720778D01*
X138715105Y-75750053D01*
X138726015Y-75780545D01*
X138733884Y-75811959D01*
X138738636Y-75843993D01*
X138740225Y-75876339D01*
X138740225Y-76866339D01*
X138738636Y-76898685D01*
X138733884Y-76930719D01*
X138726015Y-76962133D01*
X138715105Y-76992625D01*
X138701259Y-77021900D01*
X138684610Y-77049677D01*
X138665318Y-77075689D01*
X138643570Y-77099684D01*
X138619575Y-77121432D01*
X138593563Y-77140724D01*
X138565786Y-77157373D01*
X138536511Y-77171219D01*
X138506019Y-77182129D01*
X138474605Y-77189998D01*
X138442571Y-77194750D01*
X138410225Y-77196339D01*
X136920225Y-77196339D01*
X136887879Y-77194750D01*
X136855845Y-77189998D01*
X136824431Y-77182129D01*
X136793939Y-77171219D01*
X136764664Y-77157373D01*
X136736887Y-77140724D01*
X136710875Y-77121432D01*
X136686880Y-77099684D01*
X136665132Y-77075689D01*
X136645840Y-77049677D01*
X136629191Y-77021900D01*
X136615345Y-76992625D01*
X136604435Y-76962133D01*
X136596566Y-76930719D01*
X136591814Y-76898685D01*
X136590225Y-76866339D01*
X136590225Y-75876339D01*
X136591814Y-75843993D01*
X136596566Y-75811959D01*
X136604435Y-75780545D01*
X136615345Y-75750053D01*
X136629191Y-75720778D01*
X136645840Y-75693001D01*
X136665132Y-75666989D01*
X136686880Y-75642994D01*
X136710875Y-75621246D01*
X136736887Y-75601954D01*
X136764664Y-75585305D01*
X136793939Y-75571459D01*
X136824431Y-75560549D01*
X136855845Y-75552680D01*
X136887879Y-75547928D01*
X136920225Y-75546339D01*
X138410225Y-75546339D01*
X138442571Y-75547928D01*
X138442571Y-75547928D01*
G37*
D24*
X137665225Y-76371339D03*
G04 #@! TD*
D11*
G04 #@! TO.C,2010*
G36*
X129450112Y-72931706D02*
X129481571Y-72936372D01*
X129512420Y-72944099D01*
X129542364Y-72954814D01*
X129571114Y-72968411D01*
X129598392Y-72984761D01*
X129623937Y-73003706D01*
X129647501Y-73025064D01*
X129668859Y-73048628D01*
X129687804Y-73074173D01*
X129704154Y-73101451D01*
X129717751Y-73130201D01*
X129728466Y-73160145D01*
X129736193Y-73190994D01*
X129740859Y-73222453D01*
X129742420Y-73254218D01*
X129742420Y-74356072D01*
X129740859Y-74387837D01*
X129736193Y-74419296D01*
X129728466Y-74450145D01*
X129717751Y-74480089D01*
X129704154Y-74508839D01*
X129687804Y-74536117D01*
X129668859Y-74561662D01*
X129647501Y-74585226D01*
X129623937Y-74606584D01*
X129598392Y-74625529D01*
X129571114Y-74641879D01*
X129542364Y-74655476D01*
X129512420Y-74666191D01*
X129481571Y-74673918D01*
X129450112Y-74678584D01*
X129418347Y-74680145D01*
X127016493Y-74680145D01*
X126984728Y-74678584D01*
X126953269Y-74673918D01*
X126922420Y-74666191D01*
X126892476Y-74655476D01*
X126863726Y-74641879D01*
X126836448Y-74625529D01*
X126810903Y-74606584D01*
X126787339Y-74585226D01*
X126765981Y-74561662D01*
X126747036Y-74536117D01*
X126730686Y-74508839D01*
X126717089Y-74480089D01*
X126706374Y-74450145D01*
X126698647Y-74419296D01*
X126693981Y-74387837D01*
X126692420Y-74356072D01*
X126692420Y-73254218D01*
X126693981Y-73222453D01*
X126698647Y-73190994D01*
X126706374Y-73160145D01*
X126717089Y-73130201D01*
X126730686Y-73101451D01*
X126747036Y-73074173D01*
X126765981Y-73048628D01*
X126787339Y-73025064D01*
X126810903Y-73003706D01*
X126836448Y-72984761D01*
X126863726Y-72968411D01*
X126892476Y-72954814D01*
X126922420Y-72944099D01*
X126953269Y-72936372D01*
X126984728Y-72931706D01*
X127016493Y-72930145D01*
X129418347Y-72930145D01*
X129450112Y-72931706D01*
X129450112Y-72931706D01*
G37*
D19*
X128217420Y-73805145D03*
D11*
G36*
X129450112Y-77431706D02*
X129481571Y-77436372D01*
X129512420Y-77444099D01*
X129542364Y-77454814D01*
X129571114Y-77468411D01*
X129598392Y-77484761D01*
X129623937Y-77503706D01*
X129647501Y-77525064D01*
X129668859Y-77548628D01*
X129687804Y-77574173D01*
X129704154Y-77601451D01*
X129717751Y-77630201D01*
X129728466Y-77660145D01*
X129736193Y-77690994D01*
X129740859Y-77722453D01*
X129742420Y-77754218D01*
X129742420Y-78856072D01*
X129740859Y-78887837D01*
X129736193Y-78919296D01*
X129728466Y-78950145D01*
X129717751Y-78980089D01*
X129704154Y-79008839D01*
X129687804Y-79036117D01*
X129668859Y-79061662D01*
X129647501Y-79085226D01*
X129623937Y-79106584D01*
X129598392Y-79125529D01*
X129571114Y-79141879D01*
X129542364Y-79155476D01*
X129512420Y-79166191D01*
X129481571Y-79173918D01*
X129450112Y-79178584D01*
X129418347Y-79180145D01*
X127016493Y-79180145D01*
X126984728Y-79178584D01*
X126953269Y-79173918D01*
X126922420Y-79166191D01*
X126892476Y-79155476D01*
X126863726Y-79141879D01*
X126836448Y-79125529D01*
X126810903Y-79106584D01*
X126787339Y-79085226D01*
X126765981Y-79061662D01*
X126747036Y-79036117D01*
X126730686Y-79008839D01*
X126717089Y-78980089D01*
X126706374Y-78950145D01*
X126698647Y-78919296D01*
X126693981Y-78887837D01*
X126692420Y-78856072D01*
X126692420Y-77754218D01*
X126693981Y-77722453D01*
X126698647Y-77690994D01*
X126706374Y-77660145D01*
X126717089Y-77630201D01*
X126730686Y-77601451D01*
X126747036Y-77574173D01*
X126765981Y-77548628D01*
X126787339Y-77525064D01*
X126810903Y-77503706D01*
X126836448Y-77484761D01*
X126863726Y-77468411D01*
X126892476Y-77454814D01*
X126922420Y-77444099D01*
X126953269Y-77436372D01*
X126984728Y-77431706D01*
X127016493Y-77430145D01*
X129418347Y-77430145D01*
X129450112Y-77431706D01*
X129450112Y-77431706D01*
G37*
D19*
X128217420Y-78305145D03*
G04 #@! TD*
M02*
